<svg xmlns="http://www.w3.org/2000/svg" xml:space="preserve" id="logo" x="0" y="0" class="AppLogo__StyledAmsterdamLogo-sc-1fq0qc5-1 bylAES" viewBox="0 0 115 33">
	<style>
		#Gemeente-Amsterdam {
			fill: #EC0000;
		}
    	<!-- @media (prefers-color-scheme: dark) {
			#Gemeente-Amsterdam {
				fill: #ffffff;
			}
		} -->
	</style>
  <g transform="translate(0 -.063)">
    <g id="Gemeente-Amsterdam">
      <path d="M29.853 5.9h-5v1.9h2.7v3.3c-.8.3-1.6.5-2.6.5-2.9 0-4.6-2-4.6-4.8 0-2.7 1.8-4.8 4.5-4.8 1.4 0 2.7.6 3.3 1.3l1.7-1.7c-1-1-2.9-1.6-5-1.6-4 0-7 2.6-7 6.8 0 4.1 2.9 6.9 7.1 6.9 2 0 3.6-.4 4.9-1V5.9zM34.253 8.1c.1-1.2 1.1-2.1 2.4-2.1 1.4 0 2.1 1 2.1 2.1h-4.5zm6.7 1c0-3.2-1.8-4.8-4.3-4.8-2.7 0-4.7 1.9-4.7 4.7 0 2.9 2 4.6 4.7 4.6 1.7 0 2.9-.6 3.8-1.8l-1.5-1.2c-.5.7-1.2 1.1-2.3 1.1-1.3 0-2.4-.9-2.5-2.2h6.7c.1-.1.1-.2.1-.4zM53.653 4.3c-1.3 0-2.3.6-2.9 1.7-.5-1-1.4-1.7-2.8-1.7s-2.4.8-2.7 1.7V4.5h-2.1v8.8h2.2V8.5c0-1.2.6-2.4 1.9-2.4 1.1 0 1.6.8 1.6 1.9v5.3h2.2V8.5c0-1.1.6-2.4 2-2.4s1.7 1.3 1.7 2.4v4.9h2.2V7.8c0-1.8-1-3.5-3.3-3.5zM61.153 8.1c.1-1.2 1.1-2.1 2.4-2.1 1.4 0 2.1 1 2.1 2.1h-4.5zm6.8 1c0-3.2-1.8-4.8-4.3-4.8-2.7 0-4.7 1.9-4.7 4.7 0 2.9 2 4.6 4.7 4.6 1.7 0 2.9-.6 3.8-1.8l-1.5-1.2c-.5.7-1.2 1.1-2.3 1.1-1.3 0-2.4-.9-2.5-2.2h6.7c.1-.1.1-.2.1-.4zM71.753 8.1c.1-1.3 1.1-2.2 2.4-2.2 1.4 0 2.1 1 2.1 2.1h-4.5zm6.7 1c0-3.2-1.8-4.8-4.3-4.8-2.7 0-4.7 1.9-4.7 4.7 0 2.9 2 4.6 4.7 4.6 1.7 0 2.9-.6 3.8-1.8l-1.5-1.2c-.5.7-1.2 1.1-2.3 1.1-1.3 0-2.4-.9-2.5-2.2h6.7c.1-.1.1-.2.1-.4zM80.653 13.4h2.2V8.5c0-1.2.7-2.4 2.1-2.4 1.4 0 1.7 1.3 1.7 2.4v4.9h2.2V7.8c0-1.8-1-3.6-3.3-3.6-1.3 0-2.4.8-2.7 1.7V4.5h-2.1v8.9zM91.653 6.3v4.1c0 1.7.5 3.1 2.9 3.1.5 0 1.1-.1 1.5-.2l-.2-1.7c-.3.1-.6.2-.9.2-1 0-1.2-.6-1.2-1.4V6.3h2.2V4.5h-2.2V2h-2.2v2.6h-1.5v1.8h1.6zM99.253 8.1c.1-1.2 1.1-2.1 2.4-2.1 1.4 0 2.1 1 2.1 2.1h-4.5zm6.8 1c0-3.2-1.8-4.8-4.3-4.8-2.7 0-4.7 1.9-4.7 4.7 0 2.9 2 4.6 4.7 4.6 1.7 0 2.9-.6 3.8-1.8l-1.5-1.2c-.5.7-1.2 1.1-2.3 1.1-1.3 0-2.4-.9-2.5-2.2h6.7c.1-.1.1-.2.1-.4zM16.853 32.6h2.6l1.2-3h5.6l1.2 3h2.6l-5.6-13h-2l-5.6 13zm4.6-4.9 2-5.3 2 5.3h-4zM41.853 23.5c-1.3 0-2.3.6-2.9 1.7-.5-1-1.4-1.7-2.8-1.7s-2.4.8-2.7 1.7v-1.4h-2.1v8.8h2.2v-4.9c0-1.2.6-2.4 1.9-2.4 1.1 0 1.6.8 1.6 1.9v5.3h2.2v-4.8c0-1.1.6-2.4 2-2.4s1.7 1.3 1.7 2.4v4.9h2.2v-5.5c0-1.8-1-3.6-3.3-3.6zM53.953 24.9c-.7-.9-2-1.3-3.3-1.3-1.7 0-3.5.8-3.5 2.8 0 1.7 1.3 2.2 2.6 2.5 1.3.3 2 .5 2 1.3s-.8 1-1.4 1c-1 0-1.8-.5-2.3-1.1l-1.5 1.4c.8.9 2.3 1.5 3.6 1.5 1.9 0 3.7-.8 3.7-2.9 0-1.7-1.5-2.3-2.9-2.6-1.2-.3-1.9-.5-1.9-1.2s.7-1 1.4-1c.8 0 1.5.4 1.9 1l1.6-1.4zM56.153 25.6v4.1c0 1.7.5 3.1 2.9 3.1.5 0 1.1-.1 1.5-.2l-.1-1.7c-.3.1-.7.1-1 .1-1 0-1.2-.6-1.2-1.4v-4.1h2.2v-1.8h-2.2v-2.6h-2.2v2.6h-1.5v1.8h1.6zM63.853 27.3c.1-1.2 1.1-2.1 2.4-2.1 1.4 0 2.1 1 2.1 2.1h-4.5zm6.7 1c0-3.2-1.8-4.8-4.3-4.8-2.7 0-4.7 1.9-4.7 4.7 0 2.9 2 4.6 4.7 4.6 1.7 0 2.9-.6 3.8-1.8l-1.4-1c-.5.7-1.2 1.1-2.3 1.1-1.3 0-2.4-.9-2.5-2.2h6.7v-.6zM72.653 32.6h2.2v-4.7c0-.6.4-2.4 2.4-2.4.2 0 .4 0 .7.1v-2c-.1 0-.4-.1-.5-.1-1.2 0-2.1.7-2.6 1.7v-1.5h-2.1v8.9zM88.053 18.7h-2.2v6.2h-.1c-.5-.6-1.3-1.4-3-1.4-2.5 0-4.3 2-4.3 4.6 0 2.6 1.7 4.7 4.3 4.7 1.2 0 2.4-.6 3-1.6v1.3h2.1V18.7zm-7.3 9.5c0-1.4.8-2.8 2.5-2.8 1.6 0 2.6 1.5 2.6 2.9s-1 2.8-2.6 2.8c-1.7 0-2.5-1.5-2.5-2.9zM96.253 32.6h2.1v-5.4c0-1.8-.8-3.7-3.9-3.7-1.3 0-2.7.5-3.7 1.4l1.1 1.3c.6-.6 1.5-1 2.4-1 1.1 0 2 .5 2 1.6v.2c-2.8 0-6.1.4-6.1 3 0 2.1 1.9 2.7 3.3 2.7 1.3 0 2.3-.6 2.7-1.3h.1v1.2zm-.1-3.7c0 1.4-.8 2.3-2.3 2.3-.8 0-1.5-.3-1.5-1.1 0-1.3 2-1.5 3.4-1.5h.5v.3zM111.353 23.5c-1.3 0-2.3.6-2.9 1.7-.5-1-1.4-1.7-2.8-1.7s-2.4.8-2.7 1.7v-1.4h-2.1v8.8h2.2v-4.9c0-1.2.6-2.4 1.9-2.4 1.1 0 1.6.8 1.6 1.9v5.3h2.3v-4.8c0-1.1.6-2.4 2-2.4s1.7 1.3 1.7 2.4v4.9h2.2v-5.5c-.1-1.8-1.1-3.6-3.4-3.6z" class="st0"/>
	  <path d="m0 31.182 3-3-3-2.9 2-1.9 3 2.9 3-2.9 2 1.9-3 2.9 3 3-2 1.9-3-2.9-3 2.9zM0 7.882l3-2.9-3-3 2-1.9 3 2.9 3-2.9 2 1.9-3 3 3 2.9-2 1.9-3-2.9-3 2.9zM0 19.482l3-2.9-3-2.9 2-1.9 3 2.9 3-2.9 2 1.9-3 2.9 3 2.9-2 2-3-3-3 3z" class="st1"/>
    </g>
  </g>
</svg>
