<svg viewBox="0 0 24 24" xmlns="http://www.w3.org/2000/svg"><path fill-rule="evenodd" clip-rule="evenodd" d="M12.0002 8.0265C9.82827 8.0265 8.06759 9.8055 8.06759 12C8.06759 14.1945 9.82827 15.9735 12.0002 15.9735C14.1721 15.9735 15.9328 14.1945 15.9328 12C15.9328 9.8055 14.1721 8.0265 12.0002 8.0265ZM10.0339 12C10.0339 10.9028 10.9142 10.0133 12.0002 10.0133C13.0861 10.0133 13.9665 10.9028 13.9665 12C13.9665 13.0973 13.0861 13.9868 12.0002 13.9868C10.9142 13.9868 10.0339 13.0973 10.0339 12Z"/><path fill-rule="evenodd" clip-rule="evenodd" d="M19.4916 19.8775L22.5 14.6126L20.3469 12.3675V11.6325L22.5 9.38742L19.4916 4.12252L16.493 4.87748L15.8539 4.50993L15.0084 1.5H8.99157L8.14607 4.50993L7.50702 4.87748L4.50843 4.12252L1.5 9.38742L3.65309 11.6325V12.3675L1.5 14.6126L4.50843 19.8775L7.50702 19.1225L8.14607 19.4901L8.99157 22.5H15.0084L15.8539 19.4901L16.493 19.1225L19.4916 19.8775ZM18.3806 10.8278V13.1722L20.055 14.9181L18.5295 17.5877L16.2045 17.0024L14.182 18.1656L13.5226 20.5132H10.4774L9.81797 18.1656L7.79553 17.0024L5.47053 17.5877L3.94505 14.9181L5.61938 13.1722V10.8278L3.94505 9.08192L5.47053 6.41225L7.79553 6.99763L9.81797 5.83441L10.4774 3.48676H13.5226L14.182 5.83441L16.2045 6.99763L18.5295 6.41225L20.055 9.08192L18.3806 10.8278Z"/></svg>