<svg viewBox="0 0 24 24" xmlns="http://www.w3.org/2000/svg"><path fill-rule="evenodd" clip-rule="evenodd" d="M14.248 2.02939C13.7181 2.55051 13.3907 3.36597 13.8525 4.02939H7.98242C7.48426 4.02949 7.06188 4.39653 6.99219 4.88974L6.12402 9.27939H16.415L15.8369 6.35556C16.4777 6.73474 17.253 6.76574 17.8369 6.26864L18.54 10.0294L17.8525 22.9994H4.6875L4 10.0294L5.01172 4.61142C5.22017 3.13087 6.48724 2.02949 7.98242 2.02939H14.248ZM6.62109 20.9994H15.9189L16.5136 10.7794H6.02539L6.62109 20.9994Z"/><path d="M13.4433 5.02939C13.9319 5.0296 14.3492 5.38344 14.4296 5.86532L14.5957 6.86532C14.6971 7.47474 14.2272 8.02939 13.6093 8.02939H8.93066C8.31282 8.02939 7.84294 7.47474 7.94434 6.86532L8.11035 5.86532C8.19082 5.38344 8.60814 5.0296 9.09668 5.02939H13.4433Z"/><path d="M17.3545 1.92685C18.1013 0.172794 19.3233 1.24131 19.8964 2.3995C20.4691 3.55751 18.4608 4.93611 17.6923 4.35556C17.5425 5.16066 17.2726 5.58311 16.9082 5.64364C16.548 5.70438 16.1824 5.431 15.9492 5.1788C15.5737 4.73297 15.6125 4.22785 15.9589 3.76962C15.0339 3.76574 14.6723 3.59181 14.6269 3.3497C14.5247 2.79871 15.3611 2.37721 15.7353 2.15146C15.5556 0.856089 16.781 0.768574 17.3545 1.92685Z"/></svg>