<svg viewBox="0 0 24 24" xmlns="http://www.w3.org/2000/svg"><path fill-rule="evenodd" clip-rule="evenodd" d="M16.2986 3.13826L15.8373 4.40571C16.2844 3.83458 16.846 3.32391 17.4678 3.17057C18.2615 2.97485 19.5247 3.2696 20.5927 3.62941C21.1727 3.8248 21.695 4.03937 22.0534 4.205C21.8131 4.51824 21.4504 4.95108 21.0278 5.3937C20.2495 6.20879 19.2682 7.05706 18.4745 7.25278C17.9893 7.37243 17.4354 7.28245 16.9013 7.09567C17.3052 7.42834 17.6763 7.79353 18.0119 8.18578C18.4685 8.7193 18.8596 9.30289 19.1788 9.92284C18.5001 10.0883 17.8817 10.3769 17.3668 10.7735C16.7855 11.2211 16.3362 11.8063 16.081 12.5073C15.7755 13.3466 15.79 14.2376 16.0665 15.0831C15.2846 15.6264 14.6689 16.387 14.3293 17.32C13.9683 18.312 13.9715 19.3552 14.2727 20.3235C14.4688 20.9541 14.7913 21.5529 15.2218 22.0852C14.6011 22.3972 13.9449 22.6376 13.2668 22.8C11.6095 23.197 9.82117 23.1284 8.09991 22.5019C6.413 21.888 5.02121 20.8221 4.01149 19.4907C3.58648 18.9304 3.22916 18.323 2.94601 17.6824C3.62223 17.5657 4.26063 17.3278 4.82488 16.9835C5.7253 16.4342 6.43687 15.6142 6.81186 14.5839C7.15739 13.6345 7.16927 12.6382 6.90561 11.7055C7.6802 11.2344 8.27933 10.5519 8.5903 9.69748C8.85123 8.98056 8.87895 8.22595 8.70947 7.49428C8.5626 6.86024 8.26764 6.24344 7.84805 5.68335C8.50047 5.42324 9.18397 5.23875 9.88453 5.13639C11.0238 4.96995 12.2081 5.02072 13.3773 5.31682L14.4192 2.45422L16.2986 3.13826ZM16.9107 5.47318C16.9506 5.41835 16.9917 5.36398 17.034 5.31055C17.415 4.82922 17.7072 4.65648 17.827 4.62694C18.0294 4.57702 18.5864 4.61014 19.4413 4.84462L19.45 4.84701L19.4434 4.85316C18.7955 5.45822 18.3178 5.74649 18.1154 5.79641C17.9956 5.82595 17.6566 5.80887 17.0955 5.55987C17.0332 5.53223 16.9715 5.50321 16.9107 5.47318ZM14.7051 9.18512C15.0083 8.94198 15.4397 8.8259 15.8972 8.87135C15.998 8.9634 16.0958 9.05819 16.1907 9.15557C15.3169 9.81453 14.6083 10.7059 14.2016 11.8233C13.8989 12.6549 13.8047 13.5073 13.8804 14.3339C13.2665 14.9771 12.7722 15.7506 12.4499 16.636C11.9757 17.939 11.9434 19.2796 12.2537 20.5254C11.7447 20.2319 11.3871 19.817 11.2667 19.3978C10.8013 19.7114 10.0397 19.7671 9.28225 19.4915C8.52482 19.2158 7.97717 18.6835 7.82225 18.1442C7.4606 18.3879 6.92005 18.4758 6.34158 18.3735C7.38007 17.6188 8.21685 16.5713 8.69124 15.2679C9.01888 14.3677 9.13591 13.4421 9.0722 12.541C9.67518 11.951 10.1618 11.2274 10.4697 10.3815C10.8762 9.26465 10.9068 8.12731 10.6619 7.06151C10.7672 7.05365 10.873 7.04818 10.979 7.04514C11.4346 7.30534 11.7439 7.71248 11.8287 8.13818C12.243 7.80596 12.8967 7.71095 13.5292 7.94117C14.1617 8.17139 14.6014 8.66436 14.7051 9.18512Z"/></svg>