<svg viewBox="0 0 24 24" xmlns="http://www.w3.org/2000/svg"><path fill-rule="evenodd" clip-rule="evenodd" d="M11.9995 5.89648C14.3948 5.89675 16.3374 7.83906 16.3374 10.2344L16.3315 10.457C16.2152 12.7484 14.3198 14.571 11.9995 14.5713C9.67927 14.571 7.78485 12.7484 7.66846 10.457L7.6626 10.2344C7.6626 7.83905 9.60426 5.89675 11.9995 5.89648ZM11.9995 7.89648C10.7088 7.89675 9.6626 8.94362 9.6626 10.2344C9.66313 11.5247 10.7092 12.571 11.9995 12.5713C13.2899 12.571 14.3369 11.5247 14.3374 10.2344C14.3374 8.94362 13.2902 7.89675 11.9995 7.89648Z"/><path fill-rule="evenodd" clip-rule="evenodd" d="M11.9995 1C19.7322 1.00013 21.8422 7.3868 21.8423 10.2256L21.8374 10.4912C21.6382 16.0647 15.2291 21.137 11.9995 23C8.71873 21.1074 2.15771 15.9029 2.15771 10.2256C2.15782 7.3868 4.26688 1.00017 11.9995 1ZM11.9995 3C8.7716 3.00008 6.89209 4.29418 5.76709 5.76367C4.56989 7.32769 4.15777 9.19454 4.15771 10.2256C4.15771 12.319 5.39663 14.5703 7.32568 16.6846C8.83016 18.3335 10.5911 19.7135 11.9995 20.6436C13.4079 19.7136 15.1688 18.3335 16.6733 16.6846C18.6023 14.5703 19.8423 12.319 19.8423 10.2256C19.8422 9.19457 19.43 7.32767 18.2329 5.76367C17.1079 4.29405 15.2277 3.00007 11.9995 3Z"/></svg>