<svg viewBox="0 0 24 24" xmlns="http://www.w3.org/2000/svg"><path d="M9 8.48108C9 9.31059 8.32843 9.98304 7.5 9.98304C6.67157 9.98304 6 9.31059 6 8.48108C6 7.65157 6.67157 6.97912 7.5 6.97912C8.32843 6.97912 9 7.65157 9 8.48108Z"/><path d="M12.75 13.2373C13.3023 13.2373 13.75 12.789 13.75 12.236C13.75 11.683 13.3023 11.2347 12.75 11.2347C12.1977 11.2347 11.75 11.683 11.75 12.236C11.75 12.789 12.1977 13.2373 12.75 13.2373Z"/><path d="M10.25 14.7392C10.25 16.1218 9.13071 17.2425 7.75 17.2425C6.36929 17.2425 5.25 16.1218 5.25 14.7392C5.25 13.3567 6.36929 12.236 7.75 12.236C9.13071 12.236 10.25 13.3567 10.25 14.7392Z"/><path d="M17 16.4915C17 17.321 16.3284 17.9935 15.5 17.9935C14.6716 17.9935 14 17.321 14 16.4915C14 15.662 14.6716 14.9896 15.5 14.9896C16.3284 14.9896 17 15.662 17 16.4915Z"/><path fill-rule="evenodd" clip-rule="evenodd" d="M16.5 7.98039C16.7354 7.98039 16.9673 7.96559 17.1949 7.93685C17.7928 10.1225 19.7018 11.7654 22.0226 11.9652C22.18 11.9787 22.3392 11.9856 22.5 11.9856C22.6685 11.9856 22.8353 11.978 23 11.9632L23 11.9856C23 12.6662 22.9383 13.3324 22.8203 13.9789C21.8836 19.1104 17.3954 23 12 23C5.92487 23 1 18.0687 1 11.9856C1 6.91424 4.42295 2.64337 9.08171 1.36306C9.7633 1.17574 10.4713 1.05243 11.199 1C11.0693 1.46891 11 1.96295 11 2.4732C11 2.65881 11.0092 2.84227 11.0271 3.02315C11.3027 5.80648 13.6478 7.98039 16.5 7.98039ZM12 21C16.3495 21 19.9814 17.9085 20.8184 13.7963C18.6557 13.3006 16.8518 11.8692 15.8504 9.95264C12.3381 9.65113 9.51984 6.92737 9.06441 3.46135C5.53691 4.67991 3 8.03536 3 11.9856C3 16.9666 7.0319 21 12 21Z"/></svg>