<svg viewBox="0 0 24 24" xmlns="http://www.w3.org/2000/svg"><path d="M14.2964 2.5C12.8588 2.5 10.7483 2.97962 8.97671 4.42521C7.71198 5.45723 6.66435 6.94616 6.14625 9H4V11H5.83164C5.80842 11.3225 5.79643 11.6557 5.79643 12C5.79643 12.3062 5.81213 12.6424 5.84693 13H4V15H6.21588C6.47606 15.9511 6.8736 16.9377 7.45236 17.8487C8.73858 19.8733 10.9147 21.5 14.2964 21.5C15.3363 21.5 17.7284 21.035 19.9211 19.2809L18.6717 17.7191C16.8644 19.165 14.9232 19.5 14.2964 19.5C11.6782 19.5 10.1043 18.2933 9.1405 16.7763C8.78348 16.2143 8.50989 15.6069 8.30573 15H15.2964C15.8487 15 16.2964 14.5523 16.2964 14C16.2964 13.4477 15.8487 13 15.2964 13H7.85818C7.81568 12.6395 7.79643 12.3018 7.79643 12C7.79643 11.6508 7.8106 11.3177 7.83759 11H15.2964C15.8487 11 16.2964 10.5523 16.2964 10C16.2964 9.44772 15.8487 9 15.2964 9H8.22509C8.67242 7.6085 9.42193 6.64327 10.2412 5.97479C11.5946 4.87038 13.234 4.5 14.2964 4.5C16.3566 4.5 18.0499 5.66764 18.5893 6.20711L20.0035 4.79289C19.2097 3.99903 17.0363 2.5 14.2964 2.5Z"/></svg>