<svg viewBox="0 0 24 24" xmlns="http://www.w3.org/2000/svg"><path d="M2 7C2.55228 7 3 6.55228 3 6C3 5.44772 2.55228 5 2 5C1.44772 5 1 5.44772 1 6C1 6.55228 1.44772 7 2 7Z"/><path d="M5 7H23V5H5V7Z"/><path d="M23 13H5V11H23V13Z"/><path d="M2 13C2.55228 13 3 12.5523 3 12C3 11.4477 2.55228 11 2 11C1.44772 11 1 11.4477 1 12C1 12.5523 1.44772 13 2 13Z"/><path d="M23 19H5V17H23V19Z"/><path d="M2 19C2.55228 19 3 18.5523 3 18C3 17.4477 2.55228 17 2 17C1.44772 17 1 17.4477 1 18C1 18.5523 1.44772 19 2 19Z"/></svg>