<svg viewBox="0 0 24 24" xmlns="http://www.w3.org/2000/svg"><path d="M10.4999 12.52C11.0899 13.56 12.1199 14.25 13.2899 14.25H13.2999C14.0899 14.25 14.8599 13.92 15.4599 13.34L16.4999 14.42C15.6099 15.28 14.4699 15.75 13.2899 15.75C11.2899 15.75 9.56989 14.42 8.83989 12.52H7.63989V11.02H8.50989C8.50489 10.975 8.49927 10.93 8.49364 10.885C8.47677 10.75 8.45989 10.615 8.45989 10.48C8.45989 10.345 8.47677 10.21 8.49364 10.075C8.49927 10.03 8.50489 9.985 8.50989 9.94H7.63989V8.44H8.82989C9.55989 6.54 11.2799 5.21 13.2799 5.21C14.4799 5.21 15.6299 5.69 16.5199 6.57L15.4699 7.64C14.8699 7.04 14.0899 6.71 13.2899 6.71C12.1199 6.71 11.0899 7.4 10.4999 8.44H13.7299V9.94H10.0099C10.0049 9.985 9.99927 10.03 9.99364 10.075C9.97677 10.21 9.95989 10.345 9.95989 10.48C9.95989 10.615 9.97677 10.75 9.99364 10.885C9.99927 10.93 10.0049 10.975 10.0099 11.02H13.7299V12.52H10.4999Z"/><path fill-rule="evenodd" clip-rule="evenodd" d="M4 22V2H20V16.21L17.43 22H4ZM18 4H6V20.01H15.56L14.18 18.46L18 15.63V4Z"/></svg>