<svg viewBox="0 0 24 24" xmlns="http://www.w3.org/2000/svg"><path d="M8.06543 2.56656C7.05464 2.61425 6.36436 2.77556 5.76092 3.01268C5.13639 3.25607 4.60705 3.58268 4.08037 4.11126C3.55369 4.63984 3.22936 5.16956 2.98768 5.79504C2.75379 6.39981 2.59533 7.09065 2.55068 8.10202C2.50603 9.11339 2.49615 9.43848 2.50109 12.0183C2.50603 14.5981 2.51743 14.9215 2.56645 15.935C2.61471 16.9456 2.77545 17.6357 3.01257 18.2393C3.25634 18.8638 3.58257 19.393 4.11134 19.9198C4.64011 20.4467 5.16945 20.7703 5.79645 21.0123C6.40065 21.2458 7.09168 21.4051 8.10286 21.4493C9.11404 21.4936 9.43951 21.5039 12.0186 21.4989C14.5976 21.494 14.9223 21.4826 15.9356 21.4345C16.9489 21.3864 17.6354 21.2246 18.2392 20.9886C18.8637 20.7442 19.3932 20.4186 19.9197 19.8896C20.4462 19.3607 20.7704 18.8306 21.0118 18.2047C21.2459 17.6005 21.405 16.9095 21.4488 15.8991C21.4931 14.885 21.5036 14.5613 21.4986 11.9818C21.4937 9.40238 21.4821 9.079 21.434 8.06592C21.386 7.05284 21.225 6.36485 20.9881 5.76084C20.7439 5.13631 20.4181 4.60754 19.8895 4.08029C19.3609 3.55304 18.8305 3.22909 18.2048 2.98817C17.6002 2.75428 16.9096 2.59487 15.8984 2.55117C14.8872 2.50747 14.5617 2.49626 11.9817 2.5012C9.4017 2.50614 9.0787 2.51716 8.06543 2.56656ZM8.17639 19.7403C7.25014 19.7 6.74721 19.5461 6.41205 19.4173C5.96821 19.2463 5.65205 19.0396 5.31803 18.7088C4.98401 18.378 4.77881 18.0607 4.60553 17.6178C4.47538 17.2826 4.31863 16.7803 4.27531 15.854C4.22819 14.8529 4.21831 14.5523 4.2128 12.016C4.20729 9.47971 4.21698 9.17951 4.26087 8.17802C4.30039 7.25253 4.45524 6.74903 4.58387 6.41406C4.75487 5.96965 4.96083 5.65406 5.29238 5.32023C5.62393 4.9864 5.94028 4.78082 6.38355 4.60754C6.71833 4.47682 7.22069 4.3214 8.14656 4.27732C9.14843 4.22982 9.44864 4.22032 11.9846 4.21481C14.5205 4.2093 14.8215 4.2188 15.8237 4.26288C16.7492 4.30316 17.2529 4.45649 17.5875 4.58588C18.0315 4.75688 18.3475 4.96227 18.6813 5.29439C19.0151 5.62651 19.2209 5.94172 19.3942 6.38594C19.5251 6.71977 19.6805 7.22194 19.7242 8.14838C19.7719 9.15025 19.7827 9.45064 19.7873 11.9864C19.7919 14.5221 19.7829 14.8233 19.739 15.8244C19.6986 16.7506 19.545 17.2538 19.416 17.5893C19.245 18.0329 19.0389 18.3493 18.7071 18.6829C18.3754 19.0166 18.0594 19.2222 17.616 19.3954C17.2816 19.526 16.7786 19.6818 15.8535 19.7258C14.8517 19.773 14.5515 19.7828 12.0146 19.7884C9.4777 19.7939 9.17845 19.7836 8.17658 19.7403M15.921 6.92269C15.9214 7.14818 15.9886 7.36849 16.1142 7.55576C16.2398 7.74303 16.4181 7.88885 16.6266 7.97478C16.835 8.0607 17.0643 8.08287 17.2854 8.03849C17.5065 7.9941 17.7094 7.88515 17.8686 7.72541C18.0277 7.56568 18.1359 7.36233 18.1795 7.1411C18.2231 6.91986 18.2001 6.69067 18.1134 6.48251C18.0267 6.27436 17.8802 6.09658 17.6925 5.97168C17.5047 5.84677 17.2842 5.78034 17.0587 5.78079C16.7564 5.7814 16.4668 5.90203 16.2534 6.11617C16.0401 6.33031 15.9205 6.62041 15.921 6.92269ZM7.12208 12.0096C7.1274 14.7038 9.31544 16.8829 12.0091 16.8777C14.7027 16.8726 16.8833 14.6848 16.8782 11.9906C16.8731 9.29636 14.6845 7.11668 11.9905 7.122C9.29644 7.12732 7.11695 9.31574 7.12208 12.0096ZM8.83322 12.0061C8.83199 11.3798 9.0165 10.7672 9.36343 10.2458C9.71037 9.7243 10.2041 9.31743 10.7823 9.07661C11.3605 8.83578 11.9971 8.77181 12.6116 8.89278C13.2261 9.01375 13.791 9.31424 14.2347 9.75623C14.6785 10.1982 14.9812 10.7619 15.1046 11.3759C15.228 11.99 15.1666 12.6268 14.928 13.2059C14.6895 13.7851 14.2846 14.2804 13.7645 14.6294C13.2444 14.9784 12.6325 15.1654 12.0062 15.1666C11.5903 15.1675 11.1784 15.0864 10.7938 14.9281C10.4093 14.7697 10.0597 14.5371 9.76506 14.2436C9.47041 13.9502 9.23646 13.6015 9.07657 13.2176C8.91669 12.8337 8.834 12.422 8.83322 12.0061Z"/></svg>