<svg viewBox="0 0 24 24" xmlns="http://www.w3.org/2000/svg"><path d="M12 10C12.5572 10 13.0089 9.55228 13.0089 9C13.0089 8.44772 12.5572 8 12 8C11.4428 8 10.991 8.44772 10.991 9C10.991 9.55228 11.4428 10 12 10Z"/><path fill-rule="evenodd" clip-rule="evenodd" d="M5.03735 9C5.03735 13 9.64577 16.6667 12 18C14.3542 16.6667 18.9626 13 18.9626 9C18.9626 6.5 17.4492 2.5 12 2.5C6.45077 2.5 5.03735 6.5 5.03735 9ZM12 12C13.6717 12 15.0268 10.6569 15.0268 9C15.0268 7.34315 13.6717 6 12 6C10.3283 6 8.97314 7.34315 8.97314 9C8.97314 10.6569 10.3283 12 12 12Z"/><path d="M7.25927 17.6508C7.61869 17.2315 7.57013 16.6002 7.15081 16.2408C6.73148 15.8813 6.10018 15.9299 5.74076 16.3492L2.74076 19.8492C2.4866 20.1457 2.42832 20.5631 2.5915 20.9179C2.75469 21.2727 3.10948 21.5 3.50001 21.5H19.9971C21.2786 21.5 21.97 19.9968 21.136 19.0238L18.8435 16.3492C18.484 15.9299 17.8527 15.8813 17.4334 16.2408C17.0141 16.6002 16.9655 17.2315 17.325 17.6508L18.91 19.5H5.67423L7.25927 17.6508Z"/></svg>