<svg xmlns="http://www.w3.org/2000/svg" width="4070" height="1417">
  <path fill="#e20714" d="m0 1333.667 124.988-124.992L0 1083.671l83.333-83.334 125 125 125-125 83.334 83.334-125 125.004 125 124.992L333.333 1417l-125-124.992-125 124.992zM.012 332.877l125-125.004-125-125.008L83.333-.46l125.012 125 125-125 83.334 83.325-125.012 125.008 125.012 125.004-83.334 83.33-125-125.004L83.357 416.207zM.012 833.703l125-124.995L.012 583.7l83.338-83.337 124.995 125.004 125-125.004 83.334 83.337-124.996 125.007 124.996 124.995-83.334 83.33-125-124.992L83.35 917.033z"/>
  <g fill="#e20714">
    <path d="M582.401 303.638c0-134.327 92.477-226.803 226.13-226.803 64.125 0 119.476 22.949 161.325 66.15l-58.726 56.701c-24.975-28.35-60.75-43.876-101.926-43.876-79.651 0-135.002 60.753-135.002 148.503 0 87.077 56.026 148.502 135.677 148.502 41.852 0 80.326-16.2 104.627-43.876l58.05 56.026c-39.825 43.201-97.2 66.826-163.352 66.826-133.651 0-226.803-93.15-226.803-228.153M1077.844 147.71c-29.027 0-49.951-20.25-49.951-48.6s20.924-48.602 49.95-48.602c29.025 0 49.952 20.252 49.952 48.602s-20.927 48.6-49.951 48.6m-41.852 42.526h83.702V523.69h-83.702zM1231.74 404.215V259.763h-57.375v-69.527h30.375c27.675 0 38.477-10.8 38.477-38.474V99.784h71.55v90.452h81v69.527h-81v144.452c0 32.4 16.875 50.625 47.926 50.625 9.45 0 20.925-1.35 27.675-3.375v70.202c-10.125 2.7-29.026 4.724-43.876 4.724-75.6 0-114.752-41.85-114.752-122.176M1450.435 603.342l52.65-52.65c18.902 22.275 47.253 33.75 83.027 33.75 49.276 0 78.304-28.349 78.304-76.276v-49.951h-1.351c-14.852 33.075-45.227 53.326-82.352 53.326-81.675 0-123.528-47.251-123.528-139.727V190.236h83.702v166.052c0 56.027 19.574 82.353 60.077 82.353 41.174 0 64.124-30.377 64.124-84.377V190.236h83.703V511.54c0 89.102-62.776 145.128-161.328 145.128-60.75 0-107.326-18.225-137.028-53.327M1986.377 356.964c0-101.927 74.25-174.827 177.53-174.827 103.274 0 177.526 72.9 177.526 174.827S2267.18 531.79 2163.907 531.79c-103.28 0-177.53-72.9-177.53-174.827m177.53 101.926c53.998 0 91.8-41.85 91.8-101.926s-37.802-101.927-91.8-101.927c-54.003 0-91.804 41.852-91.804 101.927s37.8 101.926 91.804 101.926M2430.523 259.763h-56.701v-69.527h56.701v-43.2c0-76.276 45.227-120.828 122.852-120.828 9.452 0 23.629 1.351 31.05 2.7v72.227c-8.097-2.025-19.572-3.375-29.024-3.375-26.327 0-41.174 17.55-41.174 49.275v43.2h81.002v69.528h-81.002v263.928h-83.704zM739.679 894.934h101.25l175.503 438.757h-93.825l-36.452-96.525H691.078l-36.452 96.525h-90.45zm-22.276 269.328h141.752l-70.2-184.953h-1.352zM1071.773 1000.235h78.302v45.228h1.35c16.875-34.428 46.575-53.329 85.051-53.329 43.201 0 75.6 18.9 95.852 56.702 20.25-36.45 57.375-56.702 104.626-56.702 82.351 0 122.176 45.903 122.176 139.73v201.827h-83.7v-187.655c0-54.675-18.9-80.997-58.052-80.997-39.15 0-60.075 29.024-60.075 83.7v184.952h-83.7v-187.655c0-55.35-18.226-80.997-58.052-80.997-38.476 0-60.076 29.7-60.076 83.7v184.952h-83.702zM1713.025 1193.965c-45.228-13.5-89.104-37.8-89.104-98.551 0-61.426 51.302-103.28 127.58-103.28 51.298 0 91.126 18.225 113.4 51.978l-47.926 47.925c-16.874-20.923-39.827-32.402-64.803-32.402-28.348 0-45.898 12.825-45.898 33.077 0 27.002 28.349 31.726 69.527 44.552 45.223 13.5 89.1 37.8 89.1 98.551 0 62.777-54 105.977-133.651 105.977-51.978 0-93.827-18.224-118.128-52.652l47.925-47.925c18.225 21.598 42.525 33.077 69.527 33.077 32.402 0 51.978-13.502 51.978-35.78 0-26.997-28.353-31.721-69.527-44.547M1953.316 1214.213v-144.45h-57.377v-69.528h30.379c27.673 0 38.472-10.799 38.472-38.476v-51.974h71.554v90.45h81.002v69.528h-81.002v144.45c0 32.401 16.875 50.626 47.925 50.626 9.448 0 20.927-1.35 27.673-3.373v70.199c-10.124 2.702-29.024 4.728-43.872 4.728-75.602 0-114.754-41.854-114.754-122.18M2158.516 1166.963c0-103.275 69.525-174.829 168.752-174.829s168.074 70.879 168.074 172.803c0 8.101-1.346 20.927-2.697 29.704h-249.756c6.075 45.223 44.551 75.598 93.827 75.598 36.45 0 68.177-13.501 89.104-37.801l50.626 49.275c-30.379 39.152-83.028 60.08-143.779 60.08-102.604 0-174.15-72.23-174.15-174.83m84.373-33.752h168.078c-5.4-43.872-39.152-73.576-84.375-73.576-45.227 0-78.975 29.704-83.703 73.576M2564.866 1000.235h78.975v55.351h1.351c16.199-37.8 45.899-58.052 85.05-58.052 10.124 0 24.3 1.35 29.7 3.377v79.651c-9.448-2.702-27.673-4.724-41.174-4.724-42.526 0-70.203 32.401-70.203 82.348v175.505h-83.7zM2783.563 1168.314c0-103.275 68.176-176.18 164.701-176.18 44.552 0 81.002 19.576 103.955 55.351h1.347V844.307h83.704v489.384h-78.976v-51.978h-1.35c-21.603 37.802-62.102 60.08-108.68 60.08-96.525 0-164.701-72.23-164.701-173.479m270.003-1.35c0-60.076-37.126-99.903-91.801-99.903-55.35 0-92.476 40.503-92.476 99.902s37.126 99.903 92.476 99.903c54.675 0 91.801-39.828 91.801-99.903M3201.385 1238.513c0-64.124 53.324-102.6 142.427-103.276l64.8-.675v-10.8c0-39.152-24.976-59.399-70.2-59.399-29.699 0-56.025 11.475-74.25 32.398l-50.627-49.276c29.025-35.775 75.602-55.35 132.975-55.35 89.104 0 145.805 48.6 145.805 126.228v132.3c0 12.15 5.4 17.554 18.9 17.554h6.076v65.474h-39.152c-31.726 0-53.325-14.852-60.075-39.152h-1.351c-20.927 30.375-55.35 47.253-97.2 47.253-70.203 0-118.128-41.853-118.128-103.28m207.227-29.025v-18.9l-55.351.675c-43.876.676-67.501 16.199-67.501 45.227 0 25.652 20.251 43.877 48.6 43.877 43.877 0 74.252-29.029 74.252-70.879M3582.753 1000.235h78.3v45.228h1.351c16.874-34.428 46.574-53.329 85.05-53.329 43.201 0 75.603 18.9 95.85 56.702 20.251-36.45 57.377-56.702 104.626-56.702 82.353 0 122.18 45.903 122.18 139.73v201.827h-83.703v-187.655c0-54.675-18.9-80.997-58.048-80.997-39.152 0-60.08 29.024-60.08 83.7v184.952h-83.699v-187.655c0-55.35-18.225-80.997-58.052-80.997-38.473 0-60.075 29.7-60.075 83.7v184.952h-83.7z"/>
  </g>
</svg>
