<?xml version="1.0" encoding="UTF-8"?>
<!-- Generated by Pixelmator Pro 3.7.1 -->
<svg width="4070" height="1417" viewBox="0 0 4070 1417" xmlns="http://www.w3.org/2000/svg">
    <g id="Layer-1">
        <g id="Group">
            <path id="Path" fill="#e20714" stroke="none" d="M -6e-06 1333.666626 L 124.987915 1208.675049 L -6e-06 1083.670776 L 83.333328 1000.337463 L 208.333328 1125.337402 L 333.333313 1000.337463 L 416.666656 1083.670776 L 291.666656 1208.675049 L 416.666656 1333.666626 L 333.333313 1416.999878 L 208.333328 1292.008301 L 83.333328 1416.999878 L -6e-06 1333.666626 Z"/>
        </g>
        <g id="g1">
            <path id="path1" fill="#e20714" stroke="none" d="M 0.012074 332.877441 L 125.012077 207.873413 L 0.012074 82.865479 L 83.333328 -0.459961 L 208.345413 124.540039 L 333.345398 -0.459961 L 416.678741 82.865479 L 291.666656 207.873413 L 416.678741 332.877441 L 333.345398 416.206726 L 208.345413 291.202515 L 83.357491 416.206726 L 0.012074 332.877441 Z"/>
        </g>
        <g id="g2">
            <path id="path2" fill="#e20714" stroke="none" d="M 0.012074 833.703308 L 125.012077 708.70752 L 0.012074 583.701294 L 83.349602 500.364136 L 208.345413 625.367981 L 333.345398 500.364136 L 416.678741 583.701294 L 291.682922 708.70752 L 416.678741 833.703308 L 333.345398 917.032837 L 208.345413 792.040894 L 83.349602 917.032837 L 0.012074 833.703308 Z"/>
        </g>
        <g id="g3">
            <path id="path3" fill="#e20714" stroke="none" d="M 582.401245 303.637573 C 582.401245 169.311279 674.877563 76.834595 808.530396 76.834595 C 872.655884 76.834595 928.006592 99.783691 969.856262 142.984619 L 911.130371 199.686279 C 886.155029 171.335449 850.379944 155.810059 809.203735 155.810059 C 729.552979 155.810059 674.202087 216.5625 674.202087 304.312866 C 674.202087 391.389526 730.228271 452.815491 809.87915 452.815491 C 851.730835 452.815491 890.205383 436.614563 914.505859 408.939209 L 972.556274 464.965393 C 932.730835 508.166199 875.355774 531.790771 809.203735 531.790771 C 675.552856 531.790771 582.401245 438.640808 582.401245 303.637573 Z"/>
            <path id="path4" fill="#e20714" stroke="none" d="M 1077.84375 147.710815 C 1048.817383 147.710815 1027.892578 127.459229 1027.892578 99.110352 C 1027.892578 70.759521 1048.817383 50.508301 1077.84375 50.508301 C 1106.86792 50.508301 1127.795044 70.759521 1127.795044 99.110352 C 1127.795044 127.459229 1106.86792 147.710815 1077.84375 147.710815 Z M 1035.992065 190.23584 L 1119.693726 190.23584 L 1119.693726 523.691284 L 1035.992065 523.691284 L 1035.992065 190.23584 Z"/>
            <path id="path5" fill="#e20714" stroke="none" d="M 1231.740112 404.214966 L 1231.740112 259.763306 L 1174.36499 259.763306 L 1174.36499 190.23584 L 1204.73999 190.23584 C 1232.415405 190.23584 1243.216675 179.436646 1243.216675 151.761719 L 1243.216675 99.783691 L 1314.766357 99.783691 L 1314.766357 190.23584 L 1395.767944 190.23584 L 1395.767944 259.763306 L 1314.766357 259.763306 L 1314.766357 404.214966 C 1314.766357 436.614563 1331.64209 454.839539 1362.692871 454.839539 C 1372.143311 454.839539 1383.61792 453.490784 1390.368408 451.464539 L 1390.368408 521.667053 C 1380.242554 524.366638 1361.342163 526.391174 1346.492065 526.391174 C 1270.89209 526.391174 1231.740112 484.541321 1231.740112 404.214966 Z"/>
            <path id="path6" fill="#e20714" stroke="none" d="M 1450.434937 603.342041 L 1503.085938 550.691223 C 1521.986816 572.967102 1550.337646 584.441589 1586.112061 584.441589 C 1635.387817 584.441589 1664.416382 556.092957 1664.416382 508.166199 L 1664.416382 458.215027 L 1663.064941 458.215027 C 1648.213257 491.289978 1617.838379 511.541199 1580.712524 511.541199 C 1499.037598 511.541199 1457.185303 464.289978 1457.185303 371.813721 L 1457.185303 190.23584 L 1540.887085 190.23584 L 1540.887085 356.28833 C 1540.887085 412.314575 1560.460815 438.640808 1600.964233 438.640808 C 1642.138306 438.640808 1665.087524 408.263733 1665.087524 354.263794 L 1665.087524 190.23584 L 1748.791382 190.23584 L 1748.791382 511.541199 C 1748.791382 600.642517 1686.014648 656.668701 1587.463013 656.668701 C 1526.712402 656.668701 1480.136597 638.443726 1450.434937 603.342041 Z"/>
            <path id="path7" fill="#e20714" stroke="none" d="M 1986.376587 356.963745 C 1986.376587 255.036987 2060.62793 182.136597 2163.907471 182.136597 C 2267.180664 182.136597 2341.432617 255.036987 2341.432617 356.963745 C 2341.432617 458.890381 2267.180664 531.790771 2163.907471 531.790771 C 2060.62793 531.790771 1986.376587 458.890381 1986.376587 356.963745 Z M 2163.907471 458.890381 C 2217.905273 458.890381 2255.706055 417.040344 2255.706055 356.963745 C 2255.706055 296.888672 2217.905273 255.036987 2163.907471 255.036987 C 2109.903809 255.036987 2072.102539 296.888672 2072.102539 356.963745 C 2072.102539 417.040344 2109.903809 458.890381 2163.907471 458.890381 Z"/>
            <path id="path8" fill="#e20714" stroke="none" d="M 2430.523193 259.763306 L 2373.821533 259.763306 L 2373.821533 190.23584 L 2430.523193 190.23584 L 2430.523193 147.0354 C 2430.523193 70.759521 2475.750244 26.207886 2553.375 26.207886 C 2562.827148 26.207886 2577.003906 27.559204 2584.425537 28.907959 L 2584.425537 101.13501 C 2576.328369 99.110352 2564.853271 97.759644 2555.401123 97.759644 C 2529.074463 97.759644 2514.227051 115.309204 2514.227051 147.0354 L 2514.227051 190.23584 L 2595.22876 190.23584 L 2595.22876 259.763306 L 2514.227051 259.763306 L 2514.227051 523.691284 L 2430.523193 523.691284 L 2430.523193 259.763306 Z"/>
            <path id="path9" fill="#e20714" stroke="none" d="M 739.678711 894.933777 L 840.929504 894.933777 L 1016.432434 1333.690796 L 922.607056 1333.690796 L 886.155029 1237.165771 L 691.078308 1237.165771 L 654.626221 1333.690796 L 564.17627 1333.690796 L 739.678711 894.933777 Z M 717.402893 1164.261597 L 859.155029 1164.261597 L 788.954163 979.308838 L 787.603394 979.308838 L 717.402893 1164.261597 Z"/>
            <path id="path10" fill="#e20714" stroke="none" d="M 1071.772827 1000.235474 L 1150.075073 1000.235474 L 1150.075073 1045.462524 L 1151.425781 1045.462524 C 1168.299927 1011.034668 1197.999512 992.134155 1236.476196 992.134155 C 1279.677124 992.134155 1312.076294 1011.034668 1332.327881 1048.835815 C 1352.577515 1012.385803 1389.702881 992.134155 1436.954102 992.134155 C 1519.305054 992.134155 1559.130493 1038.036743 1559.130493 1131.864136 L 1559.130493 1333.690796 L 1475.430786 1333.690796 L 1475.430786 1146.036255 C 1475.430786 1091.361206 1456.530396 1065.038818 1417.378296 1065.038818 C 1378.228394 1065.038818 1357.303345 1094.062866 1357.303345 1148.738281 L 1357.303345 1333.690796 L 1273.602051 1333.690796 L 1273.602051 1146.036255 C 1273.602051 1090.685913 1255.376709 1065.038818 1215.55127 1065.038818 C 1177.075073 1065.038818 1155.474609 1094.738403 1155.474609 1148.738281 L 1155.474609 1333.690796 L 1071.772827 1333.690796 L 1071.772827 1000.235474 Z"/>
            <path id="path11" fill="#e20714" stroke="none" d="M 1713.024536 1193.965332 C 1667.797485 1180.464111 1623.921265 1156.164185 1623.921265 1095.413696 C 1623.921265 1033.987915 1675.223389 992.134155 1751.501343 992.134155 C 1802.799072 992.134155 1842.626587 1010.359131 1864.900269 1044.111572 L 1816.975464 1092.036621 C 1800.101318 1071.113647 1777.147827 1059.63501 1752.172485 1059.63501 C 1723.823608 1059.63501 1706.274292 1072.460449 1706.274292 1092.712158 C 1706.274292 1119.713623 1734.622803 1124.437988 1775.801147 1137.263672 C 1821.02417 1150.764526 1864.900269 1175.064575 1864.900269 1235.815063 C 1864.900269 1298.591675 1810.900513 1341.792358 1731.249634 1341.792358 C 1679.272095 1341.792358 1637.422607 1323.567505 1613.122192 1289.139648 L 1661.046997 1241.2146 C 1679.272095 1262.812866 1703.572144 1274.291626 1730.574097 1274.291626 C 1762.975952 1274.291626 1782.551636 1260.790405 1782.551636 1238.512939 C 1782.551636 1211.515015 1754.198853 1206.790771 1713.024536 1193.965332 Z"/>
            <path id="path12" fill="#e20714" stroke="none" d="M 1953.315796 1214.212524 L 1953.315796 1069.762939 L 1895.938721 1069.762939 L 1895.938721 1000.235474 L 1926.317993 1000.235474 C 1953.991333 1000.235474 1964.790405 989.436157 1964.790405 961.759155 L 1964.790405 909.7854 L 2036.344238 909.7854 L 2036.344238 1000.235474 L 2117.345703 1000.235474 L 2117.345703 1069.762939 L 2036.344238 1069.762939 L 2036.344238 1214.212524 C 2036.344238 1246.614136 2053.218506 1264.839111 2084.268799 1264.839111 C 2093.717041 1264.839111 2105.195801 1263.488403 2111.942139 1261.466187 L 2111.942139 1331.664673 C 2101.818359 1334.366699 2082.917969 1336.392822 2068.070068 1336.392822 C 1992.467896 1336.392822 1953.315796 1294.539185 1953.315796 1214.212524 Z"/>
            <path id="path13" fill="#e20714" stroke="none" d="M 2158.516357 1166.963257 C 2158.516357 1063.687866 2228.04126 992.134155 2327.267822 992.134155 C 2426.494873 992.134155 2495.342285 1063.012573 2495.342285 1164.937012 C 2495.342285 1173.03833 2493.99585 1185.86377 2492.644775 1194.640869 L 2242.88916 1194.640869 C 2248.964111 1239.863647 2287.44043 1270.23877 2336.716309 1270.23877 C 2373.166748 1270.23877 2404.892578 1256.737915 2425.81958 1232.437866 L 2476.446045 1281.713257 C 2446.067139 1320.865479 2393.417969 1341.792358 2332.66748 1341.792358 C 2230.063232 1341.792358 2158.516357 1269.563232 2158.516357 1166.963257 Z M 2242.88916 1133.210815 L 2410.967285 1133.210815 C 2405.567871 1089.338745 2371.81543 1059.63501 2326.592285 1059.63501 C 2281.365234 1059.63501 2247.617188 1089.338745 2242.88916 1133.210815 Z"/>
            <path id="path14" fill="#e20714" stroke="none" d="M 2564.865723 1000.235474 L 2643.841064 1000.235474 L 2643.841064 1055.586182 L 2645.192139 1055.586182 C 2661.390869 1017.7854 2691.090576 997.533813 2730.242432 997.533813 C 2740.366211 997.533813 2754.54248 998.884521 2759.941895 1000.911316 L 2759.941895 1080.562012 C 2750.494141 1077.859985 2732.268555 1075.837891 2718.767822 1075.837891 C 2676.242432 1075.837891 2648.56543 1108.239258 2648.56543 1158.186157 L 2648.56543 1333.690796 L 2564.865723 1333.690796 L 2564.865723 1000.235474 Z"/>
            <path id="path15" fill="#e20714" stroke="none" d="M 2783.562744 1168.314209 C 2783.562744 1065.038818 2851.739014 992.134155 2948.26416 992.134155 C 2992.815674 992.134155 3029.265625 1011.710449 3052.219238 1047.484985 L 3053.566406 1047.484985 L 3053.566406 844.307068 L 3137.269531 844.307068 L 3137.269531 1333.690796 L 3058.294189 1333.690796 L 3058.294189 1281.713257 L 3056.943359 1281.713257 C 3035.34082 1319.514526 2994.842041 1341.792358 2948.26416 1341.792358 C 2851.739014 1341.792358 2783.562744 1269.563232 2783.562744 1168.314209 Z M 3053.566406 1166.963257 C 3053.566406 1106.888306 3016.44043 1067.060791 2961.764893 1067.060791 C 2906.414551 1067.060791 2869.288818 1107.563721 2869.288818 1166.963257 C 2869.288818 1226.363037 2906.414551 1266.865723 2961.764893 1266.865723 C 3016.44043 1266.865723 3053.566406 1227.03833 3053.566406 1166.963257 Z"/>
            <path id="path16" fill="#e20714" stroke="none" d="M 3201.38501 1238.512939 C 3201.38501 1174.38916 3254.709473 1135.912598 3343.8125 1135.237061 L 3408.611572 1134.561646 L 3408.611572 1123.762451 C 3408.611572 1084.610474 3383.63623 1064.363281 3338.412842 1064.363281 C 3308.713379 1064.363281 3282.387207 1075.837891 3264.161621 1096.760742 L 3213.534912 1047.484985 C 3242.55957 1011.710449 3289.137451 992.134155 3346.510498 992.134155 C 3435.613525 992.134155 3492.31543 1040.734619 3492.31543 1118.362915 L 3492.31543 1250.662964 C 3492.31543 1262.812866 3497.715088 1268.216675 3511.21582 1268.216675 L 3517.290771 1268.216675 L 3517.290771 1333.690796 L 3478.138916 1333.690796 C 3446.413086 1333.690796 3424.814453 1318.839111 3418.064209 1294.539185 L 3416.712891 1294.539185 C 3395.786133 1324.914185 3361.362549 1341.792358 3319.512451 1341.792358 C 3249.309814 1341.792358 3201.38501 1299.938843 3201.38501 1238.512939 Z M 3408.611572 1209.488281 L 3408.611572 1190.588013 L 3353.260986 1191.263306 C 3309.384521 1191.938721 3285.76001 1207.462036 3285.76001 1236.490356 C 3285.76001 1262.141602 3306.011475 1280.366577 3334.360352 1280.366577 C 3378.236816 1280.366577 3408.611572 1251.338257 3408.611572 1209.488281 Z"/>
            <path id="path17" fill="#e20714" stroke="none" d="M 3582.75293 1000.235474 L 3661.052979 1000.235474 L 3661.052979 1045.462524 L 3662.404053 1045.462524 C 3679.278076 1011.034668 3708.977783 992.134155 3747.454346 992.134155 C 3790.655029 992.134155 3823.056641 1011.034668 3843.303955 1048.835815 C 3863.55542 1012.385803 3900.681152 992.134155 3947.93042 992.134155 C 4030.283203 992.134155 4070.110596 1038.036743 4070.110596 1131.864136 L 4070.110596 1333.690796 L 3986.406982 1333.690796 L 3986.406982 1146.036255 C 3986.406982 1091.361206 3967.506592 1065.038818 3928.358643 1065.038818 C 3889.206543 1065.038818 3868.279541 1094.062866 3868.279541 1148.738281 L 3868.279541 1333.690796 L 3784.580078 1333.690796 L 3784.580078 1146.036255 C 3784.580078 1090.685913 3766.35498 1065.038818 3726.527588 1065.038818 C 3688.054932 1065.038818 3666.452637 1094.738403 3666.452637 1148.738281 L 3666.452637 1333.690796 L 3582.75293 1333.690796 L 3582.75293 1000.235474 Z"/>
        </g>
    </g>
</svg>
