<svg xmlns="http://www.w3.org/2000/svg" fill="none" viewBox="0 0 112.5581 40">
  <g class="ams-logo__emblem">
    <path fill="#EC0000" d="M0 35.6876L3.3488 32.4982L0 29.3088L2.2326 27.1826L5.5814 30.372L8.9302 27.1826L11.1628 29.3088L7.814 32.4982L11.1628 35.6876L8.9302 37.8139L5.5814 34.6245L2.2326 37.8139L0 35.6876ZM0 9.1095L3.3488 5.9202L0 2.7308L2.2326 0.6046L5.5814 3.7939L8.9302 0.6046L11.1628 2.7308L7.814 5.9202L11.1628 9.1095L8.9302 11.2358L5.5814 8.0464L2.2326 11.2358L0 9.1095ZM0 22.3986L3.3488 19.2092L0 16.0198L2.2326 13.8936L5.5814 17.083L8.9302 13.8936L11.1628 16.0198L7.814 19.2092L11.1628 22.3986L8.9302 24.5248L5.5814 21.3354L2.2326 24.5248L0 22.3986Z"/>
  </g>
  <g class="ams-logo__text-secondary">
    <path fill="#000" d="M16.8233 28.3972H19.227L21.4428 32.8H21.4698L23.6837 28.3972H26.0884V37.1758H24.36V30.4093H24.3321L22.1581 34.7312H20.7535L18.5795 30.4093H18.5516V37.1758H16.8233V28.3972ZM27.8847 34.5423V30.5042H29.5591V34.2316C29.5591 35.3526 29.9507 35.8791 30.7609 35.8791C31.5851 35.8791 32.0447 35.2716 32.0447 34.1907V30.5042H33.7191V37.1758H32.1395V36.2707H32.1126C31.7888 36.9191 31.0865 37.3377 30.3302 37.3377C28.6958 37.3377 27.8847 36.4065 27.8847 34.5423ZM36.8651 34.3805C35.9609 34.1107 35.0828 33.6242 35.0828 32.4084C35.0828 31.1795 36.1098 30.3423 37.6353 30.3423C38.6623 30.3423 39.4586 30.706 39.9051 31.3814L38.946 32.3405C38.6084 31.9219 38.1488 31.6921 37.6493 31.6921C37.0819 31.6921 36.7312 31.9488 36.7312 32.3544C36.7312 32.894 37.2986 32.9888 38.1219 33.2456C39.027 33.5153 39.9051 34.0019 39.9051 35.2177C39.9051 36.4735 38.8242 37.3386 37.2307 37.3386C36.1907 37.3386 35.3535 36.973 34.867 36.2847L35.8251 35.3256C35.993 35.5327 36.2051 35.6996 36.446 35.814C36.6868 35.9285 36.9501 35.9875 37.2167 35.987C37.8651 35.987 38.2567 35.7172 38.2567 35.2716C38.2567 34.7321 37.6884 34.6372 36.8651 34.3805ZM42.5116 33.1647H45.8744C45.7665 32.2865 45.0912 31.6921 44.186 31.6921C43.2809 31.6921 42.6056 32.2874 42.5116 33.1647ZM40.8233 33.84C40.8233 31.774 42.214 30.3423 44.2 30.3423C46.1851 30.3423 47.5628 31.76 47.5628 33.7991C47.5628 33.9619 47.5349 34.2177 47.5088 34.3944H42.5107C42.6326 35.2986 43.4028 35.906 44.3888 35.906C45.1181 35.906 45.7526 35.6363 46.1712 35.1498L47.1851 36.1358C46.5767 36.9191 45.5228 37.3377 44.3079 37.3377C42.2549 37.3377 40.8233 35.893 40.8233 33.84ZM48.8586 34.5423V30.5042H50.533V34.2316C50.533 35.3526 50.9256 35.8791 51.7358 35.8791C52.56 35.8791 53.0195 35.2716 53.0195 34.1907V30.5042H54.694V37.1758H53.1126V36.2707H53.0865C52.7628 36.9191 52.0595 37.3377 51.3033 37.3377C49.6698 37.3377 48.8586 36.4065 48.8586 34.5423ZM56.5033 30.5042H58.0698V31.4093H58.0977C58.4344 30.72 59.0288 30.3423 59.7991 30.3423C60.6633 30.3423 61.3116 30.72 61.7163 31.4772C62.1219 30.747 62.8651 30.3423 63.8093 30.3423C65.4577 30.3423 66.2549 31.2605 66.2549 33.1377V37.1758H64.5805V33.4214C64.5805 32.3274 64.2019 31.8009 63.4177 31.8009C62.6353 31.8009 62.2167 32.3814 62.2167 33.4753V37.1758H60.5423V33.4214C60.5423 32.3144 60.1767 31.8009 59.3795 31.8009C58.6102 31.8009 58.1777 32.3944 58.1777 33.4753V37.1758H56.5033V30.5042ZM78.7749 37.1758L77.0726 30.6121H77.0456L75.3433 37.1758H73.2781L70.6977 28.3972H72.5888L74.3172 35.0419H74.3451L76.0865 28.3972H78.0316L79.774 35.0419H79.8019L81.5302 28.3972H83.4205L80.8409 37.1758H78.7749ZM85.3116 33.1647H88.6744C88.5665 32.2865 87.8912 31.6921 86.986 31.6921C86.0809 31.6921 85.4065 32.2874 85.3116 33.1647ZM83.6233 33.84C83.6233 31.774 85.014 30.3423 87 30.3423C88.9851 30.3423 90.3628 31.76 90.3628 33.7991C90.3628 33.9619 90.3349 34.2177 90.3088 34.3944H85.3116C85.4326 35.2986 86.2028 35.906 87.1888 35.906C87.9181 35.906 88.5526 35.6363 88.9721 35.1498L89.9842 36.1358C89.3767 36.9191 88.3237 37.3377 87.1079 37.3377C85.0549 37.3377 83.6233 35.893 83.6233 33.84ZM93.0233 33.1647H96.387C96.2781 32.2865 95.6028 31.6921 94.6986 31.6921C93.7935 31.6921 93.1163 32.2874 93.0233 33.1647ZM91.3349 33.84C91.3349 31.774 92.7265 30.3423 94.7116 30.3423C96.6967 30.3423 98.0744 31.76 98.0744 33.7991C98.0744 33.9619 98.0474 34.2177 98.0205 34.3944H93.0233C93.1442 35.2986 93.9144 35.906 94.9005 35.906C95.6298 35.906 96.2651 35.6363 96.6837 35.1498L97.6967 36.1358C97.0884 36.9191 96.0353 37.3377 94.8195 37.3377C92.7665 37.3377 91.3349 35.893 91.3349 33.84ZM100.8028 34.3805C99.8977 34.1107 99.0195 33.6242 99.0195 32.4084C99.0195 31.1795 100.0465 30.3423 101.573 30.3423C102.5991 30.3423 103.3963 30.706 103.8419 31.3814L102.8828 32.3405C102.5451 31.9219 102.0856 31.6921 101.586 31.6921C101.0186 31.6921 100.6679 31.9488 100.6679 32.3544C100.6679 32.894 101.2353 32.9888 102.0586 33.2456C102.9637 33.5153 103.8419 34.0019 103.8419 35.2177C103.8419 36.4735 102.7609 37.3386 101.1674 37.3386C100.1274 37.3386 99.2902 36.973 98.8047 36.2847L99.7628 35.3256C99.9312 35.5327 100.1433 35.6996 100.3833 35.814C100.6242 35.9285 100.8874 35.9875 101.1544 35.987C101.8019 35.987 102.1944 35.7172 102.1944 35.2716C102.1944 34.7321 101.627 34.6372 100.8028 34.3805ZM110.5395 33.84C110.5395 32.6381 109.7981 31.8409 108.7042 31.8409C107.6093 31.8409 106.853 32.6512 106.853 33.84C106.853 35.0288 107.6093 35.8391 108.7042 35.8391C109.7981 35.8391 110.5405 35.0419 110.5405 33.8391L110.5395 33.84ZM105.1786 30.5042H106.7721V31.5442H106.8C107.2047 30.7879 108.0149 30.3423 108.9879 30.3423C110.8921 30.3423 112.2558 31.787 112.2558 33.8121C112.2558 35.866 110.8921 37.3377 108.9879 37.3377C108.0828 37.3377 107.3395 36.947 106.88 36.2307H106.853V39.6744H105.1786V30.5042Z"/>
  </g>
  <g class="ams-logo__text-primary">
    <path fill="#EC0000" d="M19.106 20.7321H21.9423L20.5377 17.0316H20.5098L19.106 20.7321ZM19.5516 15.3433H21.5777L25.0893 24.1219H23.2121L22.4828 22.1907H18.5795L17.8502 24.1219H16.04L19.5516 15.3433ZM26.1963 17.4502H27.7628V18.3553H27.7907C28.1274 17.667 28.7219 17.2874 29.4921 17.2874C30.3563 17.2874 31.0047 17.666 31.4093 18.4223C31.8149 17.693 32.5581 17.2874 33.5023 17.2874C35.1507 17.2874 35.9479 18.2065 35.9479 20.0837V24.1219H34.2735V20.3674C34.2735 19.2735 33.8949 18.746 33.1107 18.746C32.3284 18.746 31.9098 19.3274 31.9098 20.4205V24.1228H30.2353V20.3674C30.2353 19.2605 29.8698 18.746 29.0726 18.746C28.3033 18.746 27.8707 19.3414 27.8707 20.4205V24.1228H26.1963V17.4502ZM39.027 21.3265C38.1219 21.0567 37.2437 20.5702 37.2437 19.3544C37.2437 18.1256 38.2707 17.2874 39.7963 17.2874C40.8233 17.2874 41.6195 17.653 42.066 18.3274L41.107 19.2865C40.7693 18.8679 40.3098 18.6381 39.8102 18.6381C39.2428 18.6381 38.8921 18.8949 38.8921 19.3005C38.8921 19.84 39.4595 19.9349 40.2828 20.1916C41.1879 20.4614 42.066 20.9479 42.066 22.1637C42.066 23.4195 40.9851 24.2847 39.3916 24.2847C38.3516 24.2847 37.5144 23.9191 37.0288 23.2307L37.987 22.2716C38.1548 22.4786 38.3668 22.6455 38.6073 22.7599C38.848 22.8743 39.1113 22.9335 39.3777 22.933C40.026 22.933 40.4177 22.6633 40.4177 22.2177C40.4177 21.6781 39.8502 21.5833 39.027 21.3265ZM43.8344 21.7312V18.8409H42.6865V17.4512H43.2949C43.8484 17.4512 44.0642 17.2344 44.0642 16.6809V15.6409H45.4967V17.4512H47.1172V18.8419H45.4958V21.7321C45.4958 22.3805 45.8335 22.746 46.4549 22.746C46.6437 22.746 46.8735 22.7181 47.0084 22.6781V24.0828C46.7203 24.146 46.4261 24.1774 46.1312 24.1767C44.6186 24.1767 43.8344 23.3386 43.8344 21.7312ZM49.6288 20.1107H52.9916C52.8837 19.2326 52.2084 18.6381 51.3033 18.6381C50.3991 18.6381 49.7237 19.2335 49.6288 20.1107ZM47.9405 20.786C47.9405 18.72 49.3321 17.2884 51.3172 17.2884C53.3023 17.2884 54.68 18.706 54.68 20.7451C54.68 20.9079 54.653 21.1637 54.626 21.3405H49.6288C49.7498 22.2447 50.52 22.8521 51.506 22.8521C52.2353 22.8521 52.8707 22.5823 53.2893 22.0958L54.3023 23.0819C53.694 23.8651 52.6409 24.2837 51.4251 24.2837C49.3721 24.2837 47.9405 22.8391 47.9405 20.786ZM56.0716 17.4502H57.6512V18.5572H57.6791C58.0028 17.8009 58.5972 17.3963 59.3805 17.3963C59.5823 17.3963 59.866 17.4233 59.974 17.4633V19.0577C59.7041 18.9948 59.4278 18.963 59.1507 18.9628C58.2995 18.9628 57.746 19.6112 57.746 20.6102V24.1219H56.0716V17.4502ZM65.8493 20.786C65.8493 19.5842 65.107 18.787 64.013 18.787C62.9051 18.787 62.1619 19.5972 62.1619 20.787C62.1619 21.9749 62.9051 22.7851 64.013 22.7851C65.107 22.7851 65.8493 21.9879 65.8493 20.786ZM60.4474 20.813C60.4474 18.746 61.8112 17.2874 63.7423 17.2874C64.6335 17.2874 65.3628 17.68 65.8223 18.3953H65.8502V14.3302H67.5247V24.1209H65.9433V23.0809H65.9172C65.4847 23.8372 64.6744 24.2828 63.7423 24.2828C61.8112 24.2828 60.4474 22.8391 60.4474 20.813ZM72.9535 21.6372V21.2586L71.8465 21.2726C70.9684 21.2856 70.4958 21.5963 70.4958 22.1777C70.4958 22.6902 70.9005 23.0549 71.4679 23.0549C72.3451 23.0549 72.9535 22.4744 72.9535 21.6372ZM68.8074 22.2177C68.8074 20.934 69.8744 20.1647 71.6567 20.1516L72.9535 20.1377V19.9219C72.9535 19.1386 72.454 18.733 71.5488 18.733C70.9544 18.733 70.4279 18.9628 70.0633 19.3814L69.0502 18.3953C69.6307 17.6791 70.5628 17.2884 71.7107 17.2884C73.494 17.2884 74.6279 18.2605 74.6279 19.814V22.4605C74.6279 22.7042 74.7358 22.8121 75.0065 22.8121H75.1274V24.1219H74.3442C73.7098 24.1219 73.2772 23.8242 73.1423 23.3386H73.1163C72.6977 23.947 72.0093 24.2837 71.1721 24.2837C69.7674 24.2837 68.8084 23.4465 68.8084 22.2186L68.8074 22.2177ZM76.4372 17.4502H78.0047V18.3553H78.0316C78.3693 17.667 78.9637 17.2874 79.734 17.2874C80.5972 17.2874 81.2456 17.666 81.6502 18.4223C82.0558 17.693 82.7991 17.2874 83.7442 17.2874C85.3926 17.2874 86.1888 18.2065 86.1888 20.0837V24.1219H84.5144V20.3674C84.5144 19.2735 84.1358 18.746 83.3526 18.746C82.5693 18.746 82.1507 19.3274 82.1507 20.4205V24.1228H80.4763V20.3674C80.4763 19.2605 80.1116 18.746 79.3144 18.746C78.5451 18.746 78.1126 19.3414 78.1126 20.4205V24.1228H76.4381L76.4372 17.4502ZM16.413 6.493C16.413 3.8325 18.2763 1.9535 20.9107 1.9535C22.2474 1.9535 23.3684 2.386 24.1656 3.2502L23.0037 4.3572C22.5042 3.8037 21.7879 3.48 20.9377 3.48C19.3442 3.48 18.2363 4.7228 18.2363 6.4921C18.2363 8.3014 19.3163 9.5572 20.8698 9.5572C22.2884 9.5572 23.2744 8.7479 23.2744 7.5721V7.3423H21.1535V5.8716H25.0567V7.2353C25.0567 9.4772 23.3144 11.0577 20.8158 11.0577C18.2363 11.0577 16.413 9.1665 16.413 6.493ZM27.8791 6.8837H31.2428C31.134 6.0065 30.4586 5.4121 29.5544 5.4121C28.6493 5.4121 27.974 6.0065 27.88 6.8846L27.8791 6.8837ZM26.1907 7.56C26.1907 5.493 27.5823 4.0623 29.5674 4.0623C31.5535 4.0623 32.9302 5.48 32.9302 7.5191C32.9302 7.6809 32.9042 7.9377 32.8763 8.1135H27.8791C28.0009 9.0186 28.7712 9.626 29.7563 9.626C30.4865 9.626 31.1209 9.3563 31.5395 8.8697L32.5526 9.8558C31.9451 10.6391 30.8912 11.0577 29.6753 11.0577C27.6223 11.0577 26.1907 9.6121 26.1907 7.56ZM34.3219 4.2232H35.8884V5.1284H35.9153C36.253 4.44 36.8474 4.0614 37.6177 4.0614C38.4819 4.0614 39.1302 4.44 39.5349 5.1963C39.9405 4.467 40.6828 4.0614 41.6279 4.0614C43.2763 4.0614 44.0735 4.9804 44.0735 6.8577V10.8949H42.3991V7.1414C42.3991 6.0484 42.0205 5.5209 41.2363 5.5209C40.454 5.5209 40.0344 6.1023 40.0344 7.1953V10.8967H38.36V7.1404C38.36 6.0335 37.9953 5.52 37.1981 5.52C36.4288 5.52 35.9963 6.1153 35.9963 7.1944V10.8958H34.3219V4.2232ZM47.0847 6.8837H50.4474C50.3395 6.0065 49.6642 5.4121 48.76 5.4121C47.8549 5.4121 47.1786 6.0065 47.0856 6.8846L47.0847 6.8837ZM45.3963 7.56C45.3963 5.493 46.7879 4.0623 48.773 4.0623C50.7581 4.0623 52.1358 5.48 52.1358 7.5191C52.1358 7.6809 52.1088 7.9377 52.0819 8.1135H47.0847C47.2056 9.0186 47.9758 9.626 48.9619 9.626C49.6912 9.626 50.3265 9.3563 50.7451 8.8697L51.7581 9.8558C51.1498 10.6391 50.0967 11.0577 48.8809 11.0577C46.8279 11.0577 45.3963 9.6121 45.3963 7.56ZM54.7963 6.8837H58.16C58.0521 6.0065 57.3767 5.4121 56.4716 5.4121C55.5665 5.4121 54.8912 6.0065 54.7972 6.8846L54.7963 6.8837ZM53.1088 7.56C53.1088 5.493 54.4995 4.0623 56.4856 4.0623C58.4707 4.0623 59.8484 5.48 59.8484 7.5191C59.8484 7.6809 59.8205 7.9377 59.7944 8.1135H54.7963C54.9181 9.0186 55.6884 9.626 56.6744 9.626C57.4028 9.626 58.0381 9.3563 58.4567 8.8697L59.4698 9.8558C58.8623 10.6391 57.8084 11.0577 56.5926 11.0577C54.5405 11.0577 53.1088 9.6121 53.1088 7.56ZM61.2391 4.2232H62.8195V5.1284H62.8465C63.1572 4.467 63.8326 4.0614 64.6158 4.0614C66.2902 4.0614 67.1553 5.0204 67.1553 6.8577V10.8949H65.4791V7.1814C65.4791 6.0465 65.0744 5.52 64.2233 5.52C63.3721 5.52 62.9126 6.1153 62.9126 7.2223V10.8958H61.2381L61.2391 4.2232ZM69.3023 8.5051V5.6149H68.1544V4.2232H68.7619C69.3153 4.2232 69.5321 4.0074 69.5321 3.4539V2.4139H70.9637V4.2232H72.5842V5.6149H70.9637V8.5051C70.9637 9.1535 71.3005 9.5181 71.9219 9.5181C72.1116 9.5181 72.3405 9.4902 72.4763 9.4502V10.8549C72.1879 10.9183 71.8935 10.9501 71.5981 10.9498C70.0856 10.9498 69.3023 10.1126 69.3023 8.5051ZM75.0958 6.8837H78.4595C78.3507 6.0065 77.6753 5.4121 76.7712 5.4121C75.866 5.4121 75.1907 6.0065 75.0967 6.8846L75.0958 6.8837ZM73.4074 7.56C73.4074 5.493 74.7991 4.0623 76.7842 4.0623C78.7702 4.0623 80.147 5.48 80.147 7.5191C80.147 7.6809 80.12 7.9377 80.093 8.1135H75.0958C75.2177 9.0186 75.9879 9.626 76.974 9.626C77.7033 9.626 78.3377 9.3563 78.7563 8.8697L79.7693 9.8558C79.1619 10.6391 78.1079 11.0577 76.8921 11.0577C74.8391 11.0577 73.4074 9.6121 73.4074 7.56Z"/>
  </g>
</svg>
