<svg viewBox="0 0 24 24" xmlns="http://www.w3.org/2000/svg"><path fill-rule="evenodd" clip-rule="evenodd" d="M10.1478 2.1676C8.5304 2.1676 7.21923 3.47877 7.21923 5.09617V14.9182C6.13977 14.5437 4.92661 14.6827 3.94638 15.3352L2.44415 16.3352L3.55241 18L5.05464 17C5.62891 16.6178 6.37658 16.6178 6.95085 17C8.1964 17.8292 9.81804 17.8292 11.0636 17C11.6371 16.6182 12.3865 16.6184 12.9615 17.0012C14.2043 17.8284 15.8249 17.8305 17.0691 17.0023C17.6435 16.6199 18.3917 16.6215 18.9645 17.0062L20.4407 17.9977L21.5559 16.3375L20.0796 15.3459C19.1394 14.7144 17.9816 14.558 16.9335 14.8774V5.09617C16.9335 4.58334 17.3492 4.1676 17.8621 4.1676C18.3749 4.1676 18.7906 4.58334 18.7906 5.09617V5.73903H20.7906V5.09617C20.7906 3.47877 19.4795 2.1676 17.8621 2.1676C16.2447 2.1676 14.9335 3.47877 14.9335 5.09617V7.1676H9.21923V5.09617C9.21923 4.58334 9.63496 4.1676 10.1478 4.1676C10.6606 4.1676 11.0764 4.58334 11.0764 5.09617V5.73903H13.0764V5.09617C13.0764 3.47877 11.7652 2.1676 10.1478 2.1676ZM9.95532 15.3352C9.72971 15.4854 9.47734 15.5765 9.21923 15.6087V13.1676H14.9335V15.6205C14.6315 15.6058 14.3323 15.5111 14.0697 15.3363C12.8249 14.5076 11.2016 14.5056 9.95532 15.3352ZM14.9335 11.1676V9.1676H9.21923V11.1676H14.9335ZM6.95085 20.5C6.37658 20.1178 5.62891 20.1178 5.05464 20.5L3.55241 21.5L2.44415 19.8352L3.94638 18.8352C5.19193 18.006 6.81357 18.006 8.05911 18.8352C8.63338 19.2174 9.38105 19.2174 9.95532 18.8352C11.2016 18.0056 12.8249 18.0076 14.0697 18.8363C14.6427 19.2177 15.3894 19.2179 15.9609 18.8374C17.209 18.0066 18.8349 18.0099 20.0796 18.8459L21.5559 19.8375L20.4407 21.4977L18.9645 20.5062C18.3917 20.1215 17.6435 20.1199 17.0691 20.5023C15.8249 21.3305 14.2043 21.3284 12.9615 20.5012C12.3865 20.1184 11.6371 20.1182 11.0636 20.5C9.81804 21.3292 8.1964 21.3292 6.95085 20.5Z"/></svg>