<svg viewBox="0 0 24 24" xmlns="http://www.w3.org/2000/svg"><path d="M5.37368 15.2366L2.5 16.7126L11.6083 21.3911C11.8927 21.5371 12.2282 21.5363 12.5118 21.3887L21.5 16.7126L18.6672 15.2389L13.2042 18.081C12.4891 18.453 11.6401 18.4553 10.923 18.087L5.37368 15.2366Z"/><path d="M5.51823 10.5239L2.5 12.0742L11.6083 16.7526C11.8927 16.8987 12.2282 16.8978 12.5118 16.7503L21.5 12.0742L18.5245 10.5262L13.2042 13.2941C12.4891 13.6661 11.6401 13.6684 10.923 13.3001L5.51823 10.5239Z"/><path fill-rule="evenodd" clip-rule="evenodd" d="M12.5119 2.6113C12.2282 2.46374 11.8927 2.46286 11.6083 2.60893L2.5 7.28736L11.6083 11.9658C11.8927 12.1119 12.2282 12.111 12.5119 11.9634L21.5 7.28736L12.5119 2.6113Z"/></svg>