<svg viewBox="0 0 24 24" xmlns="http://www.w3.org/2000/svg"><path fill-rule="evenodd" clip-rule="evenodd" d="M10.9722 1V3.5H12.9722V1H10.9722ZM16 11.1765C16 12.0768 15.7293 12.9014 15.2738 13.5767C15.2343 13.6353 15.1932 13.6958 15.1509 13.7582C14.6764 14.4573 14.0414 15.3928 13.6324 16.5H10.3676C9.95858 15.3928 9.32364 14.4573 8.84915 13.7582L8.84847 13.7572C8.80637 13.6951 8.76554 13.635 8.72624 13.5767C8.27071 12.9014 8 12.0768 8 11.1765C8 8.81481 9.84511 7 12 7C14.1549 7 16 8.81481 16 11.1765ZM8.8 18.5H15.2L15.2759 18.0483C15.4772 16.8492 16.1785 15.8107 16.8605 14.8008L16.9318 14.6952C17.6053 13.6968 18 12.4841 18 11.1765C18 7.76529 15.3137 5 12 5C8.68629 5 6 7.76529 6 11.1765C6 12.4841 6.39472 13.6968 7.0682 14.6952L7.13954 14.8008C7.82146 15.8107 8.52278 16.8492 8.72414 18.0483L8.8 18.5ZM9.00002 22H10.2676C10.6134 22.5978 11.2598 23 12.0001 23C12.7403 23 13.3867 22.5978 13.7325 22H15V20H9.00002V22ZM3.42515 5.23686L5.19292 7.00462L6.60713 5.59041L4.83936 3.82264L3.42515 5.23686ZM18.8394 7.00462L20.6071 5.23686L19.1929 3.82264L17.4252 5.59041L18.8394 7.00462ZM22.8 12H20.3V10H22.8V12ZM3.70001 12H1.20001V10H3.70001V12Z"/></svg>