<svg viewBox="0 0 24 24" xmlns="http://www.w3.org/2000/svg"><path fill-rule="evenodd" clip-rule="evenodd" d="M4.5 2.5C3.39543 2.5 2.5 3.39543 2.5 4.5V19.5C2.5 20.6046 3.39543 21.5 4.5 21.5H19.5C20.6046 21.5 21.5 20.6046 21.5 19.5V4.5C21.5 3.39543 20.6046 2.5 19.5 2.5H4.5ZM8 6V18H10.4278V13.9385H12.9905C15.3447 13.9385 17 12.2954 17 9.96923C17 7.64308 15.3447 6 12.9905 6H8ZM12.7881 11.9631H10.4278V7.97538H12.7881C13.8549 7.97538 14.5538 8.76923 14.5538 9.96923C14.5538 11.1877 13.8549 11.9631 12.7881 11.9631Z"/></svg>