<svg viewBox="0 0 24 24" xmlns="http://www.w3.org/2000/svg"><path d="M6.65309 20C5.53886 20 4.64747 19.6773 3.97893 19.0319C3.32631 18.3866 3 17.5208 3 16.4347C3 15.2856 3.34223 14.3963 4.02669 13.7667C4.72706 13.1213 5.75375 12.7986 7.10674 12.7986H8.51545V10.2014H7.10674C5.75375 10.2014 4.72706 9.88657 4.02669 9.25694C3.34223 8.61157 3 7.71435 3 6.56528C3 5.47917 3.32631 4.61343 3.97893 3.96806C4.64747 3.32268 5.53886 3 6.65309 3C7.54448 3 8.24485 3.16528 8.75421 3.49583C9.27949 3.82639 9.6456 4.26713 9.85253 4.81806C10.0754 5.36898 10.1868 5.975 10.1868 6.63611V8.59583H12.8132V6.63611C12.8132 5.975 12.9167 5.36898 13.1236 4.81806C13.3464 4.26713 13.7125 3.82639 14.2219 3.49583C14.7472 3.16528 15.4555 3 16.3469 3C17.4611 3 18.3446 3.32268 18.9972 3.96806C19.6657 4.61343 20 5.47917 20 6.56528C20 7.71435 19.6578 8.61157 18.9733 9.25694C18.2889 9.88657 17.2622 10.2014 15.8933 10.2014H14.4846V12.7986H15.8933C17.2622 12.7986 18.2889 13.1213 18.9733 13.7667C19.6578 14.3963 20 15.2856 20 16.4347C20 17.5208 19.6657 18.3866 18.9972 19.0319C18.3446 19.6773 17.4611 20 16.3469 20C15.4555 20 14.7472 19.8347 14.2219 19.5042C13.7125 19.1736 13.3464 18.7329 13.1236 18.1819C12.9167 17.631 12.8132 17.025 12.8132 16.3639V14.4042H10.1868V16.3639C10.1868 17.025 10.0754 17.631 9.85253 18.1819C9.6456 18.7329 9.27949 19.1736 8.75421 19.5042C8.24485 19.8347 7.54448 20 6.65309 20ZM14.4846 6.58889V8.59583H15.8933C16.7369 8.59583 17.3497 8.43056 17.7317 8.1C18.1138 7.7537 18.3048 7.24213 18.3048 6.56528C18.3048 5.87268 18.1138 5.37685 17.7317 5.07778C17.3656 4.7787 16.904 4.62917 16.3469 4.62917C15.7261 4.62917 15.2566 4.81019 14.9382 5.17222C14.6358 5.51852 14.4846 5.99074 14.4846 6.58889ZM7.10674 8.59583H8.51545V6.58889C8.51545 5.99074 8.35627 5.51852 8.03792 5.17222C7.73549 4.81019 7.27388 4.62917 6.65309 4.62917C6.09597 4.62917 5.6264 4.7787 5.24438 5.07778C4.87828 5.37685 4.69522 5.87268 4.69522 6.56528C4.69522 7.24213 4.88624 7.7537 5.26826 8.1C5.65028 8.43056 6.26311 8.59583 7.10674 8.59583ZM10.1868 12.7986H12.8132V10.2014H10.1868V12.7986ZM6.65309 18.3708C7.27388 18.3708 7.73549 18.1977 8.03792 17.8514C8.35627 17.4894 8.51545 17.0093 8.51545 16.4111V14.4042H7.10674C6.26311 14.4042 5.65028 14.5773 5.26826 14.9236C4.88624 15.2542 4.69522 15.7579 4.69522 16.4347C4.69522 17.1273 4.87828 17.6231 5.24438 17.9222C5.6264 18.2213 6.09597 18.3708 6.65309 18.3708ZM14.4846 16.4111C14.4846 17.0093 14.6358 17.4894 14.9382 17.8514C15.2566 18.1977 15.7261 18.3708 16.3469 18.3708C16.904 18.3708 17.3656 18.2213 17.7317 17.9222C18.1138 17.6231 18.3048 17.1273 18.3048 16.4347C18.3048 15.7579 18.1138 15.2542 17.7317 14.9236C17.3497 14.5773 16.7369 14.4042 15.8933 14.4042H14.4846V16.4111Z"/></svg>