<svg xmlns="http://www.w3.org/2000/svg" fill="none" viewBox="0 0 115 40">
  <path class="ams-logo__emblem" fill="#EC0000" d="m0 37.683 3.532-3.532L0 30.62l2.355-2.355 3.532 3.532 3.532-3.532 2.355 2.355-3.532 3.532 3.532 3.532L9.419 40l-3.532-3.532-3.532 3.532zM0 9.406l3.532-3.532-3.532-3.532L2.355-0.013l3.532 3.532 3.532-3.532 2.355 2.354-3.532 3.532 3.532 3.532-2.355 2.355-3.532-3.532L2.355 11.76zM0 23.557l3.532-3.532L0 16.493l2.355-2.355 3.532 3.532 3.532-3.532 2.355 2.355-3.532 3.532 3.532 3.532-2.355 2.355-3.532-3.532L2.355 25.911z"/>
  <path class="ams-logo__text-primary" fill="#EC0000" d="M16.456 8.579c0-3.795 2.613-6.408 6.389-6.408 1.812 0 3.376 0.648 4.558 1.869l-1.659 1.602c-0.706-0.801-1.717-1.24-2.88-1.24-2.251 0-3.815 1.717-3.815 4.196 0 2.46 1.583 4.196 3.834 4.196 1.183 0 2.27-0.458 2.956-1.24l1.64 1.583c-1.125 1.221-2.746 1.888-4.616 1.888-3.776 0-6.408-2.632-6.408-6.447M30.455 4.174c-0.82 0-1.411-0.572-1.411-1.373s0.591-1.373 1.411-1.373c0.82 0 1.411 0.572 1.411 1.373s-0.591 1.373-1.411 1.373m-1.183 1.202h2.365V14.797h-2.365zM34.803 11.421V7.34h-1.621v-1.965h0.858c0.782 0 1.087-0.305 1.087-1.087V2.819h2.022v2.556h2.289v1.965h-2.289v4.082c0 0.915 0.477 1.43 1.354 1.43 0.267 0 0.591-0.038 0.782-0.095v1.984c-0.286 0.076-0.82 0.133-1.24 0.133-2.136 0-3.242-1.182-3.242-3.452M40.983 17.048l1.488-1.488c0.534 0.629 1.335 0.954 2.346 0.954 1.392 0 2.213-0.801 2.213-2.155v-1.411h-0.038c-0.42 0.935-1.278 1.507-2.327 1.507-2.308 0-3.49-1.335-3.49-3.948V5.375h2.365v4.692c0 1.583 0.553 2.327 1.698 2.327 1.163 0 1.812-0.858 1.812-2.384V5.375h2.365V14.454c0 2.518-1.774 4.101-4.558 4.101-1.717 0-3.033-0.515-3.872-1.507M56.126 10.086c0-2.88 2.098-4.94 5.016-4.94 2.918 0 5.016 2.06 5.016 4.94S64.06 15.026 61.142 15.026c-2.918 0-5.016-2.06-5.016-4.94m5.016 2.88c1.526 0 2.594-1.182 2.594-2.88s-1.068-2.88-2.594-2.88c-1.526 0-2.594 1.183-2.594 2.88s1.068 2.88 2.594 2.88M68.676 7.34h-1.602v-1.965h1.602v-1.221c0-2.155 1.278-3.414 3.471-3.414 0.267 0 0.668 0.038 0.877 0.076v2.041c-0.229-0.057-0.553-0.095-0.82-0.095-0.744 0-1.163 0.496-1.163 1.392v1.221h2.289v1.965h-2.289v7.457h-2.365zM20.9 25.287h2.861l4.959 12.397h-2.651l-1.03-2.727H19.527l-1.03 2.727h-2.556zm-0.629 7.61h4.005l-1.984-5.226h-0.038zM30.284 28.262h2.212v1.278h0.038c0.477-0.973 1.316-1.507 2.403-1.507 1.221 0 2.136 0.534 2.708 1.602 0.572-1.03 1.621-1.602 2.956-1.602 2.327 0 3.452 1.297 3.452 3.948v5.703h-2.365v-5.302c0-1.545-0.534-2.289-1.64-2.289-1.106 0-1.697 0.82-1.697 2.365v5.226h-2.365v-5.302c0-1.564-0.515-2.289-1.64-2.289-1.087 0-1.697 0.839-1.697 2.365v5.226h-2.365zM48.402 33.736c-1.278-0.381-2.518-1.068-2.518-2.785 0-1.736 1.45-2.918 3.605-2.918 1.449 0 2.575 0.515 3.204 1.469l-1.354 1.354c-0.477-0.591-1.125-0.916-1.831-0.916-0.801 0-1.297 0.362-1.297 0.935 0 0.763 0.801 0.896 1.965 1.259 1.278 0.381 2.518 1.068 2.518 2.785 0 1.774-1.526 2.994-3.776 2.994-1.469 0-2.651-0.515-3.338-1.488l1.354-1.354c0.515 0.61 1.202 0.935 1.965 0.935 0.916 0 1.469-0.382 1.469-1.011 0-0.763-0.801-0.896-1.965-1.259M55.192 34.308v-4.082h-1.621v-1.965h0.858c0.782 0 1.087-0.305 1.087-1.087v-1.469h2.022v2.556h2.289v1.965h-2.289v4.082c0 0.916 0.477 1.43 1.354 1.43 0.267 0 0.591-0.038 0.782-0.095v1.984c-0.286 0.076-0.82 0.134-1.24 0.134-2.136 0-3.242-1.183-3.242-3.452M60.99 32.973c0-2.918 1.964-4.94 4.768-4.94s4.749 2.003 4.749 4.883c0 0.229-0.038 0.591-0.076 0.839h-7.057c0.172 1.278 1.259 2.136 2.651 2.136 1.03 0 1.926-0.381 2.518-1.068l1.43 1.392c-0.858 1.106-2.346 1.698-4.063 1.698-2.899 0-4.921-2.041-4.921-4.94m2.384-0.954h4.749c-0.153-1.24-1.106-2.079-2.384-2.079-1.278 0-2.231 0.839-2.365 2.079M72.472 28.262h2.231v1.564h0.038c0.458-1.068 1.297-1.64 2.403-1.64 0.286 0 0.687 0.038 0.839 0.095v2.251c-0.267-0.076-0.782-0.133-1.163-0.133-1.202 0-1.984 0.916-1.984 2.327v4.959h-2.365zM78.651 33.011c0-2.918 1.926-4.978 4.654-4.978 1.259 0 2.289 0.553 2.937 1.564h0.038V23.856h2.365v13.828h-2.232v-1.469h-0.038c-0.61 1.068-1.755 1.698-3.071 1.698-2.727 0-4.654-2.041-4.654-4.902m7.629-0.038c0-1.697-1.049-2.823-2.594-2.823-1.564 0-2.613 1.144-2.613 2.823s1.049 2.823 2.613 2.823c1.545 0 2.594-1.125 2.594-2.823M90.457 34.995c0-1.812 1.507-2.899 4.024-2.918l1.831-0.019v-0.305c0-1.106-0.706-1.678-1.984-1.678-0.839 0-1.583 0.324-2.098 0.915l-1.43-1.392c0.82-1.011 2.136-1.564 3.757-1.564 2.518 0 4.12 1.373 4.12 3.567v3.738c0 0.343 0.153 0.496 0.534 0.496h0.172v1.85h-1.106c-0.896 0-1.507-0.42-1.697-1.106h-0.038c-0.591 0.858-1.564 1.335-2.746 1.335-1.984 0-3.338-1.183-3.338-2.918m5.855-0.82v-0.534l-1.5640.019c-1.240.019-1.907 0.458-1.907 1.278 0 0.725 0.572 1.24 1.373 1.24 1.24 0 2.098-0.82 2.098-2.003M101.233 28.262h2.212v1.278h0.038c0.477-0.973 1.316-1.507 2.403-1.507 1.221 0 2.136 0.534 2.708 1.602 0.572-1.03 1.621-1.602 2.956-1.602 2.327 0 3.452 1.297 3.452 3.948v5.703h-2.365v-5.302c0-1.545-0.534-2.289-1.64-2.289-1.106 0-1.698 0.82-1.698 2.365v5.226h-2.365v-5.302c0-1.564-0.515-2.289-1.64-2.289-1.087 0-1.697 0.839-1.697 2.365v5.226h-2.365z"/>
</svg>
