<svg viewBox="0 0 24 24" xmlns="http://www.w3.org/2000/svg"><path fill-rule="evenodd" clip-rule="evenodd" d="M6.52857 15.0223C5.43859 13.1344 4.59572 9.57403 7.77613 6.37004C11.3825 2.73693 18.3911 2.31333 21.4445 2.55567C21.6859 4.89723 21.2638 10.5819 17.6446 14.5882C14.5624 17.9999 10.4757 17.3422 8.06456 16.2669C6.97229 17.5199 5.91143 18.9674 4.10514 21.5L2.49997 20.3488C4.27208 17.8641 5.37885 16.3483 6.52857 15.0223ZM9.17095 7.76113C10.5738 6.34788 12.781 5.44398 15.2013 4.94791C16.7427 4.63199 18.2605 4.50392 19.5089 4.48202C19.3852 6.92601 18.6062 10.5854 16.1852 13.2652C14.8287 14.7669 13.2707 15.1984 11.7953 15.1507C10.9794 15.1243 10.1976 14.9484 9.52585 14.7151C10.4613 13.7889 11.6023 12.7597 13.2694 11.2746L11.9587 9.79515C10.2042 11.3582 8.988 12.4545 7.96614 13.4797C7.74536 12.9686 7.5673 12.3454 7.52888 11.6687C7.46438 10.533 7.78203 9.16035 9.17095 7.76113Z"/></svg>