<svg viewBox="0 0 24 24" xmlns="http://www.w3.org/2000/svg"><path d="M15.7409 13.1036C14.5586 14.3521 12.6418 14.3521 11.4596 13.1036C11.231 12.8622 11.0466 12.5918 10.9064 12.3036L9.02379 13.09C9.26613 13.6406 9.60236 14.1565 10.0325 14.6107C12.0029 16.6916 15.1976 16.6916 17.168 14.6107L20.0222 11.5964C21.9926 9.51548 21.9926 6.14163 20.0222 4.0607C18.0518 1.97977 14.8571 1.97977 12.8867 4.0607L12.1089 4.88212L13.5522 6.3721L14.3138 5.56784C15.496 4.31928 17.4128 4.31928 18.5951 5.56784C19.7773 6.8164 19.7773 8.84071 18.5951 10.0893L15.7409 13.1036Z"/><path d="M8.25911 10.8964C9.44136 9.64788 11.3582 9.64788 12.5404 10.8964C12.769 11.1378 12.9534 11.4082 13.0935 11.6964L14.9762 10.91C14.7339 10.3594 14.3976 9.84354 13.9675 9.3893C11.9971 7.30837 8.80243 7.30837 6.83201 9.3893L3.97781 12.4036C2.0074 14.4845 2.0074 17.8584 3.97781 19.9393C5.94823 22.0202 9.1429 22.0202 11.1133 19.9393L11.8911 19.1179L10.4478 17.6279L9.68621 18.4322C8.50396 19.6807 6.58716 19.6807 5.40491 18.4322C4.22266 17.1836 4.22266 15.1593 5.40491 13.9107L8.25911 10.8964Z"/></svg>