<svg viewBox="0 0 24 24" xmlns="http://www.w3.org/2000/svg"><path fill-rule="evenodd" clip-rule="evenodd" d="M21.5 17.66V2.5H2.5V17.66H5.05L6.49001 21.5L13.56 17.66H21.5ZM11.3441 11.0059V11.6448H12.6869V11.2658C12.6869 10.7726 13.1079 10.3542 13.5586 9.90634C13.5928 9.87234 13.6272 9.83817 13.6616 9.80377C14.1056 9.34894 14.5496 8.80746 14.5496 7.96277C14.5496 6.81485 13.6183 6.1001 12.2213 6.1001C11.095 6.1001 10.4019 6.44666 9.84961 7.21555L10.9759 8.11438C11.2683 7.70285 11.5932 7.50793 11.983 7.50793C12.5353 7.50793 12.8602 7.76785 12.8602 8.21185C12.8602 8.73795 12.5668 9.01138 12.2487 9.30792C12.2001 9.35321 12.1509 9.39905 12.1021 9.44641C11.7231 9.81461 11.3441 10.2153 11.3441 11.0059ZM11.0408 13.2367C11.0408 13.7999 11.4524 14.2006 12.0155 14.2006C12.5786 14.2006 12.9902 13.7999 12.9902 13.2367C12.9902 12.6844 12.5678 12.2729 12.0155 12.2729C11.4632 12.2729 11.0408 12.6844 11.0408 13.2367Z"/></svg>