<svg viewBox="0 0 24 24" xmlns="http://www.w3.org/2000/svg"><path fill-rule="evenodd" clip-rule="evenodd" d="M19.263 4.72678C17.3362 2.80813 14.7735 1.75097 12.043 1.75C6.41665 1.75 1.83761 6.30327 1.83565 11.9C1.83467 13.6892 2.30501 15.4356 3.19821 16.9746L1.75 22.2351L7.16107 20.8236C8.65184 21.6325 10.3306 22.0584 12.0387 22.0589H12.043C17.6685 22.0589 22.2481 17.5051 22.25 11.9083C22.251 9.19586 21.1904 6.64592 19.263 4.72726V4.72678ZM12.043 20.3446H12.0396C10.5175 20.3442 9.02431 19.9372 7.72148 19.1687L7.41166 18.9857L4.20055 19.8234L5.05753 16.7098L4.85588 16.3905C4.00673 15.0472 3.55793 13.4945 3.55891 11.9006C3.56087 7.24896 7.36662 3.46422 12.0465 3.46422C14.3125 3.4652 16.4425 4.34373 18.0444 5.93871C19.6463 7.53321 20.5277 9.65337 20.5267 11.9074C20.5248 16.5594 16.719 20.3442 12.043 20.3442V20.3446ZM16.6965 14.026C16.4415 13.899 15.1876 13.2857 14.9537 13.2011C14.7197 13.1163 14.5499 13.074 14.3801 13.3281C14.2102 13.5822 13.7213 14.1536 13.5725 14.3224C13.4237 14.4918 13.2749 14.5128 13.0199 14.3857C12.765 14.2587 11.9432 13.991 10.9688 13.127C10.2107 12.4544 9.6987 11.6241 9.54997 11.37C9.40117 11.116 9.53431 10.9787 9.66152 10.8526C9.77604 10.7387 9.91652 10.5562 10.0442 10.4082C10.172 10.2603 10.2141 10.1542 10.2992 9.98528C10.3844 9.8159 10.3418 9.66798 10.2782 9.54091C10.2146 9.41389 9.70463 8.16542 9.49171 7.65779C9.28466 7.1633 9.07425 7.23047 8.91811 7.22219C8.76931 7.21489 8.59951 7.21343 8.42918 7.21343C8.25886 7.21343 7.9828 7.2767 7.74887 7.53077C7.51494 7.78482 6.85616 8.39857 6.85616 9.64652C6.85616 10.8945 7.76994 12.1011 7.89767 12.2705C8.02539 12.4398 9.69626 15.0014 12.2545 16.1005C12.8629 16.3618 13.3381 16.518 13.7086 16.6349C14.3194 16.8281 14.8754 16.8009 15.3149 16.7356C15.8048 16.6626 16.8238 16.1219 17.0362 15.5295C17.2486 14.9372 17.2486 14.429 17.185 14.3234C17.1214 14.2178 16.951 14.154 16.696 14.027L16.6965 14.026Z"/></svg>