<svg viewBox="0 0 24 24" xmlns="http://www.w3.org/2000/svg"><path fill-rule="evenodd" clip-rule="evenodd" d="M20.4005 1.88562L20.0184 3.49451C19.8313 4.2823 19.4594 5.48189 18.937 6.54702C18.6762 7.07879 18.36 7.61425 17.9847 8.05354C17.62 8.4804 17.1186 8.91142 16.4693 9.06053C15.3879 9.30886 14.0559 9.29014 13.0454 9.20894V11.9975H13.7208C14.6297 11.9975 15.439 12.4239 15.9596 13.0875L18.7374 10.4498C19.6595 9.57413 21.1031 9.56459 22.0367 10.428C22.9814 11.3016 23.0743 12.7628 22.2478 13.7489L16.498 20.6102H7.73019L5.2443 22.1145L1.18866 16.031L3.84389 14.0396L4.27659 13.4987C5.03568 12.5499 6.18493 11.9975 7.40005 11.9975H11.0454V9.20894C10.035 9.29014 8.70298 9.30886 7.62163 9.06053C6.97231 8.91142 6.47092 8.4804 6.10624 8.05354C5.73093 7.61425 5.41468 7.07879 5.15387 6.54702C4.63147 5.48189 4.25963 4.2823 4.07252 3.49451L3.69037 1.88562L5.29269 2.29446C6.34438 2.56281 8.87265 3.27777 10.3628 3.96218C11.1079 4.3044 11.6538 4.86007 12.0454 5.43143C12.4371 4.86007 12.983 4.3044 13.7281 3.96218C15.2182 3.27777 17.7465 2.56281 18.7982 2.29446L20.4005 1.88562ZM17.5485 4.7204C16.5142 5.03107 15.3478 5.41912 14.5628 5.77965C14.1312 5.97787 13.7715 6.37815 13.4947 6.89224C13.4349 7.00317 13.3815 7.11498 13.334 7.22509C14.1867 7.28631 15.2362 7.29164 16.0216 7.11127C16.0723 7.09964 16.2272 7.03167 16.4641 6.75441C16.6903 6.48959 16.9209 6.1158 17.1414 5.66633C17.2907 5.36194 17.4271 5.03988 17.5485 4.7204ZM14.6428 16.7634C15.5352 16.7634 16.2856 16.1551 16.5019 15.3305L20.1145 11.9001C20.2722 11.7503 20.5191 11.7487 20.6788 11.8964C20.8404 12.0458 20.8563 12.2957 20.7149 12.4643L15.5646 18.6102H7.17219L5.8466 19.4124L3.90224 16.4958L5.24701 15.4873L5.83832 14.7481C6.21787 14.2737 6.79249 13.9975 7.40005 13.9975H13.7208C14.1606 13.9975 14.5218 14.3339 14.5612 14.7634H11.0235V16.7634H14.6428ZM9.52808 5.77965C8.7431 5.41912 7.57673 5.03107 6.54239 4.7204C6.66383 5.03988 6.80024 5.36194 6.94953 5.66633C7.16997 6.1158 7.4006 6.48959 7.62685 6.75441C7.86372 7.03167 8.01859 7.09964 8.06927 7.11127C8.85469 7.29164 9.90418 7.28631 10.7569 7.22509C10.7094 7.11498 10.656 7.00317 10.5962 6.89224C10.3194 6.37815 9.95966 5.97787 9.52808 5.77965Z"/></svg>