<svg viewBox="0 0 24 24" xmlns="http://www.w3.org/2000/svg"><path fill-rule="evenodd" clip-rule="evenodd" d="M21.5 10C21.5 14.1421 18.1421 17.5 14 17.5C9.85786 17.5 6.5 14.1421 6.5 10C6.5 5.85787 9.85786 2.5 14 2.5C18.1421 2.5 21.5 5.85787 21.5 10ZM10.5104 11C10.9124 12.6111 12.2631 13.8846 14.0016 13.8846C14.9482 13.8846 15.798 13.4939 16.4285 12.8799L15.0331 11.4471C14.7419 11.7307 14.381 11.8846 14.0016 11.8846C13.4697 11.8846 12.9324 11.5544 12.6315 11H14.9522V9H12.6315C12.9324 8.44559 13.4697 8.11539 14.0016 8.11539C14.381 8.11539 14.7419 8.26931 15.0331 8.55293L16.4285 7.12016C15.798 6.50614 14.9482 6.11539 14.0016 6.11539C12.2631 6.11539 10.9124 7.38893 10.5104 9H9.96155V11H10.5104ZM2.5 14C2.5 11.9931 3.28825 10.1703 4.57203 8.82434C4.52448 9.20956 4.5 9.60192 4.5 9.99999C4.5 15.2467 8.75329 19.5 14 19.5C14.3981 19.5 14.7904 19.4755 15.1756 19.428C13.8297 20.7118 12.0069 21.5 10 21.5C5.85786 21.5 2.5 18.1421 2.5 14Z"/></svg>