<svg viewBox="0 0 24 24" xmlns="http://www.w3.org/2000/svg"><path fill-rule="evenodd" clip-rule="evenodd" d="M10.9722 1V3.5H12.9722V1H10.9722ZM16.8605 14.8009C16.1785 15.8107 15.4772 16.8492 15.2759 18.0483L15.2 18.5H8.8L8.72414 18.0483C8.52278 16.8492 7.82146 15.8107 7.13954 14.8008L7.0682 14.6952C6.39472 13.6968 6 12.4841 6 11.1765C6 7.76529 8.68629 5 12 5C15.3137 5 18 7.76529 18 11.1765C18 12.4841 17.6053 13.6968 16.9318 14.6952L16.8605 14.8009ZM9.00002 22H10.2676C10.6134 22.5978 11.2598 23 12.0001 23C12.7403 23 13.3867 22.5978 13.7325 22H15V20H9.00002V22ZM3.42515 5.23686L5.19292 7.00462L6.60713 5.59041L4.83936 3.82264L3.42515 5.23686ZM18.8394 7.00462L20.6071 5.23686L19.1929 3.82264L17.4252 5.59041L18.8394 7.00462ZM22.8 12H20.3V10H22.8V12ZM3.70001 12H1.20001V10H3.70001V12Z"/></svg>