<svg viewBox="0 0 24 24" xmlns="http://www.w3.org/2000/svg"><path d="M12.5328 15.7811C12.9567 15.5811 13.25 15.1498 13.25 14.65C13.25 13.9597 12.6904 13.4 12 13.4C11.3096 13.4 10.75 13.9597 10.75 14.65C10.75 15.1498 11.0433 15.5811 11.4672 15.7811L11 17.65H13L12.5328 15.7811Z"/><path fill-rule="evenodd" clip-rule="evenodd" d="M7 9.5V6.5C7 3.73858 9.23858 1.5 12 1.5C14.7614 1.5 17 3.73858 17 6.5H15C15 4.84315 13.6569 3.5 12 3.5C10.3431 3.5 9 4.84315 9 6.5V9.5H20V21.5H4V9.5H7ZM6 19.5V11.5H18V19.5H6Z"/></svg>