<svg viewBox="0 0 24 24" xmlns="http://www.w3.org/2000/svg"><path fill-rule="evenodd" clip-rule="evenodd" d="M11 3.5C11 3.77614 10.7761 4 10.5 4C10.2239 4 10 3.77614 10 3.5C10 3.22386 10.2239 3 10.5 3C10.7761 3 11 3.22386 11 3.5ZM13 3.5C13 4.88071 11.8807 6 10.5 6C9.11929 6 8 4.88071 8 3.5C8 2.11929 9.11929 1 10.5 1C11.8807 1 13 2.11929 13 3.5ZM16.7236 14.0747C16.7236 15.3669 16.6795 18.1357 16.6795 18.1357H14.1015L14.046 22.9395L9.04382 23L9.09926 18.1356L8.00504 18.1356L8.00504 14.252C8.00172 14.202 8 14.1529 8 14.105C8 14.0355 8.00169 13.9665 8.00504 13.8978L8.00505 7H12.9921L14.6562 9.22777L14.6562 10.3841C15.8963 11.1448 16.7236 12.5132 16.7236 14.0747ZM12.0687 20.9633L11.067 20.9754L11.1222 16.1356L10.005 16.1356L10.005 14.1856L10.0006 14.1193C10 14.11 10 14.105 10 14.105C10 14.0681 10.0009 14.0315 10.0027 13.9952L10.005 13.9465L10.005 9H11.9897L12.6562 9.89226L12.6561 11.5036L13.6104 12.0889C14.2825 12.5012 14.7236 13.2373 14.7236 14.0747C14.7236 14.6031 14.716 15.3916 14.7071 16.1357H12.1244L12.0687 20.9633Z"/></svg>