<svg viewBox="0 0 24 24" xmlns="http://www.w3.org/2000/svg"><path fill-rule="evenodd" clip-rule="evenodd" d="M18.5 2.5C20.1569 2.5 21.5 3.84315 21.5 5.5V18.5C21.5 20.1569 20.1569 21.5 18.5 21.5H5.5C3.84315 21.5 2.5 20.1569 2.5 18.5V5.5C2.5 3.89489 3.76055 2.58421 5.3457 2.50391L5.5 2.5H18.5ZM4.5 18.5C4.5 19.0523 4.94772 19.5 5.5 19.5H8.25V16.5996H4.5V18.5ZM10.25 19.5H13.75V16.5996H10.25V19.5ZM15.75 19.5H18.5C19.0523 19.5 19.5 19.0523 19.5 18.5V16.5996H15.75V19.5ZM4.5 14.5996H8.25V11.9004H4.5V14.5996ZM10.25 14.5996H13.75V11.9004H10.25V14.5996ZM15.75 14.5996H19.5V11.9004H15.75V14.5996ZM4.5 9.90039H8.25V7.25H4.5V9.90039ZM10.25 9.90039H13.75V7.25H10.25V9.90039ZM15.75 9.90039H19.5V7.25H15.75V9.90039Z"/></svg>