<svg viewBox="0 0 24 24" xmlns="http://www.w3.org/2000/svg"><path fill-rule="evenodd" clip-rule="evenodd" d="M15.5 18.5244H15.498C15.4219 20.1738 12.542 21.5 9 21.5C5.45799 21.5 2.57809 20.1738 2.50195 18.5244H2.5V15.7646C4.13829 16.5249 6.44437 17 9 17C11.5556 17 13.8617 16.5249 15.5 15.7646V18.5244ZM5.37012 17.8086C4.82193 17.7425 4.32407 18.1326 4.25781 18.6807C4.19176 19.2288 4.58182 19.7267 5.12988 19.793L6.7002 19.9824C7.24827 20.0483 7.7463 19.6574 7.8125 19.1094C7.87837 18.5613 7.48751 18.0633 6.93945 17.9971L5.37012 17.8086Z"/><path d="M21.5 16.4961H21.498C21.4369 17.8205 19.5677 18.9339 17 19.3223V14.8701C18.7478 14.6933 20.3024 14.2921 21.5 13.7363V16.4961Z"/><path fill-rule="evenodd" clip-rule="evenodd" d="M15.5 13.4707C15.2691 13.6378 14.9577 13.8206 14.5518 14.001C13.2336 14.5868 11.2724 15 9 15C6.72757 15 4.76636 14.5868 3.44824 14.001C3.04229 13.8206 2.7309 13.6378 2.5 13.4707V9.26465C4.13829 10.0249 6.44437 10.5 9 10.5C11.5556 10.5 13.8617 10.0249 15.5 9.26465V13.4707ZM5.37012 11.5078C4.82197 11.4418 4.32413 11.8318 4.25781 12.3799C4.19176 12.928 4.58183 13.4259 5.12988 13.4922L6.7002 13.6816C7.24827 13.7475 7.7463 13.3566 7.8125 12.8086C7.8783 12.2605 7.48747 11.7625 6.93945 11.6963L5.37012 11.5078Z"/><path d="M21.5 11.4424C21.2691 11.6095 20.9577 11.7922 20.5518 11.9727C19.6393 12.3782 18.4187 12.701 17 12.8613V8.37012C18.7478 8.19332 20.3024 7.79208 21.5 7.23633V11.4424Z"/><path d="M9 4.52832C12.202 4.52832 14.8608 5.61334 15.3984 7.04004C15.18 7.1873 14.9014 7.3456 14.5518 7.50098C13.2336 8.08681 11.2724 8.5 9 8.5C6.72757 8.5 4.76636 8.08681 3.44824 7.50098C3.09828 7.34544 2.81908 7.18743 2.60059 7.04004C3.13796 5.61318 5.79775 4.52832 9 4.52832Z"/><path d="M15 2.5C18.202 2.5 20.8608 3.58502 21.3984 5.01172C21.18 5.15898 20.9014 5.31728 20.5518 5.47266C19.5878 5.90108 18.2798 6.23606 16.7578 6.38574C16.2881 5.28049 15.2111 4.51976 14.2324 4.06152C13.3029 3.62633 12.1858 3.31822 10.9727 3.15723C12.0798 2.74699 13.4783 2.5 15 2.5Z"/></svg>