<svg viewBox="0 0 24 24" xmlns="http://www.w3.org/2000/svg"><path fill-rule="evenodd" clip-rule="evenodd" d="M15.0343 3.52165C16.399 2.15945 18.6117 2.15945 19.9764 3.52165C21.3412 4.88385 21.3412 7.09241 19.9764 8.45461L9.10472 19.3061L2 21.4853L3.79505 14.74L15.0343 3.52165ZM18.5644 4.93106C17.9795 4.34726 17.0312 4.34726 16.4463 4.93106L15.5724 5.80333L17.6905 7.91746L18.5644 7.04519C19.1493 6.46139 19.1493 5.51486 18.5644 4.93106ZM5.58709 15.7701L14.1604 7.21274L16.2785 9.32687L8.04367 17.5463L4.85405 18.5247L5.58709 15.7701Z"/><path d="M11.4148 21.5H21V19.5068H11.4148V21.5Z"/></svg>