<svg viewBox="0 0 22 22" xmlns="http://www.w3.org/2000/svg"><path d="M10.9754 11.9638C13.1491 11.9638 14.9113 10.181 14.9113 7.9819C14.9113 5.78276 13.1491 4 10.9754 4C8.80169 4 7.03955 5.78276 7.03955 7.9819C7.03955 10.181 8.80169 11.9638 10.9754 11.9638Z"/><path fill-rule="evenodd" clip-rule="evenodd" d="M22 11C22 17.0751 17.0751 22 11 22C4.92487 22 0 17.0751 0 11C0 4.92487 4.92487 0 11 0C17.0751 0 22 4.92487 22 11ZM18.2299 16.3609L18.172 15.7144C18.0261 14.8177 17.1677 13.9548 16.185 13.9548H5.81499C4.99196 13.9548 4.23188 14.4899 3.9386 15.28C3.9101 15.3506 3.88732 15.4518 3.86899 15.5395C3.84466 15.6559 3.82261 15.7751 3.81199 15.8936L3.77014 16.3609C2.65798 14.8635 2 13.0086 2 11C2 6.02944 6.02944 2 11 2C15.9706 2 20 6.02944 20 11C20 13.0086 19.342 14.8635 18.2299 16.3609Z"/></svg>