<svg viewBox="0 0 22 22" xmlns="http://www.w3.org/2000/svg"><path d="M14.9112 7.9819C14.9112 10.181 13.1491 11.9638 10.9754 11.9638C8.80168 11.9638 7.03954 10.181 7.03954 7.9819C7.03954 5.78276 8.80168 4 10.9754 4C13.1491 4 14.9112 5.78276 14.9112 7.9819ZM12.9433 7.9819C12.9433 9.08147 12.0622 9.97285 10.9754 9.97285C9.88853 9.97285 9.00746 9.08147 9.00746 7.9819C9.00746 6.88233 9.88853 5.99095 10.9754 5.99095C12.0622 5.99095 12.9433 6.88233 12.9433 7.9819Z"/><path d="M11 22C17.0751 22 22 17.0751 22 11C22 4.92487 17.0751 0 11 0C4.92487 0 0 4.92487 0 11C0 17.0751 4.92487 22 11 22ZM11 20C13.0339 20 14.9103 19.3253 16.4175 18.1875L16.2253 16.0415C16.2122 16.0192 16.192 15.9931 16.167 15.97C16.1549 15.9589 16.1445 15.951 16.1366 15.9457H5.8194C5.81695 15.9465 5.81155 15.9487 5.80393 15.9541C5.79886 15.9576 5.79481 15.9612 5.79161 15.9646C5.78399 16.0015 5.77909 16.0276 5.77576 16.0475C5.77282 16.0651 5.77183 16.074 5.77183 16.074L5.58255 18.1875C7.08972 19.3253 8.96607 20 11 20ZM18.172 15.7144L18.2299 16.3609C19.342 14.8635 20 13.0086 20 11C20 6.02944 15.9706 2 11 2C6.02944 2 2 6.02944 2 11C2 13.0086 2.65798 14.8635 3.77014 16.3609L3.81199 15.8936C3.82261 15.7751 3.84466 15.6559 3.86899 15.5395C3.88732 15.4518 3.9101 15.3506 3.9386 15.28C4.23188 14.4899 4.99196 13.9548 5.81499 13.9548H16.185C17.1677 13.9548 18.0261 14.8177 18.172 15.7144Z"/></svg>