<svg viewBox="0 0 24 24" xmlns="http://www.w3.org/2000/svg"><path d="M11.9754 12.9638C14.1491 12.9638 15.9113 11.181 15.9113 8.9819C15.9113 6.78276 14.1491 5 11.9754 5C9.80169 5 8.03955 6.78276 8.03955 8.9819C8.03955 11.181 9.80169 12.9638 11.9754 12.9638Z"/><path fill-rule="evenodd" clip-rule="evenodd" d="M23 12C23 18.0751 18.0751 23 12 23C5.92487 23 1 18.0751 1 12C1 5.92487 5.92487 1 12 1C18.0751 1 23 5.92487 23 12ZM19.2299 17.3609L19.172 16.7144C19.0261 15.8177 18.1677 14.9548 17.185 14.9548H6.81499C5.99196 14.9548 5.23188 15.4899 4.9386 16.28C4.9101 16.3506 4.88732 16.4518 4.86899 16.5395C4.84466 16.6559 4.82261 16.7751 4.81199 16.8936L4.77014 17.3609C3.65798 15.8635 3 14.0086 3 12C3 7.02944 7.02944 3 12 3C16.9706 3 21 7.02944 21 12C21 14.0086 20.342 15.8635 19.2299 17.3609Z"/></svg>