<svg viewBox="0 0 36 36" xmlns="http://www.w3.org/2000/svg"><path d="M28.291 13.29L31.353 10.228L32.767 11.642L29.705 14.704L28.291 13.29ZM28.313 22.719L29.698 21.276L32.757 24.213L31.371 25.656L28.313 22.719ZM30 17H34V19H30V17ZM25 13.78V2.16003L9.43 10.5H2V25.5H9.43L10.89 26.28L6.59 30.58L9.42 33.41L14.58 28.25L25 33.84V22.22C25.8789 21.9164 26.6413 21.3462 27.1809 20.5889C27.7205 19.8316 28.0105 18.9249 28.0105 17.995C28.0105 17.0652 27.7205 16.1584 27.1809 15.4011C26.6413 14.6438 25.8789 14.0737 25 13.77V13.78ZM6 21.5V14.5H10V21.5H6ZM21 27.16L12 22.34V13.66L21 8.84003V27.16Z"/></svg>