<svg viewBox="0 0 24 24" xmlns="http://www.w3.org/2000/svg"><path fill-rule="evenodd" clip-rule="evenodd" d="M18.1023 10.5159C18.1523 10.5159 18.2422 10.5059 18.2422 10.5059L18.2522 10.4959C20.871 10.4959 23.0001 12.6246 23.0001 15.243C23.0001 17.8613 20.871 19.99 18.2522 19.99C15.6334 19.99 13.5044 17.8613 13.5044 15.243C13.5044 13.3741 14.6039 11.7651 16.1732 10.9956L15.8933 9.85634C13.9742 10.8257 12.6947 12.8045 12.6947 15.0231V16.0225H6.2077L5.3181 14.5834L7.85695 9.41661L7.14727 7.98751H7.00734C6.45759 7.98751 6.00779 7.53779 6.00779 6.98813C6.00779 6.43847 6.45759 5.98876 7.00734 5.98876H10.006C10.5557 5.98876 11.0055 6.43847 11.0055 6.98813C11.0055 7.53779 10.5557 7.98751 10.006 7.98751H9.37626L11.3454 11.985C12.115 10.1761 13.5544 8.68707 15.4035 7.88757L14.9337 5.99875H12.9946V4H14.9937C15.8633 4 16.633 4.58963 16.8529 5.42911L18.1023 10.5159ZM8.95645 11.6852L7.80697 14.0337L7.79698 14.0437H10.1159L8.95645 11.6852ZM15.4935 15.243C15.4935 16.7603 16.7302 17.9885 18.2372 17.9912C19.7542 17.9885 20.981 16.7504 20.981 15.243C20.981 13.8538 19.9415 12.7145 18.6021 12.5347L19.2118 15.0031L17.2727 15.4828L16.6629 13.0044C15.9533 13.5041 15.4935 14.3235 15.4935 15.243Z"/><path d="M2.99909 15.243C2.99909 16.762 4.22853 17.9913 5.74784 17.9913V18.0013C6.57746 18.0013 7.31713 17.6215 7.8169 17.0518H10.1358C9.42617 18.7808 7.72694 20 5.74784 20C3.12903 20 1 17.8713 1 15.253C1 12.6346 3.12903 10.5059 5.74784 10.5059C5.83709 10.5059 5.9228 10.5166 6.00918 10.5273C6.06792 10.5346 6.12696 10.5419 6.18764 10.5459L5.19809 12.5547C3.94866 12.8045 2.99909 13.9138 2.99909 15.243Z"/></svg>