<svg width="22" height="16" viewBox="0 0 22 16" fill="none" xmlns="http://www.w3.org/2000/svg">
<path fill-rule="evenodd" clip-rule="evenodd" d="M17.1023 6.51592C17.1523 6.51592 17.2422 6.50593 17.2422 6.50593L17.2522 6.49594C19.871 6.49594 22.0001 8.6246 22.0001 11.243C22.0001 13.8613 19.871 15.99 17.2522 15.99C14.6334 15.99 12.5044 13.8613 12.5044 11.243C12.5044 9.37414 13.6039 7.76514 15.1732 6.99562L14.8933 5.85634C12.9742 6.82573 11.6947 8.80449 11.6947 11.0231V12.0225H5.2077L4.3181 10.5834L6.85695 5.41661L6.14727 3.98751H6.00734C5.45759 3.98751 5.00779 3.53779 5.00779 2.98813C5.00779 2.43847 5.45759 1.98876 6.00734 1.98876H9.00597C9.55572 1.98876 10.0055 2.43847 10.0055 2.98813C10.0055 3.53779 9.55572 3.98751 9.00597 3.98751H8.37626L10.3454 7.985C11.115 6.17614 12.5544 4.68707 14.4035 3.88757L13.9337 1.99875H11.9946V0H13.9937C14.8633 0 15.633 0.589631 15.8529 1.42911L17.1023 6.51592ZM7.95645 7.68519L6.80697 10.0337L6.79698 10.0437H9.11592L7.95645 7.68519ZM14.4935 11.243C14.4935 12.7603 15.7302 13.9885 17.2372 13.9912C18.7542 13.9885 19.981 12.7504 19.981 11.243C19.981 9.85384 18.9415 8.71455 17.6021 8.53466L18.2118 11.0031L16.2727 11.4828L15.6629 9.00437C14.9533 9.50406 14.4935 10.3235 14.4935 11.243Z" fill="black"/>
<path d="M1.99909 11.243C1.99909 12.762 3.22853 13.9913 4.74784 13.9913V14.0013C5.57746 14.0013 6.31713 13.6215 6.8169 13.0518H9.13584C8.42617 14.7808 6.72694 16 4.74784 16C2.12903 16 0 13.8713 0 11.253C0 8.63461 2.12903 6.50594 4.74784 6.50594C4.83709 6.50594 4.9228 6.51656 5.00918 6.52727C5.06792 6.53455 5.12696 6.54187 5.18764 6.54591L4.19809 8.55466C2.94866 8.8045 1.99909 9.91381 1.99909 11.243Z" fill="black"/>
</svg>
