<svg viewBox="0 0 22 17" xmlns="http://www.w3.org/2000/svg"><path fill-rule="evenodd" clip-rule="evenodd" d="M16 9.5C16 12.2614 13.7614 14.5 11 14.5C8.23858 14.5 6 12.2614 6 9.5C6 6.73858 8.23858 4.5 11 4.5C13.7614 4.5 16 6.73858 16 9.5ZM11 12.5C12.6569 12.5 14 11.1569 14 9.5C14 7.84315 12.6569 6.5 11 6.5C9.34315 6.5 8 7.84315 8 9.5C8 11.1569 9.34315 12.5 11 12.5Z"/><path d="M17.5 7C18.0523 7 18.5 6.55228 18.5 6C18.5 5.44772 18.0523 5 17.5 5C16.9477 5 16.5 5.44772 16.5 6C16.5 6.55228 16.9477 7 17.5 7Z"/><path fill-rule="evenodd" clip-rule="evenodd" d="M16 2V1C16 0.447715 15.5523 0 15 0H7C6.44772 0 6 0.447715 6 1V2H0V17H22V2H16ZM20 4H14V2H8V4H2V15H20V4Z"/></svg>