<svg width="19" height="19" viewBox="0 0 19 19" fill="none" xmlns="http://www.w3.org/2000/svg">
<path fill-rule="evenodd" clip-rule="evenodd" d="M3.98925 19L2.54683 15.1559H0V0H19V15.1559H11.0639L3.98925 19ZM5.5 8.58841C6.05228 8.58841 6.5 8.13604 6.5 7.57802C6.5 7.02 6.05228 6.56763 5.5 6.56763C4.94772 6.56763 4.5 7.02 4.5 7.57802C4.5 8.13604 4.94772 8.58841 5.5 8.58841ZM10.5 7.57802C10.5 8.13604 10.0523 8.58841 9.5 8.58841C8.94771 8.58841 8.5 8.13604 8.5 7.57802C8.5 7.02 8.94771 6.56763 9.5 6.56763C10.0523 6.56763 10.5 7.02 10.5 7.57802ZM13.5 8.58841C14.0523 8.58841 14.5 8.13604 14.5 7.57802C14.5 7.02 14.0523 6.56763 13.5 6.56763C12.9477 6.56763 12.5 7.02 12.5 7.57802C12.5 8.13604 12.9477 8.58841 13.5 8.58841Z" fill="black"/>
</svg>
