<svg viewBox="0 0 24 24" xmlns="http://www.w3.org/2000/svg"><path fill-rule="evenodd" clip-rule="evenodd" d="M12 16.1C14.2135 16.1 16.008 14.2644 16.008 12C16.008 9.73563 14.2135 7.9 12 7.9C9.78648 7.9 7.99207 9.73563 7.99207 12C7.99207 14.2644 9.78648 16.1 12 16.1ZM14.004 12C14.004 13.1322 13.1068 14.05 12 14.05C10.8932 14.05 9.99604 13.1322 9.99604 12C9.99604 10.8678 10.8932 9.95 12 9.95C13.1068 9.95 14.004 10.8678 14.004 12Z"/><path fill-rule="evenodd" clip-rule="evenodd" d="M15.0094 1.75H8.99063L7.98637 4.85371L7.82883 4.93796L4.77913 3.94344L1.25 8.94747L3.16024 11.6997V12.3003L1.25 15.0525L4.77913 20.0566L7.82883 19.062L7.98637 19.1463L8.99063 22.25H15.0094L16.0136 19.1463L16.1712 19.062L19.2209 20.0566L22.75 15.0525L20.8398 12.3003V11.6997L22.75 8.94747L19.2209 3.94344L16.1712 4.93796L16.0136 4.85371L15.0094 1.75ZM9.63501 6.28074L10.4394 3.79489H13.5606L14.365 6.28073L15.9831 7.14607L18.4445 6.34339L20.2877 8.95698L18.8358 11.0489V12.951L20.2877 15.043L18.4445 17.6566L15.9831 16.8539L14.365 17.7193L13.5606 20.2051H10.4394L9.63501 17.7193L8.01694 16.8539L5.55551 17.6566L3.71226 15.043L5.16421 12.951V11.0489L3.71226 8.95698L5.55551 6.34339L8.01694 7.14607L9.63501 6.28074Z"/></svg>