<svg viewBox="0 0 24 24" xmlns="http://www.w3.org/2000/svg"><path d="M14.004 12C14.004 13.1322 13.1068 14.05 12 14.05C10.8932 14.05 9.99604 13.1322 9.99604 12C9.99604 10.8678 10.8932 9.95002 12 9.95002C13.1068 9.95002 14.004 10.8678 14.004 12Z"/><path fill-rule="evenodd" clip-rule="evenodd" d="M19.1229 4.23834L16.1473 5.2087L15.8068 5.02661L14.8275 2H9.1725L8.19319 5.02661L7.85271 5.2087L4.87707 4.23834L1.55511 8.94862L3.41024 11.6215V12.3785L1.55511 15.0514L4.87707 19.7617L7.85271 18.7913L8.19319 18.9734L9.17251 22H14.8275L15.8068 18.9734L16.1473 18.7913L19.1229 19.7617L22.4449 15.0514L20.5898 12.3785V11.6215L22.4449 8.94862L19.1229 4.23834ZM12 16.1C14.2135 16.1 16.008 14.2644 16.008 12C16.008 9.73566 14.2135 7.90002 12 7.90002C9.78648 7.90002 7.99207 9.73566 7.99207 12C7.99207 14.2644 9.78648 16.1 12 16.1Z"/></svg>