<svg viewBox="0 0 19 19" xmlns="http://www.w3.org/2000/svg"><path d="M11.563 2C11.563 3.10457 10.6626 4 9.55204 4C8.44145 4 7.54113 3.10457 7.54113 2C7.54113 0.895431 8.44145 0 9.55204 0C10.6626 0 11.563 0.895431 11.563 2Z"/><path fill-rule="evenodd" clip-rule="evenodd" d="M2.95003 4.5H8.18445L11.4417 11.5191L14.7372 13.1386C15.3101 12.2994 15.8969 11.461 16.8233 10.9173C16.8774 10.8855 16.9326 10.8548 16.9891 10.8251C17.5288 10.5414 18.1803 10.3548 19 10.3164V18.9564H9.04935C9.04935 18.9564 9.46159 17.5764 10.1453 17.0964C10.2249 17.0404 10.3087 16.9947 10.396 16.957L10.3974 16.9564C10.6589 16.8437 10.9522 16.8017 11.2602 16.7641L11.3428 16.7541C11.5641 16.7275 11.7921 16.407 12.0205 16.0859C12.2141 15.8138 12.4081 15.5412 12.5986 15.4464C12.9353 15.2539 13.2264 15.0187 13.4887 14.7559L5.9205 11.0366L7.54113 13.723V18C7.54113 18.5523 7.09097 19 6.53568 19C5.98038 19 5.53022 18.5523 5.53022 18V14.277L4.75624 12.994L1.89772 18.4614C1.64153 18.9513 1.03446 19.142 0.541794 18.8872C0.0491239 18.6324 -0.142582 18.0286 0.113606 17.5386L4.00522 10.0954L1.57609 8.90162C1.56039 8.89411 1.54481 8.88615 1.52936 8.87775C1.42681 8.82217 1.33765 8.7511 1.2634 8.66895C1.16152 8.55638 1.08824 8.42358 1.04642 8.28185C0.973682 8.03535 0.996083 7.76185 1.12858 7.52085C1.13701 7.50547 1.14579 7.4904 1.1549 7.47563L2.95003 4.5ZM7.48735 7.77041L8.57267 10.1092L6.73638 9.20675L7.48735 7.77041ZM5.88502 6.5L4.93316 8.32058L3.43457 7.58412L4.08859 6.5H5.88502Z"/></svg>