<svg viewBox="0 0 24 24" xmlns="http://www.w3.org/2000/svg"><path d="M21.953 12.9629C21.4624 18.0361 17.1925 22 12 22C6.47838 22 2 17.5176 2 11.9856C2 7.13747 5.44019 3.09479 10.007 2.17003C10.0023 2.27055 10 2.37163 10 2.4732C10 6.06518 12.9079 8.9794 16.4982 8.98039C17.4105 11.1712 19.4848 12.7571 21.953 12.9629ZM7.75 18.2425C9.68423 18.2425 11.25 16.6728 11.25 14.7392C11.25 12.8057 9.68423 11.236 7.75 11.236C5.81577 11.236 4.25 12.8057 4.25 14.7392C4.25 16.6728 5.81577 18.2425 7.75 18.2425ZM15.5 18.9935C16.8819 18.9935 18 17.8721 18 16.4915C18 15.111 16.8819 13.9896 15.5 13.9896C14.1181 13.9896 13 15.111 13 16.4915C13 17.8721 14.1181 18.9935 15.5 18.9935ZM12.75 14.2373C13.8558 14.2373 14.75 13.34 14.75 12.236C14.75 11.1319 13.8558 10.2347 12.75 10.2347C11.6442 10.2347 10.75 11.1319 10.75 12.236C10.75 13.34 11.6442 14.2373 12.75 14.2373ZM7.5 10.983C8.88194 10.983 10 9.86164 10 8.48108C10 7.10052 8.88194 5.97912 7.5 5.97912C6.11806 5.97912 5 7.10052 5 8.48108C5 9.86164 6.11806 10.983 7.5 10.983Z" stroke-width="2" stroke-miterlimit="10"/></svg>