<svg viewBox="0 0 16 20" xmlns="http://www.w3.org/2000/svg"><path d="M6.49989 10.52C7.08989 11.56 8.11989 12.25 9.28989 12.25H9.29989C10.0899 12.25 10.8599 11.92 11.4599 11.34L12.4999 12.42C11.6099 13.28 10.4699 13.75 9.28989 13.75C7.28989 13.75 5.56989 12.42 4.83989 10.52H3.63989V9.02H4.50989C4.50489 8.975 4.49927 8.93 4.49364 8.885C4.47677 8.75 4.45989 8.615 4.45989 8.48C4.45989 8.345 4.47677 8.21 4.49364 8.075C4.49927 8.03 4.50489 7.985 4.50989 7.94H3.63989V6.44H4.82989C5.55989 4.54 7.27989 3.21 9.27989 3.21C10.4799 3.21 11.6299 3.69 12.5199 4.57L11.4699 5.64C10.8699 5.04 10.0899 4.71 9.28989 4.71C8.11989 4.71 7.08989 5.4 6.49989 6.44H9.72989V7.94H6.00989C6.00489 7.985 5.99927 8.03 5.99364 8.075C5.97677 8.21 5.95989 8.345 5.95989 8.48C5.95989 8.615 5.97677 8.75 5.99364 8.885C5.99927 8.93 6.00489 8.975 6.00989 9.02H9.72989V10.52H6.49989Z"/><path d="M0 20V0H16V14.21L13.43 20H0ZM14 2H2V18.01H11.56L10.18 16.46L14 13.63V2Z"/></svg>