<svg viewBox="0 0 21 22" xmlns="http://www.w3.org/2000/svg"><path d="M4.27919 18.4763L5.61473 11.7863L14.4916 1.17626C15.0439 0.496262 15.8673 0.0762616 16.7509 0.00626162C17.5744 -0.0437384 18.3978 0.206262 19.0404 0.736262C19.7132 1.28626 20.1249 2.05626 20.2053 2.91626C20.2856 3.77626 20.0346 4.61626 19.4823 5.27626L10.6155 15.8863L4.27919 18.4763ZM7.48248 12.6763L6.9804 15.2163L9.3904 14.2263L16.2151 6.06418L14.319 4.49207L7.48248 12.6763ZM17.9359 4.00626L17.5002 4.52724L15.6034 2.95452L16.0279 2.44626C16.2489 2.18626 16.5501 2.02626 16.8915 2.00626C17.2129 1.98626 17.5241 2.08626 17.7651 2.28626C18.0162 2.49626 18.1769 2.79626 18.207 3.11626C18.2371 3.43626 18.1367 3.75626 17.9359 4.00626Z"/><path d="M15.0238 15.2663V13.7363L17.0321 11.3363V15.8463L14.4514 21.6363H0.965454V1.63626H11.4891L9.81216 3.63626H2.97379V19.6363H12.5736L11.1879 18.0963L15.0238 15.2663Z"/></svg>