<svg width="18" height="22" viewBox="0 0 18 22" fill="none" xmlns="http://www.w3.org/2000/svg">
<path d="M14.5 6.84H7.5V8.84H14.5V6.84Z" fill="black"/>
<path d="M7.5 10.55H14.5V12.55H7.5V10.55Z" fill="black"/>
<path d="M7.5 14.26H12.56V16.26H7.5V14.26Z" fill="black"/>
<path fill-rule="evenodd" clip-rule="evenodd" d="M14.62 0L14.89 3.57H18V16.63L15.75 21.96H4V20.11L1.45 20.3L0 1.1L14.62 0ZM3.29 18.15L4 18.1V3.57H12.89L12.78 2.14L2.15 2.95L3.29 18.15ZM6 5.57V19.96H14.03L13.56 19.38L12.91 18.59L15.85 16.23L16 16.11V5.57H6Z" fill="black"/>
</svg>
