<svg width="16" height="20" viewBox="0 0 16 20" fill="none" xmlns="http://www.w3.org/2000/svg">
<path fill-rule="evenodd" clip-rule="evenodd" d="M0 20V0H16V14.21L13.43 20H0ZM6.50001 10.52C7.09001 11.56 8.12002 12.25 9.29001 12.25H9.30001C10.09 12.25 10.86 11.92 11.46 11.34L12.5 12.42C11.61 13.28 10.47 13.75 9.29001 13.75C7.29001 13.75 5.57001 12.42 4.84001 10.52H3.64001V9.02001H4.51002C4.50501 8.97501 4.49939 8.93 4.49376 8.885C4.47689 8.75 4.46001 8.61501 4.46001 8.48001C4.46001 8.34501 4.47689 8.21001 4.49376 8.07501C4.49939 8.03001 4.50501 7.98501 4.51002 7.94001H3.64001V6.44001H4.83001C5.56001 4.54001 7.28001 3.21001 9.28001 3.21001C10.48 3.21001 11.63 3.69001 12.52 4.57001L11.47 5.64001C10.87 5.04001 10.09 4.71001 9.29001 4.71001C8.12002 4.71001 7.09001 5.40001 6.50001 6.44001H9.73001V7.94001H6.01002C6.00501 7.98501 5.99939 8.03001 5.99376 8.07501C5.97689 8.21001 5.96001 8.34501 5.96001 8.48001C5.96001 8.61501 5.97689 8.75 5.99376 8.885C5.99939 8.93 6.00501 8.97501 6.01002 9.02001H9.73001V10.52H6.50001Z" fill="black"/>
</svg>
