<svg width="18" height="21" viewBox="0 0 18 21" fill="none" xmlns="http://www.w3.org/2000/svg">
<path d="M17.0887 3.40075L14.4408 1.19616L14.9099 0.63C15.2099 0.26 15.6399 0.04 16.1199 0H16.2499C16.6499 0 17.0299 0.13 17.3399 0.39C18.0699 0.99 18.1799 2.08 17.5699 2.82L17.0887 3.40075Z" fill="black"/>
<path d="M5.33987 12.18L13.1647 2.73621L15.8126 4.9408L7.99987 14.37L4.61987 15.76L5.32987 12.18H5.33987Z" fill="black"/>
<path d="M8.76 16.22C9.06 16.1 9.33 15.9 9.54 15.65V15.66L16 7.86V14.77L14.17 18.9L13.43 20.56H0V0.559998H12.37L3.79 10.9C3.58 11.16 3.44 11.46 3.37 11.79L2.66 15.37C2.52 16.09 2.78 16.83 3.35 17.3C3.71 17.6 4.16 17.76 4.62 17.76C4.88 17.76 5.13 17.71 5.38 17.61L8.76 16.22Z" fill="black"/>
</svg>
