<svg viewBox="0 0 19 20" xmlns="http://www.w3.org/2000/svg"><path fill-rule="evenodd" clip-rule="evenodd" d="M13.0343 1.98161C14.399 0.619412 16.6117 0.619411 17.9764 1.98161C19.3412 3.34381 19.3412 5.55237 17.9764 6.91457L7.10472 17.766L0 19.9452L1.79505 13.1999L13.0343 1.98161ZM16.5644 3.39102C15.9795 2.80722 15.0312 2.80722 14.4463 3.39102L13.5724 4.26329L15.6905 6.37742L16.5644 5.50516C17.1493 4.92135 17.1493 3.97483 16.5644 3.39102ZM3.58709 14.23L12.1604 5.6727L14.2785 7.78683L6.04367 16.0063L2.85405 16.9846L3.58709 14.23Z"/><path d="M9.41476 19.96H19V17.9667H9.41476V19.96Z"/></svg>