<svg viewBox="0 0 24 24" xmlns="http://www.w3.org/2000/svg"><path fill-rule="evenodd" clip-rule="evenodd" d="M15.0343 3.02165C16.399 1.65945 18.6117 1.65945 19.9764 3.02165C21.3412 4.38385 21.3412 6.59241 19.9764 7.95461L9.10472 18.8061L2 20.9853L3.79505 14.24L15.0343 3.02165ZM18.5644 4.43106C17.9795 3.84726 17.0312 3.84726 16.4463 4.43106L15.5724 5.30333L17.6905 7.41746L18.5644 6.54519C19.1493 5.96139 19.1493 5.01486 18.5644 4.43106ZM5.58709 15.2701L14.1604 6.71274L16.2785 8.82687L8.04367 17.0463L4.85405 18.0247L5.58709 15.2701Z"/><path d="M11.4148 21H21V19.0068H11.4148V21Z"/></svg>