<svg viewBox="0 0 22 23" xmlns="http://www.w3.org/2000/svg"><path d="M15.1399 6.87L16.5099 8.31999L12.5099 12.1L16.5099 15.87L15.1399 17.32L11.0599 13.47L6.97986 17.32L5.60986 15.87L9.59986 12.1L5.60986 8.31999L6.97986 6.87L11.0599 10.72L15.1399 6.87Z"/><path d="M0 11.96C0 5.87996 4.92 0.959961 11 0.959961C17.08 0.959961 22 5.87996 22 11.96C22 18.04 17.08 22.96 11 22.96C4.92 22.96 0 18.04 0 11.96ZM20 11.96C20 6.99996 15.96 2.95996 11 2.95996C6.04 2.95996 2 6.99996 2 11.96C2 16.92 6.04 20.96 11 20.96C15.96 20.96 20 16.92 20 11.96Z"/></svg>