<svg viewBox="0 0 24 24" xmlns="http://www.w3.org/2000/svg"><path d="M14.1464 2.5C12.7088 2.5 10.5983 2.97962 8.8267 4.42521C7.56197 5.45723 6.51434 6.94616 5.99624 9H4.14642V11H5.68163C5.65841 11.3225 5.64642 11.6557 5.64642 12C5.64642 12.3062 5.66212 12.6424 5.69692 13H4.14642V15H6.06587C6.32605 15.9511 6.72359 16.9377 7.30235 17.8487C8.58857 19.8733 10.7647 21.5 14.1464 21.5C15.1863 21.5 17.5784 21.035 19.7711 19.2809L18.5217 17.7191C16.7144 19.165 14.7732 19.5 14.1464 19.5C11.5281 19.5 9.95427 18.2933 8.99049 16.7763C8.63347 16.2143 8.35988 15.6069 8.15572 15H15.1464C15.6987 15 16.1464 14.5523 16.1464 14C16.1464 13.4477 15.6987 13 15.1464 13H7.70817C7.66567 12.6395 7.64642 12.3018 7.64642 12C7.64642 11.6508 7.66059 11.3177 7.68758 11H15.1464C15.6987 11 16.1464 10.5523 16.1464 10C16.1464 9.44772 15.6987 9 15.1464 9H8.07508C8.52242 7.6085 9.27192 6.64327 10.0911 5.97479C11.4446 4.87038 13.084 4.5 14.1464 4.5C16.2066 4.5 17.8998 5.66764 18.4393 6.20711L19.8535 4.79289C19.0597 3.99903 16.8863 2.5 14.1464 2.5Z"/></svg>