<svg viewBox="0 0 22 21" xmlns="http://www.w3.org/2000/svg"><path d="M1.74999 0.959961L0.33999 2.36996L3.51999 5.54996C1.22999 7.73996 -0.0100098 10.2 -0.0100098 10.2C-0.0100098 10.2 3.98999 18.2 10.99 18.2C12.53 18.2 13.92 17.8 15.16 17.19L18.83 20.86L20.24 19.45L1.74999 0.959961ZM10.98 16.19C6.57999 16.19 3.46999 12.05 2.28999 10.19C2.80999 9.36996 3.69999 8.09996 4.90999 6.94996L7.12999 9.16996C7.03999 9.49996 6.97999 9.83996 6.97999 10.2C6.97999 12.41 8.76999 14.2 10.98 14.2C11.34 14.2 11.68 14.14 12.01 14.05L13.64 15.68C12.82 16 11.93 16.2 10.98 16.2V16.19Z"/><path d="M8.33 4.69996C9.15 4.37996 10.03 4.18996 10.98 4.18996C15.38 4.18996 18.49 8.32996 19.67 10.19C19.15 11.01 18.26 12.27 17.05 13.42L18.45 14.82C20.74 12.63 21.97 10.18 21.97 10.18C21.97 10.18 17.97 2.17996 10.97 2.17996C9.43 2.17996 8.04 2.56996 6.81 3.17996L8.33 4.69996Z"/><path d="M10.98 6.18996C13.19 6.18996 14.98 7.97996 14.98 10.19C14.98 10.55 14.92 10.88 14.83 11.21L9.95996 6.33996C10.29 6.24996 10.63 6.18996 10.98 6.18996Z"/></svg>