<svg viewBox="0 0 24 24" xmlns="http://www.w3.org/2000/svg"><path fill-rule="evenodd" clip-rule="evenodd" d="M21.26 20.5L19.85 21.91L16.17 18.23C14.93 18.84 13.54 19.24 12 19.24C5 19.24 1 11.24 1 11.24C1 11.24 2.24 8.78 4.53 6.59L1.35 3.41L2.76 2L21.26 20.5ZM8 11.23C8 13.44 9.79 15.23 12 15.23C12.35 15.23 12.69 15.17 13.02 15.08L8.15 10.21C8.06 10.54 8 10.87 8 11.23Z"/><path d="M16 11.23C16 9.02 14.21 7.23 12 7.23L11.99 7.22C11.64 7.22 11.3 7.28 10.97 7.37L7.83002 4.23C9.06002 3.62 10.45 3.23 11.99 3.23C18.99 3.23 22.99 11.23 22.99 11.23C22.99 11.23 21.76 13.68 19.47 15.87L15.85 12.25C15.94 11.92 16 11.59 16 11.23Z"/></svg>