<svg width="22" height="17" viewBox="0 0 22 17" fill="none" xmlns="http://www.w3.org/2000/svg">
<path d="M15 8.95996C15 11.1691 13.2091 12.96 11 12.96C8.79086 12.96 7 11.1691 7 8.95996C7 6.75082 8.79086 4.95996 11 4.95996C13.2091 4.95996 15 6.75082 15 8.95996Z" fill="black"/>
<path fill-rule="evenodd" clip-rule="evenodd" d="M0 8.95996C0 8.95996 4 0.959961 11 0.959961C18 0.959961 22 8.95996 22 8.95996C22 8.95996 18 16.96 11 16.96C4 16.96 0 8.95996 0 8.95996ZM2.31 8.95996C3.49 10.82 6.6 14.96 11 14.96C15.43 14.96 18.52 10.83 19.69 8.95996C18.51 7.09996 15.43 2.95996 11 2.95996C6.57 2.95996 3.48 7.08996 2.31 8.95996Z" fill="black"/>
</svg>
