<svg viewBox="0 0 22 21" xmlns="http://www.w3.org/2000/svg"><path fill-rule="evenodd" clip-rule="evenodd" d="M20.26 19.46L18.85 20.87L15.17 17.19C13.93 17.8 12.54 18.2 11 18.2C4 18.2 0 10.2 0 10.2C0 10.2 1.24 7.73996 3.53 5.54996L0.35 2.36996L1.76 0.959961L20.26 19.46ZM7 10.19C7 12.4 8.79 14.19 11 14.19C11.35 14.19 11.69 14.13 12.02 14.04L7.15 9.16996C7.06 9.49996 7 9.82996 7 10.19Z"/><path d="M15 10.19C15 7.97996 13.21 6.18996 11 6.18996L10.99 6.17996C10.64 6.17996 10.3 6.23996 9.97002 6.32996L6.83002 3.18996C8.06002 2.57996 9.45002 2.18996 10.99 2.18996C17.99 2.18996 21.99 10.19 21.99 10.19C21.99 10.19 20.76 12.64 18.47 14.83L14.85 11.21C14.94 10.88 15 10.55 15 10.19Z"/></svg>