<svg width="20" height="20" viewBox="0 0 20 20" fill="none" xmlns="http://www.w3.org/2000/svg">
<path d="M0 6.45996C0 12.46 10 19.46 10 19.46C10 19.46 20 12.46 20 6.45996C20 3.42239 17.5376 0.959961 14.5 0.959961C13.2555 0.959961 12.2556 1.37154 11.4679 1.9121C11.4243 1.94196 11.3815 1.97222 11.3392 2.00282C10.7873 2.40278 10.345 2.86185 10 3.27367C9.62863 2.83034 9.14445 2.33226 8.53215 1.91211C8.53191 1.91194 8.53239 1.91227 8.53215 1.91211C7.74448 1.37178 6.74414 0.959961 5.5 0.959961C2.46243 0.959961 0 3.42239 0 6.45996Z" fill="black"/>
</svg>
