<svg width="20" height="20" viewBox="0 0 20 20" fill="none" xmlns="http://www.w3.org/2000/svg">
<path fill-rule="evenodd" clip-rule="evenodd" d="M10 6.38818L8.46685 4.55797C7.76604 3.72138 6.83535 2.95996 5.5 2.95996C3.567 2.95996 2 4.52696 2 6.45996C2 7.42809 2.41562 8.61387 3.2585 9.96246C4.08666 11.2875 5.22378 12.6053 6.41421 13.7957C7.59735 14.9789 8.78813 15.9917 9.68689 16.7107C9.79597 16.798 9.90053 16.8807 10 16.9588C10.0995 16.8807 10.204 16.798 10.3131 16.7107C11.2119 15.9917 12.4026 14.9789 13.5858 13.7957C14.7762 12.6053 15.9133 11.2875 16.7415 9.96246C17.5844 8.61387 18 7.42809 18 6.45996C18 4.52696 16.433 2.95996 14.5 2.95996C13.1647 2.95996 12.234 3.72138 11.5332 4.55797L10 6.38818ZM8.53214 1.9121C7.74436 1.37153 6.74451 0.959961 5.5 0.959961C2.46243 0.959961 0 3.42239 0 6.45996C0 12.46 10 19.46 10 19.46C10 19.46 20 12.46 20 6.45996C20 3.42239 17.5376 0.959961 14.5 0.959961C13.2555 0.959961 12.2556 1.37153 11.4679 1.9121C10.8556 2.33226 10.3714 2.83034 10 3.27367C9.62863 2.83034 9.14444 2.33226 8.53214 1.9121Z" fill="black"/>
</svg>
