<svg viewBox="0 0 22 23" xmlns="http://www.w3.org/2000/svg"><path d="M9.67117 14.1872V14.335H11.5632V14.1872C11.567 13.7857 11.6144 13.4486 11.7053 13.1759C11.8 12.8994 11.9439 12.6588 12.1371 12.4543C12.334 12.2497 12.5859 12.0528 12.8928 11.8634C13.2412 11.655 13.5424 11.4183 13.7962 11.1531C14.05 10.888 14.245 10.585 14.3814 10.2441C14.5215 9.90314 14.5916 9.51678 14.5916 9.08496C14.5916 8.44481 14.4363 7.89178 14.1257 7.42587C13.8189 6.95617 13.389 6.59443 12.8359 6.34064C12.2867 6.08685 11.6503 5.95996 10.9269 5.95996C10.264 5.95996 9.65791 6.08117 9.10867 6.3236C8.56322 6.56602 8.12382 6.92966 7.79049 7.41451C7.46094 7.89935 7.2867 8.50163 7.26776 9.22132H9.29049C9.30943 8.86526 9.39655 8.5717 9.55185 8.34064C9.71094 8.10579 9.90981 7.93155 10.1484 7.81792C10.3909 7.70049 10.6465 7.64178 10.9155 7.64178C11.2072 7.64178 11.4704 7.70239 11.7053 7.8236C11.9439 7.94481 12.1333 8.11526 12.2734 8.33496C12.4136 8.55466 12.4837 8.81413 12.4837 9.11337C12.4837 9.37852 12.4306 9.61905 12.3246 9.83496C12.2185 10.0471 12.0727 10.2403 11.8871 10.4145C11.7053 10.585 11.4988 10.7422 11.2678 10.8861C10.9306 11.0944 10.6447 11.3236 10.4098 11.5736C10.175 11.8198 9.99314 12.1456 9.86435 12.5509C9.73935 12.9562 9.67496 13.5016 9.67117 14.1872Z"/><path d="M9.77913 17.5168C10.0253 17.7592 10.3189 17.8804 10.6598 17.8804C10.8871 17.8804 11.0935 17.8255 11.2791 17.7156C11.4685 17.602 11.62 17.4505 11.7337 17.2611C11.8511 17.0717 11.9098 16.8615 11.9098 16.6304C11.9098 16.2895 11.7848 15.9978 11.5348 15.7554C11.2886 15.513 10.9969 15.3918 10.6598 15.3918C10.3189 15.3918 10.0253 15.513 9.77913 15.7554C9.53291 15.9978 9.40981 16.2895 9.40981 16.6304C9.40981 16.9789 9.53291 17.2744 9.77913 17.5168Z"/><path d="M0 11.96C0 5.87996 4.92 0.959961 11 0.959961C17.08 0.959961 22 5.87996 22 11.96C22 18.04 17.08 22.96 11 22.96C4.92 22.96 0 18.04 0 11.96ZM20 11.96C20 6.99996 15.96 2.95996 11 2.95996C6.04 2.95996 2 6.99996 2 11.96C2 16.92 6.04 20.96 11 20.96C15.96 20.96 20 16.92 20 11.96Z"/></svg>