<svg viewBox="0 0 22 23" xmlns="http://www.w3.org/2000/svg"><path fill-rule="evenodd" clip-rule="evenodd" d="M0 11.96C0 5.87996 4.92 0.959961 11 0.959961C17.08 0.959961 22 5.87996 22 11.96C22 18.04 17.08 22.96 11 22.96C4.92 22.96 0 18.04 0 11.96ZM9.55966 14.6294V14.4721C9.56369 13.7419 9.63227 13.161 9.7654 12.7294C9.90256 12.2977 10.0962 11.9508 10.3463 11.6885C10.5964 11.4223 10.901 11.1782 11.26 10.9564C11.5061 10.8031 11.726 10.6356 11.9196 10.4541C12.1173 10.2685 12.2726 10.0628 12.3856 9.83688C12.4985 9.60694 12.555 9.35077 12.555 9.06838C12.555 8.74968 12.4804 8.47334 12.3311 8.23936C12.1818 8.00538 11.9801 7.82385 11.726 7.69476C11.4759 7.56566 11.1955 7.50112 10.8849 7.50112C10.5984 7.50112 10.3261 7.56365 10.068 7.6887C9.81381 7.80973 9.60202 7.9953 9.43258 8.24541C9.26718 8.4915 9.1744 8.80414 9.15423 9.18335H7C7.02017 8.41687 7.20574 7.77544 7.55671 7.25907C7.91172 6.7427 8.37967 6.35542 8.96059 6.09724C9.54554 5.83905 10.191 5.70996 10.897 5.70996C11.6675 5.70996 12.3452 5.8451 12.9302 6.11539C13.5192 6.38568 13.977 6.77094 14.3038 7.27117C14.6346 7.76737 14.8 8.35635 14.8 9.03812C14.8 9.49801 14.7254 9.9095 14.5761 10.2726C14.4309 10.6356 14.2231 10.9584 13.9528 11.2408C13.6825 11.5232 13.3618 11.7753 12.9907 11.9972C12.6639 12.1989 12.3957 12.4086 12.1859 12.6265C11.9801 12.8443 11.8268 13.1005 11.726 13.395C11.6292 13.6854 11.5787 14.0445 11.5747 14.4721V14.6294H9.55966ZM10.6126 18.4054C10.2495 18.4054 9.93685 18.2763 9.67463 18.0181C9.41241 17.7599 9.2813 17.4453 9.2813 17.0741C9.2813 16.711 9.41241 16.4004 9.67463 16.1422C9.93685 15.8841 10.2495 15.755 10.6126 15.755C10.9716 15.755 11.2822 15.8841 11.5445 16.1422C11.8107 16.4004 11.9438 16.711 11.9438 17.0741C11.9438 17.3202 11.8813 17.5441 11.7562 17.7458C11.6352 17.9475 11.4739 18.1089 11.2721 18.2299C11.0745 18.3469 10.8546 18.4054 10.6126 18.4054Z"/></svg>