<svg viewBox="0 0 22 23" xmlns="http://www.w3.org/2000/svg"><path d="M11 9.08996C10.31 9.08996 9.81 8.60996 9.81 7.92996C9.81 7.24996 10.31 6.76996 11 6.76996C11.69 6.76996 12.19 7.24996 12.19 7.92996C12.19 8.60996 11.69 9.08996 11 9.08996Z"/><path d="M10 17.09V10.31H12V17.09H10Z"/><path d="M11 0.959961C4.92 0.959961 0 5.87996 0 11.96C0 18.04 4.92 22.96 11 22.96C17.08 22.96 22 18.04 22 11.96C22 5.87996 17.08 0.959961 11 0.959961ZM11 2.95996C15.96 2.95996 20 6.99996 20 11.96C20 16.92 15.96 20.96 11 20.96C6.04 20.96 2 16.92 2 11.96C2 6.99996 6.04 2.95996 11 2.95996Z"/></svg>