<svg viewBox="0 0 32 32" xmlns="http://www.w3.org/2000/svg"><g clip-path="url(#clip0_26759_458)"><path d="M11 10.452V32H17.696V21.301C17.696 18.438 18.304 15.726 21.804 15.726C25.304 15.726 25.304 18.89 25.304 21.452V32H32V20.247C32 14.37 30.783 10 23.935 10C20.587 10 18.457 11.808 17.543 13.466H17.391V10.452H11ZM0 11H7V32H0V11ZM4 8C2.93913 8 1.92172 7.57857 1.17157 6.82843C0.421427 6.07828 0 5.06087 0 4C0 2.93913 0.421427 1.92172 1.17157 1.17157C1.92172 0.421427 2.93913 0 4 0C5.06087 0 6.07828 0.421427 6.82843 1.17157C7.57857 1.92172 8 2.93913 8 4C8 5.06087 7.57857 6.07828 6.82843 6.82843C6.07828 7.57857 5.06087 8 4 8Z"/></g><defs><clipPath id="clip0_26759_458"><rect width="32" height="32"/></clipPath></defs></svg>