<svg width="22" height="15" viewBox="0 0 22 15" fill="none" xmlns="http://www.w3.org/2000/svg">
<path d="M1 2.95996C1.55228 2.95996 2 2.51225 2 1.95996C2 1.40768 1.55228 0.959961 1 0.959961C0.447715 0.959961 0 1.40768 0 1.95996C0 2.51225 0.447715 2.95996 1 2.95996Z" fill="black"/>
<path d="M4 2.95996H22V0.959961H4V2.95996Z" fill="black"/>
<path d="M22 8.95996H4V6.95996H22V8.95996Z" fill="black"/>
<path d="M1 8.95996C1.55228 8.95996 2 8.51225 2 7.95996C2 7.40768 1.55228 6.95996 1 6.95996C0.447715 6.95996 0 7.40768 0 7.95996C0 8.51225 0.447715 8.95996 1 8.95996Z" fill="black"/>
<path d="M22 14.96H4V12.96H22V14.96Z" fill="black"/>
<path d="M1 14.96C1.55228 14.96 2 14.5122 2 13.96C2 13.4077 1.55228 12.96 1 12.96C0.447715 12.96 0 13.4077 0 13.96C0 14.5122 0.447715 14.96 1 14.96Z" fill="black"/>
</svg>
