<svg viewBox="0 0 36 36" xmlns="http://www.w3.org/2000/svg"><path d="M22 14C22 16.2091 20.2091 18 18 18C15.7909 18 14 16.2091 14 14C14 11.7909 15.7909 10 18 10C20.2091 10 22 11.7909 22 14Z"/><path fill-rule="evenodd" clip-rule="evenodd" d="M16.8 32.3601L18 33.4201L19.2 32.3601C19.64 32.0001 29.82 22.9101 29.82 14.0001C29.82 10.8652 28.5747 7.85873 26.358 5.64205C24.1413 3.42537 21.1349 2.18005 18 2.18005C14.8651 2.18005 11.8587 3.42537 9.642 5.64205C7.42532 7.85873 6.18 10.8652 6.18 14.0001C6.18 22.9101 16.36 32.0001 16.8 32.3601ZM12.2188 8.21884C13.7523 6.68537 15.8313 5.8227 18 5.82005C20.1687 5.8227 22.2477 6.68537 23.7812 8.21884C25.3147 9.75232 26.1774 11.8314 26.18 14.0001C26.18 19.6701 20.52 26.0001 17.99 28.4901C14.94 25.4501 9.82 19.2601 9.82 14.0001C9.82265 11.8314 10.6853 9.75232 12.2188 8.21884Z"/></svg>