<svg viewBox="0 0 24 24" xmlns="http://www.w3.org/2000/svg"><path d="M16.1585 14.7266C17.1537 13.4471 17.7325 11.8528 17.7325 10.1162C17.7325 5.91208 14.3204 2.5 10.1162 2.5C5.91208 2.5 2.5 5.91208 2.5 10.1162C2.5 14.3204 5.91208 17.7325 10.1162 17.7325C11.8528 17.7325 13.4471 17.1537 14.7266 16.1585L20.058 21.5L21.5 20.058L16.1585 14.7266ZM10.1162 15.7015C7.03928 15.7015 4.531 13.1932 4.531 10.1162C4.531 7.03928 7.03928 4.531 10.1162 4.531C13.1932 4.531 15.7015 7.03928 15.7015 10.1162C15.7015 11.2942 15.3359 12.3808 14.7165 13.2745C14.3306 13.8431 13.8431 14.3306 13.2745 14.7165C12.3808 15.3359 11.2942 15.7015 10.1162 15.7015Z"/></svg>