<svg viewBox="0 0 24 24" xmlns="http://www.w3.org/2000/svg"><path d="M21.4233 6.42025C21.1307 4.26843 19.2347 2.57265 16.9872 2.24405C16.6081 2.18852 15.1714 1.98645 11.8434 1.98645H11.8186C8.48965 1.98645 7.77545 2.18852 7.39627 2.24405C5.21135 2.56354 3.21604 4.08729 2.73193 6.26458C2.49908 7.33685 2.47423 8.52563 2.51749 9.6161C2.57915 11.1799 2.59112 12.741 2.73469 14.2984C2.83395 15.3329 3.0071 16.3592 3.25285 17.3695C3.71302 19.2355 5.57582 20.7884 7.40087 21.422C9.35487 22.0826 11.4562 22.1923 13.4697 21.7387C13.6912 21.6877 13.9102 21.6286 14.1268 21.5612C14.6155 21.4074 15.1889 21.2353 15.6104 20.9331C15.6162 20.9289 15.6209 20.9234 15.6243 20.9171C15.6276 20.9108 15.6295 20.9038 15.6297 20.8967V19.3876C15.6296 19.3809 15.628 19.3744 15.625 19.3684C15.622 19.3625 15.6178 19.3572 15.6124 19.3531C15.6072 19.349 15.601 19.3462 15.5944 19.3447C15.5879 19.3433 15.5811 19.3433 15.5745 19.3448C14.2845 19.6495 12.9626 19.8023 11.6363 19.7999C9.35386 19.7999 8.73998 18.7286 8.56418 18.2825C8.42289 17.897 8.33315 17.495 8.29729 17.0865C8.29693 17.0796 8.29821 17.0728 8.30101 17.0665C8.30381 17.0602 8.30809 17.0547 8.31346 17.0503C8.31885 17.046 8.32519 17.0429 8.33197 17.0415C8.33875 17.04 8.34579 17.0401 8.35251 17.0419C9.62102 17.3446 10.9214 17.4973 12.2263 17.497C12.5401 17.497 12.853 17.497 13.1669 17.4888C14.4793 17.4524 15.8626 17.3859 17.1538 17.1365C17.186 17.1302 17.2182 17.1247 17.2459 17.1165C19.2826 16.7296 21.2209 15.5154 21.4178 12.4406C21.4252 12.3195 21.4436 11.1726 21.4436 11.047C21.4445 10.6201 21.5826 8.01864 21.4233 6.42025ZM18.2886 14.0927H16.147V8.90429C16.147 7.812 15.6868 7.25494 14.7508 7.25494C13.7218 7.25494 13.2064 7.91396 13.2064 9.21559V12.0555H11.0777V9.21559C11.0777 7.91396 10.5614 7.25494 9.53241 7.25494C8.60193 7.25494 8.13715 7.812 8.13622 8.90429V14.0927H5.99641V8.74683C5.99641 7.65453 6.27836 6.78677 6.84222 6.14352C7.42388 5.5018 8.18685 5.17231 9.1339 5.17231C10.23 5.17231 11.0583 5.58918 11.6106 6.42207L12.1434 7.30683L12.6772 6.42207C13.2295 5.58918 14.0578 5.17231 15.1521 5.17231C16.0982 5.17231 16.8611 5.5018 17.4447 6.14352C18.0085 6.78615 18.2905 7.65391 18.2905 8.74683L18.2886 14.0927Z"/></svg>