<svg width="25" height="25" viewBox="0 0 25 25" fill="none" xmlns="http://www.w3.org/2000/svg">
<path d="M12.05 9.17999C11.36 9.17999 10.86 8.69999 10.86 8.01999C10.86 7.33999 11.36 6.85999 12.05 6.85999C12.74 6.85999 13.24 7.33999 13.24 8.01999C13.24 8.69999 12.74 9.17999 12.05 9.17999Z" fill="black"/>
<path d="M11.05 17.18V10.4H13.05V17.18H11.05Z" fill="black"/>
<path fill-rule="evenodd" clip-rule="evenodd" d="M12.05 1.04999C5.97005 1.04999 1.05005 5.96999 1.05005 12.05C1.05005 18.13 5.97005 23.05 12.05 23.05C18.13 23.05 23.05 18.13 23.05 12.05C23.05 5.96999 18.13 1.04999 12.05 1.04999ZM12.05 3.04999C17.01 3.04999 21.05 7.08999 21.05 12.05C21.05 17.01 17.01 21.05 12.05 21.05C7.09005 21.05 3.05005 17.01 3.05005 12.05C3.05005 7.08999 7.09005 3.04999 12.05 3.04999Z" fill="black"/>
</svg>
