<svg width="24" height="24" viewBox="0 0 24 24" fill="none" xmlns="http://www.w3.org/2000/svg">
<path fill-rule="evenodd" clip-rule="evenodd" d="M21.26 20.55L19.85 21.96L16.17 18.28C14.93 18.89 13.54 19.29 12 19.29C5 19.29 1 11.29 1 11.29C1 11.29 2.24 8.83005 4.53 6.64005L1.35 3.46005L2.76 2.05005L21.26 20.55ZM8 11.28C8 13.49 9.79 15.28 12 15.28C12.35 15.28 12.69 15.22 13.02 15.13L8.15 10.26C8.06 10.59 8 10.92 8 11.28Z" fill="black"/>
<path d="M16 11.28C16 9.07004 14.21 7.28004 12 7.28004L11.99 7.27004C11.64 7.27004 11.3 7.33004 10.97 7.42004L7.83002 4.28004C9.06002 3.67004 10.45 3.28004 11.99 3.28004C18.99 3.28004 22.99 11.28 22.99 11.28C22.99 11.28 21.76 13.73 19.47 15.92L15.85 12.3C15.94 11.97 16 11.64 16 11.28Z" fill="black"/>
</svg>
