<svg width="24" height="24" viewBox="0 0 24 24" fill="none" xmlns="http://www.w3.org/2000/svg">
<path fill-rule="evenodd" clip-rule="evenodd" d="M2.76 2.05005L1.35 3.46005L4.53 6.64005C2.24 8.83005 1 11.29 1 11.29C1 11.29 5 19.29 12 19.29C13.54 19.29 14.93 18.89 16.17 18.28L19.84 21.95L21.25 20.54L2.76 2.05005ZM11.99 17.28C7.59 17.28 4.48 13.14 3.3 11.28C3.82 10.46 4.71 9.19005 5.92 8.04005L8.14 10.26C8.05 10.59 7.99 10.93 7.99 11.29C7.99 13.5 9.78 15.29 11.99 15.29C12.35 15.29 12.69 15.23 13.02 15.14L14.65 16.77C13.83 17.09 12.94 17.29 11.99 17.29V17.28Z" fill="black"/>
<path d="M9.34001 5.79005C10.16 5.47005 11.04 5.28005 11.99 5.28005C16.39 5.28005 19.5 9.42005 20.68 11.2801C20.16 12.1 19.27 13.3601 18.06 14.51L19.46 15.91C21.75 13.72 22.98 11.2701 22.98 11.2701C22.98 11.2701 18.98 3.27005 11.98 3.27005C10.44 3.27005 9.05001 3.66005 7.82001 4.27005L9.34001 5.79005Z" fill="black"/>
<path d="M11.99 7.28004C14.2 7.28004 15.99 9.07004 15.99 11.28C15.99 11.64 15.93 11.97 15.84 12.3L10.97 7.43004C11.3 7.34004 11.64 7.28004 11.99 7.28004Z" fill="black"/>
</svg>
