<svg width="24" height="24" viewBox="0 0 24 24" fill="none" xmlns="http://www.w3.org/2000/svg">
<path fill-rule="evenodd" clip-rule="evenodd" d="M16.9999 6.75C16.9999 9.37335 14.8733 11.5 12.2499 11.5C9.62659 11.5 7.49994 9.37335 7.49994 6.75C7.49994 4.12665 9.62659 2 12.2499 2C14.8733 2 16.9999 4.12665 16.9999 6.75ZM14.9999 6.75C14.9999 8.26878 13.7687 9.5 12.2499 9.5C10.7312 9.5 9.49994 8.26878 9.49994 6.75C9.49994 5.23122 10.7312 4 12.2499 4C13.7687 4 14.9999 5.23122 14.9999 6.75Z" fill="black"/>
<path d="M3.12687 14.9641C3.15146 14.8024 3.19011 14.632 3.25335 14.4792C3.58889 13.5973 4.45849 13 5.40011 13H18.5997C19.724 13 20.7061 13.852 20.873 14.9641L21.9268 22H19.9063L18.8951 15.2609C18.8865 15.2042 18.8539 15.1355 18.7869 15.0776C18.7201 15.0198 18.6514 15 18.5997 15H5.40011C5.35295 15 5.29266 15.0156 5.23352 15.0563C5.17455 15.0969 5.13913 15.147 5.12262 15.1904L5.11292 15.2159L5.11062 15.227C5.10871 15.2368 5.10658 15.2488 5.10436 15.2632L5.1041 15.2649L4.39488 20L4.08588 22H2.073L3.12687 14.9641Z" fill="black"/>
</svg>
