<svg width="19" height="21" viewBox="0 0 19 21" fill="none" xmlns="http://www.w3.org/2000/svg">
<path d="M19 3.95996C19 5.61682 17.6569 6.95996 16 6.95996C14.3431 6.95996 13 5.61682 13 3.95996C13 2.30311 14.3431 0.959961 16 0.959961C17.6569 0.959961 19 2.30311 19 3.95996Z" fill="black"/>
<path d="M18.2 8.42996C18.28 8.38996 18.35 8.34996 18.42 8.30996V8.29996C18.62 8.18996 18.82 8.06996 19 7.92996V16.99H11.06L3.99 20.83L2.55 16.99H0V1.82996H11.5C11.41 2.00996 11.34 2.18996 11.28 2.37996C11.2689 2.40783 11.2608 2.43881 11.2524 2.47116C11.2457 2.49685 11.2389 2.5234 11.23 2.54996C11.09 2.99996 11 3.46996 11 3.95996C11 6.71996 13.24 8.95996 16 8.95996C16.54 8.95996 17.04 8.85996 17.53 8.69996V8.71996C17.5683 8.70902 17.6006 8.69209 17.6318 8.67573C17.6577 8.66218 17.6828 8.64902 17.71 8.63996C17.88 8.57996 18.04 8.50996 18.2 8.42996Z" fill="black"/>
</svg>
