<svg viewBox="0 0 24 24" xmlns="http://www.w3.org/2000/svg"><path fill-rule="evenodd" clip-rule="evenodd" d="M16.6768 6.75C16.6768 9.37335 14.5501 11.5 11.9268 11.5C9.30341 11.5 7.17676 9.37335 7.17676 6.75C7.17676 4.12665 9.30341 2 11.9268 2C14.5501 2 16.6768 4.12665 16.6768 6.75ZM11.9268 9.5C13.4455 9.5 14.6768 8.26878 14.6768 6.75C14.6768 5.23122 13.4455 4 11.9268 4C10.408 4 9.17676 5.23122 9.17676 6.75C9.17676 8.26878 10.408 9.5 11.9268 9.5Z"/><path d="M3.18035 14.4793C3.11711 14.6321 3.07846 14.8026 3.05387 14.9642L2 22.0001H4.01288L4.32188 20.0001L5.03111 15.2651L5.03136 15.2634C5.03359 15.2489 5.03571 15.2369 5.03762 15.2271L5.03993 15.216L5.04962 15.1905C5.06613 15.1471 5.10155 15.097 5.16053 15.0564C5.21966 15.0157 5.27995 15.0001 5.32711 15.0001H18.5267C18.5784 15.0001 18.6471 15.0199 18.7139 15.0777C18.7809 15.1357 18.8135 15.2043 18.8221 15.261L19.8333 22.0001H21.8538L20.8 14.9642C20.6331 13.8521 19.651 13.0001 18.5267 13.0001H5.32711C4.38549 13.0001 3.51589 13.5974 3.18035 14.4793Z"/></svg>