<svg width="19" height="20" viewBox="0 0 19 20" fill="none" xmlns="http://www.w3.org/2000/svg">
<path fill-rule="evenodd" clip-rule="evenodd" d="M0.535922 9.80826C0.178681 8.6512 6.10352e-05 7.43606 6.10352e-05 6.56193C6.10352e-05 4.32114 1.17381 0.959961 4.10817 0.959961L7.70276 8.80271L4.23359 12.5209C5.09847 13.8908 6.20919 15.0704 7.6096 16.0229L11.1573 12.7709L19 16.3655C19 18.933 15.6389 19.96 13.3981 19.96C11.7404 19.96 8.8565 19.398 7.46776 18.2739C4.24941 16.3401 1.60377 13.5517 0.535922 9.80826ZM3.04291 3.4359L5.32637 8.41798L3.12611 10.7762C2.99577 10.5711 2.85893 10.3101 2.72496 9.99043C2.24219 8.83835 2.00006 7.42086 2.00006 6.56193C2.00006 5.73011 2.22977 4.69464 2.67681 3.93603C2.7952 3.73513 2.91681 3.56976 3.04291 3.4359ZM10.6144 17.5444C11.614 17.8205 12.6833 17.96 13.3981 17.96C14.2714 17.96 15.3434 17.7499 16.1228 17.348C16.1582 17.3297 16.1922 17.3116 16.2248 17.2935L11.5304 15.1419L9.43988 17.0583C9.81513 17.2331 10.2065 17.3953 10.6144 17.5444ZM3.58753 11.296C3.58749 11.2955 3.58327 11.2932 3.57499 11.2908C3.58342 11.2954 3.58757 11.2966 3.58753 11.296Z" fill="black"/>
</svg>
