<svg viewBox="0 0 19 20" xmlns="http://www.w3.org/2000/svg"><path fill-rule="evenodd" clip-rule="evenodd" d="M0 0.959961H2.375V2.54329H1.58333V3.33496H0V0.959961ZM0 17.585V19.96H2.375V18.3766H1.58333V17.585H0ZM16.625 19.96H19V17.585H17.4167V18.3766H16.625V19.96ZM19 3.33496V0.959961H16.625V2.54329H17.4167V3.33496H19ZM3.16667 0.959961V2.54329H6.33333V0.959961H3.16667ZM7.91667 0.959961V2.54329H11.0833V0.959961H7.91667ZM12.6667 0.959961V2.54329H15.8333V0.959961H12.6667ZM19 4.12663H17.4167V7.29329H19V4.12663ZM19 8.87663H17.4167V12.0433H19V8.87663ZM19 13.6266H17.4167V16.7933H19V13.6266ZM15.8333 19.96V18.3766H12.6667V19.96H15.8333ZM11.0833 19.96V18.3766H7.91667V19.96H11.0833ZM6.33333 19.96V18.3766H3.16667V19.96H6.33333ZM0 16.7933H1.58333V13.6266H0V16.7933ZM0 12.0433H1.58333V8.87663H0V12.0433ZM0 7.29329H1.58333V4.12663H0V7.29329Z"/></svg>