<svg width="19" height="20" viewBox="0 0 19 20" fill="none" xmlns="http://www.w3.org/2000/svg">
<path d="M13.6585 13.1866C14.6537 11.907 15.2325 10.3127 15.2325 8.57621C15.2325 4.37204 11.8204 0.959961 7.61625 0.959961C3.41208 0.959961 0 4.37204 0 8.57621C0 12.7804 3.41208 16.1925 7.61625 16.1925C9.35275 16.1925 10.9471 15.6136 12.2266 14.6184L17.558 19.96L19 18.518L13.6585 13.1866ZM7.61625 14.1615C4.53928 14.1615 2.031 11.6532 2.031 8.57621C2.031 5.49925 4.53928 2.99096 7.61625 2.99096C10.6932 2.99096 13.2015 5.49925 13.2015 8.57621C13.2015 9.75419 12.8359 10.8408 12.2165 11.7344C11.8306 12.3031 11.3431 12.7905 10.7745 13.1764C9.88081 13.7959 8.79423 14.1615 7.61625 14.1615Z" fill="black"/>
</svg>
