<svg viewBox="0 0 23 22" xmlns="http://www.w3.org/2000/svg"><path fill-rule="evenodd" clip-rule="evenodd" d="M11.6398 15.31C13.8533 15.31 15.6477 13.4743 15.6477 11.21C15.6477 8.94559 13.8533 7.10996 11.6398 7.10996C9.42625 7.10996 7.63184 8.94559 7.63184 11.21C7.63184 13.4743 9.42625 15.31 11.6398 15.31ZM13.6438 11.21C13.6438 12.3421 12.7465 13.26 11.6398 13.26C10.533 13.26 9.63581 12.3421 9.63581 11.21C9.63581 10.0778 10.533 9.15996 11.6398 9.15996C12.7465 9.15996 13.6438 10.0778 13.6438 11.21Z"/><path fill-rule="evenodd" clip-rule="evenodd" d="M14.6491 0.959961H8.6304L7.62614 4.06367L7.4686 4.14792L4.4189 3.15341L0.889771 8.15743L2.80001 10.9097V11.5102L0.889771 14.2625L4.4189 19.2665L7.46861 18.272L7.62614 18.3563L8.6304 21.46H14.6491L15.6534 18.3563L15.8109 18.272L18.8606 19.2665L22.3898 14.2625L20.4795 11.5102V10.9097L22.3898 8.15743L18.8606 3.15341L15.8109 4.14792L15.6534 4.06367L14.6491 0.959961ZM9.27478 5.4907L10.0791 3.00485H13.2004L14.0048 5.4907L15.6228 6.35603L18.0843 5.55335L19.9275 8.16694L18.4756 10.2589V12.161L19.9275 14.253L18.0843 16.8666L15.6228 16.0639L14.0048 16.9292L13.2004 19.4151H10.0791L9.27478 16.9292L7.65671 16.0639L5.19528 16.8666L3.35203 14.253L4.80398 12.161V10.2589L3.35203 8.16694L5.19528 5.55335L7.65671 6.35603L9.27478 5.4907Z"/></svg>