<svg width="21" height="21" viewBox="0 0 21 21" fill="none" xmlns="http://www.w3.org/2000/svg">
<path d="M12.4489 10.96C12.4489 12.0922 11.5517 13.01 10.4449 13.01C9.33813 13.01 8.44092 12.0922 8.44092 10.96C8.44092 9.8278 9.33813 8.90999 10.4449 8.90999C11.5517 8.90999 12.4489 9.8278 12.4489 10.96Z" fill="black"/>
<path fill-rule="evenodd" clip-rule="evenodd" d="M17.5678 3.1983L14.5922 4.16866L14.2517 3.98657L13.2724 0.959961H7.61739L6.63808 3.98657L6.29759 4.16866L3.32196 3.1983L0 7.90858L1.85513 10.5814V11.3385L0 14.0113L3.32196 18.7216L6.29759 17.7513L6.63808 17.9334L7.61739 20.96H13.2724L14.2517 17.9334L14.5922 17.7513L17.5678 18.7216L20.8898 14.0113L19.0347 11.3385V10.5814L20.8898 7.90858L17.5678 3.1983ZM10.4449 15.06C12.6584 15.06 14.4528 13.2244 14.4528 10.96C14.4528 8.69562 12.6584 6.85999 10.4449 6.85999C8.23137 6.85999 6.43695 8.69562 6.43695 10.96C6.43695 13.2244 8.23137 15.06 10.4449 15.06Z" fill="black"/>
</svg>
