<svg viewBox="0 0 32 32" xmlns="http://www.w3.org/2000/svg"><path d="M10.17 29C22.237 29 28.746 18.874 28.746 10.253V9.432C29.966 8.474 31.186 7.379 32 6.011C30.78 6.558 29.56 6.831 28.203 7.105C29.559 6.285 30.644 5.053 31.051 3.411C29.831 4.231 28.339 4.779 26.847 5.053C25.627 3.82 24 3 22.102 3C18.441 3 15.593 6.01 15.593 9.568C15.593 10.116 15.593 10.526 15.729 11.074C10.305 10.8 5.424 8.2 2.305 4.232C1.763 4.916 1.492 6.147 1.492 7.379C1.492 9.705 2.712 11.758 4.339 12.853C3.254 12.853 2.305 12.579 1.356 12.032V12.168C1.356 15.316 3.661 18.053 6.644 18.6C6.102 18.737 5.559 18.874 4.881 18.874C4.475 18.874 4.068 18.874 3.661 18.737C4.475 21.337 6.915 23.253 9.763 23.389C7.458 25.169 4.746 26.263 1.627 26.263C1.085 26.263 0.542 26.263 0 26.126C2.983 27.906 6.373 29 10.17 29Z"/></svg>