<svg width="21" height="21" viewBox="0 0 21 21" fill="none" xmlns="http://www.w3.org/2000/svg">
<path fill-rule="evenodd" clip-rule="evenodd" d="M15.5306 5.20996C15.5306 7.83331 13.4039 9.95996 10.7806 9.95996C8.15723 9.95996 6.03058 7.83331 6.03058 5.20996C6.03058 2.58661 8.15723 0.459961 10.7806 0.459961C13.4039 0.459961 15.5306 2.58661 15.5306 5.20996ZM10.7806 7.95996C12.2994 7.95996 13.5306 6.72874 13.5306 5.20996C13.5306 3.69118 12.2994 2.45996 10.7806 2.45996C9.2618 2.45996 8.03058 3.69118 8.03058 5.20996C8.03058 6.72874 9.2618 7.95996 10.7806 7.95996Z" fill="black"/>
<path d="M2.03417 12.9393C1.97093 13.0921 1.93228 13.2625 1.90769 13.4241L0.853821 20.4601H2.8667L3.1757 18.4601L3.88493 13.725L3.88518 13.7233C3.88741 13.7089 3.88953 13.6968 3.89144 13.6871L3.89375 13.676L3.90344 13.6505C3.91995 13.6071 3.95537 13.557 4.01435 13.5164C4.07348 13.4756 4.13377 13.4601 4.18093 13.4601H17.3805C17.4322 13.4601 17.5009 13.4799 17.5677 13.5377C17.6347 13.5956 17.6673 13.6643 17.6759 13.721L18.6871 20.4601H20.7077L19.6538 13.4241C19.4869 12.3121 18.5049 11.4601 17.3805 11.4601H4.18093C3.23931 11.4601 2.36971 12.0574 2.03417 12.9393Z" fill="black"/>
</svg>
