<svg viewBox="0 0 24 24" xmlns="http://www.w3.org/2000/svg"><path d="M4 2V22H12.8758L13.7024 20.01H6V4H18V12.5615C18.7459 12.6882 19.4333 13.0054 20 13.4644V2H4Z"/><path d="M19.8625 15.839C19.5353 14.9911 18.8187 14.33 17.96 14.0938C17.6872 14.0327 17.4822 14 17.2292 14C15.6998 14 14.46 15.1939 14.46 16.6667C14.46 17.1377 14.5468 17.5801 14.8093 17.9642C14.9934 18.3509 15.3146 18.6783 15.7411 18.9159L14.46 22L17.2292 20.6667L19.9985 22L18.7174 18.9159C18.6968 18.904 18.716 18.8919 18.7751 18.8795C19.4731 18.4005 19.9585 17.5882 19.9985 16.6667C19.9585 16.5121 19.9448 16.3606 19.9586 16.2132C19.8958 16.0852 19.8635 15.9602 19.8625 15.839Z"/><path d="M16 6H8V8H16V6Z"/><path d="M14 10H8V12H14V10Z"/><path d="M12.79 14H8V16H12.79V14Z"/></svg>