<svg width="22" height="23" viewBox="0 0 22 23" fill="none" xmlns="http://www.w3.org/2000/svg">
<path fill-rule="evenodd" clip-rule="evenodd" d="M0 11.46C0 5.37996 4.92 0.459961 11 0.459961C17.08 0.459961 22 5.37996 22 11.46C22 17.54 17.08 22.46 11 22.46C4.92 22.46 0 17.54 0 11.46ZM9.57141 6.45996L10.3267 12.9023H11.6733L12.4286 6.45996H9.57141ZM9.77166 15.2273C9.77166 15.5345 9.87658 15.8424 10.0915 16.077C10.3107 16.3163 10.627 16.46 11.0056 16.46C11.7839 16.46 12.2395 15.8527 12.2395 15.2273C12.2395 14.616 11.7865 13.9946 11.0056 13.9946C10.2106 13.9946 9.77166 14.6191 9.77166 15.2273Z" fill="black"/>
</svg>
