<svg width="19" height="22" viewBox="0 0 19 22" fill="none" xmlns="http://www.w3.org/2000/svg">
<path d="M11 5.45996C12.3807 5.45996 13.5 4.34067 13.5 2.95996C13.5 1.57925 12.3807 0.459961 11 0.459961C9.61929 0.459961 8.5 1.57925 8.5 2.95996C8.5 4.34067 9.61929 5.45996 11 5.45996Z" fill="black"/>
<path d="M8.21122 7.40429L8.71505 6.22293L10.6071 7.02278L9.76893 8.98807L9.00375 12.2508H12.7591L15.8193 15.2975L16.6499 14.1949C16.9905 13.7428 17.6347 13.6511 18.0888 13.9902C18.5429 14.3293 18.635 14.9707 18.2944 15.4228L16.7527 17.4693C16.574 17.7066 16.3006 17.855 16.0034 17.876C15.7062 17.897 15.4144 17.7886 15.2038 17.5789L11.9076 14.2973H6.41296L7.57327 9.34974L6.17543 8.89355L5.03039 11.1735C4.77654 11.679 4.15918 11.8838 3.65148 11.6311C3.14379 11.3784 2.938 10.7637 3.19186 10.2583L4.73353 7.18855C4.9614 6.73483 5.48877 6.51581 5.97294 6.67382L8.21122 7.40429Z" fill="black"/>
<path d="M0.864728 10.8896C0.313193 11.903 0 13.0637 0 14.2972C0 18.2531 3.22106 21.46 7.19444 21.46C9.48793 21.46 11.5308 20.3915 12.8482 18.7273L11.3805 17.2661C10.447 18.5683 8.91841 19.4135 7.19444 19.4135C4.35631 19.4135 2.05555 17.1228 2.05555 14.2972C2.05555 13.6357 2.18081 13.0055 2.40905 12.4271L0.864728 10.8896Z" fill="black"/>
</svg>
