<svg width="19" height="22" viewBox="0 0 19 22" fill="none" xmlns="http://www.w3.org/2000/svg">
<path d="M7.25 5.45996C8.63071 5.45996 9.75 4.34067 9.75 2.95996C9.75 1.57925 8.63071 0.459961 7.25 0.459961C5.86929 0.459961 4.75 1.57925 4.75 2.95996C4.75 4.34067 5.86929 5.45996 7.25 5.45996Z" fill="black"/>
<path d="M8.2222 9.18091V6.87858H6.16665V15.3205H12.3658L14.6271 18.0221C14.9773 18.4405 15.5955 18.5124 16.0333 18.1856L18.0888 16.6507C18.5429 16.3116 18.635 15.6702 18.2944 15.2181C17.9538 14.766 17.3096 14.6744 16.8555 15.0135L15.5811 15.9651L13.3286 13.2739H8.2222V11.2274H12.8472C13.4148 11.2274 13.875 10.7693 13.875 10.2042C13.875 9.63904 13.4148 9.18091 12.8472 9.18091H8.2222Z" fill="black"/>
<path d="M4.1111 7.82365C1.68047 8.97324 0 11.4398 0 14.2972C0 18.2531 3.22105 21.46 7.19442 21.46C9.40171 21.46 11.3768 20.4703 12.6966 18.9123L11.403 17.3669H11.3059C10.3684 18.6096 8.87568 19.4134 7.19442 19.4134C4.3563 19.4134 2.05555 17.1228 2.05555 14.2972C2.05555 12.6233 2.86292 11.1372 4.1111 10.2037V7.82365Z" fill="black"/>
</svg>
