<svg viewBox="0 0 24 24" xmlns="http://www.w3.org/2000/svg"><path d="M14 6C15.3807 6 16.5 4.88071 16.5 3.5C16.5 2.11929 15.3807 1 14 1C12.6193 1 11.5 2.11929 11.5 3.5C11.5 4.88071 12.6193 6 14 6Z"/><path d="M11.2112 7.94433L11.7151 6.76297L13.6071 7.56282L12.7689 9.52811L12.0038 12.7908H15.7591L18.8193 15.8376L19.6499 14.7349C19.9905 14.2828 20.6347 14.1912 21.0888 14.5302C21.5429 14.8693 21.635 15.5107 21.2944 15.9628L19.7527 18.0093C19.574 18.2466 19.3006 18.395 19.0034 18.416C18.7062 18.4371 18.4144 18.3287 18.2038 18.1189L14.9076 14.8373H9.41296L10.5733 9.88978L9.17543 9.43359L8.03039 11.7135C7.77654 12.219 7.15918 12.4239 6.65148 12.1711C6.14379 11.9184 5.938 11.3038 6.19186 10.7983L7.73353 7.72859C7.9614 7.27487 8.48877 7.05585 8.97294 7.21386L11.2112 7.94433Z"/><path d="M3.86473 11.4296C3.31319 12.443 3 13.6037 3 14.8372C3 18.7931 6.22106 22 10.1944 22C12.4879 22 14.5308 20.9315 15.8482 19.2673L14.3805 17.8062C13.447 19.1084 11.9184 19.9535 10.1944 19.9535C7.35631 19.9535 5.05555 17.6629 5.05555 14.8372C5.05555 14.1757 5.18081 13.5455 5.40905 12.9672L3.86473 11.4296Z"/></svg>