<svg viewBox="0 0 24 24" xmlns="http://www.w3.org/2000/svg"><path d="M21.4233 6.42782C21.1307 4.2789 19.2347 2.58541 16.9872 2.25725C16.6081 2.2018 15.1714 2 11.8434 2H11.8186C8.48965 2 7.77545 2.2018 7.39627 2.25725C5.21135 2.57632 3.21604 4.09801 2.73193 6.27235C2.49908 7.34317 2.47423 8.53035 2.51749 9.61935C2.57915 11.181 2.59112 12.74 2.73469 14.2953C2.83395 15.3285 3.0071 16.3534 3.25285 17.3623C3.71302 19.2258 5.57582 20.7766 7.40087 21.4093C9.35487 22.0691 11.4562 22.1786 13.4697 21.7256C13.6912 21.6747 13.9102 21.6156 14.1268 21.5484C14.6155 21.3947 15.1889 21.2229 15.6104 20.9211C15.6162 20.9169 15.6209 20.9114 15.6243 20.9051C15.6276 20.8988 15.6295 20.8919 15.6297 20.8848V19.3776C15.6296 19.371 15.628 19.3645 15.625 19.3585C15.622 19.3526 15.6178 19.3473 15.6124 19.3433C15.6072 19.3391 15.601 19.3363 15.5944 19.3348C15.5879 19.3334 15.5811 19.3334 15.5745 19.3349C14.2845 19.6393 12.9626 19.7918 11.6363 19.7894C9.35386 19.7894 8.73998 18.7195 8.56418 18.2741C8.42289 17.8891 8.33315 17.4876 8.29729 17.0796C8.29693 17.0728 8.29821 17.0659 8.30101 17.0597C8.30381 17.0534 8.30809 17.0479 8.31346 17.0435C8.31885 17.0392 8.32519 17.0362 8.33197 17.0347C8.33875 17.0332 8.34579 17.0334 8.35251 17.0351C9.62102 17.3374 10.9214 17.4899 12.2263 17.4896C12.5401 17.4896 12.853 17.4896 13.1669 17.4814C14.4793 17.4451 15.8626 17.3787 17.1538 17.1296C17.186 17.1233 17.2182 17.1178 17.2459 17.1096C19.2826 16.7233 21.2209 15.5107 21.4178 12.44C21.4252 12.3191 21.4436 11.1738 21.4436 11.0483C21.4445 10.622 21.5826 8.02405 21.4233 6.42782ZM18.2886 14.0899H16.147V8.90851C16.147 7.81769 15.6868 7.26138 14.7508 7.26138C13.7218 7.26138 13.2064 7.91951 13.2064 9.21938V12.0555H11.0777V9.21938C11.0777 7.91951 10.5614 7.26138 9.53241 7.26138C8.60193 7.26138 8.13715 7.81769 8.13622 8.90851V14.0899H5.99641V8.75125C5.99641 7.66043 6.27836 6.79384 6.84222 6.15146C7.42388 5.51061 8.18685 5.18156 9.1339 5.18156C10.23 5.18156 11.0583 5.59787 11.6106 6.42964L12.1434 7.3132L12.6772 6.42964C13.2295 5.59787 14.0578 5.18156 15.1521 5.18156C16.0982 5.18156 16.8611 5.51061 17.4447 6.15146C18.0085 6.79323 18.2905 7.65982 18.2905 8.75125L18.2886 14.0899Z"/></svg>