<svg viewBox="0 0 24 24" xmlns="http://www.w3.org/2000/svg"><path fill-rule="evenodd" clip-rule="evenodd" d="M3.64493 2.12231L4.02708 3.73121C4.2142 4.51899 4.58604 5.71858 5.10843 6.78371C5.36924 7.31549 5.68549 7.85094 6.0608 8.29024C6.42548 8.71709 6.92687 9.14812 7.57619 9.29723C8.65754 9.54555 9.98955 9.52683 11 9.44563V12.0001H5.00001V17.0001H6.28558L7.37648 22.0001H16.6235L17.7144 17.0001H19V12.0001H13V9.44563C14.0105 9.52683 15.3425 9.54555 16.4238 9.29723C17.0732 9.14812 17.5745 8.71709 17.9392 8.29024C18.3145 7.85094 18.6308 7.31549 18.8916 6.78371C19.414 5.71858 19.7858 4.51899 19.9729 3.73121L20.3551 2.12231L18.7528 2.53116C17.7011 2.79951 15.1728 3.51446 13.6826 4.19887C12.9375 4.54109 12.3916 5.09676 12 5.66812C11.6084 5.09676 11.0625 4.54109 10.3174 4.19887C8.82721 3.51446 6.29894 2.79951 5.24725 2.53116L3.64493 2.12231ZM6.49695 4.9571C7.53129 5.26777 8.69766 5.65582 9.48264 6.01635C9.91422 6.21456 10.274 6.61484 10.5508 7.12893C10.6105 7.23986 10.664 7.35167 10.7114 7.46178C9.85874 7.52301 8.80925 7.52833 8.02383 7.34797C7.97315 7.33633 7.81828 7.26836 7.58141 6.9911C7.35516 6.72628 7.12453 6.3525 6.90409 5.90303C6.7548 5.59864 6.61839 5.27658 6.49695 4.9571ZM14.5174 6.01635C15.3024 5.65582 16.4687 5.26777 17.5031 4.9571C17.3816 5.27658 17.2452 5.59864 17.0959 5.90303C16.8755 6.3525 16.6449 6.72628 16.4186 6.9911C16.1817 7.26836 16.0269 7.33633 15.9762 7.34797C15.1908 7.52833 14.1413 7.52301 13.2886 7.46178C13.3361 7.35167 13.3895 7.23986 13.4492 7.12893C13.726 6.61484 14.0858 6.21456 14.5174 6.01635ZM8.98717 20.0001L8.33263 17.0001H15.6674L15.0128 20.0001H8.98717ZM7.00001 15.0001V14.0001H17V15.0001H7.00001Z"/></svg>