<svg viewBox="0 0 24 24" xmlns="http://www.w3.org/2000/svg"><path d="M15.5 17.8008L13.5508 19.75L15.5 21.7002L14.2002 23L12.25 21.0498L10.2998 23L9 21.7002L10.9492 19.75L9 17.8008L10.2998 16.5L12.25 18.4502L14.2002 16.5L15.5 17.8008Z"/><path d="M15.5 10.0449L13.5508 11.9961L15.5 13.9453L14.2002 15.2451L12.25 13.2959L10.2998 15.2451L9 13.9453L10.9502 11.9961L9 10.0449L10.2998 8.74512L12.25 10.6963L14.2002 8.74512L15.5 10.0449Z"/><path d="M15.5 2.2998L13.5508 4.25L15.5 6.2002L14.2002 7.5L12.25 5.5498L10.2998 7.5L9 6.2002L10.9502 4.25L9 2.2998L10.2998 1L12.25 2.9502L14.2002 1L15.5 2.2998Z"/></svg>