<svg viewBox="0 0 24 24" xmlns="http://www.w3.org/2000/svg"><path fill-rule="evenodd" clip-rule="evenodd" d="M4 22V2H20V13.4644C19.2523 12.8588 18.2943 12.5 17.2692 12.5C14.9652 12.5 13 14.3127 13 16.6667C13 17.6879 13.3753 18.613 13.9853 19.329L12.8758 22H4ZM7 6H17V8H7V6ZM14 10H7V12H14V10ZM7 14H11.79V16H7V14Z"/><path d="M17.2692 20.6667L14.5 22L15.7811 18.9159C15.6848 18.8568 15.5925 18.792 15.5049 18.7221C15.0647 18.3714 14.7391 17.8921 14.5901 17.344C14.5313 17.1277 14.5 16.9007 14.5 16.6667C14.5 15.6312 15.113 14.7335 16.0085 14.2917C16.3867 14.1052 16.8152 14 17.2692 14C18.4777 14 19.5055 14.7455 19.8835 15.785C19.9337 15.9229 19.9724 16.066 19.9986 16.2132C20.0248 16.3606 20.0385 16.5121 20.0385 16.6667C20.0385 17.5088 19.6331 18.2598 19 18.7484C18.9224 18.8083 18.8414 18.8643 18.7574 18.9159L20.0385 22L17.2692 20.6667Z"/></svg>