<svg viewBox="0 0 24 24" xmlns="http://www.w3.org/2000/svg"><path fill-rule="evenodd" clip-rule="evenodd" d="M23 13H19V14H23V16H21.5V20H19.5V16H4.5V20H2.5V16H1V14H2.71973L3.31348 11.626C3.53606 10.7357 4.33619 10.1113 5.25391 10.1113H9.91504C10.8326 10.1115 11.6319 10.7359 11.8545 11.626L12.4482 14H17V13H13V6H23V13ZM4.78223 14H10.3867L9.91504 12.1113H5.25391L4.78223 14ZM15 11H17V10H19V11H21V8H15V11Z"/><path fill-rule="evenodd" clip-rule="evenodd" d="M7.85742 4.01367C9.20187 4.15046 10.251 5.28645 10.251 6.66699L10.2373 6.93945C10.1007 8.28384 8.96531 9.33266 7.58496 9.33301L7.31152 9.31934C6.05677 9.19168 5.05915 8.19425 4.93164 6.93945L4.91797 6.66699C4.91797 5.19423 6.1122 4 7.58496 4L7.85742 4.01367ZM7.58496 6C7.21677 6 6.91797 6.2988 6.91797 6.66699C6.91814 7.03503 7.21688 7.33301 7.58496 7.33301C7.95272 7.33263 8.2508 7.0348 8.25098 6.66699C8.25098 6.29903 7.95283 6.00038 7.58496 6Z"/></svg>