<svg viewBox="0 0 24 24" xmlns="http://www.w3.org/2000/svg"><path fill-rule="evenodd" clip-rule="evenodd" d="M16.9775 7.02251C16.7371 4.48507 14.6004 2.5 12 2.5C9.39963 2.5 7.2629 4.48507 7.0225 7.02251C4.48506 7.2629 2.5 9.39963 2.5 12C2.5 14.7614 4.73858 17 7.5 17H11V19.5H9V21.5H15V19.5H13V17H16.5C19.2614 17 21.5 14.7614 21.5 12C21.5 9.39963 19.5149 7.2629 16.9775 7.02251ZM13 17V15.9142L15.7071 13.2071L14.2929 11.7929L13 13.0858V9H11V11.75L9.70712 10.7929L8.29291 12.2071L11 14.4142V17H13Z"/></svg>