<svg viewBox="0 0 24 24" xmlns="http://www.w3.org/2000/svg"><path fill-rule="evenodd" clip-rule="evenodd" d="M22 9.26109C19.4928 6.63809 15.9325 5 11.9831 5C8.05141 5 4.5053 6.62339 2 9.22577L3.76797 10.9645C5.82029 8.80649 8.74152 7.45775 11.9831 7.45775C15.2424 7.45775 18.1778 8.82131 20.2318 11L22 9.26109ZM19 13.0932C17.2669 11.1932 14.7645 10 11.982 10C9.21867 10 6.7317 11.1768 5 13.0539L6.91638 14.96C8.15603 13.5689 9.96605 12.6921 11.982 12.6921C14.0171 12.6921 15.8425 13.5857 17.0829 15L19 13.0932ZM12 20C13.3807 20 14.5 18.8807 14.5 17.5C14.5 16.1193 13.3807 15 12 15C10.6193 15 9.5 16.1193 9.5 17.5C9.5 18.8807 10.6193 20 12 20Z"/></svg>