<svg viewBox="0 0 24 24" xmlns="http://www.w3.org/2000/svg"><path fill-rule="evenodd" clip-rule="evenodd" d="M4.02705 3.73121L3.6449 2.12231L5.24722 2.53116C6.29891 2.79951 8.82718 3.51446 10.3173 4.19887C11.0625 4.54109 11.6084 5.09676 12 5.66812C12.3916 5.09676 12.9375 4.54109 13.6826 4.19887C15.1728 3.51446 17.701 2.79951 18.7527 2.53116L20.3551 2.12231L19.9729 3.73121C19.7858 4.51899 19.414 5.71858 18.8916 6.78371C18.6308 7.31549 18.3145 7.85094 17.9392 8.29024C17.5745 8.71709 17.0731 9.14812 16.4238 9.29723C15.3424 9.54555 14.0104 9.52683 13 9.44563V12.0001H19V16.0001H4.99998V12.0001H11V9.44563C9.98952 9.52683 8.65751 9.54555 7.57616 9.29723C6.92684 9.14812 6.42545 8.71709 6.06077 8.29024C5.68546 7.85094 5.36921 7.31549 5.1084 6.78371C4.586 5.71858 4.21417 4.51899 4.02705 3.73121ZM6.5127 18.0001L7.38543 22.0001H16.6145L17.4873 18.0001H6.5127Z"/></svg>