<svg viewBox="0 0 24 24" xmlns="http://www.w3.org/2000/svg"><path fill-rule="evenodd" clip-rule="evenodd" d="M20 1C19.2889 1 18.6125 1.14845 18 1.41604C16.2341 2.1876 15 3.94968 15 6V15H17V23H20V1ZM17 6C17 5.1115 17.3863 4.31321 18 3.76389V13H17V6ZM4 8.09917V2H6V7.09917H7V2H9V7.09917H10V2H12V8.09917C12 9.7598 10.9623 11.1781 9.5 11.7409V23H6.5V11.7409C5.03768 11.1781 4 9.7598 4 8.09917ZM7.90083 10H8.09917C8.78208 10 9.38087 9.63988 9.716 9.09917H6.284C6.61913 9.63988 7.21792 10 7.90083 10Z"/></svg>