<svg viewBox="0 0 24 24" xmlns="http://www.w3.org/2000/svg"><path fill-rule="evenodd" clip-rule="evenodd" d="M12 23C18.0751 23 23 18.0751 23 12C23 5.92487 18.0751 1 12 1C5.92487 1 1 5.92487 1 12C1 18.0751 5.92487 23 12 23ZM16 12C16.8284 12 17.5 11.3284 17.5 10.5C17.5 9.67157 16.8284 9 16 9C15.1716 9 14.5 9.67157 14.5 10.5C14.5 11.3284 15.1716 12 16 12ZM9.5 10.5C9.5 11.3284 8.82843 12 8 12C7.17157 12 6.5 11.3284 6.5 10.5C6.5 9.67157 7.17157 9 8 9C8.82843 9 9.5 9.67157 9.5 10.5ZM6.07692 14.3846C6.6092 15.6621 8.50229 18 12 18C15.4977 18 17.3908 15.6621 17.9231 14.3846L16.0769 13.6154C15.7759 14.3379 14.5023 16 12 16C9.49771 16 8.22413 14.3379 7.92308 13.6154L6.07692 14.3846Z"/></svg>