<svg viewBox="0 0 24 24" xmlns="http://www.w3.org/2000/svg"><path fill-rule="evenodd" clip-rule="evenodd" d="M12 23C18.0751 23 23 18.0751 23 12C23 5.92487 18.0751 1 12 1C5.92487 1 1 5.92487 1 12C1 18.0751 5.92487 23 12 23ZM6.152 15.97C6.7806 14.9642 8.71413 13.5 12 13.5C15.2859 13.5 17.2194 14.9642 17.848 15.97L16.152 17.03C15.9473 16.7024 14.7141 15.5 12 15.5C9.28587 15.5 8.05274 16.7024 7.848 17.03L6.152 15.97ZM9.5 10.5C9.5 11.3284 8.82843 12 8 12C7.17157 12 6.5 11.3284 6.5 10.5C6.5 9.67157 7.17157 9 8 9C8.82843 9 9.5 9.67157 9.5 10.5ZM16 12C16.8284 12 17.5 11.3284 17.5 10.5C17.5 9.67157 16.8284 9 16 9C15.1716 9 14.5 9.67157 14.5 10.5C14.5 11.3284 15.1716 12 16 12Z"/></svg>