<svg viewBox="0 0 24 24" xmlns="http://www.w3.org/2000/svg"><path fill-rule="evenodd" clip-rule="evenodd" d="M19.1426 2.75348C20.5191 1.86715 22.1316 3.48276 21.247 4.86185L17.8197 10.2047L12.4678 15.5668C12.7175 16.6432 12.5425 17.6209 12.0055 18.4489C11.4196 19.3523 10.4755 19.9656 9.50822 20.3877C7.57303 21.2321 5.10535 21.5 3.51521 21.5H2.5V20.4829C2.5 18.9937 2.82773 18.0248 3.26344 17.3115C3.46309 16.9847 3.67352 16.7327 3.82116 16.556L3.83804 16.5358C3.91705 16.4411 3.96678 16.3806 4.00592 16.3273C4.02303 16.304 4.03414 16.2872 4.0411 16.2761C4.0424 16.2612 4.04393 16.2348 4.04371 16.1935C4.04346 16.1463 4.04171 16.1023 4.03924 16.0406L4.03643 15.9684C4.03304 15.8777 4.02939 15.756 4.0355 15.6264C4.09664 14.3274 4.38177 13.2952 4.95005 12.5715C5.55719 11.7983 6.38234 11.5081 7.19132 11.5142C7.57473 11.5172 7.95447 11.5853 8.3162 11.6914L13.8099 6.18729L19.1426 2.75348ZM10.2511 12.6297C10.5203 12.8085 10.7671 12.9923 10.9822 13.1674C11.1666 13.3173 11.3394 13.4825 11.4981 13.6614L12.7119 12.4453L11.5641 11.3142L10.2511 12.6297ZM16.2296 8.92091L13.7888 11.3664L12.6409 10.2354L15.0912 7.78037L18.2772 5.72889L16.2296 8.92091ZM6.06366 15.7222C6.11539 14.623 6.3493 14.0796 6.54583 13.8293C6.7035 13.6285 6.88894 13.5463 7.17592 13.5485C7.50796 13.551 7.93997 13.6754 8.42499 13.916C8.89787 14.1506 9.35057 14.4604 9.70237 14.7466C10.0303 15.0133 10.2732 15.353 10.4022 15.7253C10.6609 16.4714 10.5476 16.9632 10.3029 17.3405C10.0236 17.7713 9.4877 18.1778 8.69749 18.5226C7.48293 19.0526 5.92713 19.3251 4.61577 19.4228C4.70705 18.9205 4.85733 18.5992 4.99525 18.3734C5.11428 18.1786 5.24099 18.026 5.39561 17.8408L5.41773 17.8143C5.55037 17.6559 5.7624 17.4027 5.89956 17.1006C6.06103 16.7451 6.07525 16.4008 6.0741 16.1827C6.07364 16.0964 6.06994 16.005 6.06719 15.9369L6.06542 15.8924C6.06239 15.811 6.06182 15.7611 6.06366 15.7222Z"/></svg>