<svg viewBox="0 0 24 24" xmlns="http://www.w3.org/2000/svg"><path fill-rule="evenodd" clip-rule="evenodd" d="M17.0736 1C15.9046 1 14.7458 1.15862 13.8228 1.78199C13.3469 2.10337 12.976 2.51789 12.7008 3.01823C12.4933 3.00608 12.2842 2.99992 12.0737 2.99992C11.7362 2.99992 11.402 3.01593 11.072 3.0472C11.6361 3.56298 12.0519 4.23825 12.2481 5.00164C12.6411 5.00937 13.0255 5.04315 13.3995 5.10089L14.1233 5.23C14.2469 4.24029 14.5759 3.68674 14.9421 3.43943C15.209 3.25921 15.5743 3.13066 16.0736 3.06084V6H16.0748L16.0737 6.00195C17.5113 6.79136 18.6072 7.98741 19.1617 9.37178L19.4133 9.99993H21.0737V13.9999H19.0266L18.7354 14.486C18.5819 14.7422 18.4089 14.9893 18.2176 15.2255L17.6026 17.3242L16.7793 19.9999H14.5179V17.6117L13.459 17.8892C13.0107 17.9618 12.5477 17.9999 12.0737 17.9999C11.5222 17.9999 10.9857 17.9484 10.47 17.8508C10.3101 17.8206 10.1521 17.786 9.99637 17.7471L9.99599 17.7486L9.47369 17.6117V19.9999H7.21227L6.12599 16.4695L5.64335 14.8444C4.95863 13.8592 4.57367 12.7137 4.57367 11.4999C4.57367 10.4803 4.85216 9.49958 5.35338 8.62265C4.8416 8.03378 4.49919 7.29379 4.402 6.47851C3.70842 7.32291 3.18388 8.29 2.87831 9.34431C2.83489 9.30332 2.7919 9.25389 2.75062 9.19491C2.48528 8.81586 2.35602 8.11241 2.7445 7.33542L1.40285 6.66461C0.791365 7.88762 0.912109 9.18417 1.52178 10.0551C1.78482 10.4309 2.15083 10.74 2.59659 10.8997C2.5814 11.0977 2.57367 11.2978 2.57367 11.4999C2.57367 13.0168 3.01702 14.433 3.7828 15.6549L5.73512 21.9999H11.4737V19.9833C11.6722 19.9943 11.8722 19.9999 12.0737 19.9999C12.2225 19.9999 12.3706 19.9969 12.5179 19.9908V21.9999H18.2565L20.0766 16.0843C20.0967 16.0563 20.1166 16.0282 20.1363 15.9999H23.0737V7.99992H20.7346C20.1209 6.78344 19.2028 5.72952 18.0736 4.90712V1H17.0736ZM7.43945 7.17365C7.76809 6.9217 8.15192 6.69435 8.61084 6.48348C9.01496 6.2978 9.4484 6.16147 9.87237 6.06251C9.87322 6.04178 9.87366 6.02094 9.87366 6.00001C9.87366 5.17158 9.20208 4.5 8.37366 4.5C7.54523 4.5 6.87366 5.17158 6.87366 6.00001C6.87366 6.47522 7.09464 6.89882 7.43945 7.17365ZM6.4127 8.27046C5.77633 7.72035 5.37366 6.9072 5.37366 6.00001C5.37366 4.34315 6.7168 3 8.37366 3C9.97726 3 11.287 4.2582 11.3695 5.84126C11.6677 5.82082 11.9196 5.81772 12.0982 5.8236L12.0488 7.32278C11.528 7.30563 10.2188 7.39541 9.23712 7.84648C8.63317 8.12399 8.25577 8.40497 7.97789 8.70229C7.69508 9.00487 7.48333 9.35774 7.24448 9.83542L5.90284 9.1646C6.05583 8.85862 6.21812 8.55879 6.4127 8.27046ZM18.0737 10C18.0737 10.5523 17.626 11 17.0737 11C16.5214 11 16.0737 10.5523 16.0737 10C16.0737 9.44771 16.5214 9 17.0737 9C17.626 9 18.0737 9.44771 18.0737 10Z"/></svg>