<svg viewBox="0 0 24 24" xmlns="http://www.w3.org/2000/svg"><path fill-rule="evenodd" clip-rule="evenodd" d="M5.5 21.5C3.84314 21.5 2.5 20.1569 2.5 18.5V5.5C2.5 3.84315 3.84315 2.5 5.5 2.5H18.5C20.1569 2.5 21.5 3.84315 21.5 5.5V18.5C21.5 20.1569 20.1569 21.5 18.5 21.5H5.5ZM15.7632 19.5V15.9605H19.5V18.5C19.5 19.0523 19.0523 19.5 18.5 19.5H15.7632ZM19.5 5.5C19.5 4.94772 19.0523 4.5 18.5 4.5H15.7632V8.43421H19.5V5.5ZM15.7632 13.9605V10.4342H19.5V13.9605H15.7632ZM13.7632 10.4342H10.2368V13.9605H13.7632V10.4342ZM13.7632 4.5H10.2368V8.43421H13.7632V4.5ZM13.7632 15.9605H10.2368V19.5H13.7632V15.9605ZM8.23681 13.9605H4.5V10.4342H8.23681V13.9605ZM8.23681 8.43421H4.5V5.5C4.5 4.94772 4.94772 4.5 5.5 4.5H8.23681V8.43421ZM8.23681 19.5H5.5C4.94772 19.5 4.5 19.0523 4.5 18.5V15.9605H8.23681V19.5Z"/></svg>