<svg viewBox="0 0 24 24" xmlns="http://www.w3.org/2000/svg"><path fill-rule="evenodd" clip-rule="evenodd" d="M19.4899 5.92429C20.4928 7.56335 20.285 9.73425 18.8663 11.1529L16.6775 13.3417L10.6583 7.32248L12.8471 5.13369C14.2657 3.71509 16.4366 3.50722 18.0756 4.51009L20.0081 2.57764L21.4223 3.99185L19.4899 5.92429ZM16.6775 10.5132L13.4868 7.32248L14.2614 6.5479C15.1425 5.6668 16.571 5.6668 17.4521 6.5479C18.3332 7.42901 18.3332 8.85756 17.4521 9.73866L16.6775 10.5132Z"/><path fill-rule="evenodd" clip-rule="evenodd" d="M9.91914 13.2548L11.8342 11.3398L10.42 9.92554L8.50492 11.8406L7.32255 10.6582L5.13375 12.847C3.71512 14.2656 3.50728 16.4366 4.51023 18.0756L2.40869 20.1772L3.8229 21.5914L5.92448 19.4898C7.56352 20.4927 9.73435 20.2848 11.1529 18.8662L13.3417 16.6774L12.1594 15.4951L14.0745 13.58L12.6603 12.1658L10.7452 14.0809L9.91914 13.2548ZM7.32255 13.4866L10.5133 16.6774L9.73873 17.452C8.85763 18.3331 7.42907 18.3331 6.54797 17.452C5.66686 16.5709 5.66686 15.1423 6.54797 14.2612L7.32255 13.4866Z"/></svg>