<svg viewBox="0 0 24 24" xmlns="http://www.w3.org/2000/svg"><path d="M21.4069 3.36904L17.6896 9.16522L16.035 10.8232L15.7314 10.5189L13.1731 7.99756L14.8487 6.31842L20.6328 2.59327C21.1391 2.26714 21.7324 2.8616 21.4069 3.36904Z"/><path d="M14.5455 11.7122L14.8467 12.0141L13.0088 13.8558C12.8346 13.5387 12.6148 13.2136 12.3442 12.9536C12.1429 12.7292 11.925 12.5219 11.6936 12.3333C11.4325 12.1204 11.1342 11.8978 10.8089 11.6813L10.7849 11.6653L10.7598 11.651C10.5584 11.5362 10.2707 11.3769 9.96268 11.2147L11.9847 9.18844L14.5455 11.7122Z"/><path d="M11.7509 15.1163C11.7314 15.0698 11.711 15.0228 11.6897 14.9758C11.5208 14.6034 11.3354 14.3124 11.1702 14.159L11.1399 14.1308L11.1125 14.0999C10.9654 13.9336 10.8048 13.7797 10.633 13.6397C10.4183 13.4647 10.1719 13.2802 9.90311 13.1003C9.64154 12.9516 9.23618 12.7296 8.84488 12.532C8.79977 12.5092 8.75597 12.4873 8.71357 12.4664C8.34184 12.2829 8.07745 12.1713 7.98234 12.1487L7.96088 12.1436L7.93972 12.1374C7.59191 12.0351 7.24502 11.9751 6.90952 11.9725C6.21841 11.9672 5.55939 12.2075 5.06567 12.8375C4.58255 13.4541 4.2841 14.4108 4.21946 15.787C4.21439 15.895 4.2172 16.0018 4.22082 16.0992L4.22419 16.1858C4.22674 16.2496 4.22923 16.3119 4.22958 16.3796C4.22995 16.4487 4.22747 16.5044 4.2235 16.55L4.20599 16.7512L4.09933 16.9225C4.0788 16.9555 4.05422 16.9918 4.0245 17.0324C3.96236 17.1173 3.88925 17.2056 3.80397 17.308L3.78491 17.3309C3.6207 17.5279 3.42053 17.7693 3.23216 18.0783C2.83428 18.7311 2.5 19.6632 2.5 21.2001V21.5H2.79714C4.51877 21.5 7.15481 21.2051 9.17573 20.3214C10.1861 19.8796 11.075 19.2768 11.6048 18.4582C12.0747 17.7321 12.2395 16.8728 12.0108 15.8778C11.9671 15.7041 11.8781 15.419 11.7509 15.1163Z"/></svg>