<svg viewBox="0 0 15 22" xmlns="http://www.w3.org/2000/svg"><path d="M0 22V0H7.59912C11.4648 0 14.0088 2.43692 14.0088 6.09231C14.0088 7.92 12.7533 9.84923 11.0683 10.56V10.6277C13.2819 11.1692 15 13.4031 15 15.7385C15 19.4954 12.0925 22 7.69824 22H0ZM4.32819 9.17231H6.87225C8.55727 9.17231 9.64758 8.08923 9.64758 6.36308C9.64758 4.67077 8.55727 3.58769 6.87225 3.58769H4.32819V9.17231ZM4.32819 18.4123H7.43392C9.4163 18.4123 10.6388 17.2954 10.6388 15.4338C10.6388 13.6062 9.4163 12.4892 7.43392 12.4892H4.32819V18.4123Z"/></svg>