<svg viewBox="0 0 19 18" xmlns="http://www.w3.org/2000/svg"><path d="M12.0243 10.1748H16.1601L9.49795 2.85547L2.83583 10.1748H6.97451V15.5H12.0243V10.1748ZM14.0243 16.1689L14.0175 16.3008C13.9882 16.6054 13.8584 16.892 13.6464 17.1104L13.5517 17.1992C13.3544 17.3655 13.113 17.4672 12.8593 17.4932L12.7314 17.5H6.26748L6.13955 17.4932C5.88587 17.4672 5.64534 17.3646 5.44814 17.1982L5.35341 17.1104C5.14136 16.892 5.00988 16.6054 4.98036 16.3008L4.9745 16.1689V12.1748H1.29481L1.19031 12.1709C0.129315 12.0885 -0.397546 10.7567 0.351445 9.93262L8.55557 0.921875C8.67647 0.788923 8.82298 0.682825 8.98526 0.610352C9.14757 0.537901 9.323 0.5 9.49991 0.5C9.67664 0.500078 9.85143 0.537961 10.0136 0.610352C10.1759 0.682839 10.3224 0.788901 10.4433 0.921875L18.6464 9.93457C19.3978 10.7573 18.8707 12.0884 17.8075 12.1709L17.7031 12.1748H14.0243V16.1689Z"/></svg>