<svg viewBox="0 0 17 18" xmlns="http://www.w3.org/2000/svg"><path d="M3.65309 17.5C2.53886 17.5 1.64747 17.1773 0.978933 16.5319C0.326311 15.8866 0 15.0208 0 13.9347C0 12.7856 0.342229 11.8963 1.02669 11.2667C1.72706 10.6213 2.75375 10.2986 4.10674 10.2986H5.51545V7.70139H4.10674C2.75375 7.70139 1.72706 7.38657 1.02669 6.75694C0.342229 6.11157 0 5.21435 0 4.06528C0 2.97917 0.326311 2.11343 0.978933 1.46806C1.64747 0.822685 2.53886 0.5 3.65309 0.5C4.54448 0.5 5.24485 0.665277 5.75421 0.995832C6.27949 1.32639 6.6456 1.76713 6.85253 2.31806C7.07538 2.86898 7.1868 3.475 7.1868 4.13611V6.09583H9.8132V4.13611C9.8132 3.475 9.91667 2.86898 10.1236 2.31806C10.3464 1.76713 10.7125 1.32639 11.2219 0.995832C11.7472 0.665277 12.4555 0.5 13.3469 0.5C14.4611 0.5 15.3446 0.822685 15.9972 1.46806C16.6657 2.11343 17 2.97917 17 4.06528C17 5.21435 16.6578 6.11157 15.9733 6.75694C15.2889 7.38657 14.2622 7.70139 12.8933 7.70139H11.4846V10.2986H12.8933C14.2622 10.2986 15.2889 10.6213 15.9733 11.2667C16.6578 11.8963 17 12.7856 17 13.9347C17 15.0208 16.6657 15.8866 15.9972 16.5319C15.3446 17.1773 14.4611 17.5 13.3469 17.5C12.4555 17.5 11.7472 17.3347 11.2219 17.0042C10.7125 16.6736 10.3464 16.2329 10.1236 15.6819C9.91667 15.131 9.8132 14.525 9.8132 13.8639V11.9042H7.1868V13.8639C7.1868 14.525 7.07538 15.131 6.85253 15.6819C6.6456 16.2329 6.27949 16.6736 5.75421 17.0042C5.24485 17.3347 4.54448 17.5 3.65309 17.5ZM11.4846 4.08889V6.09583H12.8933C13.7369 6.09583 14.3497 5.93056 14.7317 5.6C15.1138 5.2537 15.3048 4.74213 15.3048 4.06528C15.3048 3.37269 15.1138 2.87685 14.7317 2.57778C14.3656 2.2787 13.904 2.12917 13.3469 2.12917C12.7261 2.12917 12.2566 2.31019 11.9382 2.67222C11.6358 3.01852 11.4846 3.49074 11.4846 4.08889ZM4.10674 6.09583H5.51545V4.08889C5.51545 3.49074 5.35627 3.01852 5.03792 2.67222C4.73549 2.31019 4.27388 2.12917 3.65309 2.12917C3.09597 2.12917 2.6264 2.2787 2.24438 2.57778C1.87828 2.87685 1.69522 3.37269 1.69522 4.06528C1.69522 4.74213 1.88624 5.2537 2.26826 5.6C2.65028 5.93056 3.26311 6.09583 4.10674 6.09583ZM7.1868 10.2986H9.8132V7.70139H7.1868V10.2986ZM3.65309 15.8708C4.27388 15.8708 4.73549 15.6977 5.03792 15.3514C5.35627 14.9894 5.51545 14.5093 5.51545 13.9111V11.9042H4.10674C3.26311 11.9042 2.65028 12.0773 2.26826 12.4236C1.88624 12.7542 1.69522 13.2579 1.69522 13.9347C1.69522 14.6273 1.87828 15.1231 2.24438 15.4222C2.6264 15.7213 3.09597 15.8708 3.65309 15.8708ZM11.4846 13.9111C11.4846 14.5093 11.6358 14.9894 11.9382 15.3514C12.2566 15.6977 12.7261 15.8708 13.3469 15.8708C13.904 15.8708 14.3656 15.7213 14.7317 15.4222C15.1138 15.1231 15.3048 14.6273 15.3048 13.9347C15.3048 13.2579 15.1138 12.7542 14.7317 12.4236C14.3497 12.0773 13.7369 11.9042 12.8933 11.9042H11.4846V13.9111Z"/></svg>