<svg viewBox="0 0 22 12" xmlns="http://www.w3.org/2000/svg"><path d="M4.79297 1.64746C6.15217 1.64746 7.32583 2.13215 8.21289 3.04395L6.96777 4.24023C6.43848 3.64206 5.68014 3.31454 4.80762 3.31445C3.11935 3.31445 1.94629 4.59714 1.94629 6.44922C1.94644 8.28676 3.13328 9.58286 4.82129 9.58301C5.70828 9.58301 6.52399 9.24126 7.03906 8.65723L8.26953 9.83984C7.42547 10.7514 6.2095 11.2499 4.80762 11.25C1.97476 11.25 0 9.28393 0 6.43457C2.40125e-05 3.59949 1.96013 1.64746 4.79297 1.64746Z"/><path d="M11.8389 4.04102H13.5557V5.50879H11.8389V8.55762C11.839 9.24117 12.1966 9.62591 12.8545 9.62598C13.0548 9.62598 13.2983 9.59743 13.4414 9.55469V11.0361C13.2269 11.0931 12.8264 11.1357 12.5117 11.1357C10.9094 11.1357 10.0792 10.2527 10.0791 8.55762V5.50879H8.86328V4.04102H9.50684C10.0934 4.04099 10.3223 3.8126 10.3223 3.22852V2.13184H11.8389V4.04102Z"/><path d="M18.4219 3.98438C18.6365 3.98438 18.9373 4.01293 19.0518 4.05566V5.73633C18.8515 5.67935 18.4648 5.63673 18.1787 5.63672C17.2773 5.63672 16.6904 6.32074 16.6904 7.375V11.0791H14.917V4.04102H16.5908V5.20898H16.6191C16.9625 4.41131 17.5921 3.98438 18.4219 3.98438Z"/><path d="M22 11.0791H20.2256V0.75H22V11.0791Z"/></svg>