<svg viewBox="0 0 24 24" xmlns="http://www.w3.org/2000/svg"><path fill-rule="evenodd" clip-rule="evenodd" d="M14.0713 1.99902L9.59766 9.74707L9.92285 12.2227L12.4873 13.7031L14.7939 12.7471L19.2666 5L20.999 6L18 11.1934V22.457H3V8.45703H7.28809C7.60058 8.30234 7.92579 8.16888 8.26172 8.05957L12.3389 1L14.0713 1.99902ZM7.64746 10.2549C6.06034 11.2194 5 12.964 5 14.957C5 17.9946 7.46243 20.457 10.5 20.457C13.5373 20.4568 16 17.9944 16 14.957C16 14.7764 15.9898 14.598 15.9727 14.4219L15.873 14.4639L8.59766 17.4795L7.64746 10.2549Z"/><path d="M17.5352 4L13.9102 10.2783L12.1777 9.27832L15.8027 3L17.5352 4Z"/></svg>