<svg viewBox="0 0 24 24" xmlns="http://www.w3.org/2000/svg"><path fill-rule="evenodd" clip-rule="evenodd" d="M2.5 16.5H7L14 21.5V2.5L7 7.49995H2.5V16.5ZM17.9692 18.7448C19.7757 17.0583 20.9016 14.6774 20.9016 12.0386C20.9016 9.56409 19.9114 7.31623 18.2984 5.65523L19.7826 4.20001C21.7752 6.23364 23 8.99592 23 12.0386C23 15.2456 21.6394 18.1409 19.4534 20.2L17.9692 18.7448ZM16.4848 17.2894C17.9118 15.9757 18.8032 14.1092 18.8032 12.0386C18.8032 10.1322 18.0476 8.39883 16.814 7.11063L15.3292 8.56648C16.1835 9.48146 16.7047 10.7004 16.7047 12.0386C16.7047 13.5411 16.0477 14.8931 15 15.8335L16.4848 17.2894Z"/></svg>