<?xml version="1.0" encoding="UTF-8" standalone="no"?>
<svg
   width="64"
   height="64"
   fill="none"
   version="1.1"
   id="svg81"
   sodipodi:docname="icon.svg"
   inkscape:version="1.1.2 (0a00cf5339, 2022-02-04)"
   xmlns:inkscape="http://www.inkscape.org/namespaces/inkscape"
   xmlns:sodipodi="http://sodipodi.sourceforge.net/DTD/sodipodi-0.dtd"
   xmlns="http://www.w3.org/2000/svg"
   xmlns:svg="http://www.w3.org/2000/svg">
  <sodipodi:namedview
     id="namedview83"
     pagecolor="#ffffff"
     bordercolor="#666666"
     borderopacity="1.0"
     inkscape:pageshadow="2"
     inkscape:pageopacity="0.0"
     inkscape:pagecheckerboard="0"
     showgrid="false"
     inkscape:zoom="13.453125"
     inkscape:cx="15.238095"
     inkscape:cy="37.277584"
     inkscape:window-width="1920"
     inkscape:window-height="1115"
     inkscape:window-x="0"
     inkscape:window-y="0"
     inkscape:window-maximized="1"
     inkscape:current-layer="svg81" />
  <g
     clip-path="url(#a)"
     id="g74"
     transform="translate(0,-0.64)"
     inkscape:export-filename="/home/rubenjs/Amsterdam/Design System/design-system/proprietary/assets/favicon/icon-192.png"
     inkscape:export-xdpi="96"
     inkscape:export-ydpi="96">
    <path
       fill="#ffffff"
       d="M 64,0.64 H 0 v 64 h 64 z"
       id="path70" />
    <path
       fill="#ec0000"
       d="m 24.22,54.47 4.36,-4.36 -4.36,-4.36 2.91,-2.91 4.36,4.36 4.36,-4.36 2.91,2.91 -4.36,4.36 4.36,4.36 -2.91,2.91 -4.36,-4.36 -4.36,4.36 z m 0,-17.44 4.36,-4.36 -4.36,-4.37 2.91,-2.9 4.36,4.36 4.36,-4.36 2.91,2.9 -4.36,4.37 4.36,4.36 -2.91,2.9 -4.36,-4.36 -4.36,4.36 z m 0,-17.48 4.36,-4.36 -4.36,-4.36 2.91,-2.91 4.36,4.36 4.36,-4.36 2.91,2.91 -4.36,4.36 4.36,4.36 -2.91,2.91 -4.36,-4.36 -4.36,4.36 z"
       id="path72" />
  </g>
  <defs
     id="defs79">
    <clipPath
       id="a">
      <path
         fill="#ffffff"
         d="m 0,0.64 h 64 v 64 H 0 Z"
         id="path76" />
    </clipPath>
  </defs>
</svg>
