<svg viewBox="0 0 24 24" xmlns="http://www.w3.org/2000/svg"><path fill-rule="evenodd" clip-rule="evenodd" d="M19.5318 3.37891L19.7229 2.57446L18.9218 2.77888C17.8709 3.04702 15.3818 3.75278 13.9367 4.41649C13.1025 4.79963 12.5386 5.5037 12.1739 6.18102C12.1284 6.26553 12.0856 6.35036 12.0454 6.43501C12.0051 6.35036 11.9623 6.26553 11.9168 6.18102C11.5521 5.5037 10.9882 4.79963 10.154 4.41649C8.70895 3.75278 6.21981 3.04702 5.16896 2.77888L4.3678 2.57446L4.55888 3.37891C4.73994 4.14119 5.10086 5.3036 5.60268 6.32679C5.8534 6.83799 6.14824 7.33302 6.48629 7.7287C6.81902 8.11816 7.23378 8.45842 7.73344 8.57316C8.76501 8.81005 10.0644 8.78832 11.0454 8.70721V11.2634H13.0454V8.70721C14.0264 8.78832 15.3257 8.81005 16.3573 8.57316C16.857 8.45842 17.2717 8.11816 17.6044 7.7287C17.9425 7.33302 18.2373 6.83799 18.488 6.32679C18.9899 5.3036 19.3508 4.14119 19.5318 3.37891ZM5.05737 14.1234L4.54536 14.7634L2.54536 16.2634L5.54536 20.7634L7.45111 19.6102H16.0312L21.4813 13.1066C21.9652 12.5292 21.9108 11.6736 21.3577 11.1621C20.811 10.6566 19.9658 10.6622 19.4259 11.1749L16.5626 13.8937C16.564 13.9301 16.5646 13.9667 16.5646 14.0034V14.8414C16.5646 15.9029 15.7041 16.7634 14.6427 16.7634H11.0234V14.7634H14.5646V14.0034C14.5646 13.4511 14.1169 13.0034 13.5646 13.0034H7.21174C6.37084 13.0562 5.58733 13.4609 5.05737 14.1234Z"/></svg>