<svg viewBox="0 0 24 24" xmlns="http://www.w3.org/2000/svg"><path d="M17.5 7.85245H10.5V9.8561H17.5V7.85245Z"/><path d="M10.5 11.5692H17.5V13.5729H10.5V11.5692Z"/><path d="M10.5 15.286H15.56V17.2896H10.5V15.286Z"/><path fill-rule="evenodd" clip-rule="evenodd" d="M17.62 1L17.89 4.5765H21V17.6603L18.75 23H7V21.1466L4.45 21.337L3 2.102L17.62 1ZM6.29 19.1831L7 19.133V4.5765H15.89L15.78 3.1439L5.15 3.95537L6.29 19.1831ZM9 6.58014V20.9964H17.03L16.56 20.4153L15.91 19.6239L18.85 17.2596L19 17.1393V6.58014H9Z"/></svg>