<svg viewBox="0 0 24 24" xmlns="http://www.w3.org/2000/svg"><path fill-rule="evenodd" clip-rule="evenodd" d="M14 4C12.067 4 10.5 5.567 10.5 7.5C10.5 8.07644 10.6378 8.61488 10.8805 9.08966C10.9998 9.32304 11.2963 9.74604 11.7823 10.326C12.2432 10.876 12.7924 11.4711 13.3309 12.0295C13.5615 12.2686 13.7874 12.4982 14 12.7113C14.2126 12.4982 14.4385 12.2686 14.6691 12.0295C15.2076 11.4711 15.7568 10.876 16.2177 10.326C16.7037 9.74604 17.0002 9.32304 17.1195 9.08966C17.3622 8.61488 17.5 8.07644 17.5 7.5C17.5 5.567 15.933 4 14 4ZM14 15.5C14 15.5 17.9899 11.7808 18.9003 10C19.2837 9.24993 19.5 8.40022 19.5 7.5C19.5 4.46243 17.0376 2 14 2C10.9624 2 8.5 4.46243 8.5 7.5C8.5 8.40022 8.71628 9.24993 9.09971 10C10.0101 11.7808 14 15.5 14 15.5ZM5.4022 6H7.28147V10.3698H5.22326L3.65613 11.7873L4.11448 12.1033L4.94715 13.4462L7.48653 14.0968V16.8784L9.60744 18.4817L10.7995 16.6795L11.9034 17.4743L13.2507 16.4559L16.2872 18.785L16.1374 19.892L17.1903 19.8331L18.2851 18.7297L19.9412 19.0873L19.199 18.3712V17.8978C19.199 17.6126 19.2548 17.3591 19.3409 17.1385L18.8698 13.8648L18.213 13.5999L19.5828 11.3048L20.1229 11.4975L19.9181 12.2202L21.4999 12.858L20.7828 14.0628L21.0516 15.5005H23V17.0979L22.7879 17.1316C22.5088 17.176 22.1029 17.2692 21.7479 17.4069C21.5332 17.4901 21.3521 17.5839 21.2293 17.6827C21.1463 17.7495 21.1072 17.8038 21.0902 17.8447L22.5257 19.709L21.785 21.451L18.8846 20.8246L18.0027 21.4958H13.9632L14.2903 19.5222L13.1235 18.943L11.9303 19.8449L11.2831 19.3791L10.066 21.2192L7.63372 19.3806L6.19505 21.452L5.60726 20.8596V15.6369L3.77729 15.1489L2.7383 13.4733L1 11.9928L4.91533 8.08166L5.4022 8.37609V6ZM14 9.5C15.1046 9.5 16 8.60457 16 7.5C16 6.39543 15.1046 5.5 14 5.5C12.8954 5.5 12 6.39543 12 7.5C12 8.60457 12.8954 9.5 14 9.5Z"/></svg>