<svg viewBox="0 0 24 24" xmlns="http://www.w3.org/2000/svg"><path fill-rule="evenodd" clip-rule="evenodd" d="M11.3069 4.0038L12.031 3.47558L12.7551 4.0038C13.2701 4.37946 13.8914 4.58131 14.5288 4.5801L15.4251 4.57839L15.7005 5.43137C15.8963 6.03798 16.2803 6.56646 16.7967 6.94015L17.5228 7.46561L17.2442 8.31753C17.0461 8.9234 17.0461 9.57662 17.2442 10.1825L17.5228 11.0344L16.7967 11.5599C16.2803 11.9336 15.8963 12.462 15.7005 13.0687L15.4251 13.9216L14.5288 13.9199C13.8914 13.9187 13.2701 14.1206 12.7551 14.4962L12.031 15.0244L11.3069 14.4962C10.7919 14.1206 10.1706 13.9187 9.53319 13.9199L8.63688 13.9216L8.36152 13.0687C8.1657 12.462 7.78174 11.9336 7.26533 11.5599L6.53919 11.0344L6.81779 10.1825C7.01592 9.57662 7.01592 8.9234 6.81779 8.31753L6.53919 7.46561L7.26533 6.94015C7.78174 6.56646 8.1657 6.03798 8.36152 5.43137L8.63688 4.57839L9.53319 4.5801C10.1706 4.58131 10.7919 4.37946 11.3069 4.0038ZM11.4417 1.4299C11.7928 1.17376 12.2692 1.17376 12.6203 1.4299L13.9338 2.388C14.1054 2.51322 14.3125 2.58051 14.525 2.5801L16.1508 2.57701C16.5854 2.57618 16.9708 2.85619 17.1043 3.2698L17.6038 4.81695C17.669 5.01916 17.797 5.19532 17.9692 5.31988L19.2863 6.27298C19.6384 6.52778 19.7856 6.98084 19.6505 7.39394L19.1452 8.93918C19.0791 9.14114 19.0791 9.35888 19.1452 9.56084L19.6505 11.1061C19.7856 11.5192 19.6384 11.9722 19.2863 12.227L18.0415 13.1278L21.0257 19.5273L17.3072 19.5946L14.8654 22.3998L12.4309 17.1789C12.1591 17.2975 11.8466 17.2895 11.5803 17.155L9.13461 22.3998L6.69285 19.5946L2.97439 19.5273L5.97415 13.0943L4.77575 12.227C4.42364 11.9722 4.27643 11.5192 4.41152 11.1061L4.91686 9.56084C4.9829 9.35888 4.9829 9.14114 4.91686 8.93918L4.41152 7.39394C4.27643 6.98084 4.42364 6.52778 4.77574 6.27298L6.09284 5.31988C6.26498 5.19532 6.39296 5.01916 6.45824 4.81695L6.95768 3.2698C7.0912 2.85619 7.4766 2.57618 7.91123 2.57701L9.537 2.5801C9.74948 2.58051 9.95656 2.51322 10.1282 2.388L11.4417 1.4299ZM14.0954 16.016L15.3774 18.7654L16.3822 17.611L17.9124 17.5833L16.9521 15.5239C16.7665 15.7708 16.4721 15.9236 16.1508 15.923L14.525 15.9199C14.3757 15.9196 14.229 15.9528 14.0954 16.016ZM9.537 15.9199C9.66741 15.9197 9.7958 15.9449 9.91521 15.9934L8.62261 18.7654L7.6178 17.611L6.08762 17.5833L7.07267 15.4709C7.25458 15.7487 7.56751 15.9237 7.91123 15.923L9.537 15.9199ZM15.5017 7.49389L14.3728 6.50613L10.9632 10.4028L9.56133 9.00093L8.50067 10.0616L11.0363 12.5972L15.5017 7.49389Z"/></svg>