<svg viewBox="0 0 24 24" xmlns="http://www.w3.org/2000/svg"><path fill-rule="evenodd" clip-rule="evenodd" d="M13.9887 3.78654C13.8822 2.78234 13.0325 2 12 2C10.9675 2 10.1178 2.78234 10.0113 3.78654C7.11398 4.64348 5 7.32486 5 10.5V13L3.5 15V18.5H12H20.5V15L19 13V10.5C19 7.32486 16.886 4.64348 13.9887 3.78654ZM18.5 15.6667L17 13.6667V10.5C17 7.73858 14.7614 5.5 12 5.5C9.23858 5.5 7 7.73858 7 10.5V13.6667L5.5 15.6667V16.5H18.5V15.6667ZM11 19.5C11 20.0523 11.4477 20.5 12 20.5C12.5523 20.5 13 20.0523 13 19.5H15C15 21.1569 13.6569 22.5 12 22.5C10.3431 22.5 9 21.1569 9 19.5H11Z"/></svg>