<svg width="24" height="24" viewBox="0 0 24 24" fill="none" xmlns="http://www.w3.org/2000/svg">
<path fill-rule="evenodd" clip-rule="evenodd" d="M12 9C13.7949 9 15.25 10.4551 15.25 12.25C15.25 14.0449 13.7949 15.5 12 15.5C10.2051 15.5 8.75 14.0449 8.75 12.25C8.75 10.4551 10.2051 9 12 9ZM12 11C11.3096 11 10.75 11.5596 10.75 12.25C10.75 12.9404 11.3096 13.5 12 13.5C12.6904 13.5 13.25 12.9404 13.25 12.25C13.25 11.5596 12.6904 11 12 11Z" fill="black"/>
<path fill-rule="evenodd" clip-rule="evenodd" d="M21.5 11.6514L20.126 13.1045L19.0527 12.0908L17.3115 21.5H6.68848L4.94629 12.0908L3.87402 13.1045L2.5 11.6514L12 2.5L21.5 11.6514ZM6.67578 10.458L8.34863 19.5H15.6514L17.3232 10.458L12 5.25098L6.67578 10.458Z" fill="black"/>
</svg>
