<svg width="24" height="24" viewBox="0 0 24 24" fill="none" xmlns="http://www.w3.org/2000/svg">
<path fill-rule="evenodd" clip-rule="evenodd" d="M21.5 7.25V16.75L12.2881 21.5L2.5 16.75V7.25L12.2881 2.5L21.5 7.25ZM7.32031 11.1494C6.82225 10.9114 6.22469 11.1222 5.98633 11.6201C5.74833 12.1182 5.95909 12.7158 6.45703 12.9541L8.29785 13.834C8.79593 14.0716 9.3937 13.8612 9.63184 13.3633C9.86983 12.8653 9.65795 12.2687 9.16016 12.0303L7.32031 11.1494ZM10.791 9.05078L12.2598 9.76367L17.1357 7.25L15.6924 6.50488L10.791 9.05078ZM7.0791 7.25L8.54785 7.96191L13.5146 5.38184L12.2598 4.73535L7.0791 7.25Z" fill="black"/>
</svg>
