<svg viewBox="0 0 24 24" xmlns="http://www.w3.org/2000/svg"><path fill-rule="evenodd" clip-rule="evenodd" d="M12 7.17183L10.4872 5.42241C9.9203 4.76689 9.089 4.35718 8.15975 4.35718C6.46152 4.35718 5.08484 5.73386 5.08484 7.43209C5.08484 8.3113 5.45124 9.10167 6.04527 9.66461L6.66957 10.2562V19.5001H10.9251C11.1748 18.6393 11.6387 17.8266 12.3176 17.1477C13.0709 16.3944 13.9886 15.9059 14.9539 15.6809C15.1506 15.1255 15.4711 14.6036 15.9161 14.1586C16.3321 13.7426 16.8154 13.4354 17.3304 13.2364V10.2562L17.9547 9.66457C18.5487 9.10163 18.9151 8.31128 18.9151 7.43209C18.9151 5.73386 17.5384 4.35718 15.8402 4.35718C14.9109 4.35718 14.0796 4.76689 13.5128 5.42241L12 7.17183ZM19.3304 15.0282C18.9869 14.9394 18.6252 14.9394 18.2817 15.0282C17.9331 15.1183 17.6033 15.2998 17.3303 15.5728C17.2336 15.6696 17.1483 15.7735 17.0745 15.8828C16.7325 16.3896 16.6373 17.0133 16.7889 17.5852C16.1201 17.473 15.4249 17.5556 14.7949 17.8331C14.4091 18.003 14.0478 18.2459 13.7319 18.5619C13.1666 19.1272 12.8351 19.8377 12.7374 20.5734C12.6965 20.8808 12.6965 21.1926 12.7374 21.5001H6.66957C5.565 21.5001 4.66957 20.6047 4.66957 19.5001V11.1163C3.69358 10.1914 3.08484 8.88284 3.08484 7.43209C3.08484 4.62929 5.35696 2.35718 8.15975 2.35718C9.1631 2.35718 10.0984 2.64835 10.8859 3.1508C11.3026 3.41671 11.6779 3.74179 12 4.11421C12.322 3.74179 12.6973 3.4167 13.1141 3.1508C13.9015 2.64835 14.8368 2.35718 15.8402 2.35718C18.643 2.35718 20.9151 4.62929 20.9151 7.43209C20.9151 8.88281 20.3064 10.1913 19.3304 11.1162V15.0282ZM19.3304 19.1005L19.2978 19.0771L19.3304 19.0689V19.1005Z"/></svg>