<svg viewBox="0 0 24 24" xmlns="http://www.w3.org/2000/svg"><path d="M12 4.11421C11.0694 3.03808 9.69409 2.35718 8.15975 2.35718C5.35696 2.35718 3.08484 4.62929 3.08484 7.43209C3.08484 8.88284 3.69358 10.1914 4.66957 11.1163V19.5001C4.66957 20.6047 5.565 21.5001 6.66957 21.5001H12.7374C12.5988 20.457 12.9303 19.3634 13.7319 18.5619C14.5639 17.7298 15.7106 17.4043 16.7889 17.5852C16.6046 16.8899 16.7851 16.1181 17.3303 15.5728C17.8724 15.0308 18.6384 14.8492 19.3304 15.0282V11.1162C20.3064 10.1913 20.9151 8.88281 20.9151 7.43209C20.9151 4.62929 18.643 2.35718 15.8402 2.35718C14.3058 2.35718 12.9305 3.03808 12 4.11421Z"/><path d="M19.2978 19.0771C19.3086 19.0849 19.3195 19.0927 19.3304 19.1005V19.0689C19.3196 19.0718 19.3087 19.0745 19.2978 19.0771Z"/></svg>