<svg width="24" height="24" viewBox="0 0 24 24" fill="none" xmlns="http://www.w3.org/2000/svg">
<path fill-rule="evenodd" clip-rule="evenodd" d="M15 4.5C15.4142 4.5 15.75 4.83579 15.75 5.25V5.69531L23 7.91016V9.47754L21.75 9.09473V12.4014L23 12.75V18.75H16.665C16.8807 18.1914 17 17.5848 17 16.9502C17 14.1888 14.7614 11.9502 12 11.9502C9.23858 11.9502 7 14.1888 7 16.9502C7.00002 17.5848 7.1193 18.1914 7.33496 18.75H1V12.75L2.25 12.4014V9.09473L1 9.47754V7.91016L8.25 5.69531V5.25C8.25 4.83579 8.58579 4.5 9 4.5C9.41421 4.5 9.75 4.83579 9.75 5.25V5.5H11.25V5.25C11.25 4.83579 11.5858 4.5 12 4.5C12.4142 4.5 12.75 4.83579 12.75 5.25V5.5H14.25V5.25C14.25 4.83579 14.5858 4.5 15 4.5ZM3.75 8.63672V11.9844L5.25 11.5664V8.17871L3.75 8.63672ZM18.75 11.5664L20.25 11.9844V8.63672L18.75 8.17871V11.5664ZM15.75 10.7314L17.25 11.1494V7.7207L15.75 7.2627V10.7314ZM6.75 7.7207V11.1484L8.25 10.7314V7.2627L6.75 7.7207ZM9.75 10.3135L9.84668 10.2871C9.81433 10.2976 9.78214 10.3084 9.75 10.3193V10.3213C10.229 10.1588 10.7308 10.0455 11.25 9.99023V7H9.75V10.3135ZM12.75 9.99023C13.2692 10.0455 13.771 10.1588 14.25 10.3213C14.2158 10.3097 14.1819 10.2972 14.1475 10.2861L14.25 10.3145V7H12.75V9.99023Z" fill="black"/>
</svg>
