<svg viewBox="0 0 24 24" xmlns="http://www.w3.org/2000/svg"><path d="M4.25 7.5H6.25V9.5H4.25V7.5Z"/><path d="M6.25 11H4.25V13H6.25V11Z"/><path d="M6.25 14.5H4.25V16.5H6.25V14.5Z"/><path d="M9.75 7.5H7.75V9.5H9.75V7.5Z"/><path d="M7.75 11H9.75V13H7.75V11Z"/><path d="M7.75 14.5H9.75V16.5H7.75V14.5Z"/><path d="M14.25 11H16.25V13H14.25V11Z"/><path d="M14.25 14.5H16.25V16.5H14.25V14.5Z"/><path d="M19.75 11H17.75V13H19.75V11Z"/><path d="M19.75 14.5H17.75V16.5H19.75V14.5Z"/><path fill-rule="evenodd" clip-rule="evenodd" d="M1 20V4H13V8.31818L17.2857 6L23 9.4V20H1ZM3 6H11V18H3V6ZM13 18H21V10.5373L17.2387 8.29927L13 10.592V18Z"/></svg>