<svg viewBox="0 0 24 24" xmlns="http://www.w3.org/2000/svg"><path fill-rule="evenodd" clip-rule="evenodd" d="M17 12.5C17 15.2614 14.7614 17.5 12 17.5C9.23858 17.5 7 15.2614 7 12.5C7 9.73858 9.23858 7.5 12 7.5C14.7614 7.5 17 9.73858 17 12.5ZM12 15.5C13.6569 15.5 15 14.1569 15 12.5C15 10.8431 13.6569 9.5 12 9.5C10.3431 9.5 9 10.8431 9 12.5C9 14.1569 10.3431 15.5 12 15.5Z"/><path d="M18.5 10C19.0523 10 19.5 9.55228 19.5 9C19.5 8.44772 19.0523 8 18.5 8C17.9477 8 17.5 8.44772 17.5 9C17.5 9.55228 17.9477 10 18.5 10Z"/><path fill-rule="evenodd" clip-rule="evenodd" d="M17 5V4C17 3.44772 16.5523 3 16 3H8C7.44772 3 7 3.44772 7 4V5H1V20H23V5H17ZM21 7H15V5H9V7H3V18H21V7Z"/></svg>