<svg viewBox="0 0 24 24" xmlns="http://www.w3.org/2000/svg"><path fill-rule="evenodd" clip-rule="evenodd" d="M5.68648 19.6581L7.02202 12.9681L15.8989 2.35815C16.4511 1.67815 17.2746 1.25815 18.1582 1.18815C18.9816 1.13815 19.8051 1.38815 20.4477 1.91815C21.1205 2.46815 21.5322 3.23815 21.6126 4.09815C21.6929 4.95815 21.4419 5.79815 20.8896 6.45815L12.0228 17.0681L5.68648 19.6581ZM8.88977 13.8581L8.38769 16.3981L10.7977 15.4081L17.6224 7.24606L15.7263 5.67395L8.88977 13.8581ZM19.3431 5.18815L18.9075 5.70913L17.0107 4.1364L17.4352 3.62815C17.6561 3.36815 17.9574 3.20815 18.2988 3.18815C18.6201 3.16815 18.9314 3.26815 19.1724 3.46815C19.4235 3.67815 19.5841 3.97815 19.6143 4.29815C19.6444 4.61815 19.544 4.93815 19.3431 5.18815Z"/><path d="M16.4311 16.4481V14.9181L18.4394 12.5181V17.0281L15.8587 22.8181H2.37274V2.81815H12.8964L11.2195 4.81815H4.38108V20.8181H13.9809L12.5952 19.2781L16.4311 16.4481Z"/></svg>