<svg viewBox="0 0 24 24" xmlns="http://www.w3.org/2000/svg"><path fill-rule="evenodd" clip-rule="evenodd" d="M4 2V22H17.43L20 16.21V2H4ZM6 4H18V15.63L14.18 18.46L15.56 20.01H6V4ZM9.61067 7.77717C9.84168 8.00649 9.84305 8.37966 9.61372 8.61067C9.3844 8.84168 9.01123 8.84305 8.78022 8.61373C8.54921 8.3844 8.54784 8.01123 8.77716 7.78022C9.00649 7.54921 9.37966 7.54784 9.61067 7.77717ZM10.7422 6.63736C11.6027 7.49159 11.6078 8.88166 10.7535 9.74217C9.8993 10.6027 8.50923 10.6078 7.64873 9.75354C6.78822 8.8993 6.78313 7.50923 7.63736 6.64873C8.49159 5.78822 9.88165 5.78313 10.7422 6.63736ZM14.6462 7.25466L7.81559 14.0853L8.95125 15.2209L15.7819 8.39032L14.6462 7.25466ZM15.2228 14.1788C15.4522 13.9478 15.4508 13.5747 15.2198 13.3453C14.9888 13.116 14.6156 13.1174 14.3863 13.3484C14.157 13.5794 14.1583 13.9526 14.3893 14.1819C14.6203 14.4112 14.9935 14.4098 15.2228 14.1788ZM16.3626 15.3103C17.2169 14.4498 17.2118 13.0597 16.3513 12.2055C15.4908 11.3513 14.1007 11.3564 13.2465 12.2169C12.3922 13.0774 12.3973 14.4675 13.2578 15.3217C14.1183 16.1759 15.5084 16.1708 16.3626 15.3103Z"/></svg>