<svg viewBox="0 0 24 24" xmlns="http://www.w3.org/2000/svg"><path fill-rule="evenodd" clip-rule="evenodd" d="M1.86304 10.3916L1.11304 9.95662L12.0279 3.51978L22.8869 9.81737L19.113 12.0429V16.81L17.8119 18.3521C16.3952 20.0312 14.31 21.0001 12.113 21.0001C9.91606 21.0001 7.8309 20.0312 6.41413 18.3521L5.11304 16.81V12.2764L3.36304 11.2615V13.9077L4.07363 16.7501H1.15247L1.86304 13.9078V10.3916ZM7.11304 13.4363V16.079L7.94272 17.0623C8.97947 18.2911 10.5053 19.0001 12.113 19.0001C13.7207 19.0001 15.2466 18.2911 16.2834 17.0623L17.113 16.079V13.2224L11.972 16.2542L7.11304 13.4363ZM11.9636 13.9373L5.07472 9.94217L12.0364 5.83667L18.9252 9.83182L11.9636 13.9373Z"/></svg>