<svg viewBox="0 0 24 24" xmlns="http://www.w3.org/2000/svg"><path fill-rule="evenodd" clip-rule="evenodd" d="M7 12C7 13.1046 6.10457 14 5 14C3.89543 14 3 13.1046 3 12C3 10.8954 3.89543 10 5 10C6.10457 10 7 10.8954 7 12ZM13.9999 12C13.9999 13.1046 13.1045 14 11.9999 14C10.8954 14 9.99994 13.1046 9.99994 12C9.99994 10.8954 10.8954 10 11.9999 10C13.1045 10 13.9999 10.8954 13.9999 12ZM19 14C20.1046 14 21 13.1046 21 12C21 10.8954 20.1046 10 19 10C17.8954 10 17 10.8954 17 12C17 13.1046 17.8954 14 19 14Z"/></svg>