<svg width="24" height="24" viewBox="0 0 24 24" fill="none" xmlns="http://www.w3.org/2000/svg">
<path d="M12.4919 11.3056V11.4959H11.1294V11.3051C11.1318 10.8793 11.1716 10.5326 11.2526 10.2702C11.3351 10.0104 11.4537 9.79511 11.6106 9.63046C11.7617 9.4697 11.9444 9.32365 12.1577 9.19182C12.2945 9.10656 12.416 9.01394 12.5225 8.91412C12.6285 8.81463 12.7107 8.70542 12.7702 8.58651C12.8278 8.46901 12.8575 8.33665 12.8575 8.18757C12.8575 8.01987 12.8184 7.87972 12.744 7.76308C12.6678 7.64358 12.5651 7.55087 12.4339 7.48426C12.3052 7.41783 12.1589 7.38338 11.994 7.38338C11.8438 7.38338 11.7016 7.41603 11.5663 7.48161C11.4369 7.54319 11.3275 7.63812 11.239 7.76872C11.1562 7.89202 11.1063 8.05358 11.0954 8.25921L11.0903 8.3539H9.65002L9.65273 8.25127C9.66475 7.79431 9.77569 7.40454 9.99117 7.08753C10.2066 6.77418 10.4914 6.53841 10.8432 6.38207C11.1946 6.22694 11.5812 6.15002 12.0009 6.15002C12.4571 6.15002 12.8629 6.23005 13.2158 6.39309C13.571 6.55613 13.8502 6.79015 14.0499 7.09564C14.253 7.40052 14.3527 7.76013 14.3527 8.17012C14.3527 8.44609 14.3079 8.69657 14.2162 8.91987C14.1277 9.14104 14.0009 9.33796 13.8362 9.51002C13.6736 9.6799 13.4815 9.83068 13.2608 9.96272C13.078 10.0756 12.9306 10.1913 12.8169 10.3093C12.7087 10.424 12.6277 10.5591 12.574 10.7157C12.5225 10.8701 12.4942 11.0659 12.4919 11.3056Z" fill="black"/>
<path d="M11.2256 12.3224C11.3953 12.1553 11.6007 12.0702 11.8369 12.0702C12.0709 12.0702 12.275 12.1554 12.4444 12.3221C12.6168 12.4894 12.7049 12.6942 12.7049 12.9313C12.7049 13.0909 12.6641 13.2382 12.5821 13.3709C12.5038 13.501 12.3991 13.6057 12.2688 13.6838C12.1385 13.7609 11.9934 13.7993 11.8369 13.7993C11.6007 13.7993 11.3953 13.7142 11.2256 13.5471C11.055 13.3792 10.9688 13.1719 10.9688 12.9313C10.9688 12.6946 11.0555 12.4898 11.2256 12.3224Z" fill="black"/>
<path fill-rule="evenodd" clip-rule="evenodd" d="M6.48925 21.5L5.04683 17.6559H2.5V2.5H21.5V17.6559H13.5639L6.48925 21.5ZM6.42749 15.6351L7.55079 18.6287L13.0602 15.6351H19.5V4.52079H4.5V15.6351H6.42749Z" fill="black"/>
</svg>
