<svg viewBox="0 0 24 24" xmlns="http://www.w3.org/2000/svg"><path fill-rule="evenodd" clip-rule="evenodd" d="M5.04683 17.6559L6.48925 21.5L13.5639 17.6559H21.5V2.5H2.5V17.6559H5.04683ZM12.5216 11.4815V11.6838H11.0729V11.481C11.0754 11.0283 11.1178 10.6596 11.2039 10.3807C11.2916 10.1044 11.4177 9.87555 11.5846 9.7005C11.7452 9.52957 11.9394 9.37428 12.1662 9.23412C12.3117 9.14347 12.4409 9.04499 12.5541 8.93886C12.6668 8.83308 12.7542 8.71696 12.8174 8.59054C12.8787 8.46561 12.9103 8.32487 12.9103 8.16638C12.9103 7.98807 12.8687 7.83906 12.7896 7.71504C12.7086 7.58799 12.5994 7.48942 12.4599 7.41859C12.3231 7.34797 12.1675 7.31134 11.9921 7.31134C11.8325 7.31134 11.6813 7.34605 11.5374 7.41577C11.3999 7.48125 11.2835 7.58219 11.1894 7.72104C11.1014 7.85214 11.0484 8.02392 11.0367 8.24255L11.0314 8.34322H9.5L9.50287 8.2341C9.51566 7.74824 9.63361 7.33384 9.86271 6.99678C10.0918 6.66362 10.3946 6.41294 10.7686 6.24672C11.1423 6.08178 11.5533 6 11.9996 6C12.4846 6 12.916 6.08508 13.2912 6.25844C13.6689 6.43178 13.9658 6.6806 14.1781 7.00541C14.394 7.32956 14.5 7.71191 14.5 8.14782C14.5 8.44124 14.4524 8.70756 14.3549 8.94498C14.2607 9.18013 14.1259 9.38949 13.9508 9.57243C13.778 9.75305 13.5738 9.91338 13.3391 10.0538C13.1448 10.1737 12.988 10.2968 12.8671 10.4223C12.752 10.5442 12.6659 10.6878 12.6088 10.8543C12.5541 11.0186 12.524 11.2267 12.5216 11.4815ZM11.1752 12.5626C11.3556 12.385 11.5741 12.2945 11.8251 12.2945C12.0739 12.2945 12.2909 12.3851 12.471 12.5623C12.6543 12.7402 12.748 12.958 12.748 13.21C12.748 13.3797 12.7047 13.5364 12.6174 13.6774C12.5342 13.8158 12.4229 13.927 12.2844 14.0101C12.1459 14.0921 11.9916 14.1329 11.8251 14.1329C11.5741 14.1329 11.3556 14.0425 11.1752 13.8648C10.9938 13.6863 10.9022 13.4659 10.9022 13.21C10.9022 12.9584 10.9943 12.7407 11.1752 12.5626Z"/></svg>