<svg viewBox="0 0 24 24" xmlns="http://www.w3.org/2000/svg"><path d="M15.0243 12.6748H19.1601L12.498 5.35547L5.83583 12.6748H9.97451V18H15.0243V12.6748ZM17.0243 18.6689L17.0175 18.8008C16.9882 19.1054 16.8584 19.392 16.6464 19.6104L16.5517 19.6992C16.3544 19.8655 16.113 19.9672 15.8593 19.9932L15.7314 20H9.26748L9.13955 19.9932C8.88587 19.9672 8.64534 19.8646 8.44814 19.6982L8.35341 19.6104C8.14136 19.392 8.00988 19.1054 7.98036 18.8008L7.9745 18.6689V14.6748H4.29481L4.19031 14.6709C3.12931 14.5885 2.60245 13.2567 3.35144 12.4326L11.5556 3.42188C11.6765 3.28892 11.823 3.18283 11.9853 3.11035C12.1476 3.0379 12.323 3 12.4999 3C12.6766 3.00008 12.8514 3.03796 13.0136 3.11035C13.1759 3.18284 13.3224 3.2889 13.4433 3.42188L21.6464 12.4346C22.3978 13.2573 21.8707 14.5884 20.8075 14.6709L20.7031 14.6748H17.0243V18.6689Z"/></svg>