<svg viewBox="0 0 24 24" xmlns="http://www.w3.org/2000/svg"><path fill-rule="evenodd" clip-rule="evenodd" d="M12.5119 2.6113C12.2282 2.46374 11.8927 2.46286 11.6083 2.60893L2.5 7.28736L11.6083 11.9658C11.8927 12.1119 12.2282 12.111 12.5119 11.9634L21.5 7.28736L12.5119 2.6113ZM12.0549 4.66505L6.9496 7.28736L12.0549 9.90966L17.0954 7.28736L12.0549 4.66505Z"/><path d="M21.5 12.0743L18.4708 10.4983L16.315 11.6683L17.0954 12.0743L12.0549 14.6966L6.94959 12.0743L7.71134 11.683L5.54775 10.5088L2.5 12.0743L11.6083 16.7527C11.8927 16.8988 12.2282 16.8979 12.5118 16.7503L21.5 12.0743Z"/><path d="M18.4708 15.1367L21.5 16.7126L12.5118 21.3887C12.2282 21.5363 11.8927 21.5371 11.6083 21.3911L2.5 16.7126L5.54775 15.1472L7.71134 16.3214L6.94959 16.7126L12.0549 19.335L17.0954 16.7126L16.315 16.3067L18.4708 15.1367Z"/></svg>