<svg viewBox="0 0 24 24" xmlns="http://www.w3.org/2000/svg"><path fill-rule="evenodd" clip-rule="evenodd" d="M6.52862 15.0223C5.43865 13.1344 4.59577 9.57403 7.77619 6.37004C11.3826 2.73693 18.3911 2.31333 21.4446 2.55567C21.686 4.89723 21.2639 10.5819 17.6446 14.5882C14.5625 17.9999 10.4758 17.3422 8.06462 16.2669L9.52588 14.7152C10.4613 13.7889 11.6023 12.7598 13.2694 11.2747L11.9588 9.79517C10.2042 11.3582 8.98803 12.4545 7.96617 13.4797L6.52862 15.0223ZM6.52862 15.0223C5.3789 16.3483 4.27211 17.8641 2.5 20.3488L4.10517 21.5C5.91146 18.9674 6.97235 17.5199 8.06462 16.2669C7.5 16 7 15.5 6.52862 15.0223Z"/></svg>