<svg viewBox="0 0 24 24" xmlns="http://www.w3.org/2000/svg"><path d="M12 7.89648C13.2907 7.89675 14.3379 8.94362 14.3379 10.2344C14.3374 11.5247 13.2904 12.571 12 12.5713C10.7096 12.571 9.66361 11.5247 9.66309 10.2344C9.66309 8.94362 10.7093 7.89675 12 7.89648Z"/><path fill-rule="evenodd" clip-rule="evenodd" d="M12 1C19.7329 1 21.8417 7.38677 21.8418 10.2256C21.8418 15.903 15.2807 21.1075 12 23C8.71928 21.1075 2.1582 15.903 2.1582 10.2256C2.15831 7.38678 4.26717 1.00004 12 1ZM12 5.89648C9.60475 5.89675 7.66309 7.83905 7.66309 10.2344L7.66895 10.457C7.78534 12.7484 9.67976 14.571 12 14.5713C14.3203 14.571 16.2157 12.7484 16.332 10.457L16.3379 10.2344C16.3379 7.83906 14.3953 5.89675 12 5.89648Z"/></svg>