<svg viewBox="0 0 24 24" xmlns="http://www.w3.org/2000/svg"><path d="M12.0001 2.43176L21.3517 5.94459L20.6484 7.81686L12.0001 4.56821L3.35173 7.81686L2.64844 5.94459L12.0001 2.43176Z"/><path fill-rule="evenodd" clip-rule="evenodd" d="M17.5476 12.9051C17.5923 12.9051 17.6728 12.896 17.6728 12.896L17.6817 12.8869C20.0242 12.8869 21.9286 14.816 21.9286 17.1889C21.9286 19.5618 20.0242 21.4909 17.6817 21.4909C15.3393 21.4909 13.4349 19.5618 13.4349 17.1889C13.4349 15.4953 14.4184 14.0372 15.8221 13.3398L15.5717 12.3073C13.8551 13.1858 12.7107 14.9791 12.7107 16.9897V17.8954H6.90817L6.11245 16.5912L8.38339 11.9088L7.7486 10.6137H7.62343C7.13169 10.6137 6.72936 10.2061 6.72936 9.70799C6.72936 9.20987 7.13169 8.80231 7.62343 8.80231H10.3056C10.7974 8.80231 11.1997 9.20987 11.1997 9.70799C11.1997 10.2061 10.7974 10.6137 10.3056 10.6137H9.74238L11.5037 14.2364C12.1921 12.5971 13.4796 11.2477 15.1336 10.5231L14.7134 8.81137H12.9789V7H14.7671C15.5449 7 16.2333 7.53435 16.43 8.29513L17.5476 12.9051ZM9.36687 13.9647L8.33869 16.0931L8.32975 16.1021H10.404L9.36687 13.9647ZM15.2141 17.1889C15.2141 18.5641 16.3203 19.6771 17.6683 19.6796C19.0253 19.6771 20.1225 18.555 20.1225 17.1889C20.1225 15.93 19.1927 14.8976 17.9947 14.7345L18.54 16.9716L16.8055 17.4063L16.2602 15.1602C15.6254 15.613 15.2141 16.3557 15.2141 17.1889Z"/><path d="M4.03814 17.1889C4.03814 18.5656 5.13785 19.6796 6.49684 19.6796V19.6886C7.23892 19.6886 7.90053 19.3445 8.34757 18.8282H10.4218C9.78702 20.3951 8.2671 21.5 6.49684 21.5C4.15437 21.5 2.25 19.5709 2.25 17.198C2.25 14.8251 4.15437 12.896 6.49684 12.896C6.57666 12.896 6.65336 12.9056 6.73062 12.9153C6.78313 12.9219 6.83598 12.9286 6.89023 12.9322L6.0051 14.7527C4.88751 14.9791 4.03814 15.9844 4.03814 17.1889Z"/></svg>