<svg viewBox="0 0 24 24" xmlns="http://www.w3.org/2000/svg"><path d="M12.0001 2.43164L21.3517 5.94447L20.6484 7.81674L12.0001 4.56809L3.35173 7.81674L2.64844 5.94447L12.0001 2.43164Z"/><path fill-rule="evenodd" clip-rule="evenodd" d="M17.5476 12.9049C17.5923 12.9049 17.6728 12.8959 17.6728 12.8959L17.6817 12.8868C20.0242 12.8868 21.9286 14.8159 21.9286 17.1888C21.9286 19.5617 20.0242 21.4908 17.6817 21.4908C15.3393 21.4908 13.4349 19.5617 13.4349 17.1888C13.4349 15.4952 14.4184 14.037 15.8221 13.3397L15.5717 12.3072C13.8551 13.1857 12.7107 14.9789 12.7107 16.9896V17.8952H6.90817L6.11245 16.5911L8.38339 11.9087L7.7486 10.6136H7.62343C7.13169 10.6136 6.72936 10.206 6.72936 9.70787C6.72936 9.20974 7.13169 8.80219 7.62343 8.80219H10.3056C10.7974 8.80219 11.1997 9.20974 11.1997 9.70787C11.1997 10.206 10.7974 10.6136 10.3056 10.6136H9.74238L11.5037 14.2363C12.1921 12.597 13.4796 11.2475 15.1336 10.523L14.7134 8.81124H12.9789V6.99988H14.7671C15.5449 6.99988 16.2333 7.53423 16.43 8.295L17.5476 12.9049ZM9.36687 13.9646L8.33869 16.0929L8.32975 16.102H10.404L9.36687 13.9646ZM15.2141 17.1888C15.2141 18.5639 16.3203 19.677 17.6683 19.6794C19.0253 19.677 20.1225 18.5549 20.1225 17.1888C20.1225 15.9299 19.1927 14.8974 17.9947 14.7344L18.54 16.9714L16.8055 17.4062L16.2602 15.1601C15.6254 15.6129 15.2141 16.3556 15.2141 17.1888Z"/><path d="M4.03814 17.1888C4.03814 18.5655 5.13785 19.6794 6.49684 19.6794V19.6885C7.23892 19.6885 7.90053 19.3443 8.34757 18.8281H10.4218C9.78702 20.3949 8.2671 21.4999 6.49684 21.4999C4.15437 21.4999 2.25 19.5708 2.25 17.1979C2.25 14.825 4.15437 12.8959 6.49684 12.8959C6.57666 12.8959 6.65336 12.9055 6.73062 12.9152C6.78313 12.9218 6.83598 12.9284 6.89023 12.9321L6.0051 14.7525C4.88751 14.979 4.03814 15.9843 4.03814 17.1888Z"/></svg>