<svg viewBox="0 0 24 24" xmlns="http://www.w3.org/2000/svg"><path fill-rule="evenodd" clip-rule="evenodd" d="M15.6428 10.4677C15.6428 12.4987 14.0119 14.1452 12 14.1452C9.98808 14.1452 8.35712 12.4987 8.35712 10.4677C8.35712 8.43676 9.98808 6.79032 12 6.79032C14.0119 6.79032 15.6428 8.43676 15.6428 10.4677ZM13.6428 10.4677C13.6428 11.3837 12.9073 12.1262 12 12.1262C11.0926 12.1262 10.3571 11.3837 10.3571 10.4677C10.3571 9.55181 11.0926 8.8093 12 8.8093C12.9073 8.8093 13.6428 9.55181 13.6428 10.4677Z"/><path fill-rule="evenodd" clip-rule="evenodd" d="M12 21.5C9.16667 19.8656 3.5 15.371 3.5 10.4677C3.5 8.01613 5.32143 2.5 12 2.5C18.6786 2.5 20.5 8.01613 20.5 10.4677C20.5 15.371 14.8333 19.8656 12 21.5ZM8.15859 15.8419C9.39043 17.192 10.825 18.3345 12 19.1248C13.175 18.3345 14.6096 17.192 15.8414 15.8419C17.4916 14.0332 18.5 12.1601 18.5 10.4677C18.5 9.63849 18.1625 8.09317 17.1719 6.79901C16.2536 5.59932 14.7087 4.51898 12 4.51898C9.29127 4.51898 7.74643 5.59932 6.82811 6.79901C5.83748 8.09317 5.5 9.63849 5.5 10.4677C5.5 12.1601 6.50838 14.0332 8.15859 15.8419Z"/></svg>