<svg width="24" height="24" viewBox="0 0 24 24" fill="none" xmlns="http://www.w3.org/2000/svg">
<path d="M12 12.1261C12.9074 12.1261 13.6429 11.3836 13.6429 10.4677C13.6429 9.55177 12.9074 8.80926 12 8.80926C11.0927 8.80926 10.3572 9.55177 10.3572 10.4677C10.3572 11.3836 11.0927 12.1261 12 12.1261Z" fill="black"/>
<path fill-rule="evenodd" clip-rule="evenodd" d="M3.5 10.4677C3.5 15.371 9.16667 19.8656 12 21.5C14.8333 19.8656 20.5 15.371 20.5 10.4677C20.5 8.01613 18.6786 2.5 12 2.5C5.32143 2.5 3.5 8.01613 3.5 10.4677ZM12 14.1451C14.0119 14.1451 15.6429 12.4987 15.6429 10.4677C15.6429 8.43672 14.0119 6.79028 12 6.79028C9.98814 6.79028 8.35718 8.43672 8.35718 10.4677C8.35718 12.4987 9.98814 14.1451 12 14.1451Z" fill="black"/>
</svg>
