<svg viewBox="0 0 24 24" xmlns="http://www.w3.org/2000/svg"><path d="M12 16C14.2091 16 16 14.2091 16 12C16 9.79086 14.2091 8 12 8C9.79086 8 8 9.79086 8 12C8 14.2091 9.79086 16 12 16Z"/><path fill-rule="evenodd" clip-rule="evenodd" d="M10.8422 23V20.9262C6.79754 20.4068 3.59325 17.2025 3.07379 13.1578H1V11.1578H3.03888C3.42796 6.96519 6.69287 3.60669 10.8422 3.07379V1H12.8422V3.03888C17.1406 3.43777 20.5622 6.85942 20.9611 11.1578H23V13.1578H20.9262C20.3933 17.3071 17.0348 20.572 12.8422 20.9611V23H10.8422ZM12 19C15.866 19 19 15.866 19 12C19 8.13401 15.866 5 12 5C8.13401 5 5 8.13401 5 12C5 15.866 8.13401 19 12 19Z"/></svg>