<svg viewBox="0 0 24 24" xmlns="http://www.w3.org/2000/svg"><path fill-rule="evenodd" clip-rule="evenodd" d="M5.47575 17.0868L3.67981 15.2908L2.41418 16.5564L7.36393 21.5062L21.5061 7.36405L16.5563 2.41431L15.3471 3.62355L17.143 5.4195L16.0824 6.48016L14.2864 4.68421L13.5793 5.39132L16.0824 7.89437L15.0217 8.95503L12.5186 6.45198L11.8115 7.15909L13.6075 8.95503L12.5468 10.0157L10.7509 8.21975L10.0438 8.92686L12.5468 11.4299L11.4862 12.4906L8.98311 9.98752L8.276 10.6946L10.0719 12.4906L9.01129 13.5512L7.21534 11.7553L6.50824 12.4624L9.01129 14.9654L7.95063 16.0261L5.44758 13.523L4.74047 14.2302L6.53641 16.0261L5.47575 17.0868Z"/></svg>