<svg viewBox="0 0 24 24" xmlns="http://www.w3.org/2000/svg"><path fill-rule="evenodd" clip-rule="evenodd" d="M21.1578 9.80005C21.1376 9.2242 21.0478 8.66604 20.8967 8.13371C20.8887 8.10575 20.8806 8.07787 20.8723 8.05005C20.1429 5.59921 18.1074 3.71089 15.5729 3.19226C15.4374 3.16453 15.3005 3.14071 15.1622 3.12094C14.8356 3.07422 14.5017 3.05005 14.1622 3.05005H13.1622V9.80005L21.1578 9.80005ZM6.38136 7.50006H2.84219V9.50006H4.86824L6.71761 16.044C6.81863 16.4014 7.01311 16.713 7.27005 16.9551C6.99843 17.4064 6.84219 17.935 6.84219 18.5001C6.84219 20.1569 8.18534 21.5001 9.84219 21.5001C11.499 21.5001 12.8422 20.1569 12.8422 18.5001C12.8422 18.1494 12.782 17.8128 12.6715 17.5001H13.5129C13.4023 17.8128 13.3422 18.1494 13.3422 18.5001C13.3422 20.1569 14.6853 21.5001 16.3422 21.5001C17.999 21.5001 19.3422 20.1569 19.3422 18.5001C19.3422 17.9397 19.1886 17.4152 18.9211 16.9665C19.1858 16.7211 19.3856 16.4029 19.4876 16.037L20.8078 11.3L7.44981 11.3L6.38136 7.50006ZM8.84219 18.55C8.84219 17.9978 9.28991 17.55 9.84219 17.55C10.3945 17.55 10.8422 17.9978 10.8422 18.55C10.8422 19.1023 10.3945 19.55 9.84219 19.55C9.28991 19.55 8.84219 19.1023 8.84219 18.55ZM15.3422 18.55C15.3422 17.9978 15.7899 17.55 16.3422 17.55C16.8945 17.55 17.3422 17.9978 17.3422 18.55C17.3422 19.1023 16.8945 19.55 16.3422 19.55C15.7899 19.55 15.3422 19.1023 15.3422 18.55Z"/></svg>