<svg viewBox="0 0 24 24" xmlns="http://www.w3.org/2000/svg"><path fill-rule="evenodd" clip-rule="evenodd" d="M14.16 3.05005H13.16V10.0397H7.0969L6.37916 7.50006H2.84V9.50006H4.86605L6.71541 16.044C6.81643 16.4014 7.01091 16.713 7.26786 16.9551C6.99623 17.4064 6.84 17.935 6.84 18.5001C6.84 20.1569 8.18314 21.5001 9.84 21.5001C11.4969 21.5001 12.84 20.1569 12.84 18.5001C12.84 18.1494 12.7798 17.8128 12.6693 17.5001H13.5107C13.4002 17.8128 13.34 18.1494 13.34 18.5001C13.34 20.1569 14.6831 21.5001 16.34 21.5001C17.9969 21.5001 19.34 20.1569 19.34 18.5001C19.34 17.9397 19.1864 17.4152 18.9189 16.9665C19.1836 16.7211 19.3834 16.4029 19.4854 16.037L21.1539 10.05H21.16C21.16 6.18406 18.026 3.05005 14.16 3.05005ZM19.16 10.0397C19.1551 7.62536 17.439 5.61268 15.16 5.15007V10.0397H19.16ZM8.84 18.5001C8.84 17.9478 9.28771 17.5001 9.84 17.5001C10.3923 17.5001 10.84 17.9478 10.84 18.5001C10.84 19.0523 10.3923 19.5001 9.84 19.5001C9.28771 19.5001 8.84 19.0523 8.84 18.5001ZM8.64003 15.5001L7.66212 12.0397H18.5232L17.5588 15.5001H8.64003ZM16.34 17.5001C15.7877 17.5001 15.34 17.9478 15.34 18.5001C15.34 19.0523 15.7877 19.5001 16.34 19.5001C16.8923 19.5001 17.34 19.0523 17.34 18.5001C17.34 17.9478 16.8923 17.5001 16.34 17.5001Z"/></svg>