<svg viewBox="0 0 24 24" xmlns="http://www.w3.org/2000/svg"><path fill-rule="evenodd" clip-rule="evenodd" d="M8.24146 4H6.77477V6.57426L7.3187 8.75001H4.73087L5.27477 6.57442V4H4.99146V2H18.9915V4H15.7415V6.5H8.24146V4ZM6.0129 14.4747C6.48347 14.1727 7.04122 14 7.63257 14H16.3989C16.978 14 17.5249 14.1656 17.9892 14.4561C18.6591 14.8753 19.1573 15.5544 19.3323 16.3714L20.6085 22.2095H3.39148L4.69917 16.3714C4.87166 15.5664 5.35779 14.8952 6.0129 14.4747ZM8.48069 8C8.42231 8.25729 8.39148 8.52505 8.39148 8.80001C8.39148 10.7882 10.0033 12.4 11.9915 12.4C13.9797 12.4 15.5915 10.7882 15.5915 8.80001C15.5915 8.52505 15.5607 8.25729 15.5023 8H8.48069Z"/></svg>