<svg viewBox="0 0 24 24" xmlns="http://www.w3.org/2000/svg"><path fill-rule="evenodd" clip-rule="evenodd" d="M8.24147 4H6.77478V6.57426L7.31872 8.75001H4.73089L5.27478 6.57442V4H4.99147V2H18.9915V4H15.7415V6.5H8.24147V4ZM6.01291 14.4747C6.48348 14.1727 7.04124 14 7.63259 14H16.3989C16.978 14 17.5249 14.1656 17.9892 14.4561C18.6592 14.8753 19.1573 15.5544 19.3323 16.3714L20.6085 22.2095H3.39149L4.69918 16.3714C4.87168 15.5664 5.3578 14.8952 6.01291 14.4747ZM8.4807 8C8.42232 8.25729 8.39149 8.52505 8.39149 8.80001C8.39149 10.7882 10.0033 12.4 11.9915 12.4C13.9797 12.4 15.5915 10.7882 15.5915 8.80001C15.5915 8.52505 15.5607 8.25729 15.5023 8H8.4807Z"/></svg>