<svg width="24" height="24" viewBox="0 0 24 24" fill="none" xmlns="http://www.w3.org/2000/svg">
<path d="M14.2 4.5401L18.54 3.1701C15.7357 1.10432 12.0749 0.452759 8.7106 1.50364C10.4062 0.979254 12.4072 2.10996 14.2 4.5401Z" fill="black"/>
<path d="M8.66544 1.51787C5.31713 2.58296 2.68727 5.21816 1.57998 8.5201L5.91998 7.1501C5.98964 4.13471 6.98036 2.06018 8.66544 1.51787Z" fill="black"/>
<path d="M7.43998 6.6701C7.56998 4.6501 8.18998 3.2401 9.13998 2.9401C10.09 2.6301 11.41 3.4401 12.67 5.0201L7.43998 6.6701Z" fill="black"/>
<path d="M19.21 16.2601L21.91 19.1501L20.45 20.5201L17.47 17.3401H8.53L5.55 20.5201L4.09 19.1501L5.79 17.3301H4V15.3301H17.41L21.2 10.2301L22.8 11.4201L19.21 16.2501V16.2601Z" fill="black"/>
<path d="M19.67 4.3901L15 5.8601L15.43 7.2101C15.6 7.7401 16.16 8.0301 16.68 7.8601L17.94 7.4601C19.25 7.0501 19.99 5.6901 19.68 4.3801L19.67 4.3901Z" fill="black"/>
<path d="M6.04998 8.6901L1.34998 10.1701C1.84998 11.4301 3.22998 12.1101 4.53998 11.7001L5.81998 11.3001C6.34998 11.1301 6.63998 10.5701 6.46998 10.0501L6.03998 8.7001L6.04998 8.6901Z" fill="black"/>
<path d="M13.79 14.3301L12.2 9.2801L13.35 8.9201C13.88 8.7501 14.17 8.1901 14 7.6701L13.57 6.3201L7.45998 8.2501L7.88998 9.6001C8.05998 10.1301 8.61998 10.4201 9.13998 10.2501L10.29 9.8901L11.69 14.3401H13.79V14.3301Z" fill="black"/>
<path d="M13.6311 20.5001H15.7302L15.05 18.3301H12.95L13.6311 20.5001Z" fill="black"/>
</svg>
