<svg viewBox="0 0 24 24" xmlns="http://www.w3.org/2000/svg"><path d="M13.463 6.60711C13.5707 6.69017 13.6982 6.73586 13.8343 6.73586C13.9704 6.73586 14.0979 6.69017 14.2056 6.60711C14.4974 6.38217 14.916 6.43694 15.1404 6.72944C15.3648 7.02193 15.3102 7.4414 15.0183 7.66634C14.6901 7.91936 14.2798 8.07209 13.8343 8.07209C13.3888 8.07209 12.9785 7.91936 12.6502 7.66634C12.3584 7.4414 12.3038 7.02193 12.5282 6.72944C12.7526 6.43694 13.1711 6.38217 13.463 6.60711Z"/><path d="M17.2403 6.60711C17.348 6.69017 17.4755 6.73586 17.6116 6.73586C17.7478 6.73586 17.8752 6.69017 17.9829 6.60711C18.2748 6.38217 18.6933 6.43694 18.9177 6.72944C19.1421 7.02193 19.0875 7.4414 18.7957 7.66634C18.4674 7.91936 18.0571 8.07209 17.6116 8.07209C17.1661 8.07209 16.7558 7.91936 16.4276 7.66634C16.1357 7.4414 16.0811 7.02193 16.3055 6.72944C16.53 6.43694 16.9485 6.38217 17.2403 6.60711Z"/><path d="M10.8709 13.5498C10.7475 13.6074 10.6513 13.7028 10.5886 13.8237C10.419 14.1512 10.0166 14.2788 9.68989 14.1088C9.36316 13.9388 9.23581 13.5355 9.40545 13.208C9.59626 12.8396 9.90368 12.5274 10.3075 12.3387C10.7113 12.15 11.1475 12.1146 11.5517 12.2049C11.911 12.2852 12.1374 12.6422 12.0573 13.0023C11.9773 13.3625 11.621 13.5894 11.2617 13.5092C11.129 13.4795 10.9943 13.4921 10.8709 13.5498Z"/><path d="M7.16523 15.4238C7.22787 15.3028 7.3241 15.2075 7.44748 15.1498C7.57087 15.0921 7.70561 15.0796 7.8383 15.1092C8.19763 15.1894 8.55384 14.9625 8.6339 14.6024C8.71397 14.2422 8.48758 13.8852 8.12825 13.8049C7.72406 13.7147 7.28785 13.75 6.88406 13.9388C6.48027 14.1275 6.17285 14.4397 5.98203 14.808C5.81239 15.1355 5.93974 15.5388 6.26647 15.7089C6.5932 15.8789 6.99559 15.7513 7.16523 15.4238Z"/><path d="M9.04821 16.969C8.68259 16.9258 8.35127 17.1878 8.30817 17.5543C8.26508 17.9208 8.52654 18.2528 8.89215 18.296C9.54334 18.373 10.2184 18.2777 10.8493 17.9829C11.4802 17.688 11.987 17.2309 12.3467 16.6814C12.5487 16.3729 12.463 15.9587 12.1552 15.7563C11.8474 15.5538 11.4342 15.6398 11.2322 15.9482C11.0022 16.2994 10.6826 16.5864 10.2859 16.7718C9.88922 16.9572 9.46442 17.0182 9.04821 16.969Z"/><path fill-rule="evenodd" clip-rule="evenodd" d="M15.8114 2.50886L15.7229 2.5L15.6345 2.50886C14.9322 2.57925 13.8394 2.72645 12.8286 2.94254C12.3243 3.05035 11.8203 3.1795 11.3878 3.33187C10.9924 3.47112 10.5217 3.67399 10.2062 3.99024L9.94584 4.25115V8.74348L9.94949 8.78373C9.95132 8.80386 9.95331 8.82428 9.95545 8.84495C9.90599 8.85593 9.85654 8.86713 9.80719 8.87851C8.79994 9.11085 7.74747 9.44033 7.08133 9.67401L6.99744 9.70344L6.92102 9.74893C6.31423 10.1102 5.3859 10.7065 4.56088 11.3305C4.14929 11.6418 3.74697 11.9724 3.4192 12.2937C3.11962 12.5874 2.77853 12.9706 2.62591 13.3909L2.5 13.7376L4.39419 17.8091L4.41447 17.844C5.27616 19.3282 8.01176 22.1002 12.1736 21.3839L12.4125 21.3427L12.5975 21.1857C14.7399 19.3676 15.2989 17.0424 15.2623 15.2132C15.3369 15.2359 15.4125 15.2577 15.4891 15.2786L15.7229 15.3425L15.9568 15.2786C20.0308 14.165 21.3412 10.4939 21.4963 8.78373L21.5 8.74348V4.25115L21.2397 3.99024C20.9242 3.67399 20.4534 3.47112 20.0581 3.33187C19.6255 3.1795 19.1215 3.05035 18.6172 2.94254C17.6064 2.72645 16.5136 2.57925 15.8114 2.50886ZM14.9579 13.1899C15.1966 13.3039 15.4514 13.4051 15.7229 13.4909C18.6075 12.5799 19.593 9.92706 19.7224 8.66025V5.11121C19.6499 5.07978 19.5654 5.04678 19.4687 5.01273C19.1358 4.89545 18.713 4.78473 18.2465 4.68499C17.3564 4.49472 16.3799 4.35966 15.7229 4.29074C15.0659 4.35966 14.0894 4.49472 13.1994 4.68499C12.7328 4.78473 12.3101 4.89545 11.9771 5.01273C11.8805 5.04678 11.796 5.07978 11.7234 5.11121V8.59357C12.0284 8.58842 12.3475 8.61574 12.6257 8.71722L12.9716 8.84342L13.6564 10.3153C13.701 10.262 13.7547 10.2148 13.817 10.1762C14.3748 9.8306 15.0268 9.63094 15.7229 9.63094C16.419 9.63094 17.071 9.8306 17.6288 10.1762C17.9419 10.3702 18.0388 10.7819 17.8453 11.0958C17.6517 11.4096 17.2409 11.5068 16.9278 11.3128C16.5713 11.0919 16.1606 10.9672 15.7229 10.9672C15.2852 10.9672 14.8745 11.0919 14.518 11.3128C14.4085 11.3807 14.2869 11.4129 14.1669 11.4127L14.8658 12.9149L14.8795 12.9529C14.9062 13.0272 14.9324 13.1063 14.9579 13.1899ZM4.47366 13.7641L5.97012 16.9807C6.6216 18.0739 8.63334 20.0608 11.6318 19.6646C13.8619 17.6171 13.6365 14.7953 13.2197 13.5924L11.7232 10.3759C11.6442 10.3781 11.5537 10.384 11.4518 10.3941C11.1006 10.4288 10.6708 10.5075 10.2058 10.6148C9.31896 10.8193 8.37701 11.1106 7.7525 11.3264C7.18611 11.6672 6.35806 12.2032 5.63164 12.7527C5.25083 13.0407 4.91438 13.3201 4.66208 13.5674C4.58884 13.6392 4.52619 13.7049 4.47366 13.7641Z"/></svg>