<svg viewBox="0 0 24 24" xmlns="http://www.w3.org/2000/svg"><path fill-rule="evenodd" clip-rule="evenodd" d="M4.74015 18.1012L4.52345 19.8857L3.85779 21.5154L5.06284 22.7205L10.0534 23H17.1927L21.4999 21.276L20.4139 19.7032L19.3926 16.2367L18.5636 8.75943L16.4898 6.67752L18.7954 5.68939L18.2045 4.31067L15.9092 5.29438L15.7998 5.98485L16.4898 6.67752L15.1086 7.26942L10.8939 6.74258L9.42415 6.5325L6.25865 8.64738L5.59934 15.106L6.53417 14.9884H10.0261L6.14588 17.3165L4.74015 18.1012ZM11.2028 1H7.85635L9.81313 5.07284L11.0995 5.25661L14.8913 5.73058L15.9092 5.29438L16.3686 2.39535H13.1883L11.2028 1Z"/></svg>