<svg viewBox="0 0 24 24" xmlns="http://www.w3.org/2000/svg"><path d="M14.5075 8.6414L14.9993 7.35616C15.1346 7.00272 15.2096 6.61723 15.2096 6.20951C15.2096 4.43695 13.7727 3 12.0001 3C10.2275 3 8.79059 4.43695 8.79059 6.20951C8.79059 6.61723 8.86565 7.00273 9.00091 7.35616L9.49276 8.64139L8.46817 9.56007C7.38412 10.5321 6.70679 11.937 6.70679 13.5028C6.70679 15.7178 8.06851 17.617 10 18.4058V20.5185C6.94443 19.649 4.70679 16.8372 4.70679 13.5028C4.70679 11.3451 5.64376 9.40631 7.13301 8.07099C6.91179 7.49292 6.79059 6.86537 6.79059 6.20951C6.79059 3.33238 9.12297 1 12.0001 1C14.8772 1 17.2096 3.33238 17.2096 6.20951C17.2096 6.86537 17.0884 7.49292 16.8672 8.07099C18.3565 9.40631 19.2934 11.3451 19.2934 13.5028C19.2934 16.8373 17.0557 19.6492 14 20.5185V18.4057C15.9315 17.617 17.2934 15.7182 17.2934 13.5028C17.2934 11.937 16.6161 10.5321 15.532 9.56007L14.5075 8.6414Z"/><path d="M13 13.5202V11H11V15.9026L9.60072 15.0698L8.68018 16.6166L11 17.9972V23H13V16.0854L15.3096 13.7404L14.0271 12.4773L13 13.5202Z"/></svg>