<svg viewBox="0 0 24 24" xmlns="http://www.w3.org/2000/svg"><path d="M12.7071 2.40102L11.2929 1L7.08577 5.16786L11.2929 9.33572L12.7071 7.9347L10.9825 6.22615C11.3146 6.18164 11.6542 6.15858 12 6.15858C12.9658 6.15858 13.8845 6.33845 14.727 6.66442C15.4731 6.95307 16.1623 7.35744 16.7719 7.85615C18.4414 9.2221 19.5 11.282 19.5 13.5886C19.5 17.6921 16.1421 21.0187 12 21.0187C7.85786 21.0187 4.5 17.6921 4.5 13.5886C4.5 11.3395 5.50629 9.32536 7.10408 7.95986L5.68683 6.55584C3.73159 8.27966 2.5 10.7917 2.5 13.5886C2.5 18.7864 6.75329 23 12 23C17.2467 23 21.5 18.7864 21.5 13.5886C21.5 10.6661 20.1553 8.05465 18.0455 6.32844C17.2746 5.69772 16.4015 5.18518 15.4545 4.81882C14.3839 4.40459 13.2187 4.17724 12 4.17724C11.6089 4.17724 11.2233 4.20065 10.8446 4.24614L12.7071 2.40102Z"/></svg>