<svg viewBox="0 0 24 24" xmlns="http://www.w3.org/2000/svg"><path fill-rule="evenodd" clip-rule="evenodd" d="M5.5 6.5C5.5 6.7544 5.51727 7.00477 5.55071 7.25H8.87532C8.84363 7.16463 8.81604 7.07733 8.79278 6.98846H8.46155V5.58846H8.79278C9.07139 4.52405 9.97022 3.68462 11.128 3.68462C11.7641 3.68462 12.3347 3.94725 12.7576 4.35911L11.7808 5.36205C11.5954 5.18147 11.3671 5.08462 11.128 5.08462C10.8128 5.08462 10.4901 5.27009 10.293 5.58846H11.7554V6.98846H10.293C10.3557 7.08962 10.431 7.17736 10.5147 7.25H11.7431C11.7558 7.23867 11.7684 7.22696 11.7808 7.21488L11.8151 7.25H16.4493C16.4827 7.00477 16.5 6.7544 16.5 6.5C16.5 3.46243 14.0376 1 11 1C7.96243 1 5.5 3.46243 5.5 6.5ZM20.5 11.5C20.5 9.84315 19.1569 8.5 17.5 8.5H2.5V23H17.5C19.1569 23 20.5 21.6569 20.5 20V19.5L15.75 19.5C13.6789 19.5 12 17.8211 12 15.75C12 13.6789 13.6789 12 15.75 12L20.5 12V11.5ZM21.5 13.5H15.75C14.7835 13.5 13.6814 14.2569 13.6814 15.75C13.6814 17 14.5 18 15.75 18H21.5V13.5ZM16 16.75C16.5523 16.75 17 16.3023 17 15.75C17 15.1977 16.5523 14.75 16 14.75C15.4477 14.75 15 15.1977 15 15.75C15 16.3023 15.4477 16.75 16 16.75Z"/></svg>