<svg viewBox="0 0 24 24" xmlns="http://www.w3.org/2000/svg"><path fill-rule="evenodd" clip-rule="evenodd" d="M1.86307 10.3916L1.11307 9.95662L12.0279 3.51978L22.8869 9.81737L19.1131 12.0429V16.81L17.812 18.3521C16.3952 20.0312 14.31 21.0001 12.1131 21.0001C9.91609 21.0001 7.83093 20.0312 6.41416 18.3521L5.11307 16.81V12.2764L3.36307 11.2615V13.9077L4.07366 16.7501H1.1525L1.86307 13.9078V10.3916ZM7.11307 13.4363V16.079L7.94275 17.0623C8.9795 18.2911 10.5054 19.0001 12.1131 19.0001C13.7208 19.0001 15.2466 18.2911 16.2834 17.0623L17.1131 16.079V13.2224L11.9721 16.2542L7.11307 13.4363ZM11.9636 13.9373L5.07475 9.94217L12.0364 5.83667L18.9252 9.83182L11.9636 13.9373Z"/></svg>