<svg viewBox="0 0 24 24" xmlns="http://www.w3.org/2000/svg"><path fill-rule="evenodd" clip-rule="evenodd" d="M2.7616 2L1.35032 3.41709L4.53321 6.61307C2.24113 8.81407 1 11.2864 1 11.2864C1 11.2864 5.00364 19.3266 12.01 19.3266C13.5514 19.3266 14.9427 18.9246 16.1838 18.3116L19.8571 22L21.2684 20.5829L2.7616 2ZM12 17.3065C7.59599 17.3065 4.48317 13.1457 3.30209 11.2764C3.82256 10.4523 4.71337 9.17588 5.92448 8.0201L8.14649 10.2513C8.05641 10.5829 7.99636 10.9246 7.99636 11.2864C7.99636 13.5075 9.78799 15.3065 12 15.3065C12.3603 15.3065 12.7006 15.2462 13.0309 15.1558L14.6624 16.794C13.8417 17.1156 12.9509 17.3166 12 17.3166V17.3065Z"/><path d="M9.34759 5.7588C10.1683 5.43719 11.0491 5.24623 12 5.24623C16.404 5.24623 19.5168 9.40704 20.6979 11.2764C20.1774 12.1005 19.2866 13.3668 18.0755 14.5226L19.4768 15.9296C21.7689 13.7286 23 11.2663 23 11.2663C23 11.2663 18.9964 3.22613 11.99 3.22613C10.4486 3.22613 9.05733 3.61809 7.82621 4.23116L9.34759 5.7588Z"/><path d="M12 7.25628C14.212 7.25628 16.0036 9.05527 16.0036 11.2764C16.0036 11.6382 15.9436 11.9698 15.8535 12.3015L10.979 7.40703C11.3093 7.31658 11.6496 7.25628 12 7.25628Z"/></svg>