<svg viewBox="0 0 24 24" xmlns="http://www.w3.org/2000/svg"><path fill-rule="evenodd" clip-rule="evenodd" d="M23 12C23 18.0751 18.0751 23 12 23C5.92487 23 1 18.0751 1 12C1 5.92487 5.92487 1 12 1C18.0751 1 23 5.92487 23 12ZM16.7143 19.668C15.3432 20.5127 13.7285 21 12 21C11.5956 21 11.1975 20.9733 10.8072 20.9217L10.5 20L12 18.0588V15.9412H9.99998L8.90153 13.8235H6.49998L5.49998 12L3.0806 13.2097C3.06904 13.1236 3.05869 13.0372 3.04958 12.9504L4.99998 11L6.99998 9.99998L8.49998 8.99999L9.49998 7.49999L11 6.49999L11.5 3.99999L9.11921 3.47093C10.0237 3.16555 10.9925 3 12 3C12.7056 3 13.3922 3.08119 14.051 3.23474L12.5 7.49999L14.5 7.99999L16 7.49999L19 8.99999L20.4187 8.81108C20.5535 9.16686 20.6665 9.5334 20.7559 9.90908H16.7143L14.5 8.49999H12.5L11 10.2727V13.4545L13.2857 16.6363L15 16L16.7143 17.2727V19.668ZM18.7143 17.9933V16.2666L15.3211 13.7474L14.0199 14.2304L13 12.8106V11.0053L13.4276 10.5H13.9176L16.1319 11.9091H20.6949L20.999 12.1323C20.9666 14.3823 20.1086 16.4324 18.7143 17.9933ZM19.4151 6.89792C18.533 5.61835 17.3282 4.57836 15.9183 3.89545L15.8531 4.13124L15.3112 5.62138L16.1534 5.34065L19.3528 6.94032L19.4151 6.89792ZM5.39705 5.8843C4.35749 7.00615 3.6003 8.3934 3.23848 9.93307L3.81527 9.35628L5.99419 8.26681L7.05776 7.55776L8.05776 6.05777L8.92843 5.47732L7.20347 5.09399L5.39705 5.8843ZM3.59502 15.2249C4.47066 17.5056 6.2479 19.3395 8.49035 20.29L8.3837 19.4678L9.56336 17.9412H8.78436L7.6859 15.8235H5.31577L4.70586 14.7113L3.59502 15.2249Z"/></svg>