<svg width="24" height="24" viewBox="0 0 24 24" fill="none" xmlns="http://www.w3.org/2000/svg">
<path fill-rule="evenodd" clip-rule="evenodd" d="M15.9112 8.9819C15.9112 11.181 14.1491 12.9638 11.9754 12.9638C9.80168 12.9638 8.03954 11.181 8.03954 8.9819C8.03954 6.78276 9.80168 5 11.9754 5C14.1491 5 15.9112 6.78276 15.9112 8.9819ZM13.9433 8.9819C13.9433 10.0815 13.0622 10.9729 11.9754 10.9729C10.8885 10.9729 10.0075 10.0815 10.0075 8.9819C10.0075 7.88233 10.8885 6.99095 11.9754 6.99095C13.0622 6.99095 13.9433 7.88233 13.9433 8.9819Z" fill="black"/>
<path fill-rule="evenodd" clip-rule="evenodd" d="M12 23C18.0751 23 23 18.0751 23 12C23 5.92487 18.0751 1 12 1C5.92487 1 1 5.92487 1 12C1 18.0751 5.92487 23 12 23ZM12 21C14.0339 21 15.9103 20.3253 17.4175 19.1875L17.2253 17.0415C17.2122 17.0192 17.192 16.9931 17.167 16.97C17.1549 16.9589 17.1445 16.951 17.1366 16.9457H6.8194C6.81695 16.9465 6.81155 16.9487 6.80393 16.9541C6.79886 16.9576 6.79481 16.9612 6.79161 16.9646C6.78399 17.0015 6.77909 17.0276 6.77576 17.0475C6.77282 17.0651 6.77183 17.074 6.77183 17.074L6.58255 19.1875C8.08972 20.3253 9.96607 21 12 21ZM19.172 16.7144L19.2299 17.3609C20.342 15.8635 21 14.0086 21 12C21 7.02944 16.9706 3 12 3C7.02944 3 3 7.02944 3 12C3 14.0086 3.65798 15.8635 4.77014 17.3609L4.81199 16.8936C4.82261 16.7751 4.84466 16.6559 4.86899 16.5395C4.88732 16.4518 4.9101 16.3506 4.9386 16.28C5.23188 15.4899 5.99196 14.9548 6.81499 14.9548H17.185C18.1677 14.9548 19.0261 15.8177 19.172 16.7144Z" fill="black"/>
</svg>
