<svg viewBox="0 0 24 24" xmlns="http://www.w3.org/2000/svg"><path fill-rule="evenodd" clip-rule="evenodd" d="M14 15.5C17.0376 15.5 19.5 13.0376 19.5 10C19.5 6.96243 17.0376 4.5 14 4.5C10.9624 4.5 8.5 6.96243 8.5 10C8.5 13.0376 10.9624 15.5 14 15.5ZM16.9132 16.9132C19.6083 15.7761 21.5 13.109 21.5 10C21.5 5.85787 18.1421 2.5 14 2.5C10.891 2.5 8.2239 4.39167 7.0868 7.08679C4.39167 8.2239 2.5 10.891 2.5 14C2.5 18.1421 5.85786 21.5 10 21.5C13.109 21.5 15.7761 19.6083 16.9132 16.9132ZM14.2461 17.496C14.1644 17.4987 14.0823 17.5 14 17.5C9.85786 17.5 6.5 14.1421 6.5 10C6.5 9.91765 6.50133 9.83561 6.50396 9.75389C5.28018 10.7627 4.5 12.2902 4.5 14C4.5 17.0376 6.96243 19.5 10 19.5C11.7098 19.5 13.2373 18.7198 14.2461 17.496ZM10.5103 11C10.9124 12.6111 12.263 13.8846 14.0016 13.8846C14.9482 13.8846 15.798 13.4939 16.4285 12.8798L15.0331 11.4471C14.7419 11.7307 14.381 11.8846 14.0016 11.8846C13.4696 11.8846 12.9324 11.5544 12.6315 11H14.9522V9H12.6315C12.9324 8.44559 13.4696 8.11539 14.0016 8.11539C14.381 8.11539 14.7419 8.26931 15.0331 8.55292L16.4285 7.12016C15.798 6.50613 14.9482 6.11539 14.0016 6.11539C12.263 6.11539 10.9124 7.38893 10.5103 9H9.96154V11H10.5103Z"/></svg>