<svg viewBox="0 0 24 24" xmlns="http://www.w3.org/2000/svg"><path fill-rule="evenodd" clip-rule="evenodd" d="M21.25 6.5C21.25 7.62853 20.7159 8.63232 19.8866 9.27235C20.1993 10.1208 20.37 11.038 20.37 11.995C20.37 12.9549 20.1982 13.8748 19.8838 14.7254C20.7147 15.3654 21.25 16.3702 21.25 17.5C21.25 19.433 19.683 21 17.75 21C16.5618 21 15.5119 20.4079 14.8792 19.5026C14.1271 19.7413 13.3261 19.87 12.495 19.87C9.39468 19.87 6.71281 18.0784 5.42821 15.4741C5.28787 15.4912 5.14497 15.5 5 15.5C3.067 15.5 1.5 13.933 1.5 12C1.5 10.067 3.067 8.5 5 8.5C5.14337 8.5 5.28472 8.50862 5.42357 8.52537C6.70633 5.91592 9.39094 4.12 12.495 4.12C13.3282 4.12 14.1312 4.2494 14.8849 4.48919C15.5182 3.58855 16.5654 3 17.75 3C19.683 3 21.25 4.567 21.25 6.5ZM17.75 10C17.8405 10 17.9302 9.99657 18.0189 9.98982C18.2461 10.6155 18.37 11.2908 18.37 11.995C18.37 12.7029 18.2448 13.3815 18.0154 14.0099C17.9278 14.0033 17.8393 14 17.75 14C15.817 14 14.25 15.567 14.25 17.5C14.25 17.5344 14.2505 17.5687 14.2515 17.6029C13.6968 17.7765 13.1068 17.87 12.495 17.87C10.2138 17.87 8.23624 16.5698 7.26297 14.6701C8.01973 14.0281 8.5 13.0701 8.5 12C8.5 10.9282 8.01822 9.96889 7.25941 9.32687C8.23141 7.42335 10.211 6.12 12.495 6.12C13.107 6.12 13.6971 6.21357 14.2518 6.38717C14.2506 6.42464 14.25 6.46225 14.25 6.5C14.25 8.433 15.817 10 17.75 10Z"/></svg>