<svg viewBox="0 0 24 24" xmlns="http://www.w3.org/2000/svg"><path fill-rule="evenodd" clip-rule="evenodd" d="M13.1626 8.04034L14.5341 12.8751L11.5874 14.0226L12.2852 17.9929L9.54028 13.123L12.1826 11.8672L10.3971 7.55617L10.4216 7.54452C9.7261 6.72924 8.80683 6 7.5 6C5.567 6 4 7.567 4 9.5C4 10.4681 4.41562 11.6539 5.2585 13.0025C6.08666 14.3276 7.22378 15.6454 8.41421 16.8358C9.59735 18.0189 10.7881 19.0318 11.6869 19.7508C11.796 19.838 11.9005 19.9208 12 19.9988C12.0995 19.9208 12.204 19.838 12.3131 19.7508C13.2119 19.0318 14.4026 18.0189 15.5858 16.8358C16.7762 15.6454 17.9133 14.3276 18.7415 13.0025C19.5844 11.6539 20 10.4681 20 9.5C20 7.567 18.433 6 16.5 6C15.1647 6 14.234 6.76142 13.5332 7.59801L13.1626 8.04034ZM7.5 4C8.74451 4 9.74436 4.41157 10.5321 4.95214C11.1444 5.3723 11.6286 5.87038 12 6.3137C12.3714 5.87038 12.8556 5.3723 13.4679 4.95214C14.2556 4.41157 15.2555 4 16.5 4C19.5376 4 22 6.46243 22 9.5C22 15.5 12 22.5 12 22.5C12 22.5 2 15.5 2 9.5C2 6.46243 4.46243 4 7.5 4Z"/></svg>