<svg viewBox="0 0 24 24" xmlns="http://www.w3.org/2000/svg"><path d="M10 6.5C11.3807 6.5 12.5 5.38071 12.5 4C12.5 2.61929 11.3807 1.5 10 1.5C8.61929 1.5 7.5 2.61929 7.5 4C7.5 5.38071 8.61929 6.5 10 6.5Z"/><path d="M10.9722 10.221V7.91862H8.91665V16.3605H15.1158L17.3771 19.0621C17.7273 19.4806 18.3455 19.5525 18.7833 19.2256L20.8388 17.6907C21.2929 17.3517 21.385 16.7103 21.0444 16.2582C20.7038 15.8061 20.0596 15.7144 19.6055 16.0535L18.3311 17.0051L16.0786 14.314H10.9722V12.2675H15.5972C16.1648 12.2675 16.625 11.8093 16.625 11.2442C16.625 10.6791 16.1648 10.221 15.5972 10.221H10.9722Z"/><path d="M6.8611 8.86369C4.43047 10.0133 2.75 12.4799 2.75 15.3372C2.75 19.2931 5.97105 22.5 9.94442 22.5C12.1517 22.5 14.1268 21.5103 15.4466 19.9524L14.153 18.407H14.0559C13.1184 19.6497 11.6257 20.4535 9.94442 20.4535C7.1063 20.4535 4.80555 18.1628 4.80555 15.3372C4.80555 13.6633 5.61292 12.1772 6.8611 11.2438V8.86369Z"/></svg>