<svg viewBox="0 0 24 24" xmlns="http://www.w3.org/2000/svg"><path fill-rule="evenodd" clip-rule="evenodd" d="M7.85638 1L10.2495 5.98108L6.25868 8.64738L5.51356 15.9466L4.9616 16.2778L4.52348 19.8857L3.85782 21.5154L5.06287 22.7205L10.0534 23H17.1927L21.4999 21.276L20.414 19.7032L19.3927 16.2367L18.5637 8.75943L16.4898 6.67749L18.7954 5.68936L18.2046 4.31064L15.9092 5.29435L16.3686 2.39535H13.1884L11.2029 1H7.85638ZM13.8361 5.59867L14.0267 4.39535H12.5559L11.2736 3.49417L12.1855 5.39235L13.8361 5.59867ZM12.4237 6.9338L8.15271 9.78727L7.67281 14.4884H11.8313L6.82913 17.4897L6.47652 20.3934L6.31554 20.7875L10.1094 21H16.8073L18.5102 20.3184L17.4243 16.6326L16.6529 9.67521L14.1353 7.14775L12.4237 6.9338Z"/></svg>