<svg viewBox="0 0 24 24" xmlns="http://www.w3.org/2000/svg"><path d="M14.063 4.49988C14.063 5.60445 13.1626 6.49988 12.052 6.49988C10.9414 6.49988 10.0411 5.60445 10.0411 4.49988C10.0411 3.39531 10.9414 2.49988 12.052 2.49988C13.1626 2.49988 14.063 3.39531 14.063 4.49988Z"/><path fill-rule="evenodd" clip-rule="evenodd" d="M5.45003 6.99988H10.6845L13.9417 14.019L17.2372 15.6385C17.8101 14.7993 18.3969 13.9609 19.3233 13.4172C19.3774 13.3854 19.4326 13.3547 19.4891 13.325C20.0288 13.0413 20.6803 12.8547 21.5 12.8163V21.4563H11.5494C11.5494 21.4563 11.9616 20.0763 12.6453 19.5963C12.7249 19.5403 12.8087 19.4946 12.896 19.4569L12.8974 19.4563C13.1589 19.3435 13.4522 19.3016 13.7602 19.264L13.8428 19.254C14.0641 19.2274 14.2921 18.9069 14.5205 18.5858C14.7141 18.3136 14.9081 18.041 15.0986 17.9463C15.4353 17.7538 15.7264 17.5186 15.9887 17.2558L8.4205 13.5365L10.0411 16.2229V20.4999C10.0411 21.0522 9.59097 21.4999 9.03568 21.4999C8.48038 21.4999 8.03022 21.0522 8.03022 20.4999V16.7769L7.25624 15.4939L4.39772 20.9612C4.14153 21.4512 3.53446 21.6419 3.04179 21.3871C2.54912 21.1323 2.35742 20.5285 2.61361 20.0385L6.50522 12.5953L4.07609 11.4015C4.06039 11.394 4.04481 11.386 4.02936 11.3776C3.92681 11.322 3.83765 11.251 3.7634 11.1688C3.66152 11.0563 3.58824 10.9235 3.54642 10.7817C3.47368 10.5352 3.49608 10.2617 3.62858 10.0207C3.63701 10.0054 3.64579 9.99028 3.6549 9.97551L5.45003 6.99988ZM9.98735 10.2703L11.0727 12.609L9.23638 11.7066L9.98735 10.2703ZM8.38502 8.99988L7.43316 10.8205L5.93457 10.084L6.58859 8.99988H8.38502Z"/></svg>