<svg viewBox="0 0 24 24" xmlns="http://www.w3.org/2000/svg"><path d="M12 9.5C15.7279 9.5 18.75 12.5221 18.75 16.25C18.75 19.9779 15.7279 23 12 23C8.27208 23 5.25 19.9779 5.25 16.25C5.25 12.5221 8.27208 9.5 12 9.5ZM12.002 12.79C10.4519 12.79 9.2471 13.925 8.88867 15.3613H8.39941V17.1445H8.88867C9.24711 18.5809 10.4519 19.7158 12.002 19.7158C12.8457 19.7157 13.603 19.3676 14.165 18.8203L12.9209 17.543C12.6614 17.7957 12.34 17.9335 12.002 17.9336C11.5277 17.9336 11.0486 17.6387 10.7803 17.1445H12.8486V15.3613H10.7803C11.0486 14.8671 11.5277 14.5723 12.002 14.5723C12.3401 14.5724 12.6614 14.7102 12.9209 14.9629L14.165 13.6855C13.603 13.1382 12.8457 12.7901 12.002 12.79ZM13.6836 5.46094C14.418 5.46102 15.0622 5.95063 15.2588 6.6582L15.5459 7.69434C15.765 7.58665 16.0103 7.52637 16.2666 7.52637H20.1631C20.8975 7.52637 21.5416 8.01603 21.7383 8.72363L22.4805 11.3955H20.7832L20.7822 11.3896H19.0098C17.4686 9.17248 14.9047 7.71973 12 7.71973C9.09526 7.71973 6.53138 9.17248 4.99023 11.3896H3.21777L3.21582 11.3955H1.51953L2.26172 8.72363C2.45836 8.01605 3.1025 7.52637 3.83691 7.52637H7.7334C7.81167 7.52637 7.88905 7.53315 7.96484 7.54395L8.21094 6.6582C8.40751 5.95066 9.05181 5.46109 9.78613 5.46094H13.6836ZM5.78516 3.06543C6.79483 3.06543 7.61321 3.8839 7.61328 4.89355C7.61328 5.90328 6.79488 6.72168 5.78516 6.72168C4.77547 6.72164 3.95703 5.90325 3.95703 4.89355C3.95711 3.88392 4.77552 3.06547 5.78516 3.06543ZM18.2148 3.06543C19.2244 3.06552 20.0429 3.88395 20.043 4.89355C20.043 5.90322 19.2245 6.72159 18.2148 6.72168C17.2051 6.72168 16.3867 5.90328 16.3867 4.89355C16.3868 3.8839 17.2052 3.06543 18.2148 3.06543ZM11.7354 1C12.7448 1.00022 13.5634 1.8186 13.5635 2.82812C13.5635 3.83771 12.7449 4.65603 11.7354 4.65625C10.7256 4.65625 9.90625 3.83785 9.90625 2.82812C9.90632 1.81847 10.7257 1 11.7354 1Z"/></svg>