<svg viewBox="0 0 24 24" xmlns="http://www.w3.org/2000/svg"><path d="M7.5 18.2998V21.5H5.5C3.84315 21.5 2.5 20.1569 2.5 18.5V18.2998H7.5Z"/><path d="M14.5 18.2998V21.5H9.5V18.2998H14.5Z"/><path d="M21.5 18.5C21.5 20.1569 20.1569 21.5 18.5 21.5H16.5V18.2998H21.5V18.5Z"/><path d="M21.5 16.2998H16.5V13.0996H21.5V16.2998Z"/><path d="M7.5 13.0996V16.2998H2.5V13.0996H7.5Z"/><path d="M14.5 13.0996V16.2998H9.5V13.0996H14.5Z"/><path d="M21.5 11.0996H16.5V7.90039H21.5V11.0996Z"/><path d="M7.5 7.90039V11.0996H2.5V7.90039H7.5Z"/><path d="M14.5 7.90039V11.0996H9.5V7.90039H14.5Z"/><path d="M18.5 2.5C20.1569 2.5 21.5 3.84315 21.5 5.5V5.90039H2.5V5.5C2.5 3.84315 3.84315 2.5 5.5 2.5H18.5Z"/></svg>