<svg viewBox="0 0 24 24" xmlns="http://www.w3.org/2000/svg"><path fill-rule="evenodd" clip-rule="evenodd" d="M12.6203 1.4299C12.2692 1.17376 11.7928 1.17376 11.4417 1.4299L10.1282 2.388C9.95658 2.51322 9.7495 2.58051 9.53702 2.5801L7.91125 2.57701C7.47662 2.57618 7.09122 2.85619 6.9577 3.2698L6.45826 4.81695C6.39298 5.01916 6.26499 5.19532 6.09286 5.31988L4.77576 6.27298C4.42366 6.52778 4.27645 6.98084 4.41154 7.39394L4.91687 8.93918C4.98292 9.14114 4.98292 9.35888 4.91687 9.56084L4.41154 11.1061C4.27645 11.5192 4.42366 11.9722 4.77576 12.227L6.09284 13.1801C6.09283 13.1801 6.09285 13.1801 6.09284 13.1801C6.21636 13.2695 6.31717 13.3855 6.38837 13.5186C6.41638 13.5709 6.43981 13.626 6.45824 13.6831L6.95768 15.2302C6.99107 15.3336 7.0402 15.4287 7.1019 15.5131C7.19011 15.6337 7.30403 15.7326 7.43439 15.8031C7.57759 15.8804 7.74062 15.9233 7.91125 15.923L9.53702 15.9199C9.7495 15.9195 9.95658 15.9868 10.1282 16.112L11.4417 17.0701C11.4417 17.0701 11.4417 17.0701 11.4417 17.0701C11.4799 17.098 11.5197 17.1229 11.5606 17.1447C11.8951 17.3232 12.3075 17.2984 12.6203 17.0701L13.9338 16.112C14.1055 15.9868 14.3126 15.9195 14.525 15.9199L16.1508 15.923C16.5854 15.9238 16.9708 15.6438 17.1043 15.2302L17.6038 13.6831C17.6691 13.4809 17.7971 13.3047 17.9692 13.1801L19.2863 12.227C19.6384 11.9722 19.7856 11.5192 19.6505 11.1061L19.1452 9.56084C19.0791 9.35888 19.0791 9.14114 19.1452 8.93918L19.6505 7.39394C19.7856 6.98084 19.6384 6.52778 19.2863 6.27298L17.9692 5.31988C17.7971 5.19532 17.6691 5.01916 17.6038 4.81695L17.1043 3.2698C16.9708 2.85619 16.5854 2.57618 16.1508 2.57701L14.525 2.5801C14.3125 2.58051 14.1055 2.51322 13.9338 2.388L12.6203 1.4299ZM15.5017 7.49389L14.3728 6.50613L10.9632 10.4028L9.56135 9.00093L8.50069 10.0616L11.0363 12.5972L15.5017 7.49389ZM13.0649 18.5386C13.2176 18.4692 13.3649 18.3837 13.5043 18.282L14.6857 17.4202L16.1479 17.423C17.2345 17.4251 18.198 16.725 18.5318 15.691L18.8202 14.7977L21.0256 19.5273L17.3072 19.5946L14.8654 22.3998L13.0649 18.5386ZM5.53022 15.691L5.21646 14.7191L2.97437 19.5273L6.69282 19.5946L9.13459 22.3998L10.9462 18.5148C10.8117 18.4499 10.6816 18.3723 10.5577 18.282L9.37634 17.4202L7.91409 17.423C6.82751 17.4251 5.86402 16.725 5.53022 15.691Z"/></svg>