<svg width="98" height="40" viewBox="0 0 98 40" fill="none" xmlns="http://www.w3.org/2000/svg">
<path d="M17.335 37.3532L18.6366 36.2691C19.0411 36.9053 19.6925 37.2521 20.4157 37.2521C21.2834 37.2521 21.876 36.7889 21.876 36.1092C21.876 35.3426 21.2399 35.0675 20.01 34.6195C18.8671 34.1997 17.6666 33.6071 17.6666 31.8716C17.6666 30.2513 18.9823 29.1378 20.906 29.1378C22.2076 29.1378 23.2341 29.6587 23.8126 30.5841L22.511 31.6694C22.1206 31.0909 21.5562 30.7722 20.8907 30.7722C20.1099 30.7722 19.5891 31.192 19.5891 31.814C19.5891 32.5806 20.2252 32.8558 21.4551 33.3037C22.598 33.7235 23.7985 34.3161 23.7985 36.0516C23.7985 37.7871 22.4239 38.8865 20.3992 38.8865C19.0247 38.8865 17.9406 38.3374 17.3327 37.3532H17.335Z" fill="black"/>
<path d="M25.7374 36.1527V33.058H24.5075V31.5682H25.1577C25.7503 31.5682 25.982 31.3366 25.982 30.744V29.6305H27.5152V31.5682H29.2507V33.058H27.5152V36.1527C27.5152 36.8465 27.8774 37.238 28.5417 37.238C28.7439 37.238 28.9897 37.2086 29.1343 37.1651V38.669C28.9168 38.7266 28.5123 38.7701 28.1937 38.7701C26.5734 38.7701 25.735 37.873 25.735 36.1527H25.7374Z" fill="black"/>
<path d="M30.1337 36.6736C30.1337 35.2991 31.2766 34.4748 33.185 34.4607L34.5736 34.4466V34.215C34.5736 33.3766 34.0386 32.9428 33.0698 32.9428C32.4336 32.9428 31.8692 33.1885 31.4789 33.6365L30.3948 32.5806C31.0168 31.814 32.0151 31.3942 33.2438 31.3942C35.1533 31.3942 36.3679 32.436 36.3679 34.0986V36.9335C36.3679 37.1933 36.4831 37.3097 36.7724 37.3097H36.9029V38.7125H36.0646C35.3849 38.7125 34.9217 38.3938 34.777 37.8741H34.7476C34.2997 38.5255 33.5612 38.8865 32.6653 38.8865C31.1614 38.8865 30.1349 37.9894 30.1349 36.6736H30.1337ZM34.5736 36.0516V35.6471L33.3872 35.6612C32.4466 35.6754 31.941 36.0081 31.941 36.6301C31.941 37.1792 32.3749 37.5708 32.9827 37.5708C33.9234 37.5708 34.5736 36.9488 34.5736 36.0516Z" fill="black"/>
<path d="M37.813 35.1698C37.813 32.9569 39.2733 31.3954 41.3416 31.3954C42.2964 31.3954 43.0771 31.8152 43.5686 32.5818H43.598V28.2289H45.3911V38.7148H43.6991V37.6013H43.6697C43.2064 38.4115 42.3387 38.8889 41.3416 38.8889C39.2733 38.8889 37.813 37.3415 37.813 35.1721V35.1698ZM43.598 35.1404C43.598 33.8528 42.802 33.0004 41.6309 33.0004C40.4597 33.0004 39.6496 33.8681 39.6496 35.1404C39.6496 36.4126 40.4456 37.2803 41.6309 37.2803C42.8161 37.2803 43.598 36.4267 43.598 35.1404Z" fill="black"/>
<path d="M48.7622 35.7189C47.7933 35.4296 46.8526 34.9087 46.8526 33.6071C46.8526 32.3055 47.952 31.3942 49.5864 31.3942C50.6858 31.3942 51.5383 31.7846 52.0156 32.5077L50.9892 33.5342C50.627 33.0862 50.1355 32.8405 49.6005 32.8405C48.9926 32.8405 48.6175 33.1156 48.6175 33.5495C48.6175 34.128 49.2254 34.2291 50.1073 34.5042C51.0762 34.7935 52.0168 35.3144 52.0168 36.616C52.0168 37.9176 50.8598 38.8865 49.1537 38.8865C48.0402 38.8865 47.1431 38.4961 46.6222 37.7589L47.6487 36.7324C48.039 37.1957 48.5599 37.4414 49.1384 37.4414C49.8322 37.4414 50.2519 37.1522 50.2519 36.6748C50.2519 36.0963 49.644 35.9952 48.7622 35.72V35.7189Z" fill="black"/>
<path d="M52.9704 36.6736C52.9704 35.2991 54.1133 34.4748 56.0216 34.4607L57.4103 34.4466V34.215C57.4103 33.3766 56.8753 32.9428 55.9064 32.9428C55.2703 32.9428 54.7059 33.1885 54.3155 33.6365L53.2314 32.5806C53.8534 31.814 54.8517 31.3942 56.0804 31.3942C57.9899 31.3942 59.2046 32.436 59.2046 34.0986V36.9335C59.2046 37.1933 59.3198 37.3097 59.609 37.3097H59.7396V38.7125H58.9012C58.2216 38.7125 57.7583 38.3938 57.6137 37.8741H57.5843C57.1363 38.5255 56.3979 38.8865 55.5019 38.8865C53.9981 38.8865 52.9716 37.9894 52.9716 36.6736H52.9704ZM57.4103 36.0516V35.6471L56.2239 35.6612C55.2832 35.6754 54.7776 36.0081 54.7776 36.6301C54.7776 37.1792 55.2115 37.5708 55.8194 37.5708C56.76 37.5708 57.4103 36.9488 57.4103 36.0516Z" fill="black"/>
<path d="M61.1411 31.5682H62.8331V32.7546H62.8625C63.2094 31.9445 63.8455 31.5106 64.685 31.5106C64.9026 31.5106 65.2059 31.54 65.3211 31.5835V33.2896C65.1189 33.232 64.7285 33.1885 64.4393 33.1885C63.528 33.1885 62.9354 33.8822 62.9354 34.9534V38.7137H61.1423V31.5694L61.1411 31.5682Z" fill="black"/>
<path d="M65.8268 35.1404C65.8268 32.9134 67.3165 31.3942 69.5153 31.3942C70.6005 31.3942 71.5541 31.7987 72.162 32.5218L70.9615 33.6494C70.5994 33.2449 70.0938 33.0274 69.5153 33.0274C68.4159 33.0274 67.6645 33.8952 67.6645 35.1392C67.6645 36.3832 68.4171 37.2509 69.5153 37.2509C70.0938 37.2509 70.6005 37.0334 70.9909 36.6148L72.1773 37.7424C71.5412 38.4797 70.6006 38.8853 69.5306 38.8853C67.3318 38.8853 65.8279 37.3662 65.8279 35.1392L65.8268 35.1404Z" fill="black"/>
<path d="M73.4919 28.2278H75.285V32.3784H75.3144C75.7341 31.7423 76.3562 31.3954 77.1075 31.3954C78.9006 31.3954 79.826 32.4219 79.826 34.389V38.7137H78.0329V34.7359C78.0329 33.5213 77.599 32.9569 76.6877 32.9569C75.7765 32.9569 75.285 33.593 75.285 34.7794V38.7137H73.4919V28.2278Z" fill="black"/>
<path d="M82.5598 30.657C81.9378 30.657 81.4898 30.2231 81.4898 29.6152C81.4898 29.0073 81.9378 28.5734 82.5598 28.5734C83.1818 28.5734 83.6297 29.0073 83.6297 29.6152C83.6297 30.2231 83.1818 30.657 82.5598 30.657ZM81.6626 31.5682H83.4557V38.7125H81.6626V31.5682Z" fill="black"/>
<path d="M84.9467 35.1404C84.9467 32.9275 86.4364 31.3942 88.5623 31.3942C90.6881 31.3942 92.1638 32.9134 92.1638 35.0969C92.1638 35.2709 92.1344 35.5448 92.1062 35.733H86.7551C86.8856 36.7018 87.7098 37.3532 88.7657 37.3532C89.5464 37.3532 90.2261 37.064 90.6752 36.5431L91.7593 37.599C91.1079 38.4373 89.9803 38.8865 88.6787 38.8865C86.4799 38.8865 84.9478 37.3391 84.9478 35.1404H84.9467ZM86.7551 34.4172H90.3566C90.2413 33.4766 89.5182 32.8405 88.5482 32.8405C87.5781 32.8405 86.8562 33.4766 86.7551 34.4172Z" fill="black"/>
<path d="M92.8857 33.058V31.5682H94.1003V30.6429C94.1003 29.0085 95.0692 28.0537 96.733 28.0537C96.9352 28.0537 97.2386 28.0831 97.3985 28.1113V29.6587C97.2245 29.6152 96.9787 29.587 96.7765 29.587C96.2121 29.587 95.8946 29.9633 95.8946 30.6429V31.5682H97.6301V33.058H95.8946V38.7125H94.1015V33.058H92.8857Z" fill="black"/>
<path d="M20.9365 15.3338H23.1059L26.8662 24.7344H24.8555L24.0748 22.6662H19.8948L19.114 24.7344H17.1763L20.9365 15.3338ZM20.4592 21.1047H23.4963L21.9924 17.1422H21.963L20.4592 21.1047Z" fill="#EC0000"/>
<path d="M28.0514 17.5902H29.7293V18.559H29.7587C30.1196 17.8218 30.7569 17.4161 31.5812 17.4161C32.5065 17.4161 33.2014 17.8206 33.6353 18.6308C34.0692 17.85 34.864 17.4161 35.8764 17.4161C37.6413 17.4161 38.4938 18.3991 38.4938 20.4098V24.7344H36.7007V20.7143C36.7007 19.5432 36.2962 18.9788 35.4567 18.9788C34.6171 18.9788 34.1691 19.6008 34.1691 20.7719V24.7344H32.376V20.7143C32.376 19.5279 31.9857 18.9788 31.132 18.9788C30.2784 18.9788 29.8445 19.6149 29.8445 20.7719V24.7344H28.0514V17.5902Z" fill="#EC0000"/>
<path d="M41.7908 21.7408C40.8219 21.4515 39.8812 20.9307 39.8812 19.629C39.8812 18.3274 40.9806 17.4161 42.615 17.4161C43.7144 17.4161 44.5669 17.8065 45.0442 18.5296L44.0178 19.5561C43.6556 19.1081 43.1641 18.8624 42.6291 18.8624C42.0212 18.8624 41.6461 19.1375 41.6461 19.5714C41.6461 20.1499 42.254 20.251 43.1359 20.5262C44.1048 20.8154 45.0454 21.3363 45.0454 22.6379C45.0454 23.9396 43.8884 24.9084 42.1823 24.9084C41.0688 24.9084 40.1717 24.5181 39.6508 23.7808L40.6773 22.7543C41.0676 23.2176 41.5885 23.4634 42.167 23.4634C42.8608 23.4634 43.2805 23.1741 43.2805 22.6967C43.2805 22.1182 42.6726 22.0171 41.7908 21.742V21.7408Z" fill="#EC0000"/>
<path d="M46.9397 22.1747V19.0799H45.7098V17.5902H46.3612C46.9538 17.5902 47.1854 17.3585 47.1854 16.7659V15.6524H48.7187V17.5902H50.4542V19.0799H48.7187V22.1747C48.7187 22.8684 49.0796 23.2599 49.7451 23.2599C49.9474 23.2599 50.1931 23.2305 50.3377 23.187V24.6909C50.1214 24.7485 49.7157 24.792 49.3971 24.792C47.7768 24.792 46.9385 23.8949 46.9385 22.1747H46.9397Z" fill="#EC0000"/>
<path d="M51.336 21.1623C51.336 18.9494 52.8258 17.4161 54.9516 17.4161C57.0775 17.4161 58.5532 18.9353 58.5532 21.1188C58.5532 21.2928 58.5238 21.5668 58.4955 21.7549H53.1444C53.2749 22.7238 54.0992 23.3752 55.1551 23.3752C55.9358 23.3752 56.6154 23.0859 57.0646 22.565L58.1487 23.6209C57.4973 24.4593 56.3697 24.9084 55.0681 24.9084C52.8693 24.9084 51.3372 23.3611 51.3372 21.1623H51.336ZM53.1444 20.4392H56.7459C56.6307 19.4985 55.9076 18.8624 54.9375 18.8624C53.9675 18.8624 53.2455 19.4985 53.1444 20.4392Z" fill="#EC0000"/>
<path d="M60.0417 17.5902H61.7337V18.7766H61.7631C62.11 17.9664 62.7461 17.5326 63.5856 17.5326C63.8032 17.5326 64.1065 17.562 64.2218 17.6043V19.3104C64.0195 19.2528 63.6291 19.2093 63.3399 19.2093C62.4286 19.2093 61.836 19.903 61.836 20.9742V24.7344H60.0429V17.5902H60.0417Z" fill="#EC0000"/>
<path d="M64.7285 21.1917C64.7285 18.9788 66.1889 17.4173 68.2571 17.4173C69.2119 17.4173 69.9927 17.8371 70.4841 18.6037H70.5135V14.2509H72.3067V24.7368H70.6147V23.6233H70.5853C70.122 24.4334 69.2542 24.9108 68.2571 24.9108C66.1889 24.9108 64.7285 23.3634 64.7285 21.194V21.1917ZM70.5135 21.1623C70.5135 19.8748 69.7175 19.0223 68.5464 19.0223C67.3753 19.0223 66.5652 19.8901 66.5652 21.1623C66.5652 22.4345 67.3612 23.3023 68.5464 23.3023C69.7316 23.3023 70.5135 22.4486 70.5135 21.1623Z" fill="#EC0000"/>
<path d="M73.68 22.6956C73.68 21.321 74.8229 20.4968 76.7312 20.4827L78.1199 20.4686V20.2369C78.1199 19.3986 77.5849 18.9647 76.616 18.9647C75.9799 18.9647 75.4155 19.2104 75.0251 19.6584L73.941 18.6025C74.563 17.8359 75.5613 17.4161 76.79 17.4161C78.6984 17.4161 79.9142 18.4579 79.9142 20.1205V22.9554C79.9142 23.2153 80.0294 23.3317 80.3186 23.3317H80.4492V24.7344H79.6108C78.9312 24.7344 78.4679 24.4158 78.3233 23.8961H78.2939C77.8459 24.5475 77.1075 24.9084 76.2115 24.9084C74.7077 24.9084 73.6812 24.0113 73.6812 22.6956H73.68ZM78.1199 22.0735V21.6691L76.9347 21.6832C75.994 21.6973 75.4884 22.03 75.4884 22.652C75.4884 23.2012 75.9223 23.5927 76.5302 23.5927C77.4697 23.5927 78.121 22.9707 78.121 22.0735H78.1199Z" fill="#EC0000"/>
<path d="M81.8507 17.5902H83.5286V18.559H83.558C83.9202 17.8218 84.5563 17.4161 85.3805 17.4161C86.3059 17.4161 87.0008 17.8206 87.4347 18.6308C87.8685 17.85 88.6634 17.4161 89.6758 17.4161C91.4407 17.4161 92.2931 18.3991 92.2931 20.4098V24.7344H90.5V20.7143C90.5 19.5432 90.0955 18.9788 89.256 18.9788C88.4165 18.9788 87.9685 19.6008 87.9685 20.7719V24.7344H86.1754V20.7143C86.1754 19.5279 85.785 18.9788 84.9314 18.9788C84.0777 18.9788 83.6438 19.6149 83.6438 20.7719V24.7344H81.8507V17.5902Z" fill="#EC0000"/>
<path d="M17.5749 5.85673C17.5749 3.00773 19.5702 0.99709 22.391 0.99709C23.8232 0.99709 25.0237 1.46036 25.8761 2.38573L24.6321 3.57212C24.0971 2.97951 23.3305 2.63147 22.4192 2.63147C20.7131 2.63147 19.5267 3.96249 19.5267 5.85673C19.5267 7.75096 20.6837 9.1396 22.3475 9.1396C23.8667 9.1396 24.9214 8.27185 24.9214 7.01373V6.76798H22.6509V5.19122H26.8309V6.65158C26.8309 9.05259 24.9649 10.7446 22.2899 10.7446C19.6149 10.7446 17.5749 8.71983 17.5749 5.85673Z" fill="#EC0000"/>
<path d="M28.0467 6.99962C28.0467 4.78674 29.5364 3.25348 31.6623 3.25348C33.7882 3.25348 35.2638 4.77263 35.2638 6.95611C35.2638 7.13013 35.2344 7.4041 35.2062 7.59223H29.8551C29.9856 8.5611 30.8098 9.2125 31.8657 9.2125C32.6465 9.2125 33.3261 8.92325 33.7752 8.40236L34.8605 9.45824C34.2091 10.2966 33.0815 10.7458 31.7799 10.7458C29.5811 10.7458 28.049 9.19839 28.049 6.99962H28.0467ZM29.8551 6.27649H33.4566C33.3414 5.33584 32.6182 4.69973 31.6482 4.69973C30.6782 4.69973 29.9562 5.33584 29.8551 6.27649Z" fill="#EC0000"/>
<path d="M36.7524 3.42632H38.4303V4.39519H38.4597C38.8218 3.65796 39.458 3.2523 40.2822 3.2523C41.2076 3.2523 41.9025 3.65678 42.3363 4.46692C42.7702 3.68618 43.5662 3.2523 44.5774 3.2523C46.3423 3.2523 47.1948 4.23528 47.1948 6.24592V10.5706H45.4017V6.55046C45.4017 5.37935 44.9972 4.81496 44.1577 4.81496C43.3181 4.81496 42.8702 5.43696 42.8702 6.60807V10.5706H41.077V6.55046C41.077 5.36406 40.6867 4.81496 39.833 4.81496C38.9794 4.81496 38.5455 5.45107 38.5455 6.60807V10.5706H36.7524V3.42632Z" fill="#EC0000"/>
<path d="M48.6117 6.99962C48.6117 4.78674 50.1014 3.25348 52.2273 3.25348C54.3532 3.25348 55.8288 4.77263 55.8288 6.95611C55.8288 7.13013 55.7994 7.4041 55.7712 7.59223H50.4201C50.5506 8.5611 51.3748 9.2125 52.4307 9.2125C53.2114 9.2125 53.8911 8.92325 54.3402 8.40236L55.4243 9.45824C54.7729 10.2966 53.6453 10.7458 52.3437 10.7458C50.1449 10.7458 48.6128 9.19839 48.6128 6.99962H48.6117ZM50.4201 6.27649H54.0216C53.9063 5.33584 53.1832 4.69973 52.2144 4.69973C51.2455 4.69973 50.5224 5.33584 50.4212 6.27649H50.4201Z" fill="#EC0000"/>
<path d="M56.8694 6.99962C56.8694 4.78674 58.3591 3.25348 60.485 3.25348C62.6109 3.25348 64.0865 4.77263 64.0865 6.95611C64.0865 7.13013 64.0571 7.4041 64.0289 7.59223H58.6778C58.8083 8.5611 59.6326 9.2125 60.6884 9.2125C61.4692 9.2125 62.1488 8.92325 62.598 8.40236L63.6821 9.45824C63.0307 10.2966 61.9031 10.7458 60.6014 10.7458C58.4027 10.7458 56.8706 9.19839 56.8706 6.99962H56.8694ZM58.6778 6.27649H62.2793C62.1641 5.33584 61.441 4.69973 60.4709 4.69973C59.5009 4.69973 58.7789 5.33584 58.6778 6.27649Z" fill="#EC0000"/>
<path d="M65.5763 3.42632H67.2683V4.39519H67.2977C67.6304 3.68618 68.3536 3.2523 69.1919 3.2523C70.985 3.2523 71.9104 4.27879 71.9104 6.24592V10.5706H70.1173V6.59396C70.1173 5.37935 69.6834 4.81496 68.7722 4.81496C67.8609 4.81496 67.3694 5.45107 67.3694 6.63747V10.5717H65.5763V3.42632Z" fill="#EC0000"/>
<path d="M74.2103 8.01199V4.91725H72.9804V3.4275H73.6318C74.2244 3.4275 74.456 3.19586 74.456 2.60325V1.48858H75.9893V3.42632H77.7248V4.91608H75.9893V8.01082C75.9893 8.70455 76.3503 9.09609 77.0158 9.09609C77.218 9.09609 77.4638 9.0667 77.6084 9.02319V10.5271C77.3921 10.5847 76.9864 10.6282 76.6677 10.6282C75.0475 10.6282 74.2091 9.73103 74.2091 8.01082L74.2103 8.01199Z" fill="#EC0000"/>
<path d="M78.6067 6.99962C78.6067 4.78674 80.0964 3.25348 82.2223 3.25348C84.3482 3.25348 85.8238 4.77263 85.8238 6.95611C85.8238 7.13013 85.7944 7.4041 85.7662 7.59223H80.4151C80.5456 8.5611 81.3698 9.2125 82.4257 9.2125C83.2064 9.2125 83.8861 8.92325 84.3352 8.40236L85.4193 9.45824C84.7679 10.2966 83.6403 10.7458 82.3387 10.7458C80.1399 10.7458 78.6078 9.19839 78.6078 6.99962H78.6067ZM80.4151 6.27649H84.0166C83.9014 5.33584 83.1782 4.69973 82.2082 4.69973C81.2381 4.69973 80.5162 5.33584 80.4151 6.27649Z" fill="#EC0000"/>
<path d="M0 37.6484L3.52744 34.1209L0 30.5935L2.35163 28.2419L5.87907 31.7693L9.40651 28.2419L11.7581 30.5935L8.23069 34.1209L11.7581 37.6484L9.40651 40L5.87907 36.4726L2.35163 40L0 37.6484Z" fill="#EC0000"/>
<path d="M0 9.40651L3.52744 5.87907L0 2.35163L2.35163 0L5.87907 3.52744L9.40651 0L11.7581 2.35163L8.23069 5.87907L11.7581 9.40651L9.40651 11.7581L5.87907 8.23069L2.3528 11.7581L0 9.40651Z" fill="#EC0000"/>
<path d="M0 23.5398L3.52744 20.0123L0 16.4849L2.35163 14.1333L5.87907 17.6607L9.40651 14.1333L11.7581 16.4849L8.23069 20.0123L11.7581 23.5398L9.40651 25.8914L5.87907 22.364L2.35163 25.8914L0 23.5398Z" fill="#EC0000"/>
</svg>
