<svg width="145" height="43" viewBox="0 0 145 43" fill="none" xmlns="http://www.w3.org/2000/svg">
<path d="M17.13 29.86H19.2L21.59 37.08H21.62L24.04 29.86H26.02L22.66 39.26H20.49L17.13 29.86Z" fill="black"/>
<path d="M26.5 34.55C26.5 31.7 28.5 29.69 31.32 29.69C32.75 29.69 33.95 30.15 34.81 31.08L33.57 32.27C33.03 31.68 32.27 31.33 31.36 31.33C29.65 31.33 28.47 32.66 28.47 34.56C28.47 36.46 29.63 37.84 31.29 37.84C32.81 37.84 33.86 36.97 33.86 35.71V35.46H31.59V33.8801H35.77V35.34C35.77 37.7401 33.9 39.43 31.23 39.43C28.56 39.43 26.52 37.41 26.52 34.5401L26.5 34.55Z" fill="black"/>
<path d="M40.43 29.86H42.6L46.36 39.26H44.35L43.57 37.19H39.39L38.61 39.26H36.67L40.43 29.86ZM39.95 35.6301H42.99L41.49 31.67H41.46L39.96 35.6301H39.95Z" fill="black"/>
<path d="M50.38 29.86H52.45L54.84 37.08H54.87L57.29 29.86H59.27L55.91 39.26H53.74L50.38 29.86Z" fill="black"/>
<path d="M59.42 35.69C59.42 33.48 60.91 31.94 63.04 31.94C65.17 31.94 66.64 33.46 66.64 35.64C66.64 35.81 66.61 36.09 66.58 36.28H61.23C61.36 37.25 62.18 37.9 63.24 37.9C64.02 37.9 64.7 37.6101 65.15 37.09L66.23 38.15C65.58 38.99 64.45 39.44 63.15 39.44C60.95 39.44 59.42 37.89 59.42 35.69ZM61.23 34.97H64.83C64.71 34.03 63.99 33.39 63.02 33.39C62.05 33.39 61.33 34.03 61.23 34.97Z" fill="black"/>
<path d="M68.13 32.12H69.82V33.31H69.85C70.2 32.5 70.83 32.07 71.67 32.07C71.89 32.07 72.19 32.1 72.31 32.14V33.85C72.11 33.79 71.72 33.75 71.43 33.75C70.52 33.75 69.93 34.44 69.93 35.51V39.2701H68.14V32.13L68.13 32.12Z" fill="black"/>
<path d="M73.01 38.06L76.41 33.6101H73.11V32.12H78.84V33.32L75.44 37.7701H78.94V39.26H73.01V38.06Z" fill="black"/>
<path d="M79.88 35.69C79.88 33.48 81.37 31.94 83.5 31.94C85.63 31.94 87.1 33.46 87.1 35.64C87.1 35.81 87.07 36.09 87.04 36.28H81.69C81.82 37.25 82.64 37.9 83.7 37.9C84.48 37.9 85.16 37.6101 85.61 37.09L86.69 38.15C86.04 38.99 84.91 39.44 83.61 39.44C81.41 39.44 79.88 37.89 79.88 35.69ZM81.69 34.97H85.29C85.17 34.03 84.45 33.39 83.48 33.39C82.51 33.39 81.79 34.03 81.69 34.97Z" fill="black"/>
<path d="M90.38 39.26H88.59V28.77H90.38V35.34H90.41L93.07 32.11H95.24L92.48 35.28L95.37 39.26H93.2L91.22 36.4501L90.38 37.42V39.26Z" fill="black"/>
<path d="M95.68 35.69C95.68 33.48 97.17 31.94 99.3 31.94C101.43 31.94 102.9 33.46 102.9 35.64C102.9 35.81 102.87 36.09 102.84 36.28H97.49C97.62 37.25 98.44 37.9 99.5 37.9C100.28 37.9 100.96 37.6101 101.41 37.09L102.49 38.15C101.84 38.99 100.71 39.44 99.41 39.44C97.21 39.44 95.68 37.89 95.68 35.69ZM97.49 34.97H101.09C100.97 34.03 100.25 33.39 99.28 33.39C98.31 33.39 97.59 34.03 97.49 34.97Z" fill="black"/>
<path d="M104.38 32.12H106.07V33.31H106.1C106.45 32.5 107.08 32.07 107.92 32.07C108.14 32.07 108.44 32.1 108.56 32.14V33.85C108.36 33.79 107.97 33.75 107.68 33.75C106.77 33.75 106.18 34.44 106.18 35.51V39.2701H104.39V32.13L104.38 32.12Z" fill="black"/>
<path d="M110.65 31.21C110.03 31.21 109.58 30.7801 109.58 30.17C109.58 29.56 110.03 29.13 110.65 29.13C111.27 29.13 111.72 29.56 111.72 30.17C111.72 30.7801 111.27 31.21 110.65 31.21ZM109.75 32.12H111.54V39.26H109.75V32.12Z" fill="black"/>
<path d="M113.48 32.12H115.17V33.09H115.2C115.53 32.3801 116.26 31.95 117.09 31.95C118.88 31.95 119.81 32.98 119.81 34.94V39.26H118.02V35.28C118.02 34.07 117.59 33.5 116.67 33.5C115.75 33.5 115.27 34.14 115.27 35.32V39.25H113.48V32.11V32.12Z" fill="black"/>
<path d="M121.55 40.97L122.71 39.84C123.1 40.2901 123.81 40.56 124.58 40.56C125.88 40.56 126.6 39.9701 126.6 38.93V37.83H126.57C126.17 38.58 125.41 39 124.47 39C122.46 39 121.13 37.58 121.13 35.47C121.13 33.36 122.5 31.96 124.47 31.96C125.48 31.96 126.28 32.41 126.67 33.17H126.7V32.11H128.39V38.99C128.39 40.9 126.93 42.1 124.6 42.1C123.27 42.1 122.17 41.68 121.55 40.96V40.97ZM126.61 35.47C126.61 34.28 125.87 33.46 124.79 33.46C123.71 33.46 122.97 34.28 122.97 35.47C122.97 36.66 123.72 37.47 124.79 37.47C125.86 37.47 126.61 36.65 126.61 35.47Z" fill="black"/>
<path d="M129.88 35.69C129.88 33.48 131.37 31.94 133.5 31.94C135.63 31.94 137.1 33.46 137.1 35.64C137.1 35.81 137.07 36.09 137.04 36.28H131.69C131.82 37.25 132.64 37.9 133.7 37.9C134.48 37.9 135.16 37.6101 135.61 37.09L136.69 38.15C136.04 38.99 134.91 39.44 133.61 39.44C131.41 39.44 129.88 37.89 129.88 35.69ZM131.69 34.97H135.29C135.17 34.03 134.45 33.39 133.48 33.39C132.51 33.39 131.79 34.03 131.69 34.97Z" fill="black"/>
<path d="M138.59 32.12H140.28V33.09H140.31C140.64 32.3801 141.37 31.95 142.2 31.95C143.99 31.95 144.92 32.98 144.92 34.94V39.26H143.13V35.28C143.13 34.07 142.7 33.5 141.78 33.5C140.86 33.5 140.38 34.14 140.38 35.32V39.25H138.59V32.11V32.12Z" fill="black"/>
<path d="M20.94 15.88H23.11L26.87 25.28H24.86L24.08 23.21H19.9L19.12 25.28H17.18L20.94 15.88ZM20.46 21.65H23.5L22 17.69H21.97L20.47 21.65H20.46Z" fill="#EC0000"/>
<path d="M28.05 18.14H29.73V19.11H29.76C30.12 18.37 30.76 17.97 31.58 17.97C32.51 17.97 33.2 18.37 33.63 19.18C34.06 18.4 34.86 17.97 35.87 17.97C37.63 17.97 38.49 18.95 38.49 20.96V25.28H36.7V21.26C36.7 20.09 36.3 19.52 35.46 19.52C34.62 19.52 34.17 20.14 34.17 21.31V25.27H32.38V21.25C32.38 20.06 31.99 19.51 31.14 19.51C30.29 19.51 29.85 20.15 29.85 21.3V25.26H28.06V18.12L28.05 18.14Z" fill="#EC0000"/>
<path d="M41.79 22.29C40.82 22 39.88 21.48 39.88 20.18C39.88 18.88 40.98 17.97 42.61 17.97C43.71 17.97 44.56 18.3601 45.04 19.08L44.01 20.11C43.65 19.66 43.16 19.42 42.62 19.42C42.01 19.42 41.64 19.69 41.64 20.13C41.64 20.71 42.25 20.81 43.13 21.08C44.1 21.3701 45.04 21.89 45.04 23.19C45.04 24.49 43.88 25.46 42.18 25.46C41.07 25.46 40.17 25.07 39.65 24.33L40.68 23.3C41.07 23.76 41.59 24.01 42.17 24.01C42.86 24.01 43.28 23.72 43.28 23.24C43.28 22.66 42.67 22.56 41.79 22.29Z" fill="#EC0000"/>
<path d="M46.94 22.72V19.63H45.71V18.14H46.36C46.95 18.14 47.18 17.91 47.18 17.32V16.21H48.71V18.15H50.45V19.64H48.71V22.73C48.71 23.42 49.07 23.81 49.74 23.81C49.94 23.81 50.19 23.7801 50.33 23.74V25.24C50.11 25.3 49.71 25.34 49.39 25.34C47.77 25.34 46.93 24.44 46.93 22.72H46.94Z" fill="#EC0000"/>
<path d="M51.34 21.71C51.34 19.5 52.83 17.96 54.96 17.96C57.09 17.96 58.56 19.48 58.56 21.66C58.56 21.83 58.53 22.11 58.5 22.3H53.15C53.28 23.27 54.1 23.92 55.16 23.92C55.94 23.92 56.62 23.63 57.07 23.11L58.15 24.17C57.5 25.01 56.37 25.46 55.07 25.46C52.87 25.46 51.34 23.91 51.34 21.71ZM53.15 20.99H56.75C56.63 20.05 55.91 19.41 54.94 19.41C53.97 19.41 53.25 20.05 53.15 20.99Z" fill="#EC0000"/>
<path d="M60.04 18.14H61.73V19.33H61.76C62.11 18.5201 62.74 18.09 63.58 18.09C63.8 18.09 64.1 18.12 64.22 18.16V19.87C64.02 19.81 63.63 19.77 63.34 19.77C62.43 19.77 61.84 20.46 61.84 21.53V25.29H60.05V18.15L60.04 18.14Z" fill="#EC0000"/>
<path d="M64.73 21.74C64.73 19.53 66.19 17.97 68.26 17.97C69.21 17.97 70 18.39 70.49 19.16H70.52V14.81H72.31V25.3H70.62V24.19H70.59C70.13 25 69.26 25.48 68.26 25.48C66.19 25.48 64.73 23.93 64.73 21.76V21.74ZM70.52 21.71C70.52 20.42 69.72 19.57 68.55 19.57C67.38 19.57 66.57 20.44 66.57 21.71C66.57 22.98 67.37 23.85 68.55 23.85C69.73 23.85 70.52 23 70.52 21.71Z" fill="#EC0000"/>
<path d="M73.68 23.25C73.68 21.88 74.82 21.05 76.73 21.04H78.12V20.79C78.12 19.95 77.58 19.52 76.62 19.52C75.98 19.52 75.42 19.77 75.03 20.21L73.95 19.15C74.57 18.38 75.57 17.96 76.8 17.96C78.71 17.96 79.92 19 79.92 20.66V23.49C79.92 23.75 80.04 23.87 80.32 23.87H80.45V25.27H79.61C78.93 25.27 78.47 24.95 78.32 24.43H78.29C77.84 25.08 77.1 25.44 76.21 25.44C74.71 25.44 73.68 24.54 73.68 23.23V23.25ZM78.12 22.63V22.23H76.93C75.99 22.26 75.48 22.59 75.48 23.21C75.48 23.76 75.91 24.15 76.52 24.15C77.46 24.15 78.11 23.53 78.11 22.63H78.12Z" fill="#EC0000"/>
<path d="M81.85 18.14H83.53V19.11H83.56C83.92 18.37 84.56 17.97 85.38 17.97C86.31 17.97 87 18.37 87.43 19.18C87.86 18.4 88.66 17.97 89.67 17.97C91.43 17.97 92.29 18.95 92.29 20.96V25.28H90.5V21.26C90.5 20.09 90.1 19.52 89.26 19.52C88.42 19.52 87.97 20.14 87.97 21.31V25.27H86.18V21.25C86.18 20.06 85.79 19.51 84.94 19.51C84.09 19.51 83.65 20.15 83.65 21.3V25.26H81.86V18.12L81.85 18.14Z" fill="#EC0000"/>
<path d="M17.58 6.41005C17.58 3.56005 19.58 1.55005 22.4 1.55005C23.83 1.55005 25.03 2.01005 25.89 2.94005L24.65 4.13005C24.11 3.54005 23.35 3.19005 22.44 3.19005C20.73 3.19005 19.55 4.52005 19.55 6.42005C19.55 8.32005 20.71 9.70005 22.37 9.70005C23.89 9.70005 24.94 8.83005 24.94 7.57005V7.32005H22.67V5.74005H26.85V7.20005C26.85 9.60005 24.98 11.29 22.31 11.29C19.64 11.29 17.6 9.27005 17.6 6.40005L17.58 6.41005Z" fill="#EC0000"/>
<path d="M28.05 7.55005C28.05 5.34005 29.54 3.80005 31.67 3.80005C33.8 3.80005 35.27 5.32005 35.27 7.50005C35.27 7.67005 35.24 7.95005 35.21 8.14005H29.86C29.99 9.11005 30.81 9.76005 31.87 9.76005C32.65 9.76005 33.33 9.47005 33.78 8.95005L34.86 10.01C34.21 10.85 33.08 11.3 31.78 11.3C29.58 11.3 28.05 9.75005 28.05 7.55005ZM29.86 6.83005H33.46C33.34 5.89005 32.62 5.25005 31.65 5.25005C30.68 5.25005 29.96 5.89005 29.86 6.83005Z" fill="#EC0000"/>
<path d="M36.75 3.98005H38.43V4.95005H38.46C38.82 4.21005 39.46 3.81005 40.28 3.81005C41.21 3.81005 41.9 4.21005 42.33 5.02005C42.76 4.24005 43.56 3.81005 44.57 3.81005C46.33 3.81005 47.19 4.79005 47.19 6.80005V11.12H45.4V7.10005C45.4 5.93005 45 5.36005 44.16 5.36005C43.32 5.36005 42.87 5.98005 42.87 7.15005V11.11H41.08V7.10005C41.08 5.91005 40.69 5.36005 39.84 5.36005C38.99 5.36005 38.55 6.00005 38.55 7.15005V11.11H36.76V3.98005H36.75Z" fill="#EC0000"/>
<path d="M48.61 7.55005C48.61 5.34005 50.1 3.80005 52.23 3.80005C54.36 3.80005 55.83 5.32005 55.83 7.50005C55.83 7.67005 55.8 7.95005 55.77 8.14005H50.42C50.55 9.11005 51.37 9.76005 52.43 9.76005C53.21 9.76005 53.89 9.47005 54.34 8.95005L55.42 10.01C54.77 10.85 53.64 11.3 52.34 11.3C50.14 11.3 48.61 9.75005 48.61 7.55005ZM50.42 6.83005H54.02C53.9 5.89005 53.18 5.25005 52.21 5.25005C51.24 5.25005 50.52 5.89005 50.42 6.83005Z" fill="#EC0000"/>
<path d="M56.87 7.55005C56.87 5.34005 58.36 3.80005 60.49 3.80005C62.62 3.80005 64.09 5.32005 64.09 7.50005C64.09 7.67005 64.06 7.95005 64.03 8.14005H58.68C58.81 9.11005 59.63 9.76005 60.69 9.76005C61.47 9.76005 62.15 9.47005 62.6 8.95005L63.68 10.01C63.03 10.85 61.9 11.3 60.6 11.3C58.4 11.3 56.87 9.75005 56.87 7.55005ZM58.68 6.83005H62.28C62.16 5.89005 61.44 5.25005 60.47 5.25005C59.5 5.25005 58.78 5.89005 58.68 6.83005Z" fill="#EC0000"/>
<path d="M65.58 3.98005H67.27V4.95005H67.3C67.63 4.24005 68.36 3.81005 69.19 3.81005C70.98 3.81005 71.91 4.84005 71.91 6.80005V11.12H70.12V7.14005C70.12 5.93005 69.69 5.36005 68.78 5.36005C67.87 5.36005 67.38 6.00005 67.38 7.18005V11.11H65.59V3.98005H65.58Z" fill="#EC0000"/>
<path d="M74.21 8.56005V5.47005H72.98V3.98005H73.63C74.22 3.98005 74.45 3.75005 74.45 3.16005V2.04005H75.98V3.98005H77.72V5.47005H75.98V8.56005C75.98 9.25005 76.34 9.64005 77.01 9.64005C77.21 9.64005 77.46 9.61005 77.6 9.57005V11.07C77.38 11.13 76.98 11.17 76.66 11.17C75.04 11.17 74.2 10.27 74.2 8.55005L74.21 8.56005Z" fill="#EC0000"/>
<path d="M78.61 7.55005C78.61 5.34005 80.1 3.80005 82.23 3.80005C84.36 3.80005 85.83 5.32005 85.83 7.50005C85.83 7.67005 85.8 7.95005 85.77 8.14005H80.42C80.55 9.11005 81.37 9.76005 82.43 9.76005C83.21 9.76005 83.89 9.47005 84.34 8.95005L85.42 10.01C84.77 10.85 83.64 11.3 82.34 11.3C80.14 11.3 78.61 9.75005 78.61 7.55005ZM80.42 6.83005H84.02C83.9 5.89005 83.18 5.25005 82.21 5.25005C81.24 5.25005 80.52 5.89005 80.42 6.83005Z" fill="#EC0000"/>
<path d="M0 38.2001L3.53 34.67L0 31.14L2.35 28.79L5.88 32.32L9.41 28.79L11.76 31.14L8.23 34.67L11.76 38.2001L9.41 40.55L5.88 37.0201L2.35 40.55L0 38.2001Z" fill="#EC0000"/>
<path d="M0 9.96005L3.53 6.43005L0 2.90005L2.35 0.550049L5.88 4.08005L9.41 0.550049L11.76 2.90005L8.23 6.43005L11.76 9.96005L9.41 12.31L5.88 8.78005L2.35 12.31L0 9.96005Z" fill="#EC0000"/>
<path d="M0 24.09L3.53 20.56L0 17.03L2.35 14.68L5.88 18.21L9.41 14.68L11.76 17.03L8.23 20.56L11.76 24.09L9.41 26.44L5.88 22.91L2.35 26.44L0 24.09Z" fill="#EC0000"/>
</svg>
