<svg viewBox="0 0 24 24" xmlns="http://www.w3.org/2000/svg"><path fill-rule="evenodd" clip-rule="evenodd" d="M15.8114 2.50848C16.5136 2.57887 17.6063 2.72686 18.6171 2.94295C19.1214 3.05076 19.626 3.17982 20.0586 3.33218C20.4537 3.47141 20.9242 3.67401 21.2395 3.99001L21.5 4.25107V8.74373L21.4962 8.78426C21.3409 10.4946 20.0305 14.165 15.9571 15.2787L15.723 15.3428L15.4889 15.2787C15.4124 15.2578 15.3368 15.2363 15.2623 15.2137C15.2618 15.1904 15.2601 15.167 15.2594 15.1439C15.3116 16.9835 14.7671 19.3447 12.5975 21.186L12.4123 21.3434L12.1735 21.3839C8.01179 22.1002 5.27605 19.3283 4.41439 17.844L4.39464 17.8092L2.5 13.7378L2.626 13.391C2.77861 12.9707 3.12001 12.5876 3.41958 12.2939C3.74733 11.9727 4.14952 11.6421 4.56107 11.3308C5.38599 10.7068 6.31435 10.1106 6.92114 9.74933L6.9973 9.70315L7.08193 9.67393C7.74809 9.44026 8.80075 9.11079 9.80776 8.8785C9.9076 8.85548 10.0077 8.83283 10.1077 8.81159C10.057 8.82236 10.0061 8.83332 9.95539 8.84458C9.95327 8.82422 9.95155 8.8041 9.94975 8.78426L9.94598 8.74373V4.25107L10.2064 3.99001C10.5218 3.67401 10.9923 3.47141 11.3874 3.33218C11.82 3.17982 12.3246 3.05076 12.8288 2.94295C13.8397 2.72686 14.9324 2.57887 15.6346 2.50848L15.723 2.5L15.8114 2.50848ZM12.1556 15.7565C11.8478 15.554 11.4343 15.6403 11.2323 15.9488C11.0023 16.2998 10.6829 16.5871 10.2864 16.7725C9.88967 16.9579 9.46423 17.0186 9.04803 16.9694C8.68253 16.9264 8.35112 17.1883 8.30804 17.5547C8.26507 17.921 8.52657 18.2531 8.89194 18.2964C9.5431 18.3733 10.2187 18.2784 10.8496 17.9835C11.4803 17.6887 11.9867 17.2313 12.3465 16.682C12.5484 16.3736 12.4632 15.959 12.1556 15.7565ZM8.12845 13.8047C7.7244 13.7145 7.28814 13.75 6.88447 13.9385C6.48068 14.1272 6.17263 14.44 5.98181 14.8084C5.8124 15.1358 5.94008 15.5394 6.26671 15.7094C6.59341 15.8793 6.996 15.7513 7.16561 15.4238C7.22825 15.303 7.32438 15.2072 7.44769 15.1496C7.57102 15.092 7.70623 15.0794 7.83884 15.109C8.19798 15.1891 8.55414 14.9628 8.63431 14.6029C8.71438 14.2428 8.48777 13.8849 8.12845 13.8047ZM11.552 12.2054C11.1478 12.1151 10.7117 12.1505 10.308 12.3392C9.9042 12.5279 9.59614 12.8398 9.40533 13.2081C9.23577 13.5356 9.36354 13.9391 9.69023 14.1091C10.0169 14.279 10.4195 14.151 10.5891 13.8235C10.6518 13.7028 10.748 13.6078 10.8712 13.5502C10.9945 13.4926 11.1288 13.4802 11.2614 13.5097C11.6207 13.59 11.9777 13.3628 12.0578 13.0027C12.1379 12.6426 11.9112 12.2857 11.552 12.2054ZM15.723 9.63152C15.0269 9.63152 14.3748 9.8307 13.8171 10.1763C13.5039 10.3703 13.4072 10.7822 13.6008 11.0961C13.7944 11.4098 14.2054 11.5068 14.5185 11.3129C14.8749 11.0921 15.2854 10.967 15.723 10.967C16.1606 10.967 16.5711 11.0921 16.9275 11.3129C17.2406 11.5068 17.6516 11.4098 17.8452 11.0961C18.0387 10.7823 17.942 10.3703 17.6289 10.1763C17.0712 9.83071 16.4191 9.63154 15.723 9.63152ZM15.14 6.72972C14.9156 6.43728 14.4972 6.38227 14.2054 6.6072C14.0977 6.69016 13.97 6.73631 13.834 6.73631C13.6981 6.73623 13.5711 6.69003 13.4635 6.6072C13.1717 6.38225 12.7524 6.43722 12.528 6.72972C12.3038 7.02219 12.3585 7.44164 12.6502 7.66651C12.9784 7.91946 13.3886 8.07168 13.834 8.07177C14.2795 8.07177 14.6905 7.91954 15.0187 7.66651C15.3104 7.44154 15.3644 7.02217 15.14 6.72972ZM18.918 6.72972C18.6937 6.4373 18.2752 6.38248 17.9834 6.6072C17.8757 6.6902 17.748 6.73624 17.612 6.73631C17.4759 6.73631 17.3483 6.69019 17.2406 6.6072C16.9488 6.38226 16.5304 6.43725 16.306 6.72972C16.0816 7.02215 16.1356 7.44153 16.4273 7.66651C16.7555 7.91954 17.1665 8.07177 17.612 8.07177C18.0574 8.07169 18.4676 7.91947 18.7958 7.66651C19.0875 7.44164 19.1422 7.0222 18.918 6.72972Z"/></svg>