<svg viewBox="0 0 24 24" xmlns="http://www.w3.org/2000/svg"><path fill-rule="evenodd" clip-rule="evenodd" d="M21 12C21 16.9706 16.9706 21 12 21C7.02944 21 3 16.9706 3 12C3 7.02944 7.02944 3 12 3C16.9706 3 21 7.02944 21 12ZM23 12C23 18.0751 18.0751 23 12 23C5.92487 23 1 18.0751 1 12C1 5.92487 5.92487 1 12 1C18.0751 1 23 5.92487 23 12ZM7 14V16H17V14H7ZM9.5 10.5C9.5 11.3284 8.82843 12 8 12C7.17157 12 6.5 11.3284 6.5 10.5C6.5 9.67157 7.17157 9 8 9C8.82843 9 9.5 9.67157 9.5 10.5ZM16 12C16.8284 12 17.5 11.3284 17.5 10.5C17.5 9.67157 16.8284 9 16 9C15.1716 9 14.5 9.67157 14.5 10.5C14.5 11.3284 15.1716 12 16 12Z"/></svg>