<svg viewBox="0 0 24 24" xmlns="http://www.w3.org/2000/svg"><path d="M10.0498 14.417C10.3518 14.5413 10.6689 14.6377 10.9981 14.7027L10.9999 14.703V19.202C9.59094 16.7257 7.0038 15.0071 4.0012 14.8088C4.00032 14.8578 3.99988 14.9069 3.99988 14.9561C3.99988 19.0486 7.05621 22.4274 11.0109 22.9343L11.0115 22.9451C11.3213 22.9814 11.6365 23 11.9561 23L12 22.9999L12.0438 23C12.3634 23 12.6786 22.9814 12.9885 22.9451L12.989 22.9343C16.9438 22.4274 20.0001 19.0486 20.0001 14.9561C20.0001 14.9069 19.9996 14.8578 19.9988 14.8088C16.9963 15.0068 14.4092 16.725 12.9999 19.2008V14.703C15.6388 14.1831 17.4993 11.6459 17.0593 8.87419L16.9999 8.5L16.4999 2.9L13.9999 4.2L11.9999 1L9.99994 4.2L7.49995 2.9L6.99995 8.5L6.94055 8.87419C6.5556 11.2994 7.93192 13.5451 10.0498 14.417Z"/></svg>