<svg viewBox="0 0 24 24" xmlns="http://www.w3.org/2000/svg"><path fill-rule="evenodd" clip-rule="evenodd" d="M13.5385 8.54762V2.5H2.46154V17.5L2 19.5V21.5H14V19.5L13.5385 17.5V10.5476H14.79C15.2458 10.5476 15.6154 10.9172 15.6154 11.373V18.5577C15.6154 20.1827 16.9327 21.5 18.5577 21.5C20.1827 21.5 21.5 20.1827 21.5 18.5577V7.17514L16.9503 5.55777L16.2804 7.44223L17.3681 7.82889L17.328 8.05602C17.0889 9.40902 18.2336 10.531 19.5 10.3961V18.5577C19.5 19.0781 19.0781 19.5 18.5577 19.5C18.0373 19.5 17.6154 19.0781 17.6154 18.5577V11.373C17.6154 9.81259 16.3504 8.54762 14.79 8.54762H13.5385ZM11.9474 19.5H4.05256L4.46154 17.7278V4.5H11.5385V17.7278L11.9474 19.5ZM5.5 5.5H10.5V9.5H5.5V5.5Z"/></svg>