<svg viewBox="0 0 24 24" xmlns="http://www.w3.org/2000/svg"><path fill-rule="evenodd" clip-rule="evenodd" d="M10 4H1V20H23V4H14V7H10V4ZM20 12.3H13V10.3H20V12.3ZM13 15.8H18.6V13.8H13V15.8ZM9.76598 10.2974C9.76598 11.29 8.96128 12.0947 7.96863 12.0947C6.97598 12.0947 6.17128 11.29 6.17128 10.2974C6.17128 9.3047 6.97598 8.5 7.96863 8.5C8.96128 8.5 9.76598 9.3047 9.76598 10.2974ZM4.99064 13.5474C5.07747 13.0513 5.50833 12.6892 6.01205 12.6892H9.96053C10.4642 12.6892 10.8951 13.0513 10.9819 13.5474L11.3761 15.8H4.59644L4.99064 13.5474Z"/></svg>