<svg xmlns="http://www.w3.org/2000/svg" width="64" height="64" fill="none"><g clip-path="url(#a)"><path fill="#fff" d="M64 .64H0v64h64v-64Z"/><path fill="#EC0000" d="m24.22 54.47 4.36-4.36-4.36-4.36 2.91-2.91 4.36 4.36 4.36-4.36 2.91 2.91-4.36 4.36 4.36 4.36-2.91 2.91-4.36-4.36-4.36 4.36-2.91-2.91ZM24.22 37.03l4.36-4.36-4.36-4.37 2.91-2.9 4.36 4.36 4.36-4.36 2.91 2.9-4.36 4.37 4.36 4.36-2.91 2.9-4.36-4.36-4.36 4.36-2.91-2.9ZM24.22 19.55l4.36-4.36-4.36-4.36 2.91-2.91 4.36 4.36 4.36-4.36 2.91 2.91-4.36 4.36 4.36 4.36-2.91 2.91-4.36-4.36-4.36 4.36-2.91-2.91Z"/></g><defs><clipPath id="a"><path fill="#fff" d="M0 .64h64v64H0z"/></clipPath></defs></svg>