<svg xmlns="http://www.w3.org/2000/svg" width="64" height="64" fill="none"><g clip-path="url(#a)" transform="translate(0 -.64)"><path fill="#fff" d="M64 .64H0v64h64z"/><path fill="#ec0000" d="m24.22 54.47 4.36-4.36-4.36-4.36 2.91-2.91 4.36 4.36 4.36-4.36 2.91 2.91-4.36 4.36 4.36 4.36-2.91 2.91-4.36-4.36-4.36 4.36zm0-17.44 4.36-4.36-4.36-4.37 2.91-2.9 4.36 4.36 4.36-4.36 2.91 2.9-4.36 4.37 4.36 4.36-2.91 2.9-4.36-4.36-4.36 4.36zm0-17.48 4.36-4.36-4.36-4.36 2.91-2.91 4.36 4.36 4.36-4.36 2.91 2.91-4.36 4.36 4.36 4.36-2.91 2.91-4.36-4.36-4.36 4.36z"/></g><defs><clipPath id="a"><path fill="#fff" d="M0 .64h64v64H0Z"/></clipPath></defs></svg>