<svg viewBox="0 0 24 24" xmlns="http://www.w3.org/2000/svg"><path fill-rule="evenodd" clip-rule="evenodd" d="M21.2692 20.5836L19.8586 22L16.1769 18.3034C14.9363 18.9161 13.5457 19.3179 12.005 19.3179C5.00182 19.3179 1 11.2818 1 11.2818C1 11.2818 2.24056 8.81065 4.5316 6.61075L1.35016 3.41637L2.7608 2L21.2692 20.5836ZM8.00318 11.2717C8.00318 13.4917 9.79399 15.2898 12.005 15.2898C12.3552 15.2898 12.6953 15.2295 13.0255 15.1391L8.15325 10.2471C8.0632 10.5786 8.00318 10.9101 8.00318 11.2717Z"/><path d="M16.0068 11.2717C16.0068 9.05173 14.216 7.25364 12.005 7.25364L11.995 7.24359C11.6448 7.24359 11.3047 7.30386 10.9745 7.39427L7.83312 4.24008C9.06368 3.62732 10.4543 3.23556 11.995 3.23556C18.9982 3.23556 23 11.2717 23 11.2717C23 11.2717 21.7694 13.7328 19.4784 15.9327L15.8568 12.2963C15.9468 11.9648 16.0068 11.6333 16.0068 11.2717Z"/></svg>