<svg viewBox="0 0 24 24" xmlns="http://www.w3.org/2000/svg"><path fill-rule="evenodd" clip-rule="evenodd" d="M18.9914 4H15.7414V7.60495C15.9031 8.03931 15.9914 8.50934 15.9914 9.00001C15.9914 11.2092 14.2006 13 11.9914 13C9.78231 13 7.99145 11.2092 7.99145 9.00001C7.99145 8.50934 8.0798 8.03931 8.24145 7.60495V4H6.77476V6.57426L7.3187 8.75001H4.73087L5.27476 6.57442V4H4.99145V2H18.9914V4ZM10.259 8C10.0888 8.29418 9.99145 8.63572 9.99145 9.00001C9.99145 10.1046 10.8869 11 11.9914 11C13.096 11 13.9914 10.1046 13.9914 9.00001C13.9914 8.63572 13.8941 8.29418 13.7239 8H10.259ZM10.2414 4H13.7414V6H10.2414V4ZM7.57866 16.0014C7.13026 16.0254 6.74979 16.3471 6.65477 16.7905L5.49354 22.2095H3.39148L4.69917 16.3714C4.99557 14.9882 6.21796 14 7.63257 14H16.3989C17.8135 14 19.0359 14.9882 19.3323 16.3714L20.6085 22.2095H18.5379L17.3767 16.7905C17.2784 16.3316 16.8743 16.0031 16.4056 16L11.9914 16L7.57866 16.0014ZM13.5772 16H11.9914H10.4056H13.5772Z"/></svg>