<svg viewBox="0 0 24 24" xmlns="http://www.w3.org/2000/svg"><path d="M13.25 14.65C13.25 15.1498 12.9567 15.5811 12.5328 15.7811L13 17.65H11L11.4672 15.7811C11.0433 15.5811 10.75 15.1498 10.75 14.65C10.75 13.9597 11.3096 13.4 12 13.4C12.6904 13.4 13.25 13.9597 13.25 14.65Z"/><path fill-rule="evenodd" clip-rule="evenodd" d="M7 9.5V7.5C7 4.73858 9.23858 2.5 12 2.5C14.7614 2.5 17 4.73858 17 7.5V9.5H20V21.5H4V9.5H7ZM9 9.5V7.5C9 5.84315 10.3431 4.5 12 4.5C13.6569 4.5 15 5.84315 15 7.5V9.5H9ZM6 11.5V19.5H18V11.5H6Z"/></svg>