<svg xmlns="http://www.w3.org/2000/svg" fill="none" viewBox="0 0 89.1966 40">
    <path fill="#EC0000" d="m0 9.0909 3.4091-3.4091-3.4091-3.4091 2.2727-2.2727 3.4091 3.4091 3.4091-3.4091 2.2727 2.2727-3.4091 3.4091 3.4091 3.4091-2.2727 2.2727-3.4091-3.4091-3.408 3.4091Z m0 13.6591 3.4091-3.4091-3.4091-3.4091 2.2727-2.2727 3.4091 3.4091 3.4091-3.4091 2.2727 2.2727-3.4091 3.4091 3.4091 3.4091-2.2727 2.2727-3.4091-3.4091-3.4091 3.4091Z m0 13.6352 3.4091-3.4091-3.4091-3.4091 2.2727-2.2727 3.4091 3.4091 3.4091-3.4091 2.2727 2.2727-3.4091 3.4091 3.4091 3.4091-2.2727 2.2727-3.4091-3.4091-3.4091 3.4091Z"/>
    <path fill="#000" d="M16.9852,5.6602c0-2.7534,1.9284-4.6966,4.6545-4.6966,1.3841,0,2.5443,0.4477,3.3682,1.342l-1.2023,1.1466c-0.517-0.5727-1.258-0.9091-2.1386-0.9091-1.6489,0-2.7955,1.2864-2.7955,3.117s1.1182,3.1727,2.7261,3.1727c1.4682,0,2.4875-0.8386,2.4875-2.0545v-0.2375h-2.1943v-1.5239h4.0398v1.4114c0,2.3205-1.8034,3.9557-4.3886,3.9557s-4.5568-1.9568-4.5568-4.7239Z M27.1886,5.6602c0-2.7534,1.9284-4.6966,4.6545-4.6966,1.3841,0,2.5443,0.4477,3.3682,1.342l-1.2023,1.1466c-0.517-0.5727-1.258-0.9091-2.1386-0.9091-1.6489,0-2.7955,1.2864-2.7955,3.117s1.1182,3.1727,2.7261,3.1727c1.4682,0,2.4875-0.8386,2.4875-2.0545v-0.2375h-2.1943v-1.5239h4.0398v1.4114c0,2.3205-1.8034,3.9557-4.3886,3.9557s-4.5568-1.9568-4.5568-4.7239Z M37.8261,1.1318h3.383c2.7955,0,4.6545,1.817,4.6545,4.5432s-1.9011,4.5432-4.6682,4.5432h-3.3682V1.1318ZM41.0682,8.6375c1.7477,0,2.8932-1.1318,2.8932-2.9489s-1.1182-2.9773-2.8795-2.9773h-1.4114v5.9261h1.3977Z M16.9636,36.0023h1.2295v-6.2614h-1.2295v-1.4114h4.3045v1.4114h-1.2295v6.2614h1.2295v1.4114h-4.3045v-1.4114Z M22.7773,30.5091h1.6352v0.9364h0.0284c0.3216-0.6852,1.0205-1.1045,1.8307-1.1045,1.733,0,2.6273,0.992,2.6273,2.8932v4.1795h-1.733v-3.8443c0-1.1739-0.4193-1.7193-1.3-1.7193s-1.3557,0.6148-1.3557,1.7614v3.8023h-1.733v-6.9045Z M32.058,34.5205c-0.9364-0.2795-1.8455-0.783-1.8455-2.0409s1.0625-2.1386,2.642-2.1386c1.0625,0,1.8875,0.3773,2.3477,1.0761l-0.992,0.992c-0.35-0.433-0.825-0.6705-1.342-0.6705-0.5875,0-0.95,0.2659-0.95,0.6852,0,0.5591,0.5875,0.6568,1.4398,0.9227,0.9364,0.2795,1.8455,0.783,1.8455,2.0409s-1.1182,2.1943-2.767,2.1943c-1.0761,0-1.9432-0.3773-2.4455-1.0898l0.992-0.992c0.3773,0.4477,0.8807,0.6852,1.4398,0.6852,0.6705,0,1.0761-0.2795,1.0761-0.7409,0-0.5591-0.5875-0.6568-1.4398-0.9227Z M36.5875,30.5091h1.6489v1.0761h0.0284c0.4193-0.783,1.258-1.2443,2.2648-1.2443,1.9705,0,3.383,1.4955,3.383,3.592s-1.4114,3.6477-3.383,3.6477c-0.9364,0-1.7057-0.4057-2.1807-1.1466h-0.0284v3.5648h-1.733v-9.4909ZM42.1364,33.9614c0-1.2443-0.7682-2.0682-1.9011-2.0682s-1.9148,0.8386-1.9148,2.0682,0.783,2.0682,1.9148,2.0682,1.9011-0.825,1.9011-2.0682Z M44.917,33.9614c0-2.1386,1.4398-3.6205,3.4943-3.6205s3.4807,1.4682,3.4807,3.5784c0,0.1682-0.0284,0.433-0.0557,0.6148h-5.1716c0.1261,0.9364,0.9227,1.5659,1.9432,1.5659,0.7545,0,1.4114-0.2795,1.8455-0.783l1.0477,1.0205c-0.6295,0.8102-1.7193,1.2443-2.9773,1.2443-2.125,0-3.6057-1.4955-3.6057-3.6205ZM46.6648,33.2625h3.4807c-0.1114-0.9091-0.8102-1.5239-1.7466-1.5239s-1.6352,0.6148-1.733,1.5239Z M52.8977,33.9614c0-2.1523,1.4398-3.6205,3.5648-3.6205,1.0489,0,1.9705,0.3909,2.558,1.0898l-1.1602,1.0898c-0.35-0.3909-0.8386-0.6011-1.3977-0.6011-1.0625,0-1.7886,0.8386-1.7886,2.0409s0.7273,2.0409,1.7886,2.0409c0.5591,0,1.0489-0.2102,1.4261-0.6148l1.1466,1.0898c-0.6148,0.7125-1.5239,1.1045-2.558,1.1045-2.125,0-3.5784-1.4682-3.5784-3.6205Z M60.7534,34.9398v-2.9909h-1.1886v-1.4398h0.6295c0.5727,0,0.7966-0.2239,0.7966-0.7966v-1.0761h1.4818v1.8727h1.6773v1.4398h-1.6773v2.9909c0,0.6705,0.3489,1.0489,0.992,1.0489,0.1955,0,0.433-0.0284,0.5727-0.0705v1.4534c-0.2091,0.0557-0.6011,0.0977-0.9091,0.0977-1.5659,0-2.3761-0.867-2.3761-2.5295Z M66.3443,29.6284c-0.6011,0-1.0341-0.4193-1.0341-1.0068s0.433-1.0068,1.0341-1.0068,1.0341,0.4193,1.0341,1.0068-0.433,1.0068-1.0341,1.0068ZM65.4773,30.5091h1.733v6.9045h-1.733v-6.9045Z M68.65,33.9614c0-2.1386,1.4398-3.6205,3.4943-3.6205s3.4807,1.4682,3.4807,3.5784c0,0.1682-0.0284,0.433-0.0557,0.6148h-5.1716c0.1261,0.9364,0.9227,1.5659,1.9432,1.5659,0.7545,0,1.4114-0.2795,1.8455-0.783l1.0477,1.0205c-0.6295,0.8102-1.7193,1.2443-2.9773,1.2443-2.125,0-3.6057-1.4955-3.6057-3.6205ZM70.3977,33.2625h3.4807c-0.1114-0.9091-0.8102-1.5239-1.7477-1.5239s-1.6352,0.6148-1.733,1.5239Z"/>
    <path fill="#EC0000" d="M20.2341,14.8193h2.0966l3.6341,9.0852h-1.9432l-0.7545-1.9989h-4.0398l-0.7545,1.9989h-1.8727l3.6341-9.0852ZM19.7727,20.3966h2.9352l-1.4534-3.8295h-0.0284l-1.4534,3.8295Z M27.1102,17h1.6216v0.9364h0.0284c0.3489-0.7125,0.9648-1.1045,1.7614-1.1045,0.8943,0,1.5659,0.3909,1.9852,1.1739,0.4193-0.7545,1.1875-1.1739,2.1659-1.1739,1.7057,0,2.5295,0.95,2.5295,2.8932v4.1795h-1.733v-3.8852c0-1.1318-0.3909-1.6773-1.2023-1.6773s-1.2443,0.6011-1.2443,1.733v3.8295h-1.733v-3.8852c0-1.1466-0.3773-1.6773-1.2023-1.6773s-1.2443,0.6148-1.2443,1.733v3.8295h-1.733v-6.9045Z M40.3886,21.0114c-0.9364-0.2795-1.8455-0.783-1.8455-2.0409s1.0625-2.1386,2.642-2.1386c1.0625,0,1.8864,0.3773,2.3477,1.0761l-0.992,0.992c-0.35-0.433-0.825-0.6705-1.342-0.6705-0.5875,0-0.95,0.2659-0.95,0.6852,0,0.5591,0.5875,0.6568,1.4398,0.9227,0.9364,0.2795,1.8455,0.783,1.8455,2.0409s-1.1182,2.1943-2.767,2.1943c-1.0761,0-1.9432-0.3773-2.4466-1.0898l0.992-0.992c0.3773,0.4477,0.8807,0.6852,1.4398,0.6852,0.6705,0,1.0761-0.2795,1.0761-0.7409,0-0.5591-0.5875-0.6568-1.4398-0.9227Z M45.3648,21.4307v-2.9909h-1.1886v-1.4398h0.6295c0.5727,0,0.7966-0.2239,0.7966-0.7966v-1.0761h1.4818v1.8727h1.6773v1.4398h-1.6773v2.9909c0,0.6705,0.3489,1.0489,0.992,1.0489,0.1955,0,0.433-0.0284,0.5727-0.0705v1.4534c-0.2102,0.0557-0.6011,0.0977-0.9091,0.0977-1.5659,0-2.3761-0.867-2.3761-2.5295Z M49.6136,20.4523c0-2.1386,1.4398-3.6205,3.4943-3.6205s3.4807,1.4682,3.4807,3.5784c0,0.1682-0.0284,0.433-0.0557,0.6148h-5.1716c0.1261,0.9364,0.9227,1.5659,1.9432,1.5659,0.7545,0,1.4114-0.2795,1.8455-0.783l1.0477,1.0205c-0.6295,0.8102-1.7193,1.2443-2.9773,1.2443-2.125,0-3.6057-1.4955-3.6057-3.6205ZM51.3614,19.7534h3.4807c-0.1114-0.9091-0.8102-1.5239-1.7477-1.5239s-1.6352,0.6148-1.733,1.5239Z M58.0284,17h1.6352v1.1466h0.0284c0.3352-0.783,0.95-1.2023,1.7614-1.2023,0.2102,0,0.5034,0.0284,0.6148,0.0693v1.6489c-0.1955-0.0557-0.5727-0.0977-0.8523-0.0977-0.8807,0-1.4534,0.6705-1.4534,1.7057v3.6341h-1.733v-6.9045Z M62.5568,20.4807c0-2.1386,1.4114-3.6477,3.4102-3.6477,0.9227,0,1.6773,0.4057,2.1523,1.1466h0.0284v-4.2068h1.733v10.1341h-1.6352v-1.0761h-0.0284c-0.4477,0.783-1.2864,1.2443-2.25,1.2443-1.9989,0-3.4102-1.4955-3.4102-3.592ZM68.1477,20.4523c0-1.2443-0.7693-2.0693-1.9011-2.0693s-1.9148,0.8386-1.9148,2.0693,0.7693,2.0682,1.9148,2.0682,1.9011-0.825,1.9011-2.0682Z M71.208,21.9341c0-1.3284,1.1045-2.125,2.9489-2.1386l1.342-0.0136v-0.2239c0-0.8102-0.517-1.2295-1.4534-1.2295-0.6148,0-1.1602,0.2375-1.5375,0.6705l-1.0477-1.0205c0.6011-0.7409,1.5659-1.1466,2.7534-1.1466,1.8443,0,3.0193,1.0068,3.0193,2.6136v2.7398c0,0.2511,0.1114,0.3636,0.3909,0.3636h0.1261v1.3557h-0.8102c-0.6568,0-1.1045-0.308-1.2443-0.8102h-0.0284c-0.433,0.6295-1.1466,0.9784-2.0125,0.9784-1.4534,0-2.4455-0.867-2.4455-2.1386ZM75.4989,21.333v-0.3909l-1.1455,0.0136c-0.9091,0.0136-1.3977,0.3352-1.3977,0.9364,0,0.5307,0.4193,0.9091,1.0068,0.9091,0.908,0,1.5375-0.6011,1.5375-1.4682Z M79.1045,17h1.6216v0.9364h0.0284c0.35-0.7125,0.9648-1.1045,1.7614-1.1045,0.8943,0,1.5659,0.3909,1.9852,1.1739,0.4193-0.7545,1.1875-1.1739,2.1659-1.1739,1.7057,0,2.5295,0.95,2.5295,2.8932v4.1795h-1.733v-3.8852c0-1.1318-0.3909-1.6773-1.2023-1.6773s-1.2443,0.6011-1.2443,1.733v3.8295h-1.733v-3.8852c0-1.1466-0.3773-1.6773-1.2023-1.6773s-1.2443,0.6148-1.2443,1.733v3.8295h-1.733v-6.9045Z"/>
</svg>
