<svg viewBox="0 0 24 24" xmlns="http://www.w3.org/2000/svg"><path fill-rule="evenodd" clip-rule="evenodd" d="M4 22V2H20V16.21L17.43 22H4ZM10.5 12.52C11.09 13.56 12.12 14.25 13.29 14.25H13.3C14.09 14.25 14.86 13.92 15.46 13.34L16.5 14.42C15.61 15.28 14.47 15.75 13.29 15.75C11.29 15.75 9.57001 14.42 8.84001 12.52H7.64001V11.02H8.51002C8.50501 10.975 8.49939 10.93 8.49376 10.885C8.47689 10.75 8.46001 10.615 8.46001 10.48C8.46001 10.345 8.47689 10.21 8.49376 10.075C8.49939 10.03 8.50501 9.98501 8.51002 9.94001H7.64001V8.44001H8.83001C9.56001 6.54001 11.28 5.21001 13.28 5.21001C14.48 5.21001 15.63 5.69001 16.52 6.57001L15.47 7.64001C14.87 7.04001 14.09 6.71001 13.29 6.71001C12.12 6.71001 11.09 7.40001 10.5 8.44001H13.73V9.94001H10.01C10.005 9.98501 9.99939 10.03 9.99376 10.075C9.97689 10.21 9.96001 10.345 9.96001 10.48C9.96001 10.615 9.97689 10.75 9.99376 10.885C9.99939 10.93 10.005 10.975 10.01 11.02H13.73V12.52H10.5Z"/></svg>