<svg viewBox="0 0 24 24" xmlns="http://www.w3.org/2000/svg"><path d="M20.1059 5.12073L17.458 2.91614L17.9271 2.34997C18.2271 1.97997 18.6571 1.75997 19.1371 1.71997H19.2671C19.6671 1.71997 20.0471 1.84997 20.3571 2.10997C21.0871 2.70997 21.1971 3.79997 20.5871 4.53997L20.1059 5.12073Z"/><path d="M8.35715 13.9L16.182 4.45618L18.8299 6.66077L11.0171 16.09L7.63715 17.48L8.34715 13.9H8.35715Z"/><path d="M11.7773 17.94C12.0773 17.82 12.3473 17.62 12.5573 17.37V17.38L19.0173 9.57997V16.49L17.1873 20.62L16.4473 22.28H3.01727V2.27997H15.3873L6.80727 12.62C6.59727 12.88 6.45727 13.18 6.38727 13.51L5.67727 17.09C5.53727 17.81 5.79727 18.55 6.36727 19.02C6.72727 19.32 7.17727 19.48 7.63727 19.48C7.89727 19.48 8.14727 19.43 8.39727 19.33L11.7773 17.94Z"/></svg>