<svg viewBox="0 0 24 24" xmlns="http://www.w3.org/2000/svg"><path fill-rule="evenodd" clip-rule="evenodd" d="M1 4H11.25V8.58054C9.67741 8.92388 8.5 10.3244 8.5 12C8.5 13.6756 9.67741 15.0761 11.25 15.4195V20H1V17.25H2C4.8995 17.25 7.25 14.8995 7.25 12C7.25 9.1005 4.8995 6.75 2 6.75H1V4ZM12.75 15.4195V20H23V17.25H22C19.1005 17.25 16.75 14.8995 16.75 12C16.75 9.1005 19.1005 6.75 22 6.75H23V4H12.75V8.58054C14.3226 8.92388 15.5 10.3244 15.5 12C15.5 13.6756 14.3226 15.0761 12.75 15.4195ZM12.75 10.1454C13.483 10.4421 14 11.1607 14 12C14 12.8393 13.483 13.5579 12.75 13.8546V10.1454ZM11.25 10.1454V13.8546C10.517 13.5579 10 12.8393 10 12C10 11.1607 10.517 10.4421 11.25 10.1454ZM1 8.25V15.75H2C4.07107 15.75 5.75 14.0711 5.75 12C5.75 9.92893 4.07107 8.25 2 8.25H1ZM22 8.25H23V15.75H22C19.9289 15.75 18.25 14.0711 18.25 12C18.25 9.92893 19.9289 8.25 22 8.25Z"/></svg>