<svg viewBox="0 0 24 24" xmlns="http://www.w3.org/2000/svg"><path d="M15 2.5C18.5899 2.5 21.5 3.86221 21.5 5.54257V16.4958H21.4985C21.4376 17.8204 19.5683 18.9365 17 19.3249V17.2696C17.6986 17.1425 18.2961 16.955 18.7581 16.7388L18.7621 16.7369C19.0095 16.6211 19.2542 16.5066 19.5 16.4126V13.3162C18.7988 13.6312 17.9469 13.8733 17 14.0165V11.9612C17.6986 11.8341 18.2961 11.6466 18.7581 11.4304L18.7621 11.4285C19.0095 11.3127 19.2542 11.1982 19.5 11.1042V7.73811C18.7988 8.05311 17.9469 8.29522 17 8.4384V7.57095C17 7.15251 16.9188 6.76966 16.778 6.42094C17.5723 6.29492 18.2479 6.09115 18.7581 5.85231C19.0133 5.73286 19.1875 5.62728 19.3053 5.54257C19.1875 5.45787 19.0133 5.35228 18.7581 5.23284C17.919 4.84006 16.6328 4.54215 15.1066 4.52885C14.8154 4.33717 14.515 4.17409 14.2248 4.03826C13.307 3.60862 12.2063 3.30239 11.0106 3.1403C12.1119 2.73901 13.4963 2.5 15 2.5Z"/><path d="M5.50713 12.0135C5.5732 11.4574 6.07126 11.0609 6.61957 11.1279L8.18936 11.3198C8.73768 11.3868 9.12862 11.8919 9.06255 12.448C8.99648 13.0041 8.49842 13.4006 7.95011 13.3336L6.38032 13.1417C5.832 13.0747 5.44106 12.5696 5.50713 12.0135Z"/><path d="M5.47222 17.4191C5.53828 16.863 6.03634 16.4665 6.58466 16.5335L8.15445 16.7254C8.70276 16.7924 9.09371 17.2975 9.02764 17.8536C8.96157 18.4097 8.46351 18.8062 7.91519 18.7392L6.34541 18.5473C5.79709 18.4803 5.40615 17.9752 5.47222 17.4191Z"/><path fill-rule="evenodd" clip-rule="evenodd" d="M15.5 7.57095C15.5 5.89059 12.5899 4.52838 9 4.52838C5.41015 4.52838 2.5 5.89059 2.5 7.57095V18.5242H2.50153C2.57743 20.1737 5.45783 21.5 9 21.5C12.5422 21.5 15.4226 20.1737 15.4985 18.5242H15.5V7.57095ZM13.3052 7.57096C13.1875 7.48625 13.0132 7.38066 12.7581 7.26122C11.8995 6.85934 10.5729 6.55676 9 6.55676C7.42715 6.55676 6.10048 6.85934 5.24192 7.26122C4.98675 7.38066 4.81252 7.48624 4.69479 7.57095C4.81253 7.65566 4.98675 7.76125 5.24192 7.88069C6.10048 8.28257 7.42715 8.58514 9 8.58514C10.5729 8.58514 11.8995 8.28257 12.7581 7.88069C13.0132 7.76125 13.1875 7.65567 13.3052 7.57096ZM4.5 13.1326V9.76649C5.66789 10.2911 7.25351 10.6135 9 10.6135C10.7465 10.6135 12.3321 10.2911 13.5 9.76649V13.1326C13.2541 13.2266 13.0094 13.3411 12.7621 13.4569L12.7581 13.4588C11.8995 13.8606 10.5729 14.1632 9 14.1632C7.42715 14.1632 6.10048 13.8606 5.24192 13.4588L5.2379 13.4569C4.99056 13.3411 4.7459 13.2266 4.5 13.1326ZM4.5 18.441V15.3446C5.66789 15.8692 7.25351 16.1916 9 16.1916C10.7465 16.1916 12.3321 15.8692 13.5 15.3446V18.441C13.2541 18.535 13.0094 18.6495 12.7621 18.7653L12.7581 18.7672C11.8995 19.169 10.5729 19.4716 9 19.4716C7.42715 19.4716 6.10048 19.169 5.24192 18.7672L5.2379 18.7653C4.99056 18.6495 4.7459 18.535 4.5 18.441Z"/></svg>