<svg viewBox="0 0 24 24" xmlns="http://www.w3.org/2000/svg"><path fill-rule="evenodd" clip-rule="evenodd" d="M20.5571 7.42943C20.7582 6.90381 20.8684 6.33319 20.8684 5.73684C20.8684 3.12076 18.7477 1 16.1316 1C13.5155 1 11.3947 3.12076 11.3947 5.73684C11.3947 6.33319 11.5049 6.9038 11.7061 7.42942C10.352 8.64359 9.5 10.4065 9.5 12.3684C9.5 15.7321 12.0042 18.5108 15.25 18.9419V16.4246L13.1141 15.1431L13.8859 13.8569L15.25 14.6754V10H16.75V12.6893L17.9697 11.4697L19.0303 12.5303L16.75 14.8107V18.9715C20.1226 18.6597 22.7632 15.8224 22.7632 12.3684C22.7632 10.4065 21.9112 8.64359 20.5571 7.42943ZM2.67647 15.25H9.38235V16.75H8.66646L9.04146 18.25H11.0588V19.75H9.47245L9.85848 21H15.25V19H16.75V21L23 21V23L1 23V21H2.20034L2.58637 19.75H1V18.25H3.01736L3.39236 16.75H2.67647V15.25ZM8.28858 21L7.90255 19.75H4.15627L3.77024 21H8.28858ZM7.43931 18.25L6.97608 16.75H5.08274L4.61951 18.25H7.43931Z"/></svg>