<svg viewBox="0 0 24 24" xmlns="http://www.w3.org/2000/svg"><path fill-rule="evenodd" clip-rule="evenodd" d="M7.50001 2.9L7.00001 8.5L6.94061 8.87419C6.50077 11.6452 8.36029 14.1819 10.9981 14.7027L10.9956 17.0172C9.43636 15.1719 7.10504 14 4.50001 14C4.35068 14 4.20225 14.0039 4.05481 14.0115C4.01857 14.3213 3.99994 14.6365 3.99994 14.9561C3.99994 19.0486 7.05627 22.4274 11.011 22.9343L11.0115 22.9451C11.3214 22.9814 11.6366 23 11.9562 23L12 22.9999L12.0439 23C12.3635 23 12.6787 22.9814 12.9886 22.9451L12.9891 22.9343C16.9438 22.4274 20.0001 19.0486 20.0001 14.9561C20.0001 14.6365 19.9815 14.3213 19.9453 14.0115C19.7978 14.0039 19.6494 14 19.5001 14C16.895 14 14.5637 15.1719 13.0045 17.0172L13.002 14.7026C15.6398 14.1819 17.4992 11.6452 17.0594 8.87419L17 8.5L16.5 2.9L14 4.2L12 1L10 4.2L7.50001 2.9ZM9.22653 6.05203L10.7167 6.82691L12 4.77359L13.2833 6.82691L14.7735 6.05203L15.014 8.74599L15.0841 9.18772C15.3851 11.0839 13.9199 12.8 12 12.8C10.0801 12.8 8.61491 11.0839 8.91589 9.18772L8.986 8.74599L9.22653 6.05203ZM10.7941 20.8706C8.45908 20.3797 6.62028 18.5409 6.12932 16.2059C8.40993 16.7946 10.2054 18.59 10.7941 20.8706ZM13.206 20.8706C15.541 20.3797 17.3798 18.5409 17.8708 16.2059C15.5902 16.7946 13.7947 18.59 13.206 20.8706Z"/></svg>