<svg viewBox="0 0 24 24" xmlns="http://www.w3.org/2000/svg"><path d="M4 23V1H11.5991C15.4648 1 18.0088 3.43692 18.0088 7.09231C18.0088 8.92 16.7533 10.8492 15.0683 11.56V11.6277C17.2819 12.1692 19 14.4031 19 16.7385C19 20.4954 16.0925 23 11.6982 23H4ZM8.32819 10.1723H10.8722C12.5573 10.1723 13.6476 9.08923 13.6476 7.36308C13.6476 5.67077 12.5573 4.58769 10.8722 4.58769H8.32819V10.1723ZM8.32819 19.4123H11.4339C13.4163 19.4123 14.6388 18.2954 14.6388 16.4338C14.6388 14.6062 13.4163 13.4892 11.4339 13.4892H8.32819V19.4123Z"/></svg>