<svg viewBox="0 0 24 24" xmlns="http://www.w3.org/2000/svg"><path fill-rule="evenodd" clip-rule="evenodd" d="M13 20.7281V22.9999H11V20.728C7.44521 20.2405 4.70679 17.1915 4.70679 13.5028C4.70679 11.3451 5.64376 9.40631 7.13301 8.07099C6.91179 7.49292 6.79059 6.86537 6.79059 6.20951C6.79059 3.33238 9.12297 1 12.0001 1C14.8772 1 17.2096 3.33238 17.2096 6.20951C17.2096 6.86537 17.0884 7.49292 16.8672 8.07099C18.3565 9.40631 19.2934 11.3451 19.2934 13.5028C19.2934 17.1916 16.5549 20.2407 13 20.7281ZM11 17.9972V20.728L11.0306 20.7322L12.6802 20.7647C12.7875 20.7548 12.8941 20.7426 13 20.7281V16.0854L15.3096 13.7404L14.0271 12.4773L13 13.5202V11H11V15.9026L9.60072 15.0698L8.68018 16.6166L11 17.9972Z"/></svg>