<svg viewBox="0 0 24 24" xmlns="http://www.w3.org/2000/svg"><path fill-rule="evenodd" clip-rule="evenodd" d="M14.6967 5.5968C15.4302 6.4169 15.7783 7.48568 15.7061 8.54459C15.6709 9.06002 15.5362 9.5731 15.2979 10.054L15.0573 10.5395H18.5317C20.5898 10.5395 22.0222 12.6028 21.3189 14.5543L19.8522 18.6237C19.284 20.2004 17.7988 21.25 16.136 21.25L2.5 21.25V10.5395H7.32523L12.1504 2.75L14.6967 5.5968ZM16.136 19.2551H9.30239V11.1116L12.4382 6.04931L13.2289 6.93328C13.7741 7.54292 13.8934 8.42741 13.5295 9.1619L11.8582 12.5343H18.5317C19.2177 12.5343 19.6952 13.2221 19.4608 13.8726L17.9941 17.942C17.71 18.7303 16.9674 19.2551 16.136 19.2551ZM4.47716 12.5344H7.27813V19.2551H4.47716V12.5344Z"/></svg>