<svg viewBox="0 0 24 24" xmlns="http://www.w3.org/2000/svg"><path d="M19.4898 5.92429C20.4927 7.56335 20.2849 9.73425 18.8663 11.1529L16.6775 13.3417L10.6583 7.32248L12.8471 5.13369C14.2657 3.71509 16.4365 3.50722 18.0756 4.51009L20.008 2.57764L21.4223 3.99185L19.4898 5.92429Z"/><path d="M9.91902 13.2549L11.8341 11.3398L10.4199 9.92554L8.5048 11.8406L7.32249 10.6583L5.13369 12.8471C3.71508 14.2657 3.50722 16.4366 4.51012 18.0757L2.40863 20.1772L3.82284 21.5914L5.92434 19.4899C7.5634 20.4928 9.73427 20.2849 11.1529 18.8663L13.3417 16.6775L12.1593 15.4951L14.0744 13.58L12.6601 12.1658L10.745 14.0809L9.91902 13.2549Z"/></svg>