<svg viewBox="0 0 24 24" xmlns="http://www.w3.org/2000/svg"><path d="M19.4898 5.92429C20.4928 7.56335 20.2849 9.73425 18.8663 11.1529L16.6775 13.3417L10.6583 7.32248L12.8471 5.13369C14.2657 3.71509 16.4366 3.50722 18.0756 4.51009L20.0081 2.57764L21.4223 3.99185L19.4898 5.92429Z"/><path d="M9.91905 13.2549L11.8341 11.3398L10.4199 9.92554L8.50483 11.8406L7.32252 10.6583L5.13372 12.8471C3.71511 14.2657 3.50726 16.4366 4.51015 18.0757L2.40866 20.1772L3.82287 21.5914L5.92437 19.4899C7.56343 20.4928 9.7343 20.2849 11.1529 18.8663L13.3417 16.6775L12.1593 15.4951L14.0744 13.58L12.6602 12.1658L10.7451 14.0809L9.91905 13.2549Z"/></svg>