<svg viewBox="0 0 24 24" xmlns="http://www.w3.org/2000/svg"><path fill-rule="evenodd" clip-rule="evenodd" d="M16.5 7.98039C16.7354 7.98039 16.9673 7.96559 17.1949 7.93685C17.8334 10.2706 19.9667 11.9856 22.5 11.9856C22.6685 11.9856 22.8353 11.978 23 11.9632L23 11.9856C23 18.0687 18.0751 23 12 23C5.92487 23 1 18.0687 1 11.9856C1 6.17227 5.49781 1.41082 11.199 1C11.0693 1.46891 11 1.96295 11 2.4732C11 5.51474 13.4624 7.98039 16.5 7.98039ZM10.25 14.7392C10.25 16.1218 9.13071 17.2425 7.75 17.2425C6.36929 17.2425 5.25 16.1218 5.25 14.7392C5.25 13.3567 6.36929 12.236 7.75 12.236C9.13071 12.236 10.25 13.3567 10.25 14.7392ZM15.5 17.9935C16.3284 17.9935 17 17.321 17 16.4915C17 15.662 16.3284 14.9896 15.5 14.9896C14.6716 14.9896 14 15.662 14 16.4915C14 17.321 14.6716 17.9935 15.5 17.9935ZM13.75 12.236C13.75 12.789 13.3023 13.2373 12.75 13.2373C12.1977 13.2373 11.75 12.789 11.75 12.236C11.75 11.683 12.1977 11.2347 12.75 11.2347C13.3023 11.2347 13.75 11.683 13.75 12.236ZM7.5 9.98304C8.32843 9.98304 9 9.31059 9 8.48108C9 7.65157 8.32843 6.97912 7.5 6.97912C6.67157 6.97912 6 7.65157 6 8.48108C6 9.31059 6.67157 9.98304 7.5 9.98304Z"/></svg>