<svg viewBox="0 0 24 24" xmlns="http://www.w3.org/2000/svg"><path d="M16.1399 6.91003L17.5099 8.36003L13.5099 12.14L17.5099 15.91L16.1399 17.36L12.0599 13.51L7.97986 17.36L6.60986 15.91L10.5999 12.14L6.60986 8.36003L7.97986 6.91003L12.0599 10.76L16.1399 6.91003Z"/><path fill-rule="evenodd" clip-rule="evenodd" d="M1 12C1 5.92 5.92 1 12 1C18.08 1 23 5.92 23 12C23 18.08 18.08 23 12 23C5.92 23 1 18.08 1 12ZM21 12C21 7.04 16.96 3 12 3C7.04 3 3 7.04 3 12C3 16.96 7.04 21 12 21C16.96 21 21 16.96 21 12Z"/></svg>