<svg viewBox="0 0 24 24" xmlns="http://www.w3.org/2000/svg"><path d="M12 17C14.7614 17 17 14.7614 17 12C17 9.23858 14.7614 7 12 7C9.23858 7 7 9.23858 7 12C7 14.7614 9.23858 17 12 17Z"/><path fill-rule="evenodd" clip-rule="evenodd" d="M10.8422 23V20.9262C6.79754 20.4068 3.59325 17.2025 3.07379 13.1578H1V11.1578H3.03888C3.42796 6.96519 6.69287 3.60669 10.8422 3.07379V1H12.8422V3.03888C17.1406 3.43777 20.5622 6.85942 20.9611 11.1578H23V13.1578H20.9262C20.3933 17.3071 17.0348 20.572 12.8422 20.9611V23H10.8422ZM12 19C15.866 19 19 15.866 19 12C19 8.13401 15.866 5 12 5C8.13401 5 5 8.13401 5 12C5 15.866 8.13401 19 12 19Z"/></svg>