<svg viewBox="0 0 24 24" xmlns="http://www.w3.org/2000/svg"><path fill-rule="evenodd" clip-rule="evenodd" d="M2.76 2L1.35 3.41L4.53 6.59C2.24 8.78 1 11.24 1 11.24C1 11.24 5 19.24 12 19.24C13.54 19.24 14.93 18.84 16.17 18.23L19.84 21.9L21.25 20.49L2.76 2ZM11.99 17.23C7.59 17.23 4.48 13.09 3.3 11.23C3.82 10.41 4.71 9.14 5.92 7.99L8.14 10.21C8.05 10.54 7.99 10.88 7.99 11.24C7.99 13.45 9.78 15.24 11.99 15.24C12.35 15.24 12.69 15.18 13.02 15.09L14.65 16.72C13.83 17.04 12.94 17.24 11.99 17.24V17.23Z"/><path d="M9.34001 5.74C10.16 5.42 11.04 5.23 11.99 5.23C16.39 5.23 19.5 9.37 20.68 11.23C20.16 12.05 19.27 13.31 18.06 14.46L19.46 15.86C21.75 13.67 22.98 11.22 22.98 11.22C22.98 11.22 18.98 3.22 11.98 3.22C10.44 3.22 9.05001 3.61 7.82001 4.22L9.34001 5.74Z"/><path d="M11.99 7.23C14.2 7.23 15.99 9.02 15.99 11.23C15.99 11.59 15.93 11.92 15.84 12.25L10.97 7.38C11.3 7.29 11.64 7.23 11.99 7.23Z"/></svg>