<svg viewBox="0 0 24 24" xmlns="http://www.w3.org/2000/svg"><path d="M10.25 6C11.6307 6 12.75 4.88071 12.75 3.5C12.75 2.11929 11.6307 1 10.25 1C8.86929 1 7.75 2.11929 7.75 3.5C7.75 4.88071 8.86929 6 10.25 6Z"/><path d="M11.2222 9.72095V7.41862H9.16665V15.8605H15.3658L17.6271 18.5621C17.9773 18.9806 18.5955 19.0525 19.0333 18.7256L21.0888 17.1907C21.5429 16.8517 21.635 16.2103 21.2944 15.7582C20.9538 15.3061 20.3096 15.2144 19.8555 15.5535L18.5811 16.5051L16.3286 13.814H11.2222V11.7675H15.8472C16.4148 11.7675 16.875 11.3093 16.875 10.7442C16.875 10.1791 16.4148 9.72095 15.8472 9.72095H11.2222Z"/><path d="M7.1111 8.36369C4.68047 9.51328 3 11.9799 3 14.8372C3 18.7931 6.22105 22 10.1944 22C12.4017 22 14.3768 21.0103 15.6966 19.4524L14.403 17.907H14.3059C13.3684 19.1497 11.8757 19.9535 10.1944 19.9535C7.3563 19.9535 5.05555 17.6628 5.05555 14.8372C5.05555 13.1633 5.86292 11.6772 7.1111 10.7438V8.36369Z"/></svg>