<svg viewBox="0 0 24 24" xmlns="http://www.w3.org/2000/svg"><path fill-rule="evenodd" clip-rule="evenodd" d="M2.14331 6.08156L8.44668 6.08156L9.39643 5.14962C10.1466 4.41353 11.164 4 12.2249 4H14.2653C15.5635 4 16.8267 4.41318 17.8653 5.17751L18.2937 5.49281C18.813 5.87498 19.4446 6.08156 20.0937 6.08156L23.003 6.08156V8.04408H23V14.0609H23.003V16.0234H20.966C20.9037 16.505 20.6841 16.9707 20.3072 17.3405C19.72 17.9168 18.8955 18.1183 18.1423 17.9452C18.0385 18.1329 17.9057 18.3093 17.7439 18.4681C16.9101 19.2863 15.5978 19.349 14.6906 18.6562C14.6252 18.7418 14.5529 18.8239 14.4736 18.9017C13.6397 19.72 12.3274 19.7827 11.4202 19.0899C11.3549 19.1755 11.2825 19.2575 11.2032 19.3354C10.3001 20.2215 8.8359 20.2215 7.93281 19.3354L4.55752 16.0234L1 16.0244V6.08422H2.14331V6.08156ZM3.5 8.04408V14.0609H5.38595L9.34703 17.9477C9.46907 18.0674 9.66693 18.0674 9.78897 17.9477C9.91101 17.8279 9.91101 17.6338 9.78897 17.514L8.94928 16.6901L10.3635 15.3023L12.6174 17.514C12.7394 17.6338 12.9373 17.6338 13.0593 17.514C13.1814 17.3943 13.1814 17.2001 13.0593 17.0803L10.8054 14.8687L12.2196 13.481L15.8878 17.0803C16.0098 17.2001 16.2077 17.2001 16.3297 17.0803C16.4517 16.9606 16.4517 16.7664 16.3297 16.6467L12.6616 13.0473L14.0758 11.6596L18.451 15.9528C18.5731 16.0726 18.7709 16.0726 18.893 15.9528C19.015 15.8331 19.015 15.6389 18.893 15.5192L13.25 9.98194C13.1174 9.85182 12.9375 9.77872 12.75 9.77872L12.6434 9.77872C12.5241 9.77872 12.4097 9.82521 12.3254 9.90798C10.8025 11.4023 8.33349 11.4023 6.81064 9.90798L5.67891 8.79746L6.44668 8.04408L3.5 8.04408ZM21 14.0609V8.04408L20.0937 8.04408C19.0119 8.04408 17.9592 7.69977 17.0937 7.06282L16.6653 6.74753C15.9729 6.23797 15.1308 5.96252 14.2653 5.96252L12.2249 5.96252C11.6944 5.96252 11.1857 6.16928 10.8106 6.53733L8.53709 8.76826C9.273 9.23574 10.2662 9.15308 10.9111 8.52027C11.3706 8.06946 11.9937 7.8162 12.6434 7.8162L12.75 7.8162C13.4679 7.8162 14.1565 8.09607 14.6642 8.59423L20.2353 14.0609H21Z"/></svg>