<svg viewBox="0 0 24 24" xmlns="http://www.w3.org/2000/svg"><path fill-rule="evenodd" clip-rule="evenodd" d="M12 8.42822L10.4668 6.59801C9.76604 5.76142 8.83535 5 7.5 5C5.567 5 4 6.567 4 8.5C4 9.46813 4.41562 10.6539 5.2585 12.0025C6.08666 13.3276 7.22378 14.6454 8.41421 15.8358C9.59735 17.0189 10.7881 18.0318 11.6869 18.7508C11.796 18.838 11.9005 18.9208 12 18.9988C12.0995 18.9208 12.204 18.838 12.3131 18.7508C13.2119 18.0318 14.4026 17.0189 15.5858 15.8358C16.7762 14.6454 17.9133 13.3276 18.7415 12.0025C19.5844 10.6539 20 9.46813 20 8.5C20 6.567 18.433 5 16.5 5C15.1647 5 14.234 5.76142 13.5332 6.59801L12 8.42822ZM10.5321 3.95214C9.74436 3.41157 8.74451 3 7.5 3C4.46243 3 2 5.46243 2 8.5C2 14.5 12 21.5 12 21.5C12 21.5 22 14.5 22 8.5C22 5.46243 19.5376 3 16.5 3C15.2555 3 14.2556 3.41157 13.4679 3.95214C12.8556 4.3723 12.3714 4.87038 12 5.3137C11.6286 4.87038 11.1444 4.3723 10.5321 3.95214Z"/></svg>