<svg viewBox="0 0 24 24" xmlns="http://www.w3.org/2000/svg"><path fill-rule="evenodd" clip-rule="evenodd" d="M1 12C1 5.92 5.92 1 12 1C18.08 1 23 5.92 23 12C23 18.08 18.08 23 12 23C5.92 23 1 18.08 1 12ZM10.5597 14.6695V14.5121C10.5637 13.782 10.6323 13.201 10.7654 12.7694C10.9026 12.3377 11.0962 11.9908 11.3463 11.7286C11.5964 11.4623 11.901 11.2183 12.26 10.9964C12.5061 10.8431 12.726 10.6757 12.9196 10.4941C13.1173 10.3086 13.2726 10.1028 13.3856 9.87692C13.4985 9.64697 13.555 9.39081 13.555 9.10842C13.555 8.78972 13.4804 8.51338 13.3311 8.2794C13.1818 8.04542 12.9801 7.86389 12.726 7.7348C12.4759 7.6057 12.1955 7.54116 11.8849 7.54116C11.5984 7.54116 11.3261 7.60369 11.068 7.72874C10.8138 7.84977 10.602 8.03534 10.4326 8.28545C10.2672 8.53154 10.1744 8.84418 10.1542 9.22339H8C8.02017 8.4569 8.20574 7.81548 8.55671 7.29911C8.91172 6.78274 9.37967 6.39546 9.96059 6.13728C10.5455 5.87909 11.191 5.75 11.897 5.75C12.6675 5.75 13.3452 5.88514 13.9302 6.15543C14.5192 6.42572 14.977 6.81098 15.3038 7.31121C15.6346 7.80741 15.8 8.39639 15.8 9.07816C15.8 9.53805 15.7254 9.94953 15.5761 10.3126C15.4309 10.6757 15.2231 10.9984 14.9528 11.2808C14.6825 11.5632 14.3618 11.8153 13.9907 12.0372C13.6639 12.2389 13.3957 12.4487 13.1859 12.6665C12.9801 12.8844 12.8268 13.1405 12.726 13.435C12.6292 13.7255 12.5787 14.0845 12.5747 14.5121V14.6695H10.5597ZM11.6126 18.4454C11.2495 18.4454 10.9369 18.3163 10.6746 18.0581C10.4124 17.8 10.2813 17.4853 10.2813 17.1142C10.2813 16.7511 10.4124 16.4405 10.6746 16.1823C10.9369 15.9241 11.2495 15.795 11.6126 15.795C11.9716 15.795 12.2822 15.9241 12.5445 16.1823C12.8107 16.4405 12.9438 16.7511 12.9438 17.1142C12.9438 17.3602 12.8813 17.5841 12.7562 17.7858C12.6352 17.9875 12.4739 18.1489 12.2721 18.2699C12.0745 18.3869 11.8546 18.4454 11.6126 18.4454Z"/></svg>