<svg viewBox="0 0 24 24" xmlns="http://www.w3.org/2000/svg"><path fill-rule="evenodd" clip-rule="evenodd" d="M14 6H21V18H3V6H10V7.5H14V6ZM1 4H23V20H1V4ZM13 12.3H20V10.3H13V12.3ZM18.6 15.8H13V13.8H18.6V15.8ZM7.96863 12.0947C8.96128 12.0947 9.76598 11.29 9.76598 10.2974C9.76598 9.3047 8.96128 8.5 7.96863 8.5C6.97598 8.5 6.17128 9.3047 6.17128 10.2974C6.17128 11.29 6.97598 12.0947 7.96863 12.0947ZM6.01205 12.6892C5.50833 12.6892 5.07747 13.0513 4.99064 13.5474L4.59644 15.8H11.3761L10.9819 13.5474C10.8951 13.0513 10.4642 12.6892 9.96053 12.6892H6.01205Z"/></svg>