<svg viewBox="0 0 24 24" xmlns="http://www.w3.org/2000/svg"><path d="M20.0974 2.5H3.90257C3.12806 2.5 2.5 3.12806 2.5 3.90257V20.0974C2.5 20.8719 3.12806 21.5 3.90257 21.5H20.0974C20.8719 21.5 21.5 20.8719 21.5 20.0974V3.90257C21.5 3.12806 20.8719 2.5 20.0974 2.5ZM8.16306 18.6869H5.30646V9.61181H8.16306V18.6856V18.6869ZM6.73542 8.35437C5.82632 8.35437 5.08875 7.66167 5.08875 6.71431C5.08875 5.76694 5.82632 5.07424 6.73542 5.07424C7.64451 5.07424 8.38208 5.76694 8.38208 6.71431C8.38208 7.66167 7.64451 8.35437 6.73542 8.35437ZM18.6935 18.6935H15.8369V13.7377C15.8369 12.2758 15.2155 11.8245 14.4133 11.8245C13.5662 11.8245 12.7349 12.4618 12.7349 13.7747V18.6949H9.87833V9.6184H12.6254V10.8758H12.6624C12.9381 10.3177 13.904 9.36375 15.3778 9.36375C16.9717 9.36375 18.6935 10.3098 18.6935 13.0806V18.6935Z"/></svg>