<svg viewBox="0 0 24 24" xmlns="http://www.w3.org/2000/svg"><path fill-rule="evenodd" clip-rule="evenodd" d="M12 12C13.6716 12 15.0268 10.6569 15.0268 9C15.0268 7.34315 13.6716 6 12 6C10.3283 6 8.97314 7.34315 8.97314 9C8.97314 10.6569 10.3283 12 12 12ZM12 10C12.5572 10 13.0089 9.55228 13.0089 9C13.0089 8.44772 12.5572 8 12 8C11.4427 8 10.991 8.44772 10.991 9C10.991 9.55228 11.4427 10 12 10Z"/><path fill-rule="evenodd" clip-rule="evenodd" d="M5.03735 9C5.03735 13 9.64577 16.6667 12 18C14.3542 16.6667 18.9626 13 18.9626 9C18.9626 6.5 17.4492 2.5 12 2.5C6.45077 2.5 5.03735 6.5 5.03735 9ZM12 15.6362C11.0839 15.0128 10.0041 14.1502 9.07009 13.145C7.72041 11.6927 7.05524 10.2479 7.05524 9C7.05524 8.09491 7.33947 6.94831 8.05611 6.0709C8.70862 5.272 9.77404 4.5 12 4.5C14.2259 4.5 15.2913 5.272 15.9438 6.0709C16.6605 6.94831 16.9447 8.09491 16.9447 9C16.9447 10.2479 16.2795 11.6927 14.9299 13.145C13.9958 14.1502 12.916 15.0128 12 15.6362Z"/><path d="M7.15081 16.2408C7.57013 16.6002 7.61869 17.2315 7.25927 17.6508L5.67423 19.5H18.91L17.325 17.6508C16.9655 17.2315 17.0141 16.6002 17.4334 16.2408C17.8527 15.8813 18.484 15.9299 18.8435 16.3492L21.136 19.0238C21.97 19.9968 21.2786 21.5 19.9971 21.5H3.50001C3.10948 21.5 2.75469 21.2727 2.5915 20.9179C2.42832 20.5631 2.4866 20.1457 2.74076 19.8492L5.74076 16.3492C6.10018 15.9299 6.73148 15.8813 7.15081 16.2408Z"/></svg>