<svg viewBox="0 0 24 24" xmlns="http://www.w3.org/2000/svg"><path d="M10.0963 2.5C10.5498 2.5 10.994 2.53992 11.4258 2.61643C11.0411 2.92529 10.7052 3.24757 10.4195 3.5531C10.0967 3.89835 9.81942 4.24135 9.58837 4.55407C6.75608 4.81258 4.52567 7.21091 4.52567 10.1162C4.52567 13.1932 7.02737 15.7015 10.0963 15.7015C11.2711 15.7015 12.3549 15.3359 13.2462 14.7165C13.8134 14.3306 14.2995 13.8431 14.6844 13.2745C14.8592 13.0215 15.0138 12.7532 15.1456 12.4717C15.3408 12.4902 15.5405 12.5 15.7447 12.5C16.3262 12.5 16.8713 12.4209 17.379 12.2847C17.1126 13.1786 16.684 14.0029 16.1226 14.7266L21.4501 20.058L20.0119 21.5L14.6945 16.1585C13.4184 17.1537 11.8282 17.7325 10.0963 17.7325C5.90312 17.7325 2.5 14.3204 2.5 10.1162C2.5 5.91208 5.90312 2.5 10.0963 2.5Z"/><path d="M17.5105 6.70001C17.5105 7.66651 16.7291 8.45001 15.7651 8.45001C14.8011 8.45001 14.0197 7.66651 14.0197 6.70001C14.0197 5.73351 14.8011 4.95001 15.7651 4.95001C16.7291 4.95001 17.5105 5.73351 17.5105 6.70001Z"/><path fill-rule="evenodd" clip-rule="evenodd" d="M15.7447 2.5C13.8997 2.5 12.4669 3.55661 11.5109 4.57901C11.0307 5.09265 10.6632 5.60533 10.4159 5.98937C10.2572 6.23569 10.1123 6.48848 9.98032 6.75001C10.1123 7.01153 10.2572 7.26432 10.4159 7.51063C10.6632 7.89467 11.0307 8.40735 11.5109 8.92099C12.4669 9.94339 13.8997 11 15.7447 11C17.5897 11 19.0224 9.94339 19.9784 8.92099C20.4587 8.40735 20.8261 7.89467 21.0735 7.51063C21.2313 7.26565 21.3806 7.01616 21.5 6.75C21.3806 6.48384 21.2313 6.23435 21.0735 5.98937C20.8261 5.60533 20.4587 5.09265 19.9784 4.57901C19.0224 3.55661 17.5897 2.5 15.7447 2.5ZM13.1382 8.40914C12.4944 7.85446 12.0071 7.20426 11.7075 6.74913C12.0044 6.29264 12.4884 5.6428 13.1308 5.08893C13.839 4.47829 14.7209 4 15.7447 4C16.7682 4 17.6488 4.47932 18.3565 5.09065C18.9985 5.64517 19.4826 6.29523 19.7819 6.7508C19.485 7.20729 19.001 7.85717 18.3585 8.41107C17.6503 9.02171 16.7685 9.5 15.7447 9.5C14.7289 9.5 13.8483 9.02091 13.1382 8.40914Z"/></svg>