<svg viewBox="0 0 24 24" xmlns="http://www.w3.org/2000/svg"><path d="M21.5 5.06494C21.5 6.7218 20.1569 8.06494 18.5 8.06494C16.8431 8.06494 15.5 6.7218 15.5 5.06494C15.5 3.40809 16.8431 2.06494 18.5 2.06494C20.1569 2.06494 21.5 3.40809 21.5 5.06494Z"/><path d="M20.7 9.53494C20.78 9.49494 20.85 9.45494 20.92 9.41494V9.40494C21.12 9.29494 21.32 9.17494 21.5 9.03494V18.0949H13.56L6.49 21.9349L5.05 18.0949H2.5V2.93494H14C13.91 3.11494 13.84 3.29494 13.78 3.48494C13.7689 3.51281 13.7608 3.54379 13.7524 3.57614C13.7457 3.60183 13.7389 3.62838 13.73 3.65494C13.59 4.10494 13.5 4.57494 13.5 5.06494C13.5 7.82494 15.74 10.0649 18.5 10.0649C19.04 10.0649 19.54 9.96494 20.03 9.80494V9.82494C20.0683 9.814 20.1006 9.79707 20.1318 9.78071C20.1577 9.76716 20.1828 9.754 20.21 9.74494C20.38 9.68494 20.54 9.61494 20.7 9.53494Z"/></svg>