<svg viewBox="0 0 24 24" xmlns="http://www.w3.org/2000/svg"><path d="M13.75 6.5C15.1307 6.5 16.25 5.38071 16.25 4C16.25 2.61929 15.1307 1.5 13.75 1.5C12.3693 1.5 11.25 2.61929 11.25 4C11.25 5.38071 12.3693 6.5 13.75 6.5Z"/><path d="M10.9612 8.44433L11.4651 7.26297L13.3571 8.06282L12.5189 10.0281L11.7538 13.2908H15.5091L18.5693 16.3376L19.3999 15.2349C19.7405 14.7828 20.3847 14.6912 20.8388 15.0302C21.2929 15.3693 21.385 16.0107 21.0444 16.4628L19.5027 18.5093C19.324 18.7466 19.0506 18.895 18.7534 18.916C18.4562 18.9371 18.1644 18.8287 17.9538 18.6189L14.6576 15.3373H9.16296L10.3233 10.3898L8.92543 9.93359L7.78039 12.2135C7.52654 12.719 6.90918 12.9239 6.40148 12.6711C5.89379 12.4184 5.688 11.8038 5.94186 11.2983L7.48353 8.22859C7.7114 7.77487 8.23877 7.55585 8.72294 7.71386L10.9612 8.44433Z"/><path d="M3.61473 11.9296C3.06319 12.943 2.75 14.1037 2.75 15.3372C2.75 19.2931 5.97106 22.5 9.94444 22.5C12.2379 22.5 14.2808 21.4315 15.5982 19.7673L14.1305 18.3062C13.197 19.6084 11.6684 20.4535 9.94444 20.4535C7.10631 20.4535 4.80555 18.1629 4.80555 15.3372C4.80555 14.6757 4.93081 14.0455 5.15905 13.4672L3.61473 11.9296Z"/></svg>