<svg viewBox="0 0 24 24" xmlns="http://www.w3.org/2000/svg"><path fill-rule="evenodd" clip-rule="evenodd" d="M15.1221 6.12277L12.5542 2.85645L6.95374 7.46816L7.95463 12.9731L5.90262 14.7146C5.21938 14.733 4.54011 14.9398 3.94632 15.3351L2.44409 16.3351L3.55235 17.9999L5.05458 16.9999C5.62885 16.6177 6.37652 16.6177 6.95079 16.9999C8.19634 17.8291 9.81797 17.8291 11.0635 16.9999C11.6371 16.6181 12.3864 16.6183 12.9614 17.0011C14.2042 17.8284 15.8249 17.8304 17.0691 17.0022C17.6435 16.6198 18.3916 16.6214 18.9644 17.0061L20.4406 17.9976L21.5558 16.3374L20.0796 15.3459C18.8349 14.5098 17.209 14.5065 15.9608 15.3373C15.7799 15.4578 15.5814 15.5401 15.3765 15.5842L12.0633 11.6397L11.5693 9.17829L15.1221 6.12277ZM19.3284 13.4953C18.0196 14.6704 16.006 14.562 14.8309 13.2532C13.6558 11.9444 13.7642 9.93084 15.073 8.75574C16.3818 7.58064 18.3954 7.68902 19.5705 8.99781C20.7456 10.3066 20.6372 12.3202 19.3284 13.4953ZM6.95079 20.5C6.37652 20.1177 5.62885 20.1177 5.05458 20.5L3.55235 21.4999L2.44409 19.8351L3.94632 18.8351C5.19187 18.006 6.81351 18.006 8.05905 18.8351C8.63332 19.2174 9.38099 19.2174 9.95526 18.8351C11.2015 18.0055 12.8248 18.0076 14.0697 18.8362C14.6426 19.2176 15.3893 19.2178 15.9608 18.8373C17.209 18.0065 18.8349 18.0098 20.0796 18.8459L21.5558 19.8374L20.4406 21.4976L18.9644 20.5061C18.3916 20.1214 17.6435 20.1198 17.0691 20.5022C15.8249 21.3304 14.2042 21.3284 12.9614 20.5011C12.3864 20.1183 11.6371 20.1181 11.0635 20.4999C9.81797 21.3291 8.19634 21.3291 6.95079 20.5Z"/></svg>