<svg viewBox="0 0 24 24" xmlns="http://www.w3.org/2000/svg"><path fill-rule="evenodd" clip-rule="evenodd" d="M13.8228 1.78199C14.7459 1.15862 15.9046 1 17.0737 1H18.0737V4.90711C19.2028 5.72952 20.121 6.78343 20.7346 7.99992H23.0737V15.9999H20.1364C20.1166 16.0282 20.0967 16.0563 20.0767 16.0843L18.2565 21.9999H12.5179V19.9908C12.3706 19.9969 12.2225 19.9999 12.0737 19.9999C11.8723 19.9999 11.6722 19.9943 11.4737 19.9832V21.9999H5.73515L3.78282 15.6549C3.01704 14.433 2.5737 13.0168 2.5737 11.4999C2.5737 11.2978 2.58143 11.0977 2.59661 10.8997C2.15084 10.74 1.78483 10.4309 1.52178 10.0551C0.912109 9.18415 0.791365 7.88761 1.40285 6.6646L2.7445 7.3354C2.35602 8.11239 2.48528 8.81585 2.75062 9.1949C2.79191 9.25388 2.8349 9.30333 2.87833 9.34432C3.18321 8.2924 3.70606 7.32731 4.3973 6.48427C4.70657 6.05107 5.07767 5.60095 5.4837 5.1922C5.41201 5.4492 5.37368 5.72013 5.37368 6C5.37368 6.72074 5.62784 7.38211 6.05143 7.89939C6.16101 8.03321 6.28194 8.15739 6.41273 8.27046C6.21815 8.55878 6.05586 8.85861 5.90288 9.16459L7.24452 9.83541C7.48336 9.35773 7.69512 9.00485 7.97792 8.70228C8.25581 8.40496 8.6332 8.12398 9.23716 7.84647C10.2188 7.3954 11.5281 7.30562 12.0488 7.32277L12.0982 5.82359C11.9197 5.8177 11.6678 5.82081 11.3696 5.84124C11.3637 5.72874 11.3516 5.61788 11.3337 5.509C11.1606 4.45775 10.4411 3.59066 9.47648 3.20918C10.2956 3.05203 11.0398 3 11.5499 3L11.5574 3.01244C11.7285 3.00413 11.9007 2.99992 12.0737 2.99992C12.2842 2.99992 12.4933 3.00608 12.7009 3.01823C12.9761 2.51789 13.3469 2.10337 13.8228 1.78199ZM17.0737 11C17.626 11 18.0737 10.5523 18.0737 10C18.0737 9.44772 17.626 9 17.0737 9C16.5214 9 16.0737 9.44772 16.0737 10C16.0737 10.5523 16.5214 11 17.0737 11ZM9.87368 6C9.87368 6.02093 9.87326 6.04177 9.87241 6.06249C9.44843 6.16145 9.01499 6.29778 8.61088 6.48347C8.15195 6.69434 7.76812 6.92169 7.43948 7.17364C7.09467 6.89881 6.87368 6.47521 6.87368 6C6.87368 5.17157 7.54526 4.5 8.37368 4.5C9.20211 4.5 9.87368 5.17157 9.87368 6Z"/></svg>