<svg viewBox="0 0 24 24" xmlns="http://www.w3.org/2000/svg"><path fill-rule="evenodd" clip-rule="evenodd" d="M2 2H4.5V3.66667H3.66667V4.5H2V2ZM2 19.5V22H4.5V20.3333H3.66667V19.5H2ZM19.5 22H22V19.5H20.3333V20.3333H19.5V22ZM22 4.5V2H19.5V3.66667H20.3333V4.5H22ZM5.33333 2V3.66667H8.66667V2H5.33333ZM10.3333 2V3.66667H13.6667V2H10.3333ZM15.3333 2V3.66667H18.6667V2H15.3333ZM22 5.33333H20.3333V8.66667H22V5.33333ZM22 10.3333H20.3333V13.6667H22V10.3333ZM22 15.3333H20.3333V18.6667H22V15.3333ZM18.6667 22V20.3333H15.3333V22H18.6667ZM13.6667 22V20.3333H10.3333V22H13.6667ZM8.66667 22V20.3333H5.33333V22H8.66667ZM2 18.6667H3.66667V15.3333H2V18.6667ZM2 13.6667H3.66667V10.3333H2V13.6667ZM2 8.66667H3.66667V5.33333H2V8.66667Z"/></svg>