<svg viewBox="0 0 24 24" xmlns="http://www.w3.org/2000/svg"><path fill-rule="evenodd" clip-rule="evenodd" d="M15.0365 2.5V6H17.0423V2.5H19.0482V6H19.5218C20.6132 6 21.5672 6.89591 21.4962 8.0616C21.2163 12.6536 19.0724 14.7339 17.1665 15.3194V16.4408C17.1665 19.4302 14.7431 21.8537 11.7536 21.8537C8.7641 21.8537 6.34065 19.4302 6.34065 16.4408V14.4841C6.34065 12.275 4.54979 10.4841 2.34065 10.4841H2V8.48413H2.34065C5.65436 8.48413 8.34065 11.1704 8.34065 14.4841V16.4408C8.34065 18.3257 9.86867 19.8537 11.7536 19.8537C13.6385 19.8537 15.1665 18.3257 15.1665 16.4408V15.3695L15.0365 15.3705C13.0881 14.8628 10.8156 12.7987 10.5269 8.0616C10.4559 6.89591 11.4099 6 12.5013 6H13.0306V2.5H15.0365ZM12.5328 8C12.8404 12.7224 15.2538 13.5 16.0116 13.5C16.7693 13.5 19.1827 12.7224 19.4903 8H12.5328Z"/></svg>