<svg viewBox="0 0 24 24" xmlns="http://www.w3.org/2000/svg"><path fill-rule="evenodd" clip-rule="evenodd" d="M16.1251 8.5H17.5C19.1569 8.5 20.5 9.84315 20.5 11.5V12H21.5V19.5H20.5V20C20.5 21.6569 19.1569 23 17.5 23H2.5V8.5H5.87494C5.63286 7.88014 5.5 7.20558 5.5 6.5C5.5 3.46243 7.96243 1 11 1C14.0376 1 16.5 3.46243 16.5 6.5C16.5 7.20558 16.3671 7.88014 16.1251 8.5ZM13.8727 8.5C14.2681 7.93308 14.5 7.24362 14.5 6.5C14.5 4.567 12.933 3 11 3C9.067 3 7.5 4.567 7.5 6.5C7.5 7.24362 7.73191 7.93308 8.12734 8.5H9.84245C9.3292 8.15419 8.95538 7.60964 8.79278 6.98846H8.46155V5.58846H8.79278C9.07139 4.52405 9.97022 3.68462 11.128 3.68462C11.7641 3.68462 12.3347 3.94725 12.7576 4.35911L11.7808 5.36205C11.5954 5.18147 11.3671 5.08462 11.128 5.08462C10.8128 5.08462 10.4901 5.27009 10.293 5.58846H11.7554V6.98846H10.293C10.4901 7.30684 10.8128 7.49231 11.128 7.49231C11.3671 7.49231 11.5954 7.39546 11.7808 7.21488L12.7576 8.21781C12.6506 8.32205 12.5341 8.41672 12.4095 8.5H13.8727ZM18.5 11.5V12H15.75C13.6789 12 12 13.6789 12 15.75C12 17.8211 13.6789 19.5 15.75 19.5H18.5V20C18.5 20.5523 18.0523 21 17.5 21H4.5V10.5H17.5C18.0523 10.5 18.5 10.9477 18.5 11.5ZM19.5 14H15.75C14.7835 14 14 14.7835 14 15.75C14 16.7165 14.7835 17.5 15.75 17.5H19.5V14ZM16 16.75C16.5523 16.75 17 16.3023 17 15.75C17 15.1977 16.5523 14.75 16 14.75C15.4477 14.75 15 15.1977 15 15.75C15 16.3023 15.4477 16.75 16 16.75Z"/></svg>