<svg viewBox="0 0 24 24" xmlns="http://www.w3.org/2000/svg"><path d="M10.6712 14.2273V14.375H12.5632V14.2273C12.567 13.8258 12.6144 13.4886 12.7053 13.2159C12.8 12.9394 12.9439 12.6989 13.1371 12.4943C13.334 12.2898 13.5859 12.0928 13.8928 11.9034C14.2412 11.6951 14.5424 11.4583 14.7962 11.1932C15.05 10.928 15.245 10.625 15.3814 10.2841C15.5215 9.94318 15.5916 9.55682 15.5916 9.125C15.5916 8.48485 15.4363 7.93182 15.1257 7.46591C14.8189 6.99621 14.389 6.63447 13.8359 6.38068C13.2867 6.12689 12.6503 6 11.9269 6C11.264 6 10.6579 6.12121 10.1087 6.36364C9.56322 6.60606 9.12382 6.9697 8.79049 7.45455C8.46094 7.93939 8.2867 8.54167 8.26776 9.26136H10.2905C10.3094 8.9053 10.3965 8.61174 10.5519 8.38068C10.7109 8.14583 10.9098 7.97159 11.1484 7.85795C11.3909 7.74053 11.6465 7.68182 11.9155 7.68182C12.2072 7.68182 12.4704 7.74242 12.7053 7.86364C12.9439 7.98485 13.1333 8.1553 13.2734 8.375C13.4136 8.5947 13.4837 8.85417 13.4837 9.15341C13.4837 9.41856 13.4306 9.65909 13.3246 9.875C13.2185 10.0871 13.0727 10.2803 12.8871 10.4545C12.7053 10.625 12.4988 10.7822 12.2678 10.9261C11.9306 11.1345 11.6447 11.3636 11.4098 11.6136C11.175 11.8598 10.9931 12.1856 10.8644 12.5909C10.7394 12.9962 10.675 13.5417 10.6712 14.2273Z"/><path d="M10.7791 17.5568C11.0253 17.7992 11.3189 17.9205 11.6598 17.9205C11.8871 17.9205 12.0935 17.8655 12.2791 17.7557C12.4685 17.642 12.62 17.4905 12.7337 17.3011C12.8511 17.1117 12.9098 16.9015 12.9098 16.6705C12.9098 16.3295 12.7848 16.0379 12.5348 15.7955C12.2886 15.553 11.9969 15.4318 11.6598 15.4318C11.3189 15.4318 11.0253 15.553 10.7791 15.7955C10.5329 16.0379 10.4098 16.3295 10.4098 16.6705C10.4098 17.0189 10.5329 17.3144 10.7791 17.5568Z"/><path fill-rule="evenodd" clip-rule="evenodd" d="M1 12C1 5.92 5.92 1 12 1C18.08 1 23 5.92 23 12C23 18.08 18.08 23 12 23C5.92 23 1 18.08 1 12ZM21 12C21 7.04 16.96 3 12 3C7.04 3 3 7.04 3 12C3 16.96 7.04 21 12 21C16.96 21 21 16.96 21 12Z"/></svg>