<svg viewBox="0 0 24 24" xmlns="http://www.w3.org/2000/svg"><path fill-rule="evenodd" clip-rule="evenodd" d="M1 4H23V9.10263L19.0288 6L15.7803 6L21.1187 10.1709L19.6897 12H19.6843L18.6998 13.2669L18.6561 13.3229L11.2146 22.8999L2.01794 15.7611L9.56573 6.00679H9L8.99085 6.01879L6.94471 6.01683L2.35973 12H1V4ZM12.776 12.3525C14.019 12.9076 15.5234 12.6071 16.3942 11.4853C16.8644 10.8795 17.0576 10.1462 16.9999 9.43568L15.5048 9.55708C15.5339 9.91533 15.4369 10.2723 15.2093 10.5655C14.8692 11.0036 14.302 11.201 13.7501 11.0976L15.0568 9.41426L13.8719 8.49449L12.5652 10.1778C12.3281 9.6688 12.3787 9.07034 12.7188 8.63229C12.9464 8.33906 13.2681 8.15653 13.6224 8.09586L13.3692 6.61738C12.6665 6.73772 12.0041 7.10671 11.5338 7.71251C10.6631 8.83432 10.745 10.3662 11.5911 11.4327L11.2452 11.8783L12.4302 12.7981L12.776 12.3525ZM10.7899 18.7729L13.2427 15.6132L11.6628 14.3868L9.21004 17.5466L10.7899 18.7729Z"/></svg>