<svg viewBox="0 0 24 24" xmlns="http://www.w3.org/2000/svg"><path fill-rule="evenodd" clip-rule="evenodd" d="M23 4H1V12H2.35978L6.95776 6.00001H9.55018L9.54494 6.00679H9.56576L2.01797 15.7611L11.2146 22.8999L19.6843 12H23V4ZM12.0909 6.01161L4.8218 15.4057L10.8619 20.0943L19.5733 8.8833L15.9226 6.04657L12.0909 6.01161ZM16.3942 11.4853C15.5234 12.6071 14.0191 12.9076 12.776 12.3525L12.4302 12.798L11.2453 11.8783L11.5911 11.4327C10.7451 10.3662 10.6631 8.83431 11.5339 7.7125C12.0041 7.1067 12.6665 6.73771 13.3692 6.61737L13.6224 8.09585C13.2681 8.15652 12.9464 8.33905 12.7188 8.63228C12.3787 9.07033 12.3281 9.66879 12.5652 10.1778L13.8719 8.49448L15.0568 9.41425L13.7501 11.0976C14.302 11.201 14.8693 11.0036 15.2093 10.5655C15.4369 10.2723 15.5339 9.91532 15.5049 9.55707L16.9999 9.43567C17.0576 10.1462 16.8645 10.8795 16.3942 11.4853ZM10.7899 18.7729L13.2427 15.6132L11.6628 14.3868L9.21006 17.5466L10.7899 18.7729Z"/></svg>