<svg viewBox="0 0 24 24" xmlns="http://www.w3.org/2000/svg"><path fill-rule="evenodd" clip-rule="evenodd" d="M9.30331 18.4034C8.56979 17.5833 8.2217 16.5146 8.29391 15.4556C8.32906 14.9402 8.46379 14.4271 8.70212 13.9462L8.94268 13.4608L5.4683 13.4608C3.41019 13.4608 1.97778 11.3974 2.68113 9.4459L4.14776 5.37655C4.71602 3.79985 6.20118 2.75029 7.864 2.75029L21.5 2.75024L21.5 13.4607L16.6748 13.4607L11.8496 21.2502L9.30331 18.4034ZM7.864 4.74515L14.6976 4.74515L14.6976 12.8887L11.5618 17.9509L10.7711 17.067C10.2259 16.4573 10.1066 15.5728 10.4705 14.8383L12.1418 11.4659L5.4683 11.4659C4.78227 11.4659 4.3048 10.7781 4.53925 10.1276L6.00588 6.05828C6.29001 5.26993 7.03259 4.74515 7.864 4.74515ZM19.5228 11.4659L16.7219 11.4659L16.7219 4.7451L19.5228 4.7451L19.5228 11.4659Z"/></svg>