<svg viewBox="0 0 24 24" xmlns="http://www.w3.org/2000/svg"><path fill-rule="evenodd" clip-rule="evenodd" d="M19.64 4.21003L19.58 4.02003L19.43 3.88003C16.54 1.24003 12.42 0.330028 8.68997 1.51003C4.95997 2.69003 2.11997 5.79003 1.25997 9.61003L1.21997 9.81003L1.27997 10C1.70997 11.37 3.16997 12.13 4.53997 11.7L5.69997 11.33C6.38997 11.11 6.91997 10.63 7.22997 10.03C7.81997 10.34 8.53997 10.43 9.22997 10.21L10.28 9.88003L11.68 14.33H13.78L12.19 9.28003L13.24 8.95003C13.93 8.73003 14.47 8.25003 14.77 7.65003C15.36 7.96003 16.08 8.05003 16.77 7.83003L17.93 7.46003C19.3 7.03003 20.06 5.57003 19.63 4.20003L19.64 4.21003ZM5.24997 9.90003L4.08997 10.27C3.56997 10.43 3.01997 10.19 2.77997 9.72003L5.98997 8.71003C6.05997 9.23003 5.76997 9.74003 5.24997 9.91003V9.90003ZM5.91997 7.15003L3.42997 7.93003C4.08997 6.54003 5.07997 5.33003 6.30997 4.41003C6.07997 5.20003 5.93997 6.11003 5.91997 7.15003ZM9.13997 2.94003C10.09 2.64003 11.41 3.45003 12.67 5.02003L7.43997 6.67003C7.56997 4.65003 8.17997 3.24003 9.13997 2.94003ZM12.8 7.52003L8.78997 8.79003C8.26997 8.95003 7.73997 8.70003 7.49997 8.23003L13.54 6.32003C13.61 6.84003 13.32 7.35003 12.8 7.52003ZM14.2 4.54003C13.59 3.71003 12.95 3.04003 12.31 2.52003C13.84 2.57003 15.35 2.99003 16.69 3.75003L14.2 4.53003V4.54003ZM17.49 6.04003L16.33 6.41003C15.81 6.57003 15.28 6.32003 15.04 5.85003L18.25 4.84003C18.32 5.36003 18.01 5.88003 17.49 6.04003Z"/><path d="M19.21 16.26L21.91 19.15L20.4713 20.5H20.4313L17.47 17.34H8.53L5.55 20.52L4.09 19.15L5.79 17.33H4V15.33H17.41L21.2 10.23L22.8 11.42L19.21 16.25V16.26Z"/><path d="M15.7302 20.5L15.05 18.33H12.95L13.6311 20.5H15.7302Z"/></svg>