<svg viewBox="0 0 24 24" xmlns="http://www.w3.org/2000/svg"><path d="M6.94479 16.3447C7.18524 15.4791 7.97341 14.88 8.87182 14.88H15.1294C16.0278 14.88 16.816 15.4791 17.0565 16.3447L17.9641 19.6124H6.03711L6.94479 16.3447Z"/><path d="M16.2439 11.3799C16.2042 12.1239 15.9732 12.8171 15.5991 13.4113C16.9708 13.596 18.1242 14.581 18.5026 15.9431L18.5495 16.1122H23L22.0854 12.8446C21.8432 11.979 21.049 11.3799 20.1438 11.3799H16.2439Z"/><path d="M7.75612 11.3799C7.7958 12.1241 8.02692 12.8174 8.40112 13.4116C7.03055 13.5973 5.87845 14.5819 5.50032 15.9431L5.45334 16.1122H1L1.91455 12.8446C2.15683 11.979 2.95096 11.3799 3.85618 11.3799H7.75612Z"/><path d="M8.87182 14.88C10.9716 14.8798 12.9882 14.8798 15.1294 14.88C19.1992 14.88 2.48398 14.88 8.87182 14.88Z"/><path d="M14.75 11.1299C14.75 12.6487 13.5188 13.8799 12 13.8799C10.4812 13.8799 9.25 12.6487 9.25 11.1299C9.25 9.6111 10.4812 8.37988 12 8.37988C13.5188 8.37988 14.75 9.6111 14.75 11.1299Z"/><path d="M7 9.87988C7.35246 9.87988 7.68943 9.81358 7.99913 9.69275C8.31995 8.79972 8.93128 8.04519 9.71916 7.54313C9.73947 7.40834 9.75 7.27034 9.75 7.12988C9.75 5.6111 8.51878 4.37988 7 4.37988C5.48122 4.37988 4.25 5.6111 4.25 7.12988C4.25 8.64867 5.48122 9.87988 7 9.87988Z"/><path d="M17 9.87988C18.5188 9.87988 19.75 8.64867 19.75 7.12988C19.75 5.6111 18.5188 4.37988 17 4.37988C15.4812 4.37988 14.25 5.6111 14.25 7.12988C14.25 7.27034 14.2605 7.40834 14.2808 7.54313C15.0687 8.04519 15.68 8.79972 16.0009 9.69275C16.3106 9.81358 16.6475 9.87988 17 9.87988Z"/></svg>