<svg xmlns="http://www.w3.org/2000/svg" fill="none" viewBox="0 0 151.4286 40">
  <g class="ams-logo__emblem">
    <path fill="#EC0000" d="m0 35.8571 3.3619-3.3619L0 29.1333l2.2381-2.2381 3.3619 3.3619 3.3619-3.3619 2.2381 2.2381-3.3619 3.3619 3.3619 3.3619L8.9619 38.0952l-3.3619-3.3619L2.2381 38.0952 0 35.8571ZM0 8.9619l3.3619-3.3619L0 2.2381 2.2381 0l3.3619 3.3619L8.9619 0l2.2381 2.2381-3.3619 3.3619 3.3619 3.3619-2.2381 2.2381-3.3619-3.3619-3.3619 3.3619L0 8.9619ZM0 22.419l3.3619-3.3619L0 15.6952l2.2381-2.2381 3.3619 3.3619 3.3619-3.3619 2.2381 2.2381-3.3619 3.3619 3.3619 3.3619-2.2381 2.2381-3.3619-3.3619-3.3619 3.3619L0 22.419Z"/>
  </g>
  <g class="ams-logo__text-secondary">
    <path fill="#000" d="m16.5143 35.5714 1.2381-1.0286c0.3810.6095 1.00950.9333 1.69520.93330.8286 0 1.3905-0.4381 1.3905-1.0857 0-0.7333-0.6095-0.9905-1.781-1.419-1.0857-0.4-2.2286-0.9619-2.2286-2.619 0-1.5429 1.2571-2.6 3.0857-2.6 1.2381 0 2.2190.4952 2.7714 1.381l-1.2381 1.0286c-0.3714-0.5524-0.9048-0.8571-1.5429-0.8571-0.7429 0-1.23810.4-1.2381 0.9905 0 0.73330.6095 0.9905 1.781 1.419 1.08570.4 2.2286 0.9619 2.2286 2.619s-1.3048 2.6952-3.2381 2.6952c-1.3048 0-2.3429-0.5238-2.9238-1.4571ZM24.5143 34.4286v-2.9524h-1.1714v-1.419h0.619c0.5619 0 0.781-0.2190.781-0.781v-1.0571h1.4571v1.8476h1.6571v1.419h-1.6571v2.9524c0 0.65710.3429 1.0286 0.981 1.02860.1905 0 0.4286-0.02860.5619-0.0667v1.4286c-0.20950.0571-0.59050.0952-0.89520.0952-1.5429 0-2.3429-0.8571-2.3429-2.4952h0.0095ZM28.6952 34.9238c0-1.3048 1.0857-2.0952 2.9048-2.1048h1.3238v-0.2381c0-0.8-0.5143-1.2095-1.4286-1.2095-0.6095 0-1.14290.2381-1.51430.6571l-1.0286-1.0095c0.5905-0.7333 1.5429-1.1333 2.7143-1.1333 1.819 0 2.9714 0.9905 2.9714 2.5714v2.6952c0 0.24760.11430.36190.3810.3619h0.1238v1.3333h-0.8c-0.6476 0-1.0857-0.3048-1.2286-0.8h-0.0286c-0.42860.619-1.1333 0.9619-1.981 0.9619-1.4286 0-2.4095-0.8571-2.4095-2.1048v0.019Zm4.2286-0.5905v-0.381h-1.1333c-0.89520.0286-1.3810.3429-1.3810.9333 0 0.52380.40950.8952 0.99050.89520.8952 0 1.5143-0.5905 1.5143-1.4476h0.0095ZM36.0095 33.4952c0-2.1048 1.3905-3.5905 3.3619-3.59050.9048 0 1.65710.4 2.1238 1.1333h0.0286v-4.1429h1.7048v9.9905H41.619v-1.0571h-0.0286c-0.43810.7714-1.2667 1.2286-2.219 1.2286-1.9714 0-3.3619-1.4762-3.3619-3.5429v-0.019Zm5.5143-0.0286c0-1.2286-0.7619-2.0381-1.8762-2.0381s-1.88570.8286-1.8857 2.03810.7619 2.0381 1.8857 2.0381 1.8762-0.8095 1.8762-2.0381ZM46.4381 34.019c-0.9238-0.2762-1.819-0.7714-1.819-2.0095 0-1.2381 1.0476-2.1048 2.6-2.1048 1.0476 0 1.85710.3714 2.3143 1.0571l-0.981 0.981c-0.3429-0.4286-0.8095-0.6571-1.3238-0.6571-0.581 0-0.93330.2571-0.93330.6762 0 0.55240.5810.6476 1.4190.90480.92380.2762 1.8190.7714 1.819 2.0095 0 1.2381-1.1048 2.1619-2.7238 2.1619-1.0571 0-1.9143-0.3714-2.4095-1.0762l0.981-0.981c0.37140.43810.86670.6762 1.4190.67620.6571 0 1.0571-0.2762 1.0571-0.7333 0-0.5524-0.581-0.6476-1.419-0.9048ZM52.5524 35.8095h-0.0286v1.0571h-1.6286V26.8762h1.7048v4.1429h0.0286c0.4952-0.7333 1.2381-1.1333 2.1524-1.1333 1.9429 0 3.3333 1.4857 3.3333 3.5714s-1.3905 3.5714-3.3333 3.5714c-0.9524 0-1.7333-0.4381-2.2286-1.2286v0.0095Zm3.819-2.3429c0-1.2286-0.7619-2.0381-1.8762-2.0381s-1.88570.8286-1.8857 2.03810.7714 2.0381 1.8857 2.0381 1.8762-0.8095 1.8762-2.0381ZM59 34.9238c0-1.3048 1.0857-2.0952 2.9048-2.1048h1.3238v-0.2381c0-0.8-0.5143-1.2095-1.4286-1.2095-0.6095 0-1.14290.2381-1.51430.6571l-1.0286-1.0095c0.5905-0.7333 1.5429-1.1333 2.7143-1.1333 1.819 0 2.9714 0.9905 2.9714 2.5714v2.6952c0 0.24760.11430.36190.3810.3619h0.1238v1.3333h-0.8c-0.6476 0-1.0857-0.3048-1.2286-0.8h-0.0286c-0.42860.619-1.1333 0.9619-1.981 0.9619-1.4286 0-2.4095-0.8571-2.4095-2.1048v0.019Zm4.2286-0.5905v-0.381H62.0952c-0.89520.0286-1.3810.3429-1.3810.9333 0 0.52380.40950.8952 0.99050.89520.8952 0 1.5143-0.5905 1.5143-1.4476h0.0095ZM66.781 30.0667h1.6095v0.9238h0.0286c0.3143-0.6762 1.0095-1.0857 1.8-1.0857 1.7048 0 2.5905 0.981 2.5905 2.8476v4.1143h-1.7048v-3.7905c0-1.1524-0.4095-1.6952-1.2857-1.6952-0.8762 0-1.33330.6095-1.3333 1.7333v3.7429h-1.7048v-6.80.0095ZM76.2762 36.8667H74.5714V26.8762h1.7048v6.2571h0.0286l2.5333-3.0762h2.0667l-2.6286 3.019 2.7524 3.7905h-2.0667l-1.8857-2.6762-0.80.9238v1.7524ZM84.7333 30.0667h1.8571l1.581 4.9048h0.0286l1.6286-4.9048h1.819l-2.5619 6.8h-1.8286l-2.5238-6.8ZM92 34.9238c0-1.3048 1.0857-2.0952 2.9048-2.1048h1.3238v-0.2381c0-0.8-0.5143-1.2095-1.4286-1.2095-0.6095 0-1.14290.2381-1.51430.6571l-1.0286-1.0095c0.5905-0.7333 1.5429-1.1333 2.7143-1.1333 1.819 0 2.9714 0.9905 2.9714 2.5714v2.6952c0 0.24760.11430.36190.3810.3619h0.1238v1.3333h-0.8c-0.6476 0-1.0857-0.3048-1.2286-0.8h-0.0286c-0.42860.619-1.1333 0.9619-1.981 0.9619-1.4286 0-2.4095-0.8571-2.4095-2.1048v0.019Zm4.2286-0.5905v-0.381h-1.1333c-0.89520.0286-1.3810.3429-1.3810.9333 0 0.52380.40950.8952 0.99050.89520.8952 0 1.5143-0.5905 1.5143-1.4476h0.0095ZM99.781 30.0667h1.6095v0.9238h0.0286c0.3143-0.6762 1.0095-1.0857 1.8-1.0857 1.7048 0 2.5905 0.981 2.5905 2.8476v4.1143h-1.7048v-3.7905c0-1.1524-0.4095-1.6952-1.2762-1.6952-0.8667 0-1.33330.6095-1.3333 1.7333v3.7429h-1.7048v-6.8l-0.00950.0095ZM111.0952 27.9143h1.819v7.4095h3.3238v1.5429h-5.1333v-8.9524h-0.0095ZM117.019 33.4667c0-2.1048 1.419-3.5714 3.4476-3.5714s3.4286 1.4476 3.4286 3.5238c0 0.1619-0.02860.4286-0.05710.6095h-5.0952c0.12380.92380.9048 1.5429 1.9143 1.54290.7429 0 1.3905-0.2762 1.819-0.7714l1.0286 1.0095c-0.6190.8-1.6952 1.2286-2.9333 1.2286-2.0952 0-3.5524-1.4762-3.5524-3.5714Zm1.7238-0.6857h3.4286c-0.1143-0.8952-0.8-1.5048-1.7238-1.5048-0.9238 0-1.60950.6095-1.7048 1.5048ZM125.3048 30.0667h1.6095v0.9238h0.0286c0.3143-0.6762 1.0095-1.0857 1.8-1.0857 1.7048 0 2.5905 0.981 2.5905 2.8476v4.1143h-1.7048v-3.7905c0-1.1524-0.4095-1.6952-1.2857-1.6952-0.8762 0-1.33330.6095-1.3333 1.7333v3.7429h-1.7048v-6.80.0095ZM133.9429 29.2c-0.5905 0-1.019-0.4095-1.019-0.9905 0-0.5810.4286-0.9905 1.019-0.99050.5905 0 1.0190.4095 1.019 0.9905 0 0.581-0.4286 0.9905-1.019 0.9905Zm-0.85710.8667h1.7048v6.8h-1.7048v-6.8ZM136.6381 30.0667h1.6095v0.9238h0.0286c0.3143-0.6762 1.0095-1.0857 1.8-1.0857 1.7048 0 2.5905 0.981 2.5905 2.8476v4.1143h-1.7048v-3.7905c0-1.1524-0.4095-1.6952-1.2857-1.6952-0.8762 0-1.33330.6095-1.3333 1.7333v3.7429h-1.7048v-6.80.0095ZM144.3238 38.4952l1.1048-1.0762c0.37140.4286 1.04760.6857 1.7810.6857 1.2381 0 1.9238-0.5619 1.9238-1.5524v-1.0476h-0.0286c-0.3810.7143-1.1048 1.1143-2 1.1143-1.9143 0-3.181-1.3524-3.181-3.3619s1.3048-3.3429 3.181-3.3429c0.9619 0 1.72380.4286 2.0952 1.1524h0.0286v-1.0095h1.6095v6.5524c0 1.819-1.3905 2.9619-3.6095 2.9619-1.2667 0-2.3143-0.4-2.9048-1.0857v0.0095Zm4.819-5.2381c0-1.1333-0.7048-1.9143-1.7333-1.9143s-1.73330.781-1.7333 1.91430.7143 1.9048 1.7333 1.9048 1.7333-0.781 1.7333-1.9048Z"/>
  </g>
  <g class="ams-logo__text-primary">
    <path fill="#EC0000" d="M19.9429 14.6h2.0667l3.581 8.9524h-1.9143l-0.7429-1.9714H18.9524l-0.7429 1.9714h-1.8476l3.581-8.9524Zm-0.4571 5.4952h2.8952L20.9524 16.3238h-0.0286l-1.4286 3.7714h-0.0095ZM26.7143 16.7524h1.6v0.9238h0.0286c0.3429-0.7048 0.9524-1.0857 1.7333-1.08570.8857 0 1.54290.381 1.9524 1.15240.4095-0.7429 1.1714-1.1524 2.1333-1.1524 1.6762 0 2.49520.9333 2.4952 2.8476v4.1143H34.9524v-3.8286c0-1.1143-0.381-1.6571-1.181-1.6571s-1.22860.5905-1.2286 1.7048v3.7714h-1.7048V19.7143c0-1.1333-0.3714-1.6571-1.181-1.6571s-1.22860.6095-1.2286 1.7048v3.7714h-1.7048v-6.8l-0.00950.019ZM39.8 20.7048c-0.9238-0.2762-1.819-0.7714-1.819-2.0095 0-1.2381 1.0476-2.1048 2.6-2.1048 1.0476 0 1.85710.3714 2.3143 1.0571l-0.981 0.981c-0.3429-0.4286-0.8095-0.6571-1.3238-0.6571-0.581 0-0.93330.2571-0.93330.6762 0 0.55240.5810.6476 1.4190.90480.92380.2762 1.8190.7714 1.819 2.0095 0 1.2381-1.1048 2.1619-2.7238 2.1619-1.0571 0-1.9143-0.3714-2.4095-1.0762l0.981-0.981c0.37140.43810.86670.6762 1.4190.67620.6571 0 1.0571-0.2762 1.0571-0.7333 0-0.5524-0.581-0.6476-1.419-0.9048ZM44.7048 21.1143v-2.9429h-1.1714v-1.419h0.619c0.5619 0 0.781-0.2190.781-0.781v-1.0571h1.4571v1.8476h1.6571v1.419h-1.6571v2.9429c0 0.65710.3429 1.0286 0.981 1.02860.1905 0 0.4286-0.02860.5619-0.0667v1.4286c-0.20950.0571-0.59050.0952-0.89520.0952-1.5429 0-2.3429-0.8571-2.3429-2.4952h0.0095ZM48.8952 20.1524c0-2.1048 1.419-3.5714 3.4476-3.5714s3.4286 1.4476 3.4286 3.5238c0 0.1619-0.02860.4286-0.05710.6095h-5.0952c0.12380.92380.9048 1.5429 1.9143 1.54290.7429 0 1.3905-0.2762 1.819-0.7714l1.0286 1.0095c-0.6190.8-1.6952 1.2286-2.9333 1.2286-2.0952 0-3.5524-1.4762-3.5524-3.5714Zm1.7238-0.6857h3.4286c-0.1143-0.8952-0.8-1.5048-1.7238-1.5048-0.9238 0-1.60950.6095-1.7048 1.5048ZM57.181 16.7524h1.6095v1.1333h0.0286c0.3333-0.77140.9333-1.181 1.7333-1.1810.2095 0 0.49520.02860.60950.0667v1.6286c-0.1905-0.0571-0.5619-0.0952-0.8381-0.0952-0.8667 0-1.42860.6571-1.4286 1.6762v3.581h-1.7048V16.7619l-0.0095-0.0095ZM61.6476 20.181c0-2.1048 1.3905-3.5905 3.3619-3.59050.9048 0 1.65710.4 2.1238 1.1333h0.0286v-4.1429h1.7048v9.9905h-1.6095v-1.0571h-0.0286c-0.43810.7714-1.2667 1.2286-2.219 1.2286-1.9714 0-3.3619-1.4762-3.3619-3.5429v-0.019Zm5.5143-0.0286c0-1.2286-0.7619-2.0381-1.8762-2.0381s-1.88570.8286-1.8857 2.03810.7619 2.0381 1.8857 2.0381 1.8762-0.8095 1.8762-2.0381ZM70.1714 21.619c0-1.3048 1.0857-2.0952 2.9048-2.1048h1.3238v-0.2381c0-0.8-0.5143-1.2095-1.4286-1.2095-0.6095 0-1.14290.2381-1.51430.6571l-1.0286-1.0095c0.5905-0.7333 1.5429-1.1333 2.7143-1.1333 1.819 0 2.9714 0.9905 2.9714 2.5714v2.6952c0 0.24760.11430.36190.3810.3619h0.1238v1.3333h-0.8c-0.6476 0-1.0857-0.3048-1.2286-0.8h-0.0286c-0.42860.619-1.1333 0.9619-1.981 0.9619-1.4286 0-2.4095-0.8571-2.4095-2.1048v0.019Zm4.2286-0.5905v-0.381h-1.1333c-0.89520.0286-1.3810.3429-1.3810.9333 0 0.52380.40950.8952 0.99050.89520.8952 0 1.5143-0.5905 1.5143-1.4476h0.0095ZM77.9524 16.7524h1.6v0.9238h0.0286c0.3429-0.7048 0.9524-1.0857 1.7333-1.08570.8857 0 1.54290.381 1.9524 1.15240.4095-0.7429 1.1714-1.1524 2.1333-1.1524 1.6762 0 2.49520.9333 2.4952 2.8476v4.1143H86.1905v-3.8286c0-1.1143-0.381-1.6571-1.181-1.6571s-1.22860.5905-1.2286 1.7048v3.7714h-1.7048V19.7143c0-1.1333-0.3714-1.6571-1.181-1.6571s-1.22860.6095-1.2286 1.7048v3.7714h-1.7048v-6.8l-0.00950.019ZM16.7429 5.581c0-2.7143 1.9048-4.6286 4.5905-4.6286 1.3619 0 2.50480.4381 3.3238 1.3238l-1.181 1.1333c-0.5143-0.5619-1.2381-0.8952-2.1048-0.8952-1.6286 0-2.7524 1.2667-2.7524 3.0762s1.1048 3.1238 2.6857 3.1238c1.4476 0 2.4476-0.8286 2.4476-2.0286v-0.2381h-2.1619V4.9429h3.981v1.3905c0 2.2857-1.781 3.8952-4.3238 3.8952S16.7619 8.3048 16.7619 5.5714l-0.0190.0095ZM26.7143 6.6667c0-2.1048 1.419-3.5714 3.4476-3.5714s3.4286 1.4476 3.4286 3.5238c0 0.1619-0.02860.4286-0.05710.6095h-5.0952c0.12380.92380.9048 1.5429 1.9143 1.54290.7429 0 1.3905-0.2762 1.819-0.7714l1.0286 1.0095c-0.6190.8-1.6952 1.2286-2.9333 1.2286-2.0952 0-3.5524-1.4762-3.5524-3.5714Zm1.7238-0.6857h3.4286c-0.1143-0.8952-0.8-1.5048-1.7238-1.5048-0.9238 0-1.60950.6095-1.7048 1.5048ZM35 3.2667h1.6v0.9238h0.0286c0.3429-0.7048 0.9524-1.0857 1.7333-1.08570.8857 0 1.54290.381 1.9524 1.15240.4095-0.7429 1.1714-1.1524 2.1333-1.1524 1.6762 0 2.49520.9333 2.4952 2.8476v4.1143H43.2381V6.2381c0-1.1143-0.381-1.6571-1.181-1.6571s-1.22860.5905-1.2286 1.7048v3.7714h-1.7048V6.2381c0-1.1333-0.3714-1.6571-1.181-1.6571s-1.22860.6095-1.2286 1.7048v3.7714h-1.7048V3.2667h-0.0095ZM46.2952 6.6667c0-2.1048 1.419-3.5714 3.4476-3.5714s3.4286 1.4476 3.4286 3.5238c0 0.1619-0.02860.4286-0.05710.6095h-5.0952c0.12380.92380.9048 1.5429 1.9143 1.54290.7429 0 1.3905-0.2762 1.819-0.7714l1.0286 1.0095c-0.6190.8-1.6952 1.2286-2.9333 1.2286-2.0952 0-3.5524-1.4762-3.5524-3.5714Zm1.7238-0.6857h3.4286c-0.1143-0.8952-0.8-1.5048-1.7238-1.5048-0.9238 0-1.60950.6095-1.7048 1.5048ZM54.1619 6.6667c0-2.1048 1.419-3.5714 3.4476-3.5714s3.4286 1.4476 3.4286 3.5238c0 0.1619-0.02860.4286-0.05710.6095h-5.0952c0.12380.92380.9048 1.5429 1.9143 1.54290.7429 0 1.3905-0.2762 1.819-0.7714l1.0286 1.0095c-0.6190.8-1.6952 1.2286-2.9333 1.2286-2.0952 0-3.5524-1.4762-3.5524-3.5714Zm1.7238-0.6857h3.4286c-0.1143-0.8952-0.8-1.5048-1.7238-1.5048-0.9238 0-1.60950.6095-1.7048 1.5048ZM62.4571 3.2667h1.6095v0.9238h0.0286c0.3143-0.6762 1.0095-1.0857 1.8-1.0857 1.7048 0 2.5905 0.981 2.5905 2.8476v4.1143h-1.7048V6.2762c0-1.1524-0.4095-1.6952-1.2762-1.6952-0.8667 0-1.33330.6095-1.3333 1.7333v3.7429h-1.7048V3.2667h-0.0095ZM70.6762 7.6286v-2.9524h-1.1714V3.2571h0.619c0.5619 0 0.781-0.2190.781-0.781V1.419h1.4571v1.8476h1.6571v1.419h-1.6571v2.9524c0 0.65710.3429 1.0286 0.981 1.02860.1905 0 0.4286-0.02860.5619-0.0667v1.4286c-0.20950.0571-0.59050.0952-0.89520.0952-1.5429 0-2.3429-0.8571-2.3429-2.4952h0.0095ZM74.8667 6.6667c0-2.1048 1.419-3.5714 3.4476-3.5714s3.4286 1.4476 3.4286 3.5238c0 0.1619-0.02860.4286-0.05710.6095h-5.0952c0.12380.92380.9048 1.5429 1.9143 1.54290.7429 0 1.3905-0.2762 1.819-0.7714l1.0286 1.0095c-0.6190.8-1.6952 1.2286-2.9333 1.2286-2.0952 0-3.5524-1.4762-3.5524-3.5714Zm1.7238-0.6857h3.4286c-0.1143-0.8952-0.8-1.5048-1.7238-1.5048-0.9238 0-1.60950.6095-1.7048 1.5048Z"/>
  </g>
</svg>
