<svg viewBox="0 0 24 24" xmlns="http://www.w3.org/2000/svg"><path d="M11.2929 2.40102L12.7071 1L16.9142 5.16786L12.7071 9.33572L11.2929 7.9347L13.0175 6.22615C12.6854 6.18164 12.3458 6.15858 12 6.15858C11.0342 6.15858 10.1155 6.33845 9.273 6.66442C8.52689 6.95307 7.83766 7.35744 7.2281 7.85615C5.55855 9.2221 4.5 11.282 4.5 13.5886C4.5 17.6921 7.85786 21.0187 12 21.0187C16.1421 21.0187 19.5 17.6921 19.5 13.5886C19.5 11.3395 18.4937 9.32536 16.8959 7.95986L18.3132 6.55584C20.2684 8.27966 21.5 10.7917 21.5 13.5886C21.5 18.7864 17.2467 23 12 23C6.75329 23 2.5 18.7864 2.5 13.5886C2.5 10.6661 3.84468 8.05465 5.95455 6.32844C6.72545 5.69772 7.59851 5.18518 8.54545 4.81882C9.61613 4.40459 10.7813 4.17724 12 4.17724C12.3911 4.17724 12.7767 4.20065 13.1554 4.24614L11.2929 2.40102Z"/></svg>