<svg viewBox="0 0 24 24" xmlns="http://www.w3.org/2000/svg"><path fill-rule="evenodd" clip-rule="evenodd" d="M7 9.87988C7.35246 9.87988 7.68943 9.81358 7.99913 9.69275C8.31995 8.79972 8.93128 8.04519 9.71916 7.54313C9.73947 7.40834 9.75 7.27034 9.75 7.12988C9.75 5.6111 8.51878 4.37988 7 4.37988C5.48122 4.37988 4.25 5.6111 4.25 7.12988C4.25 8.64867 5.48122 9.87988 7 9.87988ZM7 7.87988C7.41421 7.87988 7.75 7.5441 7.75 7.12988C7.75 6.71567 7.41421 6.37988 7 6.37988C6.58579 6.37988 6.25 6.71567 6.25 7.12988C6.25 7.5441 6.58579 7.87988 7 7.87988Z"/><path fill-rule="evenodd" clip-rule="evenodd" d="M19.75 7.12988C19.75 8.64867 18.5188 9.87988 17 9.87988C16.6475 9.87988 16.3106 9.81358 16.0009 9.69275C15.68 8.79972 15.0687 8.04519 14.2808 7.54313C14.2605 7.40834 14.25 7.27034 14.25 7.12988C14.25 5.6111 15.4812 4.37988 17 4.37988C18.5188 4.37988 19.75 5.6111 19.75 7.12988ZM17.75 7.12988C17.75 7.5441 17.4142 7.87988 17 7.87988C16.5858 7.87988 16.25 7.5441 16.25 7.12988C16.25 6.71567 16.5858 6.37988 17 6.37988C17.4142 6.37988 17.75 6.71567 17.75 7.12988Z"/><path d="M6.94479 16.3446C7.18524 15.479 7.97341 14.8799 8.87182 14.8799H15.1294C16.0278 14.8799 16.816 15.479 17.0565 16.3446L17.9641 19.6122H15.8884L15.1294 16.8799H8.87182L8.11284 19.6122H6.03711L6.94479 16.3446Z"/><path fill-rule="evenodd" clip-rule="evenodd" d="M12 13.8799C13.5188 13.8799 14.75 12.6487 14.75 11.1299C14.75 9.6111 13.5188 8.37988 12 8.37988C10.4812 8.37988 9.25 9.6111 9.25 11.1299C9.25 12.6487 10.4812 13.8799 12 13.8799ZM12 11.8799C12.4142 11.8799 12.75 11.5441 12.75 11.1299C12.75 10.7157 12.4142 10.3799 12 10.3799C11.5858 10.3799 11.25 10.7157 11.25 11.1299C11.25 11.5441 11.5858 11.8799 12 11.8799Z"/><path d="M3.85618 11.3799H7.71538C7.75814 12.1116 7.98743 12.7936 8.35674 13.3799H3.85618L3.09144 16.1122H1L1.91455 12.8446C2.15683 11.979 2.95096 11.3799 3.85618 11.3799Z"/><path d="M20.1438 13.3799L15.6238 13.3799C15.9931 12.7936 16.2224 12.1116 16.2652 11.3799H20.1438C21.049 11.3799 21.8432 11.979 22.0854 12.8446L23 16.1122H20.9086L20.1438 13.3799Z"/></svg>