<svg viewBox="0 0 24 24" xmlns="http://www.w3.org/2000/svg"><path fill-rule="evenodd" clip-rule="evenodd" d="M15.5136 1.12341C16.7763 0.806852 18 1.76167 18 3.06337L18 4.17075C19.1652 4.58259 20 5.69383 20 7.00004V20C20 21.6569 18.6569 23 17 23H4V4.00004H4.03989L15.5136 1.12341ZM16 3.78065L16 4.00004H12.6194L15.3763 3.29619C15.6925 3.21547 16 3.45434 16 3.78065ZM6 6.00004H17C17.5523 6.00004 18 6.44775 18 7.00004V20C18 20.5523 17.5523 21 17 21H6V6.00004ZM15.4195 12.75C15.2341 13.5991 14.7405 14.333 14.0618 14.8286C14.2711 14.2195 14.4147 13.513 14.4721 12.75H15.4195ZM15.4195 11.25C15.2341 10.4009 14.7405 9.66704 14.0618 9.17149C14.2711 9.7806 14.4147 10.4871 14.4721 11.25H15.4195ZM12.9671 11.25C12.8897 10.3808 12.683 9.64907 12.4261 9.13533C12.2365 8.75603 12.0819 8.59825 12 8.53476C11.9181 8.59825 11.7635 8.75603 11.5739 9.13533C11.317 9.64907 11.1103 10.3808 11.0329 11.25H12.9671ZM11.0329 12.75C11.1103 13.6192 11.317 14.351 11.5739 14.8648C11.7635 15.244 11.9181 15.4018 12 15.4653C12.0819 15.4018 12.2365 15.244 12.4261 14.8648C12.683 14.351 12.8897 13.6192 12.9671 12.75H11.0329ZM9.52794 12.75C9.58532 13.513 9.7289 14.2195 9.93821 14.8286C9.25952 14.333 8.76592 13.5991 8.58054 12.75H9.52794ZM9.52794 11.25C9.58532 10.4871 9.7289 9.7806 9.93821 9.17149C9.25952 9.66704 8.76592 10.4009 8.58054 11.25H9.52794ZM17 12C17 14.7615 14.7614 17 12 17C9.23858 17 7 14.7615 7 12C7 9.23862 9.23858 7.00004 12 7.00004C14.7614 7.00004 17 9.23862 17 12ZM8.70001 19.75H15.2V18.25H8.70001V19.75Z"/></svg>