<svg viewBox="0 0 24 24" xmlns="http://www.w3.org/2000/svg"><path fill-rule="evenodd" clip-rule="evenodd" d="M16.7468 6.75C16.7468 9.37335 14.6201 11.5 11.9968 11.5C9.3734 11.5 7.24676 9.37335 7.24676 6.75C7.24676 4.12665 9.3734 2 11.9968 2C14.6201 2 16.7468 4.12665 16.7468 6.75ZM11.9968 9.5C13.5155 9.5 14.7468 8.26878 14.7468 6.75C14.7468 5.23122 13.5155 4 11.9968 4C10.478 4 9.24676 5.23122 9.24676 6.75C9.24676 8.26878 10.478 9.5 11.9968 9.5Z"/><path d="M3.18035 14.4793C3.11711 14.6321 3.07846 14.8026 3.05387 14.9642L2 22.0001H4.01288L4.32188 20.0001L5.03111 15.2651L5.03136 15.2634C5.03359 15.2489 5.03571 15.2369 5.03762 15.2271L5.03993 15.216L5.04962 15.1905C5.06613 15.1471 5.10155 15.097 5.16053 15.0564C5.21966 15.0157 5.27995 15.0001 5.32711 15.0001H18.6767C18.7284 15.0001 18.7971 15.0199 18.8639 15.0777C18.9309 15.1357 18.9635 15.2043 18.9721 15.261L19.9833 22.0001H22.0038L20.95 14.9642C20.7831 13.8521 19.801 13.0001 18.6767 13.0001H5.32711C4.38549 13.0001 3.51589 13.5974 3.18035 14.4793Z"/></svg>