<svg viewBox="0 0 24 24" xmlns="http://www.w3.org/2000/svg"><path fill-rule="evenodd" clip-rule="evenodd" d="M13.5385 10.5476V17.5L14 19.5V21.5H2V19.5L2.46154 17.5V2.5H13.5385V8.54761H14.1746C15.735 8.54761 17 9.81258 17 11.373V18.25C17 18.9403 17.5596 19.5 18.25 19.5C18.9404 19.5 19.5 18.9403 19.5 18.25V13H18.3013V8.75C18.3013 8.19772 17.8536 7.75 17.3013 7.75H16.7667V7H14.9667V5.5H16.7667V4.75H14.9667V3.25H16.7667V2.5H18.875C21.1532 2.5 23 4.34683 23 6.625V13H21.5V18.25C21.5 20.0449 20.0449 21.5 18.25 21.5C16.4551 21.5 15 20.0449 15 18.25V11.373C15 10.9172 14.6305 10.5476 14.1746 10.5476H13.5385ZM4.05256 19.5H11.9474L11.5385 17.7278V4.5H4.46154V17.7278L4.05256 19.5ZM9.03053 7L9.03053 10.3588H11L6.96946 16.0687L6.96946 12.7099H5L9.03053 7ZM20.3013 11H21V6.625C21 5.4514 20.0486 4.5 18.875 4.5H18.5V5.99906C19.5602 6.46169 20.3013 7.5193 20.3013 8.75V11Z"/></svg>