<svg viewBox="0 0 24 24" xmlns="http://www.w3.org/2000/svg"><path fill-rule="evenodd" clip-rule="evenodd" d="M15.5136 1.12329C16.7763 0.80673 18 1.76155 18 3.06325V3.12594C17.6804 3.04367 17.3453 2.99992 17 2.99992H8.0285L15.5136 1.12329ZM4 3.99991H17C18.6569 3.99991 20 5.34305 20 6.99991V19.9999C20 21.6568 18.6569 22.9999 17 22.9999H4V3.99991ZM15.4195 12.7499C15.2341 13.599 14.7405 14.3329 14.0618 14.8285C14.2711 14.2194 14.4147 13.5129 14.4721 12.7499H15.4195ZM15.4195 11.2499C15.2341 10.4008 14.7405 9.66691 14.0618 9.17136C14.2711 9.78047 14.4147 10.487 14.4721 11.2499H15.4195ZM12.9671 11.2499C12.8897 10.3807 12.683 9.64894 12.4261 9.13519C12.2365 8.7559 12.0819 8.59812 12 8.53463C11.9181 8.59812 11.7635 8.7559 11.5739 9.13519C11.317 9.64894 11.1103 10.3807 11.0329 11.2499H12.9671ZM11.0329 12.7499C11.1103 13.6191 11.317 14.3509 11.5739 14.8646C11.7635 15.2439 11.9181 15.4017 12 15.4652C12.0819 15.4017 12.2365 15.2439 12.4261 14.8646C12.683 14.3509 12.8897 13.6191 12.9671 12.7499H11.0329ZM9.52794 12.7499C9.58532 13.5129 9.7289 14.2194 9.93821 14.8285C9.25952 14.3329 8.76592 13.599 8.58054 12.7499H9.52794ZM9.52794 11.2499C9.58532 10.487 9.7289 9.78047 9.93821 9.17136C9.25952 9.66691 8.76592 10.4008 8.58054 11.2499H9.52794ZM17 11.9999C17 14.7613 14.7614 16.9999 12 16.9999C9.23858 16.9999 7 14.7613 7 11.9999C7 9.23848 9.23858 6.99991 12 6.99991C14.7614 6.99991 17 9.23848 17 11.9999ZM15.2 19.7499H8.70001V18.2499H15.2V19.7499Z"/></svg>