<svg viewBox="0 0 24 24" xmlns="http://www.w3.org/2000/svg"><path d="M11.1444 12.2947V11.6558C11.1444 10.8652 11.5234 10.4645 11.9024 10.0963C11.9512 10.0489 12.0004 10.0031 12.049 9.95779C12.3671 9.66127 12.6605 9.38782 12.6605 8.86175C12.6605 8.41774 12.3356 8.15783 11.7833 8.15783C11.3935 8.15783 11.0686 8.35276 10.7762 8.76429L9.6499 7.86544C10.2022 7.09654 10.8953 6.75 12.0216 6.75C13.4186 6.75 14.3499 7.46475 14.3499 8.61267C14.3499 9.45737 13.9059 9.99885 13.4619 10.4537C13.4275 10.4881 13.3931 10.5222 13.3589 10.5562C12.9082 11.0041 12.4872 11.4224 12.4872 11.9157V12.2947H11.1444Z"/><path d="M11.8158 14.8505C11.2527 14.8505 10.8411 14.4498 10.8411 13.8866C10.8411 13.3343 11.2635 12.9228 11.8158 12.9228C12.3681 12.9228 12.7905 13.3343 12.7905 13.8866C12.7905 14.4498 12.3789 14.8505 11.8158 14.8505Z"/><path fill-rule="evenodd" clip-rule="evenodd" d="M4 22V2H20V16.21L17.43 22H4ZM18 4H6V20.01H15.56L14.18 18.46L18 15.63V4Z"/></svg>