<svg viewBox="0 0 24 24" xmlns="http://www.w3.org/2000/svg"><path d="M14.2 4.53998L18.54 3.16998C15.7357 1.1042 12.0749 0.452637 8.7106 1.50352C10.4062 0.979132 12.4072 2.10984 14.2 4.53998Z"/><path d="M8.66544 1.51775C5.31713 2.58284 2.68727 5.21804 1.57998 8.51998L5.91998 7.14998C5.98964 4.13459 6.98036 2.06006 8.66544 1.51775Z"/><path d="M7.43998 6.66998C7.56998 4.64998 8.18998 3.23998 9.13998 2.93998C10.09 2.62998 11.41 3.43998 12.67 5.01998L7.43998 6.66998Z"/><path d="M19.21 16.26L21.91 19.15L20.45 20.52L17.47 17.34H8.53L5.55 20.52L4.09 19.15L5.79 17.33H4V15.33H17.41L21.2 10.23L22.8 11.42L19.21 16.25V16.26Z"/><path d="M19.67 4.38998L15 5.85998L15.43 7.20998C15.6 7.73998 16.16 8.02998 16.68 7.85998L17.94 7.45998C19.25 7.04998 19.99 5.68998 19.68 4.37998L19.67 4.38998Z"/><path d="M6.04998 8.68998L1.34998 10.17C1.84998 11.43 3.22998 12.11 4.53998 11.7L5.81998 11.3C6.34998 11.13 6.63998 10.57 6.46998 10.05L6.03998 8.69998L6.04998 8.68998Z"/><path d="M13.79 14.33L12.2 9.27998L13.35 8.91998C13.88 8.74998 14.17 8.18998 14 7.66998L13.57 6.31998L7.45998 8.24998L7.88998 9.59998C8.05998 10.13 8.61998 10.42 9.13998 10.25L10.29 9.88998L11.69 14.34H13.79V14.33Z"/><path d="M13.6311 20.5H15.7302L15.05 18.33H12.95L13.6311 20.5Z"/></svg>