<svg viewBox="0 0 24 24" xmlns="http://www.w3.org/2000/svg"><path fill-rule="evenodd" clip-rule="evenodd" d="M10 4.5H18V6H10V4.5ZM8 4.5H6V6H8V4.5ZM6 8V11.4197L7.01556 12H16.9844L18 11.4197V8H6ZM6 17.5V13.7232L6.48444 14H17.5156L18 13.7232V17.5H6ZM4 4.5C4 3.39543 4.89543 2.5 6 2.5H18C19.1046 2.5 20 3.39543 20 4.5V6H22C22.5523 6 23 6.44772 23 7V11C23 11.5523 22.5523 12 22 12H21V8H20V19.5H19V21.5H15V19.5H9V21.5H5V19.5H4V8H3V12H2C1.44772 12 1 11.5523 1 11V7C1 6.44772 1.44772 6 2 6H4V4.5ZM17.5 16.75H15V14.75H17.5V16.75ZM6.5 16.75H9V14.75H6.5V16.75Z"/></svg>