<svg viewBox="0 0 24 24" xmlns="http://www.w3.org/2000/svg"><path fill-rule="evenodd" clip-rule="evenodd" d="M4.01537 11.5C4.27347 7.31464 7.74965 4 12 4C16.4183 4 20 7.58172 20 12C20 16.4183 16.4183 20 12 20C11.3555 20 10.73 19.924 10.1314 19.7808L12.8866 11.5H4.01537ZM2.01228 11.5C2.2728 6.20944 6.64482 2 12 2C17.5228 2 22 6.47715 22 12C22 17.5228 17.5228 22 12 22C11.1373 22 10.2988 21.8905 9.49813 21.6842L9.1332 22.781L8.18443 22.4655C4.01144 21.0777 1 17.1419 1 12.5V11.5H2.01228ZM7.88557 20.1958C5.28493 18.9722 3.40625 16.4693 3.05821 13.5H10.1134L7.88557 20.1958Z"/></svg>