<svg viewBox="0 0 24 24" xmlns="http://www.w3.org/2000/svg"><path d="M5.79297 7.89746C7.15217 7.89746 8.32583 8.38215 9.21289 9.29395L7.96777 10.4902C7.43848 9.89206 6.68014 9.56454 5.80762 9.56445C4.11935 9.56445 2.94629 10.8471 2.94629 12.6992C2.94644 14.5368 4.13328 15.8329 5.82129 15.833C6.70827 15.833 7.52399 15.4913 8.03906 14.9072L9.26953 16.0898C8.42547 17.0014 7.2095 17.4999 5.80762 17.5C2.97476 17.5 1 15.5339 1 12.6846C1.00002 9.84949 2.96013 7.89746 5.79297 7.89746Z"/><path d="M12.8389 10.291H14.5557V11.7588H12.8389V14.8076C12.839 15.4912 13.1966 15.8759 13.8545 15.876C14.0548 15.876 14.2983 15.8474 14.4414 15.8047V17.2861C14.2269 17.3431 13.8264 17.3857 13.5117 17.3857C11.9094 17.3857 11.0792 16.5027 11.0791 14.8076V11.7588H9.86328V10.291H10.5068C11.0934 10.291 11.3223 10.0626 11.3223 9.47852V8.38184H12.8389V10.291Z"/><path d="M19.4219 10.2344C19.6365 10.2344 19.9373 10.2629 20.0518 10.3057V11.9863C19.8515 11.9293 19.4648 11.8867 19.1787 11.8867C18.2773 11.8867 17.6904 12.5707 17.6904 13.625V17.3291H15.917V10.291H17.5908V11.459H17.6191C17.9625 10.6613 18.5921 10.2344 19.4219 10.2344Z"/><path d="M23 17.3291H21.2256V7H23V17.3291Z"/></svg>