<svg viewBox="0 0 24 24" xmlns="http://www.w3.org/2000/svg"><path fill-rule="evenodd" clip-rule="evenodd" d="M12 7C12.8284 7 13.5 6.32843 13.5 5.5C13.5 4.67157 12 2 12 2C12 2 10.5 4.67157 10.5 5.5C10.5 6.32843 11.1716 7 12 7ZM13 8V10.5H15.5V9H17.5V10.5H18.5C20.0456 10.5 21.3182 11.6688 21.4821 13.1707L20.8514 13.7384L19.4316 14.882C18.7681 15.4165 17.8389 15.4719 17.1165 15.0202L15.1982 13.8206L13.0604 15.1574C12.4117 15.5631 11.5883 15.5631 10.9396 15.1574L8.80182 13.8206L6.88345 15.0202C6.16111 15.4719 5.23189 15.4165 4.56841 14.882L3.13758 13.7295L2.5148 13.2001C2.66525 11.6841 3.94435 10.5 5.5 10.5H6.5V9H8.5V10.5H11V8H13ZM21.5 15.7841L20.6862 16.4396C19.3592 17.5085 17.5008 17.6194 16.0561 16.716L15.1982 16.1794L14.1209 16.8531C12.8234 17.6645 11.1766 17.6645 9.87914 16.8531L8.80182 16.1794L7.94388 16.716C6.49919 17.6194 4.64076 17.5085 3.31379 16.4396L2.5 15.7841V21.5H21.5V15.7841ZM7.5 8C8.32843 8 9 7.32843 9 6.5C9 5.67157 7.5 3 7.5 3C7.5 3 6 5.67157 6 6.5C6 7.32843 6.67157 8 7.5 8ZM16.5 8C17.3284 8 18 7.32843 18 6.5C18 5.67157 16.5 3 16.5 3C16.5 3 15 5.67157 15 6.5C15 7.32843 15.6716 8 16.5 8Z"/></svg>