<!-- @deprecated Use vga-verzekeringen-logo.svg instead -->
<svg xmlns="http://www.w3.org/2000/svg" fill="none" viewBox="0 0 134.8837 40">
  <g class="ams-logo__emblem">
    <path fill="#EC0000" d="m0 35.5349 3.2837-3.2837L0 28.9674l2.186-2.186 3.2837 3.2837 3.2837-3.2837 2.186 2.186-3.2837 3.2837 3.2837 3.2837-2.186 2.186-3.2837-3.2837-3.2837 3.2837L0 35.5349ZM0 9.2651l3.2837-3.2837L0 2.6977 2.1860.5116l3.2837 3.2837L8.75350.5116l2.186 2.186-3.2837 3.2837 3.2837 3.2837-2.186 2.186-3.2837-3.2837-3.2837 3.2837L0 9.2651ZM0 22.4093l3.2837-3.2837L0 15.8419l2.186-2.186 3.2837 3.2837 3.2837-3.2837 2.186 2.186-3.2837 3.2837 3.2837 3.2837-2.186 2.186-3.2837-3.2837-3.2837 3.2837L0 22.4093Z"/>
  </g>
  <g class="ams-logo__text-secondary">
    <path fill="#000" d="M15.9349 27.7767h1.9256l2.2233 6.7163h0.0279l2.2512-6.7163h1.8419l-3.1256 8.7442h-2.0186l-3.1256-8.7442ZM24.6512 32.1395c0-2.6512 1.8605-4.5209 4.4837-4.5209 1.3302 0 2.44650.4279 3.2465 1.293l-1.1535 1.107c-0.5023-0.5488-1.2093-0.8744-2.0558-0.8744-1.5907 0-2.6884 1.2372-2.6884 3.0047s1.0791 3.0512 2.6233 3.0512c1.414 0 2.3907-0.8093 2.3907-1.9814v-0.2326h-2.1116v-1.4698h3.8884v1.3581c0 2.2326-1.7395 3.8047-4.2233 3.8047s-4.3814-1.8791-4.3814-4.5488l-0.01860.0093ZM37.6093 27.7767h2.0186l3.4977 8.7442h-1.8698l-0.7256-1.9256h-3.8884l-0.7256 1.9256h-1.8047l3.4977-8.7442Zm-0.4465 5.3674h2.8279l-1.3953-3.6837h-0.0279l-1.3953 3.6837h-0.0093ZM46.8651 27.7767h1.9256l2.2233 6.7163h0.0279l2.2512-6.7163h1.8419l-3.1256 8.7442h-2.0186l-3.1256-8.7442ZM55.2744 33.2c0-2.0558 1.386-3.4884 3.3674-3.4884s3.3488 1.414 3.3488 3.4419c0 0.1581-0.02790.4186-0.05580.5953h-4.9767c0.12090.90230.8837 1.507 1.8698 1.5070.7256 0 1.3581-0.2698 1.7767-0.7535l1.0047 0.986c-0.60470.7814-1.6558 1.2-2.8651 1.2-2.0465 0-3.4698-1.4419-3.4698-3.4884Zm1.6837-0.6698h3.3488c-0.1116-0.8744-0.7814-1.4698-1.6837-1.4698-0.9023 0-1.57210.5953-1.6651 1.4698ZM63.3767 29.8791h1.5721v1.107h0.0279c0.3256-0.75350.9116-1.1535 1.693-1.15350.2047 0 0.48370.02790.59530.0651v1.5907c-0.186-0.0558-0.5488-0.093-0.8186-0.093-0.8465 0-1.39530.6419-1.3953 1.6372v3.4977h-1.6651v-6.6419l-0.0093-0.0093ZM67.9163 35.4047l3.1628-4.1395h-3.0698v-1.386h5.3302v1.1163l-3.1628 4.1395h3.2558v1.386h-5.5163v-1.1163ZM74.307 33.2c0-2.0558 1.386-3.4884 3.3674-3.4884s3.3488 1.414 3.3488 3.4419c0 0.1581-0.02790.4186-0.05580.5953h-4.9767c0.12090.90230.8837 1.507 1.8698 1.5070.7256 0 1.3581-0.2698 1.7767-0.7535l1.0047 0.986c-0.60470.7814-1.6558 1.2-2.8651 1.2-2.0465 0-3.4698-1.4419-3.4698-3.4884Zm1.6837-0.6698h3.3488c-0.1116-0.8744-0.7814-1.4698-1.6837-1.4698-0.9023 0-1.57210.5953-1.6651 1.4698ZM84.0744 36.5209h-1.6651V26.7628h1.6651v6.1116h0.0279l2.4744-3.0047h2.0186l-2.5674 2.9488 2.6884 3.7023H86.6977l-1.8419-2.614-0.78140.9023v1.7116ZM89.0047 33.2c0-2.0558 1.386-3.4884 3.3674-3.4884s3.3488 1.414 3.3488 3.4419c0 0.1581-0.02790.4186-0.05580.5953h-4.9767c0.12090.90230.8837 1.507 1.8698 1.5070.7256 0 1.3581-0.2698 1.7767-0.7535l1.0047 0.986c-0.60470.7814-1.6558 1.2-2.8651 1.2-2.0465 0-3.4698-1.4419-3.4698-3.4884Zm1.6837-0.6698h3.3488c-0.1116-0.8744-0.7814-1.4698-1.6837-1.4698-0.9023 0-1.57210.5953-1.6651 1.4698ZM97.0977 29.8791h1.5721v1.107h0.0279c0.3256-0.75350.9116-1.1535 1.693-1.15350.2047 0 0.48370.02790.59530.0651v1.5907c-0.186-0.0558-0.5488-0.093-0.8186-0.093-0.8465 0-1.39530.6419-1.3953 1.6372v3.4977h-1.6651v-6.6419l-0.0093-0.0093ZM102.9302 29.0326c-0.5767 0-0.9953-0.4-0.9953-0.9674 0-0.56740.4186-0.9674 0.9953-0.96740.5767 0 0.99530.4 0.9953 0.9674 0 0.5674-0.4186 0.9674-0.9953 0.9674Zm-0.83720.8465h1.6651v6.6419h-1.6651v-6.6419ZM105.5628 29.8791h1.5721v0.9023h0.0279c0.307-0.6605 0.986-1.0605 1.7581-1.0605 1.6651 0 2.5302 0.9581 2.5302 2.7814v4.0186h-1.6651v-3.7023c0-1.1256-0.4-1.6558-1.2558-1.6558-0.8558 0-1.30230.5953-1.3023 1.693v3.6558h-1.6651v-6.64190.0093ZM113.0698 38.1116l1.0791-1.0512c0.36280.4186 1.02330.6698 1.73950.6698 1.2093 0 1.8791-0.5488 1.8791-1.5163v-1.0233h-0.0279c-0.37210.6977-1.0791 1.0884-1.9535 1.0884-1.8698 0-3.107-1.3209-3.107-3.2837s1.2744-3.2651 3.107-3.2651c0.9395 0 1.68370.4186 2.0465 1.1256h0.0279v-0.986h1.5721v6.4c0 1.7767-1.3581 2.893-3.5256 2.893-1.2372 0-2.2605-0.3907-2.8372-1.0605v0.0093Zm4.707-5.1163c0-1.107-0.6884-1.8698-1.693-1.8698s-1.6930.7628-1.693 1.86980.6977 1.8605 1.693 1.8605 1.693-0.7628 1.693-1.8605ZM120.8186 33.2c0-2.0558 1.386-3.4884 3.3674-3.4884s3.3488 1.414 3.3488 3.4419c0 0.1581-0.02790.4186-0.05580.5953h-4.9767c0.12090.90230.8837 1.507 1.8698 1.5070.7256 0 1.3581-0.2698 1.7767-0.7535l1.0047 0.986c-0.60470.7814-1.6558 1.2-2.8651 1.2-2.0465 0-3.4698-1.4419-3.4698-3.4884Zm1.6837-0.6698h3.3488c-0.1116-0.8744-0.7814-1.4698-1.6837-1.4698-0.9023 0-1.57210.5953-1.6651 1.4698ZM128.9209 29.8791h1.5721v0.9023h0.0279c0.307-0.6605 0.986-1.0605 1.7581-1.0605 1.6651 0 2.5302 0.9581 2.5302 2.7814v4.0186h-1.6651v-3.7023c0-1.1256-0.4-1.6558-1.2558-1.6558-0.8558 0-1.30230.5953-1.3023 1.693v3.6558h-1.6651v-6.64190.0093Z"/>
  </g>
  <g class="ams-logo__text-primary">
    <path fill="#EC0000" d="M19.4791 14.7721h2.0186l3.4977 8.7442h-1.8698l-0.7256-1.9256H18.5116l-0.7256 1.9256h-1.8047l3.4977-8.7442Zm-0.4465 5.3674h2.8279L20.4651 16.4558h-0.0279l-1.3953 3.6837h-0.0093ZM26.093 16.8744h1.5628v0.9023h0.0279c0.3349-0.6884 0.9302-1.0605 1.693-1.06050.8651 0 1.5070.3721 1.907 1.12560.4-0.7256 1.1442-1.1256 2.0837-1.1256 1.6372 0 2.43720.9116 2.4372 2.7814v4.0186H34.1395v-3.7395c0-1.0884-0.3721-1.6186-1.1535-1.6186s-1.20.5767-1.2 1.6651v3.6837h-1.6651v-3.7395c0-1.107-0.3628-1.6186-1.1535-1.6186s-1.20.5953-1.2 1.6651v3.6837h-1.6651v-6.6419l-0.00930.0186ZM38.8744 20.7349c-0.9023-0.2698-1.7767-0.7535-1.7767-1.9628 0-1.2093 1.0233-2.0558 2.5395-2.0558 1.0233 0 1.8140.3628 2.2605 1.0326l-0.9581 0.9581c-0.3349-0.4186-0.7907-0.6419-1.293-0.6419-0.5674 0-0.91160.2512-0.91160.6605 0 0.53950.56740.6326 1.3860.88370.90230.2698 1.77670.7535 1.7767 1.9628 0 1.2093-1.0791 2.1116-2.6605 2.1116-1.0326 0-1.8698-0.3628-2.3535-1.0512l0.9581-0.9581c0.36280.42790.84650.6605 1.3860.66050.6419 0 1.0326-0.2698 1.0326-0.7163 0-0.5395-0.5674-0.6326-1.386-0.8837ZM43.6651 21.1349v-2.8744h-1.1442v-1.386h0.6047c0.5488 0 0.7628-0.2140.7628-0.7628v-1.0326h1.4233v1.8047h1.6186v1.386h-1.6186v2.8744c0 0.64190.3349 1.0047 0.9581 1.00470.186 0 0.4186-0.02790.5488-0.0651v1.3953c-0.20470.0558-0.57670.093-0.87440.093-1.507 0-2.2884-0.8372-2.2884-2.4372h0.0093ZM47.7581 20.1953c0-2.0558 1.386-3.4884 3.3674-3.4884s3.3488 1.414 3.3488 3.4419c0 0.1581-0.02790.4186-0.05580.5953h-4.9767c0.12090.90230.8837 1.507 1.8698 1.5070.7256 0 1.3581-0.2698 1.7767-0.7535l1.0047 0.986c-0.60470.7814-1.6558 1.2-2.8651 1.2-2.0465 0-3.4698-1.4419-3.4698-3.4884Zm1.6837-0.6698h3.3488c-0.1116-0.8744-0.7814-1.4698-1.6837-1.4698-0.9023 0-1.57210.5953-1.6651 1.4698ZM55.8512 16.8744h1.5721v1.107h0.0279c0.3256-0.75350.9116-1.1535 1.693-1.15350.2047 0 0.48370.02790.59530.0651v1.5907c-0.186-0.0558-0.5488-0.093-0.8186-0.093-0.8465 0-1.39530.6419-1.3953 1.6372v3.4977h-1.6651v-6.6419l-0.0093-0.0093ZM60.214 20.2233c0-2.0558 1.3581-3.507 3.2837-3.5070.8837 0 1.61860.3907 2.0744 1.107h0.0279v-4.0465h1.6651V23.5349h-1.5721v-1.0326h-0.0279c-0.42790.7535-1.2372 1.2-2.1674 1.2-1.9256 0-3.2837-1.4419-3.2837-3.4605v-0.0186Zm5.386-0.0279c0-1.2-0.7442-1.9907-1.8326-1.9907s-1.84190.8093-1.8419 1.99070.7442 1.9907 1.8419 1.9907 1.8326-0.7907 1.8326-1.9907ZM68.5395 21.6279c0-1.2744 1.0605-2.0465 2.8372-2.0558h1.293v-0.2326c0-0.7814-0.5023-1.1814-1.3953-1.1814-0.5953 0-1.11630.2326-1.47910.6419l-1.0047-0.986c0.5767-0.7163 1.507-1.107 2.6512-1.107 1.7767 0 2.9023 0.9674 2.9023 2.5116v2.6326c0 0.24190.11160.35350.37210.3535h0.1209v1.3023h-0.7814c-0.6326 0-1.0605-0.2977-1.2-0.7814h-0.0279c-0.41860.6047-1.107 0.9395-1.9349 0.9395-1.3953 0-2.3535-0.8372-2.3535-2.0558v0.0186Zm4.1302-0.5767v-0.3721h-1.107c-0.87440.0279-1.34880.3349-1.34880.9116 0 0.51160.40.8744 0.96740.87440.8744 0 1.4791-0.5767 1.4791-1.414h0.0093ZM76.1395 16.8744h1.5628v0.9023h0.0279c0.3349-0.6884 0.9302-1.0605 1.693-1.06050.8651 0 1.5070.3721 1.907 1.12560.4-0.7256 1.1442-1.1256 2.0837-1.1256 1.6372 0 2.43720.9116 2.4372 2.7814v4.0186H84.186v-3.7395c0-1.0884-0.3721-1.6186-1.1535-1.6186s-1.20.5767-1.2 1.6651v3.6837h-1.6651v-3.7395c0-1.107-0.3628-1.6186-1.1535-1.6186s-1.20.5953-1.2 1.6651v3.6837h-1.6651v-6.6419l-0.00930.0186ZM16.3535 5.9628c0-2.6512 1.8605-4.5209 4.4837-4.5209 1.3302 0 2.44650.4279 3.2465 1.293l-1.1535 1.107c-0.5023-0.5488-1.2093-0.8744-2.0558-0.8744-1.5907 0-2.6884 1.2372-2.6884 3.0047s1.0791 3.0512 2.6233 3.0512c1.414 0 2.3907-0.8093 2.3907-1.9814v-0.2326h-2.1116V5.3395h3.8884V6.6977c0 2.2326-1.7395 3.8047-4.2233 3.8047S16.3721 8.6233 16.3721 5.9535l-0.01860.0093ZM26.093 7.0233c0-2.0558 1.386-3.4884 3.3674-3.4884s3.3488 1.414 3.3488 3.4419c0 0.1581-0.02790.4186-0.05580.5953h-4.9767c0.12090.90230.8837 1.507 1.8698 1.5070.7256 0 1.3581-0.2698 1.7767-0.7535l1.0047 0.986c-0.60470.7814-1.6558 1.2-2.8651 1.2-2.0465 0-3.4698-1.4419-3.4698-3.4884Zm1.6837-0.6698h3.3488c-0.1116-0.8744-0.7814-1.4698-1.6837-1.4698-0.9023 0-1.57210.5953-1.6651 1.4698ZM34.186 3.7023h1.5628v0.9023h0.0279c0.3349-0.6884 0.9302-1.0605 1.693-1.06050.8651 0 1.5070.3721 1.907 1.12560.4-0.7256 1.1442-1.1256 2.0837-1.1256 1.6372 0 2.43720.9116 2.4372 2.7814v4.0186H42.2326V6.6047c0-1.0884-0.3721-1.6186-1.1535-1.6186s-1.20.5767-1.2 1.6651v3.6837h-1.6651V6.6047c0-1.107-0.3628-1.6186-1.1535-1.6186s-1.20.5953-1.2 1.6651v3.6837h-1.6651V3.7023h-0.0093ZM45.2186 7.0233c0-2.0558 1.386-3.4884 3.3674-3.4884s3.3488 1.414 3.3488 3.4419c0 0.1581-0.02790.4186-0.05580.5953h-4.9767c0.12090.90230.8837 1.507 1.8698 1.5070.7256 0 1.3581-0.2698 1.7767-0.7535l1.0047 0.986c-0.60470.7814-1.6558 1.2-2.8651 1.2-2.0465 0-3.4698-1.4419-3.4698-3.4884Zm1.6837-0.6698h3.3488c-0.1116-0.8744-0.7814-1.4698-1.6837-1.4698-0.9023 0-1.57210.5953-1.6651 1.4698ZM52.9023 7.0233c0-2.0558 1.386-3.4884 3.3674-3.4884s3.3488 1.414 3.3488 3.4419c0 0.1581-0.02790.4186-0.05580.5953h-4.9767c0.12090.90230.8837 1.507 1.8698 1.5070.7256 0 1.3581-0.2698 1.7767-0.7535l1.0047 0.986c-0.60470.7814-1.6558 1.2-2.8651 1.2-2.0465 0-3.4698-1.4419-3.4698-3.4884Zm1.6837-0.6698h3.3488c-0.1116-0.8744-0.7814-1.4698-1.6837-1.4698-0.9023 0-1.57210.5953-1.6651 1.4698ZM61.0047 3.7023h1.5721v0.9023h0.0279c0.307-0.6605 0.986-1.0605 1.7581-1.0605 1.6651 0 2.5302 0.9581 2.5302 2.7814v4.0186h-1.6651V6.6419c0-1.1256-0.4-1.6558-1.2465-1.6558-0.8465 0-1.30230.5953-1.3023 1.693v3.6558h-1.6651V3.7023h-0.0093ZM69.0326 7.9628V5.0884h-1.1442V3.7023h0.6047c0.5488 0 0.7628-0.2140.7628-0.7628V1.8977h1.4233v1.8047h1.6186v1.386h-1.6186v2.8744c0 0.64190.3349 1.0047 0.9581 1.00470.186 0 0.4186-0.02790.5488-0.0651v1.3953c-0.20470.0558-0.57670.093-0.87440.093-1.507 0-2.2884-0.8372-2.2884-2.4372l0.00930.0093ZM73.1256 7.0233c0-2.0558 1.386-3.4884 3.3674-3.4884s3.3488 1.414 3.3488 3.4419c0 0.1581-0.02790.4186-0.05580.5953h-4.9767c0.12090.90230.8837 1.507 1.8698 1.5070.7256 0 1.3581-0.2698 1.7767-0.7535l1.0047 0.986c-0.60470.7814-1.6558 1.2-2.8651 1.2-2.0465 0-3.4698-1.4419-3.4698-3.4884Zm1.6837-0.6698h3.3488c-0.1116-0.8744-0.7814-1.4698-1.6837-1.4698-0.9023 0-1.57210.5953-1.6651 1.4698Z"/>
  </g>
</svg>
