<svg viewBox="0 0 24 24" xmlns="http://www.w3.org/2000/svg"><path fill-rule="evenodd" clip-rule="evenodd" d="M4 22V2H20V16.21L17.43 22H4ZM9.61372 8.61067C9.84305 8.37966 9.84168 8.00649 9.61067 7.77717C9.37966 7.54784 9.00649 7.54921 8.77716 7.78022C8.54784 8.01123 8.54921 8.3844 8.78022 8.61373C9.01123 8.84305 9.3844 8.84168 9.61372 8.61067ZM10.7535 9.74217C11.6078 8.88166 11.6027 7.49159 10.7422 6.63736C9.88166 5.78313 8.49159 5.78822 7.63736 6.64873C6.78313 7.50923 6.78822 8.89931 7.64873 9.75354C7.75629 9.86031 7.87213 9.95367 7.99416 10.0336C8.84838 10.5931 10.0061 10.4951 10.7535 9.74217ZM7.81559 14.0853L14.6462 7.25466L15.7819 8.39032L8.95125 15.2209L7.81559 14.0853ZM15.2198 13.3453C15.4508 13.5747 15.4522 13.9478 15.2228 14.1788C14.9935 14.4098 14.6203 14.4112 14.3893 14.1819C14.1583 13.9526 14.157 13.5794 14.3863 13.3484C14.6156 13.1174 14.9888 13.116 15.2198 13.3453ZM16.3513 12.2055C17.2118 13.0597 17.2169 14.4498 16.3626 15.3103C15.5084 16.1708 14.1183 16.1759 13.2578 15.3217C12.3973 14.4675 12.3922 13.0774 13.2465 12.2169C14.1007 11.3564 15.4908 11.3513 16.3513 12.2055Z"/></svg>