<svg viewBox="0 0 24 24" xmlns="http://www.w3.org/2000/svg"><path fill-rule="evenodd" clip-rule="evenodd" d="M2.46154 17.5L2 19.5V21.5H14V19.5L13.5385 17.5V10.5477H14.79C15.2458 10.5477 15.6154 10.9173 15.6154 11.3731V18.5578C15.6154 20.1828 16.9327 21.5001 18.5577 21.5001C20.1827 21.5001 21.5 20.1828 21.5 18.5578V7.17523L16.9503 5.55786L16.2804 7.44233L17.3681 7.82899L17.328 8.05611C17.0889 9.40912 18.2336 10.5311 19.5 10.3962V18.5578C19.5 19.0782 19.0781 19.5001 18.5577 19.5001C18.0373 19.5001 17.6154 19.0782 17.6154 18.5578V11.3731C17.6154 9.81269 16.3504 8.54771 14.79 8.54771H13.5385V2.5H2.46154V17.5ZM10.5 5.5V9.5H5.5V5.5H10.5Z"/></svg>