<svg viewBox="0 0 24 24" xmlns="http://www.w3.org/2000/svg"><path d="M8 11.0883C8.55228 11.0883 9 10.636 9 10.0779C9 9.51992 8.55228 9.06756 8 9.06756C7.44772 9.06756 7 9.51992 7 10.0779C7 10.636 7.44772 11.0883 8 11.0883Z"/><path d="M13 10.0779C13 10.636 12.5523 11.0883 12 11.0883C11.4477 11.0883 11 10.636 11 10.0779C11 9.51992 11.4477 9.06756 12 9.06756C12.5523 9.06756 13 9.51992 13 10.0779Z"/><path d="M16 11.0883C16.5523 11.0883 17 10.636 17 10.0779C17 9.51992 16.5523 9.06756 16 9.06756C15.4477 9.06756 15 9.51992 15 10.0779C15 10.636 15.4477 11.0883 16 11.0883Z"/><path fill-rule="evenodd" clip-rule="evenodd" d="M5.04683 17.6559L6.48925 21.5L13.5639 17.6559H21.5V2.5H2.5V17.6559H5.04683ZM7.55079 18.6287L6.42749 15.6351H4.5V4.52079H19.5V15.6351H13.0602L7.55079 18.6287Z"/></svg>