<svg viewBox="0 0 24 24" xmlns="http://www.w3.org/2000/svg"><path d="M17.6941 8.99438L15.6984 10.9647L9.66732 5.01046L11.663 3.04016C12.0549 2.65328 12.6902 2.65328 13.0821 3.04016L17.6941 7.59339C18.0859 7.98026 18.0859 8.60751 17.6941 8.99438Z"/><path d="M7.18396 7.4622L8.60302 6.0612L21.5 18.7939L20.0809 20.1949L7.18396 7.4622Z"/><path d="M4.21294 10.3954L6.11966 8.51294L12.1507 14.4672L10.244 16.3496C9.85211 16.7365 9.21677 16.7365 8.82491 16.3496L4.21294 11.7964C3.82107 11.4095 3.82107 10.7822 4.21294 10.3954Z"/><path d="M4.00515 17.7827V19.2687H2.5V21.25H12.5343V19.2687H11.0292V17.7827H4.00515Z"/></svg>