<svg viewBox="0 0 24 24" xmlns="http://www.w3.org/2000/svg"><path fill-rule="evenodd" clip-rule="evenodd" d="M20.0503 12.6333L18.4238 11.0068L12.2714 17.1592L7.89236 17.5573L4.61999 20.8297L2.5 21.5021L3.17237 19.3821L6.44476 16.1097L6.84285 11.7306L12.9952 5.57827L11.3646 3.94762L12.8122 2.5L16.4333 6.1211L17.519 5.03537L16.4333 3.94968L17.881 2.50206L21.5 6.12111L20.0524 7.56873L18.9666 6.48299L17.8809 7.56872L21.4979 11.1857L20.0503 12.6333ZM15.8905 10.6449L16.9762 9.55922L14.4429 7.02588L8.81458 12.6542L8.56125 15.4408L11.3479 15.1875L12.2714 14.264L10.6429 12.6354L12.0905 11.1878L13.719 12.8164L14.4428 12.0926L12.8142 10.464L14.2619 9.01634L15.8905 10.6449Z"/></svg>