<svg viewBox="0 0 24 24" xmlns="http://www.w3.org/2000/svg"><path fill-rule="evenodd" clip-rule="evenodd" d="M12 8.17822L10.4668 6.34801C9.76604 5.51142 8.83535 4.75 7.5 4.75C5.567 4.75 4 6.317 4 8.25C4 9.21813 4.41562 10.4039 5.2585 11.7525C6.08666 13.0776 7.22378 14.3954 8.41421 15.5858C9.59735 16.7689 10.7881 17.7818 11.6869 18.5008C11.796 18.588 11.9005 18.6708 12 18.7488C12.0995 18.6708 12.204 18.588 12.3131 18.5008C13.2119 17.7818 14.4026 16.7689 15.5858 15.5858C16.7762 14.3954 17.9133 13.0776 18.7415 11.7525C19.5844 10.4039 20 9.21813 20 8.25C20 6.317 18.433 4.75 16.5 4.75C15.1647 4.75 14.234 5.51142 13.5332 6.34801L12 8.17822ZM10.5321 3.70214C9.74436 3.16157 8.74451 2.75 7.5 2.75C4.46243 2.75 2 5.21243 2 8.25C2 14.25 12 21.25 12 21.25C12 21.25 22 14.25 22 8.25C22 5.21243 19.5376 2.75 16.5 2.75C15.2555 2.75 14.2556 3.16157 13.4679 3.70214C12.8556 4.1223 12.3714 4.62038 12 5.0637C11.6286 4.62038 11.1444 4.1223 10.5321 3.70214Z"/></svg>