<svg viewBox="0 0 24 24" xmlns="http://www.w3.org/2000/svg"><path fill-rule="evenodd" clip-rule="evenodd" d="M6.48925 21.5L5.04683 17.6559H2.5V2.5H21.5V17.6559H13.5639L6.48925 21.5ZM8 11.0884C8.55228 11.0884 9 10.636 9 10.078C9 9.52 8.55228 9.06763 8 9.06763C7.44772 9.06763 7 9.52 7 10.078C7 10.636 7.44772 11.0884 8 11.0884ZM13 10.078C13 10.636 12.5523 11.0884 12 11.0884C11.4477 11.0884 11 10.636 11 10.078C11 9.52 11.4477 9.06763 12 9.06763C12.5523 9.06763 13 9.52 13 10.078ZM16 11.0884C16.5523 11.0884 17 10.636 17 10.078C17 9.52 16.5523 9.06763 16 9.06763C15.4477 9.06763 15 9.52 15 10.078C15 10.636 15.4477 11.0884 16 11.0884Z"/></svg>