<svg viewBox="0 0 24 24" xmlns="http://www.w3.org/2000/svg"><path fill-rule="evenodd" clip-rule="evenodd" d="M16.5 21.5H19.5C20.6046 21.5 21.5 20.6046 21.5 19.5V16.75H16.5V21.5ZM16.5 14.75H21.5V9.74999H16.5V14.75ZM14.5 9.74999V14.75H9.49999V9.74999H14.5ZM16.5 7.74999H21.5V4.5C21.5 3.39543 20.6046 2.5 19.5 2.5H16.5V7.74999ZM14.5 2.5V7.74999H9.49999V2.5H14.5ZM14.5 16.75V21.5H9.49999V16.75H14.5ZM7.49999 14.75V9.74999H2.5V14.75H7.49999ZM7.49999 7.74999V2.5H4.5C3.39543 2.5 2.5 3.39543 2.5 4.5V7.74999H7.49999ZM7.49999 21.5V16.75H2.5V19.5C2.5 20.6046 3.39543 21.5 4.5 21.5H7.49999Z"/></svg>