<svg viewBox="0 0 24 24" xmlns="http://www.w3.org/2000/svg"><path fill-rule="evenodd" clip-rule="evenodd" d="M4.21297 11.7963C3.8211 11.4095 3.8211 10.7822 4.21297 10.3954L11.6631 3.04015C12.0549 2.65328 12.6903 2.65328 13.0821 3.04015L17.6941 7.59337C18.086 7.98024 18.086 8.60749 17.6941 8.99436L14.634 12.0155L21.5 18.794L20.0809 20.195L13.2149 13.4165L10.244 16.3496C9.85214 16.7364 9.2168 16.7364 8.82494 16.3496L4.21297 11.7963ZM9.53447 14.2481L6.34157 11.0958L12.3726 5.14164L15.5655 8.29387L9.53447 14.2481Z"/><path d="M4.00515 19.2687V17.7827H11.0292V19.2687H12.5343V21.25H2.5V19.2687H4.00515Z"/></svg>