<svg viewBox="0 0 24 24" xmlns="http://www.w3.org/2000/svg"><path fill-rule="evenodd" clip-rule="evenodd" d="M18.4822 3.61284C17.6185 2.98259 16.4075 3.17181 15.7772 4.03547L15.674 4.17693C15.3943 4.56024 14.8502 4.74855 14.2417 4.7046C14.0294 4.68927 13.8037 4.68783 13.5808 4.71218C12.7392 4.80414 12.1761 5.1513 11.7904 5.50742L11.7718 5.52477L11.2032 5.10982C10.757 4.78426 10.1315 4.882 9.80591 5.32813C9.56696 5.65558 9.55605 6.07971 9.74357 6.41092C9.74766 6.41814 9.75184 6.42533 9.75612 6.43246C9.82294 6.54386 9.91269 6.644 10.0242 6.72539L18.1021 12.6201C18.116 12.6303 18.1302 12.6401 18.1444 12.6494C18.2517 12.7196 18.368 12.7667 18.4872 12.7915C18.8598 12.869 19.2604 12.7293 19.4994 12.4018C19.8249 11.9557 19.7272 11.3301 19.281 11.0046L18.8357 10.6795C18.8427 10.6635 18.8497 10.6473 18.8567 10.6308C19.062 10.1445 19.2047 9.49261 19.0101 8.66222C18.9487 8.40021 18.8758 8.17176 18.7959 7.97073C18.5549 7.36469 18.5421 6.81479 18.8134 6.44304L18.9048 6.31779C19.535 5.45413 19.3458 4.24308 18.4822 3.61284ZM8.03747 7.7515C8.07094 7.70564 8.1052 7.66069 8.14023 7.61667C8.32738 7.88913 8.5631 8.13505 8.84528 8.34097L16.9232 14.2357C17.2053 14.4416 17.5114 14.5911 17.828 14.6862C17.7967 14.733 17.7644 14.7793 17.7309 14.8252L15.9625 17.2486L13.0759 15.1421L11.897 16.7577L14.7836 18.8641L13.8993 20.0758L11.0127 17.9694L9.8338 19.5849L12.6954 21.6732C11.3335 23.122 9.07381 23.3632 7.42608 22.1608L4.19493 19.8029C2.41042 18.5006 2.01945 15.9983 3.32168 14.2138L8.03747 7.7515Z"/></svg>