<svg viewBox="0 0 24 24" xmlns="http://www.w3.org/2000/svg"><path fill-rule="evenodd" clip-rule="evenodd" d="M20 19.5C20 21.433 16.4183 23 12 23C7.58172 23 4 21.433 4 19.5V14.0859C6.00559 14.9552 8.84744 15.5 12 15.5C15.1526 15.5 17.9944 14.9552 20 14.0859V19.5ZM6.87012 17.1152C6.32208 17.0495 5.82401 17.4403 5.75781 17.9883C5.69204 18.5363 6.08286 19.0344 6.63086 19.1006L8.49902 19.3262C9.04716 19.392 9.54528 19.0003 9.61133 18.4521C9.67724 17.9039 9.28553 17.4059 8.7373 17.3398L6.87012 17.1152Z"/><path fill-rule="evenodd" clip-rule="evenodd" d="M20 11.8535C19.7302 12.0105 19.406 12.1734 19.0205 12.3311C17.3243 13.0249 14.8433 13.5 12 13.5C9.15673 13.5 6.67565 13.0249 4.97949 12.3311C4.59402 12.1734 4.26976 12.0105 4 11.8535V6.08594C6.00559 6.95523 8.84744 7.5 12 7.5C15.1526 7.5 17.9944 6.95523 20 6.08594V11.8535ZM6.91211 9.61523C6.36393 9.54924 5.86602 9.94016 5.7998 10.4883C5.73401 11.0363 6.12484 11.5344 6.67285 11.6006L8.54102 11.8262C9.08904 11.8918 9.58728 11.5002 9.65332 10.9521C9.7192 10.404 9.32751 9.9059 8.7793 9.83984L6.91211 9.61523Z"/><path d="M12 1C15.9644 1 19.2535 2.26236 19.8877 3.91797C19.6414 4.05454 19.3538 4.19471 19.0205 4.33105C17.3243 5.02485 14.8433 5.5 12 5.5C9.15673 5.5 6.67565 5.02485 4.97949 4.33105C4.64587 4.19457 4.35782 4.05467 4.11133 3.91797C4.74525 2.2622 8.03529 1 12 1Z"/></svg>