<svg viewBox="0 0 24 24" xmlns="http://www.w3.org/2000/svg"><path d="M2.5 12C2.5 14.7614 4.73858 17 7.5 17H10.0001V15H7.5C5.84315 15 4.5 13.6569 4.5 12C4.5 10.4409 5.69081 9.15763 7.21114 9.01359L8.8576 8.8576L9.01359 7.21114C9.15763 5.69081 10.4409 4.5 12 4.5C13.5591 4.5 14.8424 5.69081 14.9864 7.21114L15.1424 8.8576L16.7889 9.01359C18.3092 9.15763 19.5 10.4409 19.5 12C19.5 13.6569 18.1569 15 16.5 15H15.3286L14.0001 16.3284V17H16.5C19.2614 17 21.5 14.7614 21.5 12C21.5 9.39963 19.5149 7.2629 16.9775 7.02251C16.7371 4.48507 14.6004 2.5 12 2.5C9.39963 2.5 7.2629 4.48507 7.0225 7.02251C4.48506 7.2629 2.5 9.39963 2.5 12Z"/><path d="M13.0001 13.0858L14.293 11.7929L15.7072 13.2071L13.0001 15.9142V19.5H15.0001V21.5H9.00006V19.5H11.0001V14.4142L8.29297 12.2071L9.70718 10.7929L11.0001 11.75V9H13.0001V13.0858Z"/></svg>