<svg viewBox="0 0 24 24" xmlns="http://www.w3.org/2000/svg"><path fill-rule="evenodd" clip-rule="evenodd" d="M16.5 14.5C18.433 14.5 20 16.067 20 18C20 19.933 18.433 21.5 16.5 21.5C14.9145 21.5 13.5758 20.4457 13.1455 19H10.8545C10.4242 20.4457 9.08545 21.5 7.5 21.5C5.567 21.5 4 19.933 4 18C4 16.067 5.567 14.5 7.5 14.5C9.08545 14.5 10.4242 15.5543 10.8545 17H13.1455C13.5758 15.5543 14.9145 14.5 16.5 14.5ZM7.5 16.5C6.67157 16.5 6 17.1716 6 18C6 18.8284 6.67157 19.5 7.5 19.5C8.32843 19.5 9 18.8284 9 18C9 17.1716 8.32843 16.5 7.5 16.5ZM16.5 16.5C15.6716 16.5 15 17.1716 15 18C15 18.8284 15.6716 19.5 16.5 19.5C17.3284 19.5 18 18.8284 18 18C18 17.1716 17.3284 16.5 16.5 16.5Z"/><path fill-rule="evenodd" clip-rule="evenodd" d="M19.7959 11.6406C19.7875 11.6366 19.7789 11.6329 19.7705 11.6289C20.3733 11.919 20.9518 12.2418 21.5 12.5986L20.4092 14.2754C18.2322 12.8582 14.9958 12 12 12C8.69154 12 6.11117 12.7537 4.00586 14.0156L2.5 12.5986C3.05477 12.2375 3.64031 11.9109 4.25098 11.6182C4.23508 11.6258 4.21898 11.633 4.20312 11.6406L5.5 2.5H18.5L19.7959 11.6406ZM6.35352 10.7871C6.33751 10.7922 6.32164 10.7976 6.30566 10.8027C7.92437 10.2849 9.67375 10 12 10C13.8204 10 16.0644 10.2832 17.6787 10.7979C17.6676 10.7943 17.6566 10.7906 17.6455 10.7871L16.7783 4.5H7.22168L6.35352 10.7871Z"/></svg>