<svg viewBox="0 0 24 24" xmlns="http://www.w3.org/2000/svg"><path fill-rule="evenodd" clip-rule="evenodd" d="M2.46154 17.5L2 19.5V21.5H14V19.5L13.5385 17.5V10.5476H14.1746C14.6305 10.5476 15 10.9172 15 11.373V18.25C15 20.0449 16.4551 21.5 18.25 21.5C20.0449 21.5 21.5 20.0449 21.5 18.25V13H23V6.625C23 4.34683 21.1532 2.5 18.875 2.5H17.0333V3.25H14.9667V4.75H17.0333V5.5H14.9667V7H17.0333V7.75H17.3013C17.8536 7.75 18.3013 8.19772 18.3013 8.75V13H19.5V18.25C19.5 18.9403 18.9404 19.5 18.25 19.5C17.5596 19.5 17 18.9403 17 18.25V11.373C17 9.81258 15.735 8.54761 14.1746 8.54761H13.5385V2.5H2.46154V17.5ZM9.03053 7L5 12.7099H6.96946L6.96946 16.0687L11 10.3588H9.03053L9.03053 7Z"/></svg>