<svg viewBox="0 0 24 24" xmlns="http://www.w3.org/2000/svg"><path fill-rule="evenodd" clip-rule="evenodd" d="M14.3218 1.98828L9.84814 9.73633L10.1733 12.2119L12.7378 13.6924L15.0444 12.7363L19.5171 4.98828L21.2495 5.98926L17.7495 12.0508V22.4688H2.74951V7.46875H8.84814L12.5894 0.988281L14.3218 1.98828ZM7.86768 10.0107C6.02293 10.8984 4.74951 12.7846 4.74951 14.9688C4.74951 18.0063 7.21195 20.4688 10.2495 20.4688C13.2871 20.4688 15.7495 18.0063 15.7495 14.9688C15.7495 14.8493 15.7435 14.7308 15.7358 14.6133L8.84814 17.4688L7.86768 10.0107Z"/><path d="M17.7856 3.98926L14.1606 10.2676L12.4282 9.26758L16.0532 2.98828L17.7856 3.98926Z"/></svg>