<svg viewBox="0 0 24 24" xmlns="http://www.w3.org/2000/svg"><path fill-rule="evenodd" clip-rule="evenodd" d="M16.2986 3.13826L15.8373 4.40571C16.2844 3.83458 16.846 3.32391 17.4679 3.17057C18.6925 2.86856 21.0352 3.73435 22.0534 4.205C21.3707 5.09509 19.6992 6.95078 18.4745 7.25278C17.9893 7.37243 17.4355 7.28245 16.9013 7.09567C17.3052 7.42834 17.6763 7.79353 18.012 8.18578C18.4685 8.7193 18.8596 9.30289 19.1788 9.92284C18.5002 10.0883 17.8817 10.3769 17.3668 10.7735C16.7856 11.2211 16.3362 11.8063 16.081 12.5073C15.7756 13.3466 15.79 14.2376 16.0665 15.0831C15.2846 15.6264 14.669 16.387 14.3294 17.32C13.9683 18.312 13.9716 19.3552 14.2727 20.3235C14.4689 20.9541 14.7913 21.5529 15.2218 22.0852C14.6011 22.3972 13.9449 22.6376 13.2668 22.8C11.6095 23.197 9.8212 23.1284 8.09994 22.5019C6.41303 21.888 5.02124 20.8221 4.01152 19.4907C3.58651 18.9304 3.22919 18.323 2.94604 17.6824C3.62226 17.5657 4.26067 17.3278 4.82491 16.9835C5.72533 16.4342 6.4369 15.6142 6.81189 14.5839C7.15742 13.6345 7.1693 12.6382 6.90564 11.7055C7.68023 11.2344 8.27936 10.5519 8.59033 9.69748C8.85126 8.98056 8.87898 8.22595 8.7095 7.49428C8.56263 6.86024 8.26767 6.24344 7.84808 5.68335C8.5005 5.42324 9.184 5.23875 9.88456 5.13639C11.0238 4.96995 12.2081 5.02072 13.3773 5.31682L14.4192 2.45422L16.2986 3.13826ZM14.7052 9.18512C15.0083 8.94198 15.4397 8.8259 15.8972 8.87135C15.998 8.9634 16.0959 9.05819 16.1907 9.15557C15.3169 9.81453 14.6084 10.7059 14.2017 11.8233C13.899 12.6549 13.8047 13.5073 13.8804 14.3339C13.2665 14.9771 12.7722 15.7506 12.45 16.636C11.9757 17.939 11.9434 19.2796 12.2537 20.5254C11.7448 20.2319 11.3871 19.817 11.2667 19.3978C10.8014 19.7114 10.0397 19.7671 9.28228 19.4915C8.52485 19.2158 7.9772 18.6835 7.82228 18.1442C7.46063 18.3879 6.92008 18.4758 6.34161 18.3735C7.3801 17.6188 8.21688 16.5713 8.69127 15.2679C9.01891 14.3677 9.13594 13.4421 9.07224 12.541C9.67521 11.951 10.1618 11.2274 10.4697 10.3815C10.8762 9.26465 10.9069 8.12731 10.6619 7.06151C10.7673 7.05365 10.873 7.04818 10.979 7.04514C11.4346 7.30534 11.7439 7.71248 11.8288 8.13818C12.243 7.80596 12.8967 7.71095 13.5292 7.94117C14.1617 8.17139 14.6014 8.66436 14.7052 9.18512Z"/></svg>