<svg viewBox="0 0 19 19" xmlns="http://www.w3.org/2000/svg"><path d="M5.5 8.58834C6.05228 8.58834 6.5 8.13597 6.5 7.57795C6.5 7.01992 6.05228 6.56756 5.5 6.56756C4.94772 6.56756 4.5 7.01992 4.5 7.57795C4.5 8.13597 4.94772 8.58834 5.5 8.58834Z"/><path d="M10.5 7.57795C10.5 8.13597 10.0523 8.58834 9.5 8.58834C8.94771 8.58834 8.5 8.13597 8.5 7.57795C8.5 7.01992 8.94771 6.56756 9.5 6.56756C10.0523 6.56756 10.5 7.01992 10.5 7.57795Z"/><path d="M13.5 8.58834C14.0523 8.58834 14.5 8.13597 14.5 7.57795C14.5 7.01992 14.0523 6.56756 13.5 6.56756C12.9477 6.56756 12.5 7.01992 12.5 7.57795C12.5 8.13597 12.9477 8.58834 13.5 8.58834Z"/><path fill-rule="evenodd" clip-rule="evenodd" d="M2.54683 15.1559L3.98925 19L11.0639 15.1559H19V0H0V15.1559H2.54683ZM5.05079 16.1287L3.92749 13.1351H2V2.02079H17V13.1351H10.5602L5.05079 16.1287Z"/></svg>