<svg viewBox="0 0 16 20" xmlns="http://www.w3.org/2000/svg"><path d="M10 0.959961C8.5624 0.959961 6.45184 1.43958 4.68028 2.88518C3.41555 3.91719 2.36792 5.40612 1.84982 7.45996H0V9.45996H1.53521C1.51199 9.78244 1.5 10.1157 1.5 10.46C1.5 10.7662 1.5157 11.1024 1.55049 11.46H0V13.46H1.91945C2.17963 14.4111 2.57717 15.3977 3.15593 16.3087C4.44215 18.3333 6.61828 19.96 10 19.96C11.0399 19.96 13.432 19.495 15.6247 17.7408L14.3753 16.1791C12.568 17.6249 10.6268 17.96 10 17.96C7.38172 17.96 5.80785 16.7533 4.84407 15.2362C4.48705 14.6743 4.21346 14.0669 4.0093 13.46H11C11.5523 13.46 12 13.0122 12 12.46C12 11.9077 11.5523 11.46 11 11.46H3.56174C3.51924 11.0995 3.5 10.7618 3.5 10.46C3.5 10.1107 3.51416 9.77763 3.54115 9.45996H11C11.5523 9.45996 12 9.01225 12 8.45996C12 7.90768 11.5523 7.45996 11 7.45996H3.92866C4.37599 6.06847 5.1255 5.10323 5.94472 4.43475C7.29816 3.33034 8.9376 2.95996 10 2.95996C12.0602 2.95996 13.7534 4.1276 14.2929 4.66707L15.7071 3.25285C14.9132 2.45899 12.7398 0.959961 10 0.959961Z"/></svg>