<svg viewBox="0 0 19 20" xmlns="http://www.w3.org/2000/svg"><path d="M13.2409 11.5635C12.0586 12.8121 10.1418 12.8121 8.95958 11.5635C8.73101 11.3221 8.54664 11.0518 8.40645 10.7636L6.52379 11.55C6.76613 12.1006 7.10236 12.6164 7.53248 13.0707C9.5029 15.1516 12.6976 15.1516 14.668 13.0707L17.5222 10.0564C19.4926 7.97544 19.4926 4.60159 17.5222 2.52066C15.5518 0.439728 12.3571 0.439728 10.3867 2.52066L9.60888 3.34208L11.0522 4.83206L11.8138 4.0278C12.996 2.77924 14.9128 2.77924 16.0951 4.0278C17.2773 5.27636 17.2773 7.30067 16.0951 8.54923L13.2409 11.5635Z"/><path d="M5.75911 9.3564C6.94136 8.10784 8.85816 8.10784 10.0404 9.3564C10.269 9.59779 10.4534 9.86817 10.5935 10.1563L12.4762 9.36992C12.2339 8.81936 11.8976 8.3035 11.4675 7.84926C9.4971 5.76833 6.30243 5.76833 4.33201 7.84926L1.47781 10.8635C-0.492604 12.9445 -0.492604 16.3183 1.47781 18.3993C3.44823 20.4802 6.6429 20.4802 8.61331 18.3993L9.39111 17.5778L7.94776 16.0879L7.18621 16.8921C6.00396 18.1407 4.08716 18.1407 2.90491 16.8921C1.72266 15.6436 1.72266 13.6192 2.90491 12.3707L5.75911 9.3564Z"/></svg>