<svg viewBox="0 0 24 24" xmlns="http://www.w3.org/2000/svg"><path fill-rule="evenodd" clip-rule="evenodd" d="M7.92248 12.4623L7.21538 13.1694L9.01133 14.9654L7.95067 16.026L6.15472 14.2301L5.44761 14.9372L6.53646 16.026L5.4758 17.0867L4.38695 15.9978L3.82843 16.5563L7.36396 20.0919L20.0919 7.36396L16.5563 3.82843L16.0542 4.33057L17.1431 5.41942L16.0824 6.48008L14.9935 5.39123L14.2864 6.09833L16.0824 7.89429L15.0217 8.95495L13.2258 7.15899L12.5187 7.8661L13.6075 8.95495L12.5469 10.0156L11.458 8.92676L10.7509 9.63387L12.5469 11.4298L11.4862 12.4905L9.69025 10.6945L8.98314 11.4016L10.072 12.4905L9.01133 13.5511L7.92248 12.4623ZM1 16.5563L7.36396 22.9203L22.9203 7.36396L16.5563 1L1 16.5563Z"/></svg>