<svg viewBox="0 0 24 24" xmlns="http://www.w3.org/2000/svg"><path fill-rule="evenodd" clip-rule="evenodd" d="M21 6H12.75V8.58054C14.3226 8.92388 15.5 10.3244 15.5 12C15.5 13.6756 14.3226 15.0761 12.75 15.4195V18H21V17.1549C18.5788 16.6879 16.75 14.5575 16.75 12C16.75 9.44246 18.5788 7.31205 21 6.84512V6ZM12.75 13.8546C13.483 13.5579 14 12.8393 14 12C14 11.1607 13.483 10.4421 12.75 10.1454V13.8546ZM11.25 10.1454V13.8546C10.517 13.5579 10 12.8393 10 12C10 11.1607 10.517 10.4421 11.25 10.1454ZM11.25 8.58054C9.67741 8.92388 8.5 10.3244 8.5 12C8.5 13.6756 9.67741 15.0761 11.25 15.4195V18H3V17.1549C5.42122 16.6879 7.25 14.5575 7.25 12C7.25 9.44246 5.42122 7.31205 3 6.84512V6H11.25V8.58054ZM18.25 12C18.25 10.2752 19.4144 8.82243 21 8.38481V15.6152C19.4144 15.1776 18.25 13.7248 18.25 12ZM3 15.6152C4.58559 15.1776 5.75 13.7248 5.75 12C5.75 10.2752 4.58559 8.82243 3 8.38481V15.6152ZM1 4V20H23V4H1Z"/></svg>