<svg viewBox="0 0 24 24" xmlns="http://www.w3.org/2000/svg"><path fill-rule="evenodd" clip-rule="evenodd" d="M18.7873 7.85723L19.1561 6.8933C19.2928 6.53616 19.3684 6.14708 19.3684 5.73684C19.3684 3.94918 17.9192 2.5 16.1316 2.5C14.3439 2.5 12.8947 3.94918 12.8947 5.73684C12.8947 6.14708 12.9703 6.53616 13.107 6.8933L13.4759 7.85722L12.7075 8.54623C11.6572 9.4879 11 10.8504 11 12.3684C11 14.9019 12.836 17.0066 15.25 17.4246V16.4246L13.1141 15.1431L13.8859 13.8569L15.25 14.6754V10H16.75V12.6893L17.9697 11.4697L19.0303 12.5303L16.75 14.8107V17.4631C19.2925 17.1577 21.2632 14.9932 21.2632 12.3684C21.2632 10.8504 20.6059 9.4879 19.5557 8.54623L18.7873 7.85723ZM16.75 18.9715C20.1226 18.6597 22.7632 15.8224 22.7632 12.3684C22.7632 10.4065 21.9112 8.64359 20.5571 7.42943C20.7582 6.90381 20.8684 6.33319 20.8684 5.73684C20.8684 3.12076 18.7477 1 16.1316 1C13.5155 1 11.3947 3.12076 11.3947 5.73684C11.3947 6.33319 11.5049 6.9038 11.7061 7.42942C10.352 8.64359 9.5 10.4065 9.5 12.3684C9.5 15.7321 12.0042 18.5108 15.25 18.9419V21H9.85848L9.47245 19.75H11.0588V18.25H9.04146L8.66646 16.75H9.38235V15.25H2.67647V16.75H3.39236L3.01736 18.25H1V19.75H2.58637L2.20034 21H1V23L23 23V21L16.75 21V18.9715ZM5.08274 16.75H6.97608L7.43931 18.25H4.61951L5.08274 16.75ZM4.15627 19.75H7.90255L8.28858 21H3.77024L4.15627 19.75Z"/></svg>