<svg viewBox="0 0 24 24" xmlns="http://www.w3.org/2000/svg"><path d="M10.0339 12C10.0339 10.9028 10.9142 10.0133 12.0002 10.0133C13.0861 10.0133 13.9665 10.9028 13.9665 12C13.9665 13.0973 13.0861 13.9868 12.0002 13.9868C10.9142 13.9868 10.0339 13.0973 10.0339 12Z"/><path fill-rule="evenodd" clip-rule="evenodd" d="M22.5 14.6126L20.3469 12.3675V11.6325L22.5 9.38742L19.4916 4.12252L16.493 4.87748L15.8539 4.50993L15.0084 1.5H8.99157L8.14607 4.50993L7.50702 4.87748L4.50843 4.12252L1.5 9.38742L3.65309 11.6325V12.3675L1.5 14.6126L4.50843 19.8775L7.50702 19.1225L8.14607 19.4901L8.99157 22.5H15.0084L15.8539 19.4901L16.493 19.1225L19.4916 19.8775L22.5 14.6126ZM12.0002 8.0265C9.82827 8.0265 8.06759 9.8055 8.06759 12C8.06759 14.1945 9.82827 15.9735 12.0002 15.9735C14.1721 15.9735 15.9328 14.1945 15.9328 12C15.9328 9.8055 14.1721 8.0265 12.0002 8.0265Z"/></svg>