<svg viewBox="0 0 24 24" xmlns="http://www.w3.org/2000/svg"><path d="M12 8.25L15.5665 10.8412L14.2042 15.0338H9.7958L8.43354 10.8412L12 8.25Z"/><path fill-rule="evenodd" clip-rule="evenodd" d="M20.0684 6.09119C18.8077 4.37265 17.0112 3.07174 14.9251 2.43459C13.9999 2.15203 13.0177 2 12.0001 2C8.68766 2 5.75136 3.6105 3.93158 6.09119C2.72327 7.73834 2.00713 9.76914 2 11.9669V12C2 17.5228 6.47715 22 12 22C12.9544 22 13.8776 21.8663 14.7519 21.6166C16.7618 21.0425 18.513 19.8554 19.7904 18.2703C21.1726 16.5552 22 14.3742 22 12C22 11.989 22 11.9779 21.9999 11.9669C21.9928 9.76918 21.2767 7.73834 20.0684 6.09119ZM18.0258 16.4662C18.952 15.2185 19.5 13.6733 19.5 12C19.5 11.9889 19.5 11.9778 19.4999 11.9667L17.1836 10.2838L18.0614 7.58218C17.2257 6.43752 16.0736 5.53852 14.7338 5.01383L12.0001 7L9.26629 5.0138C7.92643 5.53849 6.77432 6.4375 5.93859 7.58218L6.81641 10.2838L4.50007 11.9667L4.5 12C4.5 13.6733 5.04795 15.2185 5.9742 16.4662H9.2043L10.1122 19.2604C10.7153 19.4168 11.348 19.5 12 19.5C12.6521 19.5 13.2848 19.4168 13.888 19.2604L14.7959 16.4662H18.0258Z"/></svg>