<svg viewBox="0 0 24 24" xmlns="http://www.w3.org/2000/svg"><path d="M12.1808 7.44723L13.653 8.91938L12.2388 10.3336L8.34968 6.44451L12.2388 2.55542L13.653 3.96963L12.1762 5.44646C16.5131 5.54015 20 9.08515 20 13.4446C20 17.8628 16.4183 21.4446 12 21.4446C7.58172 21.4446 4 17.8628 4 13.4446C4 12.0298 4.36809 10.6981 5.01448 9.54294L6.7598 10.5196C6.27609 11.384 6 12.3805 6 13.4446C6 16.7583 8.68629 19.4446 12 19.4446C15.3137 19.4446 18 16.7583 18 13.4446C18 10.1913 15.4109 7.54284 12.1808 7.44723Z"/></svg>