<svg viewBox="0 0 24 24" xmlns="http://www.w3.org/2000/svg"><path d="M5.98633 11.6201C6.22468 11.1221 6.82216 10.9112 7.32031 11.1494L9.16016 12.0303C9.65799 12.2687 9.86895 12.8652 9.63086 13.3633C9.39251 13.8613 8.79503 14.0722 8.29688 13.834L6.45703 12.9541C5.95905 12.7158 5.74824 12.1182 5.98633 11.6201Z"/><path fill-rule="evenodd" clip-rule="evenodd" d="M21.5 7.25V16.75L12.2881 21.5L2.5 16.75V7.25L12.2881 2.5L21.5 7.25ZM4.5 15.498L11.25 18.7734V11.4961L4.5 8.21973V15.498ZM13.25 11.5039V18.7529L19.5 15.5303V8.28125L13.25 11.5039ZM10.791 9.05078L12.2598 9.76367L17.1357 7.25L15.6924 6.50488L10.791 9.05078ZM7.0791 7.25L8.54785 7.96191L13.5146 5.38184L12.2598 4.73535L7.0791 7.25Z"/></svg>