<svg viewBox="0 0 24 24" xmlns="http://www.w3.org/2000/svg"><path d="M8.37109 17.3652L10.2383 17.5898C10.7863 17.6561 11.1772 18.1541 11.1113 18.7021C11.0453 19.2503 10.5472 19.642 9.99902 19.5762L8.13086 19.3506C7.58282 19.2844 7.19294 18.7864 7.25879 18.2383C7.32501 17.6901 7.82288 17.2992 8.37109 17.3652Z"/><path d="M8.41211 9.86523L10.2793 10.0898C10.8275 10.1559 11.2192 10.654 11.1533 11.2021C11.0873 11.7502 10.5891 12.1418 10.041 12.0762L8.17285 11.8506C7.62483 11.7844 7.234 11.2863 7.2998 10.7383C7.36602 10.1902 7.86395 9.79927 8.41211 9.86523Z"/><path fill-rule="evenodd" clip-rule="evenodd" d="M12 1C16.4183 1 20 2.567 20 4.5V19.5C20 21.433 16.4183 23 12 23C7.58172 23 4 21.433 4 19.5V4.5C4 2.567 7.58172 1 12 1ZM18 14.3135C16.5341 15.0403 14.3897 15.5 12 15.5C9.61026 15.5 7.4659 15.0403 6 14.3135V19.5C6.1757 19.6707 6.60292 19.9056 7.14453 20.1426C8.28471 20.6414 9.99999 21 12 21C14 21 15.7153 20.6414 16.8555 20.1426C17.3966 19.9058 17.8242 19.6707 18 19.5V14.3135ZM18 6.81348C16.5341 7.54028 14.3897 8 12 8C9.61026 8 7.4659 7.54028 6 6.81348V12C6.1757 12.1707 6.60292 12.4056 7.14453 12.6426C8.28471 13.1414 9.99999 13.5 12 13.5C14 13.5 15.7153 13.1414 16.8555 12.6426C17.3966 12.4058 17.8242 12.1707 18 12V6.81348ZM12 3C9.99999 3 8.28471 3.35859 7.14453 3.85742C6.60292 4.0944 6.27238 4.32928 6.09668 4.5C6.27238 4.67072 6.60292 4.9056 7.14453 5.14258C8.28471 5.64141 9.99999 6 12 6C14 6 15.7153 5.64141 16.8555 5.14258C17.3966 4.90583 17.7265 4.67068 17.9023 4.5C17.7265 4.32932 17.3966 4.09417 16.8555 3.85742C15.7153 3.35859 14 3 12 3Z"/></svg>