<svg viewBox="0 0 24 24" xmlns="http://www.w3.org/2000/svg"><path fill-rule="evenodd" clip-rule="evenodd" d="M18.9915 4H15.7415V7.60495C15.9031 8.03931 15.9915 8.50934 15.9915 9.00001C15.9915 11.2092 14.2006 13 11.9915 13C9.78233 13 7.99146 11.2092 7.99146 9.00001C7.99146 8.50934 8.07981 8.03931 8.24146 7.60495V4H6.77478V6.57426L7.31871 8.75001H4.73088L5.27478 6.57442V4H4.99146V2H18.9915V4ZM10.259 8C10.0889 8.29418 9.99146 8.63572 9.99146 9.00001C9.99146 10.1046 10.8869 11 11.9915 11C13.096 11 13.9915 10.1046 13.9915 9.00001C13.9915 8.63572 13.8941 8.29418 13.7239 8H10.259ZM10.2415 4H13.7415V6H10.2415V4ZM7.57867 16.0014C7.13028 16.0254 6.7498 16.3471 6.65479 16.7905L5.49356 22.2095H3.39149L4.69918 16.3714C4.99558 14.9882 6.21797 14 7.63259 14H16.3989C17.8135 14 19.0359 14.9882 19.3323 16.3714L20.6085 22.2095H18.538L17.3767 16.7905C17.2784 16.3316 16.8743 16.0031 16.4056 16L11.9914 16L7.57867 16.0014ZM13.5772 16H11.9914H10.4057H13.5772Z"/></svg>