<svg viewBox="0 0 24 24" xmlns="http://www.w3.org/2000/svg"><path fill-rule="evenodd" clip-rule="evenodd" d="M6.5286 15.0223C5.43862 13.1344 4.59575 9.57403 7.77616 6.37004C11.3825 2.73693 18.3911 2.31333 21.4446 2.55567C21.6859 4.89723 21.2639 10.5819 17.6446 14.5882C14.5625 17.9999 10.4757 17.3422 8.06459 16.2669C6.97232 17.5199 5.91146 18.9674 4.10517 21.5L2.5 20.3488C4.27211 17.8641 5.37888 16.3483 6.5286 15.0223ZM9.17098 7.76113C10.5738 6.34788 12.781 5.44398 15.2014 4.94791C16.7428 4.63199 18.2605 4.50392 19.5089 4.48202C19.3852 6.92601 18.6062 10.5854 16.1853 13.2652C14.8287 14.7669 13.2708 15.1984 11.7953 15.1507C10.9795 15.1243 10.1976 14.9484 9.52588 14.7151C10.4613 13.7889 11.6023 12.7597 13.2694 11.2746L11.9588 9.79515C10.2042 11.3582 8.98803 12.4545 7.96617 13.4797C7.74539 12.9686 7.56734 12.3454 7.52891 11.6687C7.46441 10.533 7.78206 9.16035 9.17098 7.76113Z"/></svg>