<svg viewBox="0 0 24 24" xmlns="http://www.w3.org/2000/svg"><path fill-rule="evenodd" clip-rule="evenodd" d="M12 7C12.8284 7 13.5 6.32843 13.5 5.5C13.5 4.67157 12 2 12 2C12 2 10.5 4.67157 10.5 5.5C10.5 6.32843 11.1716 7 12 7ZM13 8V10.5H15.5V9H17.5V10.5H18.5C20.1569 10.5 21.5 11.8431 21.5 13.5V21.5H2.5V13.5C2.5 11.8431 3.84315 10.5 5.5 10.5H6.5V9H8.5V10.5H11V8H13ZM4.5 13.5C4.5 12.9477 4.94771 12.5 5.5 12.5H18.5C19.0523 12.5 19.5 12.9477 19.5 13.5V14.827L19.4316 14.8821C18.7681 15.4165 17.8389 15.472 17.1166 15.0202L15.1982 13.8206L13.0604 15.1574C12.4117 15.5631 11.5883 15.5631 10.9396 15.1574L8.80183 13.8206L6.88346 15.0202C6.16112 15.472 5.2319 15.4165 4.56842 14.8821L4.5 14.8269V13.5ZM4.5 17.0996V19.5H19.5V17.0996C18.3755 17.4935 17.1065 17.3728 16.0561 16.716L15.1982 16.1794L14.1209 16.8532C12.8234 17.6646 11.1766 17.6645 9.87915 16.8532L8.80183 16.1794L7.9439 16.716C6.89354 17.3728 5.6245 17.4935 4.5 17.0996ZM7.5 8C8.32843 8 9 7.32843 9 6.5C9 5.67157 7.5 3 7.5 3C7.5 3 6 5.67157 6 6.5C6 7.32843 6.67157 8 7.5 8ZM16.5 8C17.3284 8 18 7.32843 18 6.5C18 5.67157 16.5 3 16.5 3C16.5 3 15 5.67157 15 6.5C15 7.32843 15.6716 8 16.5 8Z"/></svg>