<svg viewBox="0 0 24 24" xmlns="http://www.w3.org/2000/svg"><path d="M21.5 5.01963C21.5 6.68732 20.1569 8.03926 18.5 8.03926C16.8431 8.03926 15.5 6.68732 15.5 5.01963C15.5 3.35193 16.8431 2 18.5 2C20.1569 2 21.5 3.35193 21.5 5.01963Z"/><path d="M20.7 9.51887C20.78 9.47861 20.85 9.43835 20.92 9.39808V9.38802C21.12 9.2773 21.32 9.15651 21.5 9.0156V18.1349H13.56L6.49 22L5.05 18.1349H2.5V2.87569H14C13.91 3.05687 13.84 3.23804 13.78 3.42929C13.7689 3.45734 13.7608 3.48852 13.7524 3.52109C13.7457 3.54694 13.7389 3.57367 13.73 3.6004C13.59 4.05334 13.5 4.52642 13.5 5.01962C13.5 7.79768 15.74 10.0523 18.5 10.0523C19.04 10.0523 19.54 9.95168 20.03 9.79064V9.81077C20.0683 9.79976 20.1006 9.78272 20.1318 9.76625C20.1577 9.75261 20.1828 9.73936 20.21 9.73024C20.38 9.66985 20.54 9.59939 20.7 9.51887Z"/></svg>