<svg viewBox="0 0 24 24" xmlns="http://www.w3.org/2000/svg"><path fill-rule="evenodd" clip-rule="evenodd" d="M19.5 4.52V15.64H13.06L7.55 18.63L6.43 15.64H4.5V4.52H19.5ZM21.5 2.5V17.66H13.56L6.49 21.5L5.05 17.66H2.5V2.5H21.5ZM11.3441 11.0059V11.6448H12.6869V11.2658C12.6869 10.7725 13.108 10.3542 13.5587 9.90629C13.5929 9.87231 13.6272 9.83815 13.6616 9.80378C14.1056 9.34895 14.5496 8.80747 14.5496 7.96277C14.5496 6.81484 13.6183 6.1001 12.2213 6.1001C11.095 6.1001 10.4019 6.44664 9.84961 7.21554L10.9759 8.11438C11.2683 7.70286 11.5932 7.50793 11.983 7.50793C12.5353 7.50793 12.8602 7.76784 12.8602 8.21185C12.8602 8.73792 12.5668 9.01137 12.2487 9.30789C12.2001 9.3532 12.1509 9.39904 12.1021 9.44641C11.7231 9.81461 11.3441 10.2153 11.3441 11.0059ZM11.0409 13.2367C11.0409 13.7999 11.4524 14.2006 12.0155 14.2006C12.5786 14.2006 12.9902 13.7999 12.9902 13.2367C12.9902 12.6844 12.5678 12.2729 12.0155 12.2729C11.4632 12.2729 11.0409 12.6844 11.0409 13.2367Z"/></svg>