<svg width="24" height="24" viewBox="0 0 24 24" fill="none" xmlns="http://www.w3.org/2000/svg">
<path d="M12 11C12.6904 11 13.25 11.5596 13.25 12.25C13.25 12.9404 12.6904 13.5 12 13.5C11.3096 13.5 10.75 12.9404 10.75 12.25C10.75 11.5596 11.3096 11 12 11Z" fill="black"/>
<path fill-rule="evenodd" clip-rule="evenodd" d="M21.5 11.6514L20.126 13.1045L19.0527 12.0908L17.3115 21.5H6.68848L4.94629 12.0908L3.87402 13.1045L2.5 11.6514L12 2.5L21.5 11.6514ZM12 9C10.2051 9 8.75 10.4551 8.75 12.25C8.75 14.0449 10.2051 15.5 12 15.5C13.7949 15.5 15.25 14.0449 15.25 12.25C15.25 10.4551 13.7949 9 12 9Z" fill="black"/>
</svg>
