<svg width="24" height="24" viewBox="0 0 24 24" fill="none" xmlns="http://www.w3.org/2000/svg">
<path fill-rule="evenodd" clip-rule="evenodd" d="M21.5 8.65211C21.4837 9.95734 20.559 11.3448 19.7044 11.3451H19.0058V19.501H20.6952V21.5H2.5V19.501H5.12006V11.3451H4.41679C3.08588 11.3451 2.16092 9.9623 2.61841 8.65797L4.77871 2.5H19.3191L21.5 8.65211ZM7.03534 19.501H17.0906V17.3879H7.03534V19.501ZM7.03534 11.3451V15.3889H17.0906V11.3451H7.03534ZM17.0185 9.34609H19.7044L17.9865 4.49995H15.9281L17.0185 9.34609ZM12.7812 9.34609H15.5297L14.4393 4.49995H12.7812V9.34609ZM8.59524 9.34609H11.3447V4.49995H9.68568L8.59524 9.34609ZM4.41679 9.34609H7.10641L8.19685 4.49995H6.11698L4.41679 9.34609Z" fill="black"/>
</svg>
