<svg width="24" height="24" viewBox="0 0 24 24" fill="none" xmlns="http://www.w3.org/2000/svg">
<path d="M4.67773 8.30856C4.24213 9.30085 4 10.399 4 11.5533C4.00012 15.9358 7.48736 19.4998 11.8242 19.594L10.3467 21.0784L11.7617 22.5L15.6504 18.5906L11.7617 14.6802L10.3467 16.1028L11.8193 17.5823C8.58935 17.4862 6.00012 14.8238 6 11.5533C6 10.7625 6.15153 10.0069 6.42676 9.31487L4.67773 8.30856Z" fill="#181818"/>
<path d="M8.34961 5.4094L12.2383 9.31978L13.6533 7.89719L12.1807 6.41767C15.4106 6.51379 17.9999 9.17626 18 12.4467C18 13.2344 17.8493 13.9875 17.5762 14.6773L19.3379 15.6561C19.7639 14.673 20 13.5875 20 12.4467C19.9999 8.06418 16.5126 4.50022 12.1758 4.40603L13.6533 2.9216L12.2383 1.5L8.34961 5.4094Z" fill="#181818"/>
</svg>
