<svg width="24" height="24" viewBox="0 0 24 24" fill="none" xmlns="http://www.w3.org/2000/svg">
<path d="M17.6777 23H4.82324L4.0791 11.25H18.4209L17.6777 23Z" fill="black"/>
<path d="M17.3545 1.92685C18.1014 0.172794 19.3233 1.24131 19.8965 2.3995C20.4692 3.55751 18.4608 4.93611 17.6924 4.35556C17.5426 5.16066 17.2726 5.58311 16.9082 5.64364C16.5481 5.70438 16.1825 5.431 15.9492 5.1788C15.5738 4.73297 15.6125 4.22785 15.959 3.76962C15.0339 3.76574 14.6723 3.59181 14.627 3.3497C14.5248 2.79871 15.3611 2.37721 15.7354 2.15146C15.5556 0.856089 16.781 0.768574 17.3545 1.92685Z" fill="black"/>
<path fill-rule="evenodd" clip-rule="evenodd" d="M14.3027 2C13.5205 2.77893 13.4111 4.12655 14.6699 4.5293C14.708 5.98059 16.6519 7.1703 17.8105 6.05664L18.5 9.7334H4L5.22754 3.18848C5.32593 2.50716 5.92411 2.00015 6.62891 2H14.3027ZM9.09375 4.5C8.6687 4.50004 8.28968 4.76875 8.14941 5.16992L7.71387 6.41992C7.48727 7.06972 7.96916 7.74963 8.65723 7.75H13.8418C14.5302 7.75 15.0128 7.0699 14.7861 6.41992L14.3506 5.16992C14.2103 4.76872 13.8313 4.5 13.4062 4.5H9.09375Z" fill="black"/>
</svg>
