<svg viewBox="0 0 24 24" xmlns="http://www.w3.org/2000/svg"><path d="M18.9434 16C18.9581 16.1938 18.9678 16.3945 18.9678 16.6025C18.9677 20.3888 15.8925 23 11.3613 23C8.28668 22.9999 5.85933 21.7596 4.5 19.54L7.41309 17.0918C8.31926 18.5279 9.77542 19.3114 11.3936 19.3115C13.3353 19.3115 14.6628 18.2673 14.6631 16.7334C14.6631 16.4641 14.6282 16.2212 14.5596 16H18.9434Z"/><path d="M20 14.5H4V12.5H20V14.5Z"/><path d="M12.4941 1C15.4069 1 17.7053 2.17484 19 4.26367L16.0869 6.71191C15.213 5.40643 13.9507 4.68848 12.4619 4.68848C10.7142 4.68853 9.54883 5.63554 9.54883 7.03906C9.5491 8.76866 10.9738 9.38862 13.7246 10.4004C14.2113 10.5806 14.7021 10.7764 15.1787 11H6.54004C5.7537 10.0917 5.24414 8.87466 5.24414 7.16895C5.24425 3.51334 8.18968 1.00011 12.4941 1Z"/></svg>