<svg viewBox="0 0 24 24" xmlns="http://www.w3.org/2000/svg"><path fill-rule="evenodd" clip-rule="evenodd" d="M19.5 7.5C19.5 8.40022 19.2837 9.24993 18.9003 10C18.8071 10.1823 18.6817 10.3848 18.5316 10.6016C18.4984 10.6496 18.4639 10.6983 18.4284 10.7476C17.0548 12.6525 14 15.5 14 15.5C14 15.5 10.0101 11.7808 9.09971 10C8.71628 9.24993 8.5 8.40022 8.5 7.5C8.5 7.13983 8.53462 6.78775 8.60071 6.4469C9.09203 3.91311 11.3226 2 14 2C17.0376 2 19.5 4.46243 19.5 7.5ZM14 15.5L15.3637 16.963L14 18.2341L12.6363 16.963L14 15.5ZM15.4142 8.91421C15.0523 9.27614 14.5523 9.5 14 9.5C12.9287 9.5 12.0542 8.65771 12.0024 7.59925C12.0008 7.56637 12 7.53328 12 7.5C12 6.39543 12.8954 5.5 14 5.5C15.1046 5.5 16 6.39543 16 7.5C16 7.99295 15.8217 8.44424 15.526 8.79288C15.4904 8.83485 15.4531 8.87533 15.4142 8.91421ZM12.6363 16.963C12.6364 16.9631 12.6363 16.963 14 15.5C15.3637 16.963 15.3636 16.9631 15.3637 16.963L15.3651 16.9616L15.3781 16.9495L15.4147 16.9152C15.4463 16.8855 15.4918 16.8426 15.5496 16.7878C15.6651 16.6782 15.8299 16.5208 16.0299 16.3269C16.4291 15.9398 16.973 15.4029 17.5484 14.8061C18.1212 14.2121 18.7402 13.5435 19.2834 12.8953C19.5156 12.6183 19.7528 12.323 19.9742 12.0222L19.9181 12.2202L21.4999 12.858L20.7828 14.0628L21.0516 15.5005H23V17.0979L22.7879 17.1316C22.5088 17.176 22.1029 17.2692 21.7479 17.4069C21.5332 17.4901 21.3521 17.5839 21.2293 17.6827C21.1463 17.7495 21.1072 17.8038 21.0902 17.8447L22.5257 19.709L21.785 21.451L18.8846 20.8246L18.0027 21.4958H13.9632L14.2903 19.5222L13.1235 18.943L11.9303 19.8449L11.2831 19.3791L10.066 21.2192L7.63372 19.3806L6.19505 21.452L5.60726 20.8596V15.6369L3.77729 15.1489L2.7383 13.4733L1 11.9928L4.91533 8.08166L5.4022 8.37609V6H6.65003C6.55165 6.48466 6.5 6.9863 6.5 7.5C6.5 8.72401 6.79475 9.88499 7.3189 10.9103C7.65477 11.5674 8.19847 12.2771 8.71655 12.8953C9.25979 13.5435 9.87876 14.2121 10.4516 14.8061C11.027 15.4029 11.5709 15.9398 11.9701 16.3269C12.1701 16.5208 12.3349 16.6782 12.4504 16.7878C12.5082 16.8426 12.5537 16.8855 12.5853 16.9152L12.6219 16.9495L12.6349 16.9616L12.6363 16.963Z"/></svg>