<svg xmlns="http://www.w3.org/2000/svg" fill="none" viewBox="0 0 159 42">
  <g class="ams-logo__emblem">
    <path fill="#EC0000" d="m0 37.65 3.53-3.53L0 30.59l2.35-2.35 3.53 3.53 3.53-3.53 2.35 2.35-3.53 3.53 3.53 3.53L9.41 40l-3.53-3.53L2.35 40 0 37.65ZM0 9.41l3.53-3.53L0 2.35 2.35 0l3.53 3.53L9.41 0l2.35 2.35-3.53 3.53 3.53 3.53-2.35 2.35-3.53-3.53-3.53 3.53L0 9.41ZM0 23.54l3.53-3.53L0 16.48l2.35-2.35 3.53 3.53 3.53-3.53 2.35 2.35-3.53 3.53 3.53 3.53-2.35 2.35-3.53-3.53-3.53 3.53L0 23.54Z"/>
  </g>
  <g class="ams-logo__text-secondary">
    <path fill="#000" d="m17.34 37.35 1.3-1.08c.4.64 1.06.98 1.78.98.87 0 1.46-.46 1.46-1.14 0-.77-.64-1.04-1.87-1.49-1.14-.42-2.34-1.01-2.34-2.75 0-1.62 1.32-2.73 3.24-2.73 1.3 0 2.33.52 2.91 1.45l-1.3 1.08c-.39-.58-.95-.9-1.62-.9-.78 0-1.3.42-1.3 1.04 0 .77.64 1.04 1.87 1.49 1.14.42 2.34 1.01 2.34 2.75s-1.37 2.83-3.4 2.83c-1.37 0-2.46-.55-3.07-1.53ZM25.74 36.15v-3.1h-1.23v-1.49h.65c.59 0 .82-.23.82-.82v-1.11h1.53v1.94h1.74v1.49h-1.74v3.1c0 .69.36 1.08 1.03 1.08.2 0 .45-.03.59-.07v1.5c-.22.06-.62.1-.94.1-1.62 0-2.46-.9-2.46-2.62h.01ZM30.13 36.67c0-1.37 1.14-2.2 3.05-2.21h1.39v-.25c0-.84-.54-1.27-1.5-1.27-.64 0-1.2.25-1.59.69l-1.08-1.06c.62-.77 1.62-1.19 2.85-1.19 1.91 0 3.12 1.04 3.12 2.7v2.83c0 .26.12.38.4.38h.13v1.4h-.84c-.68 0-1.14-.32-1.29-.84h-.03c-.45.65-1.19 1.01-2.08 1.01-1.5 0-2.53-.9-2.53-2.21v.02Zm4.44-.62v-.4h-1.19c-.94.03-1.45.36-1.45.98 0 .55.43.94 1.04.94.94 0 1.59-.62 1.59-1.52h.01ZM37.81 35.17c0-2.21 1.46-3.77 3.53-3.77.95 0 1.74.42 2.23 1.19h.03v-4.35h1.79v10.49H43.7v-1.11h-.03c-.46.81-1.33 1.29-2.33 1.29-2.07 0-3.53-1.55-3.53-3.72v-.02Zm5.79-.03c0-1.29-.8-2.14-1.97-2.14s-1.98.87-1.98 2.14.8 2.14 1.98 2.14 1.97-.85 1.97-2.14ZM48.76 35.72c-.97-.29-1.91-.81-1.91-2.11 0-1.3 1.1-2.21 2.73-2.21 1.1 0 1.95.39 2.43 1.11l-1.03 1.03c-.36-.45-.85-.69-1.39-.69-.61 0-.98.27-.98.71 0 .58.61.68 1.49.95.97.29 1.91.81 1.91 2.11 0 1.3-1.16 2.27-2.86 2.27-1.11 0-2.01-.39-2.53-1.13l1.03-1.03c.39.46.91.71 1.49.71.69 0 1.11-.29 1.11-.77 0-.58-.61-.68-1.49-.95ZM55.18 37.6h-.03v1.11h-1.71V28.22h1.79v4.35h.03c.52-.77 1.3-1.19 2.26-1.19 2.04 0 3.5 1.56 3.5 3.75s-1.46 3.75-3.5 3.75c-1 0-1.82-.46-2.34-1.29v.01Zm4.01-2.46c0-1.29-.8-2.14-1.97-2.14s-1.98.87-1.98 2.14.81 2.14 1.98 2.14 1.97-.85 1.97-2.14ZM61.95 36.67c0-1.37 1.14-2.2 3.05-2.21h1.39v-.25c0-.84-.54-1.27-1.5-1.27-.64 0-1.2.25-1.59.69l-1.08-1.06c.62-.77 1.62-1.19 2.85-1.19 1.91 0 3.12 1.04 3.12 2.7v2.83c0 .26.12.38.4.38h.13v1.4h-.84c-.68 0-1.14-.32-1.29-.84h-.03c-.45.65-1.19 1.01-2.08 1.01-1.5 0-2.53-.9-2.53-2.21v.02Zm4.44-.62v-.4H65.2c-.94.03-1.45.36-1.45.98 0 .55.43.94 1.04.94.94 0 1.59-.62 1.59-1.52h.01ZM70.12 31.57h1.69v.97h.03c.33-.71 1.06-1.14 1.89-1.14 1.79 0 2.72 1.03 2.72 2.99v4.32h-1.79v-3.98c0-1.21-.43-1.78-1.35-1.78-.92 0-1.4.64-1.4 1.82v3.93h-1.79v-7.14.01ZM80.09 38.71H78.3V28.22h1.79v6.57h.03l2.66-3.23h2.17l-2.76 3.17 2.89 3.98h-2.17l-1.98-2.81-.84.97v1.84ZM88.97 31.57h1.95l1.66 5.15h.03l1.71-5.15h1.91l-2.69 7.14h-1.92l-2.65-7.14ZM96.6 36.67c0-1.37 1.14-2.2 3.05-2.21h1.39v-.25c0-.84-.54-1.27-1.5-1.27-.64 0-1.2.25-1.59.69l-1.08-1.06c.62-.77 1.62-1.19 2.85-1.19 1.91 0 3.12 1.04 3.12 2.7v2.83c0 .26.12.38.4.38h.13v1.4h-.84c-.68 0-1.14-.32-1.29-.84h-.03c-.45.65-1.19 1.01-2.08 1.01-1.5 0-2.53-.9-2.53-2.21v.02Zm4.44-.62v-.4h-1.19c-.94.03-1.45.36-1.45.98 0 .55.43.94 1.04.94.94 0 1.59-.62 1.59-1.52h.01ZM104.77 31.57h1.69v.97h.03c.33-.71 1.06-1.14 1.89-1.14 1.79 0 2.72 1.03 2.72 2.99v4.32h-1.79v-3.98c0-1.21-.43-1.78-1.34-1.78-.91 0-1.4.64-1.4 1.82v3.93h-1.79v-7.14l-.01.01ZM116.65 29.31h1.91v7.78h3.49v1.62h-5.39v-9.4h-.01ZM122.87 35.14c0-2.21 1.49-3.75 3.62-3.75s3.6 1.52 3.6 3.7c0 .17-.03.45-.06.64h-5.35c.13.97.95 1.62 2.01 1.62.78 0 1.46-.29 1.91-.81l1.08 1.06c-.65.84-1.78 1.29-3.08 1.29-2.2 0-3.73-1.55-3.73-3.75Zm1.81-.72h3.6c-.12-.94-.84-1.58-1.81-1.58-.97 0-1.69.64-1.79 1.58ZM131.57 31.57h1.69v.97h.03c.33-.71 1.06-1.14 1.89-1.14 1.79 0 2.72 1.03 2.72 2.99v4.32h-1.79v-3.98c0-1.21-.43-1.78-1.35-1.78-.92 0-1.4.64-1.4 1.82v3.93h-1.79v-7.14.01ZM140.64 30.66c-.62 0-1.07-.43-1.07-1.04 0-.61.45-1.04 1.07-1.04.62 0 1.07.43 1.07 1.04 0 .61-.45 1.04-1.07 1.04Zm-.9.91h1.79v7.14h-1.79v-7.14ZM143.47 31.57h1.69v.97h.03c.33-.71 1.06-1.14 1.89-1.14 1.79 0 2.72 1.03 2.72 2.99v4.32h-1.79v-3.98c0-1.21-.43-1.78-1.35-1.78-.92 0-1.4.64-1.4 1.82v3.93h-1.79v-7.14.01ZM151.54 40.42l1.16-1.13c.39.45 1.1.72 1.87.72 1.3 0 2.02-.59 2.02-1.63v-1.1h-.03c-.4.75-1.16 1.17-2.1 1.17-2.01 0-3.34-1.42-3.34-3.53s1.37-3.51 3.34-3.51c1.01 0 1.81.45 2.2 1.21h.03v-1.06h1.69v6.88c0 1.91-1.46 3.11-3.79 3.11-1.33 0-2.43-.42-3.05-1.14v.01Zm5.06-5.5c0-1.19-.74-2.01-1.82-2.01s-1.82.82-1.82 2.01.75 2 1.82 2 1.82-.82 1.82-2Z"/>
  </g>
  <g class="ams-logo__text-primary">
    <path fill="#EC0000" d="M20.94 15.33h2.17l3.76 9.4h-2.01l-.78-2.07H19.9l-.78 2.07h-1.94l3.76-9.4Zm-.48 5.77h3.04L22 17.14h-.03l-1.5 3.96h-.01ZM28.05 17.59h1.68v.97h.03c.36-.74 1-1.14 1.82-1.14.93 0 1.62.4 2.05 1.21.43-.78 1.23-1.21 2.24-1.21 1.76 0 2.62.98 2.62 2.99v4.32H36.7v-4.02c0-1.17-.4-1.74-1.24-1.74s-1.29.62-1.29 1.79v3.96h-1.79V20.7c0-1.19-.39-1.74-1.24-1.74s-1.29.64-1.29 1.79v3.96h-1.79v-7.14l-.01.02ZM41.79 21.74c-.97-.29-1.91-.81-1.91-2.11 0-1.3 1.1-2.21 2.73-2.21 1.1 0 1.95.39 2.43 1.11l-1.03 1.03c-.36-.45-.85-.69-1.39-.69-.61 0-.98.27-.98.71 0 .58.61.68 1.49.95.97.29 1.91.81 1.91 2.11 0 1.3-1.16 2.27-2.86 2.27-1.11 0-2.01-.39-2.53-1.13l1.03-1.03c.39.46.91.71 1.49.71.69 0 1.11-.29 1.11-.77 0-.58-.61-.68-1.49-.95ZM46.94 22.17v-3.09h-1.23v-1.49h.65c.59 0 .82-.23.82-.82v-1.11h1.53v1.94h1.74v1.49h-1.74v3.09c0 .69.36 1.08 1.03 1.08.2 0 .45-.03.59-.07v1.5c-.22.06-.62.1-.94.1-1.62 0-2.46-.9-2.46-2.62h.01ZM51.34 21.16c0-2.21 1.49-3.75 3.62-3.75s3.6 1.52 3.6 3.7c0 .17-.03.45-.06.64h-5.35c.13.97.95 1.62 2.01 1.62.78 0 1.46-.29 1.91-.81l1.08 1.06c-.65.84-1.78 1.29-3.08 1.29-2.2 0-3.73-1.55-3.73-3.75Zm1.81-.72h3.6c-.12-.94-.84-1.58-1.81-1.58-.97 0-1.69.64-1.79 1.58ZM60.04 17.59h1.69v1.19h.03c.35-.81.98-1.24 1.82-1.24.22 0 .52.03.64.07v1.71c-.2-.06-.59-.1-.88-.1-.91 0-1.5.69-1.5 1.76v3.76h-1.79V17.6l-.01-.01ZM64.73 21.19c0-2.21 1.46-3.77 3.53-3.77.95 0 1.74.42 2.23 1.19h.03v-4.35h1.79v10.49h-1.69v-1.11h-.03c-.46.81-1.33 1.29-2.33 1.29-2.07 0-3.53-1.55-3.53-3.72v-.02Zm5.79-.03c0-1.29-.8-2.14-1.97-2.14s-1.98.87-1.98 2.14.8 2.14 1.98 2.14 1.97-.85 1.97-2.14ZM73.68 22.7c0-1.37 1.14-2.2 3.05-2.21h1.39v-.25c0-.84-.54-1.27-1.5-1.27-.64 0-1.2.25-1.59.69l-1.08-1.06c.62-.77 1.62-1.19 2.85-1.19 1.91 0 3.12 1.04 3.12 2.7v2.83c0 .26.12.38.4.38h.13v1.4h-.84c-.68 0-1.14-.32-1.29-.84h-.03c-.45.65-1.19 1.01-2.08 1.01-1.5 0-2.53-.9-2.53-2.21v.02Zm4.44-.62v-.4h-1.19c-.94.03-1.45.36-1.45.98 0 .55.43.94 1.04.94.94 0 1.59-.62 1.59-1.52h.01ZM81.85 17.59h1.68v.97h.03c.36-.74 1-1.14 1.82-1.14.93 0 1.62.4 2.05 1.21.43-.78 1.23-1.21 2.24-1.21 1.76 0 2.62.98 2.62 2.99v4.32H90.5v-4.02c0-1.17-.4-1.74-1.24-1.74s-1.29.62-1.29 1.79v3.96h-1.79V20.7c0-1.19-.39-1.74-1.24-1.74s-1.29.64-1.29 1.79v3.96h-1.79v-7.14l-.01.02ZM17.58 5.86c0-2.85 2-4.86 4.82-4.86 1.43 0 2.63.46 3.49 1.39l-1.24 1.19c-.54-.59-1.3-.94-2.21-.94-1.71 0-2.89 1.33-2.89 3.23s1.16 3.28 2.82 3.28c1.52 0 2.57-.87 2.57-2.13v-.25h-2.27V5.19h4.18v1.46c0 2.4-1.87 4.09-4.54 4.09S17.6 8.72 17.6 5.85l-.02.01ZM28.05 7c0-2.21 1.49-3.75 3.62-3.75s3.6 1.52 3.6 3.7c0 .17-.03.45-.06.64h-5.35c.13.97.95 1.62 2.01 1.62.78 0 1.46-.29 1.91-.81l1.08 1.06c-.65.84-1.78 1.29-3.08 1.29-2.2 0-3.73-1.55-3.73-3.75Zm1.81-.72h3.6c-.12-.94-.84-1.58-1.81-1.58-.97 0-1.69.64-1.79 1.58ZM36.75 3.43h1.68v.97h.03c.36-.74 1-1.14 1.82-1.14.93 0 1.62.4 2.05 1.21.43-.78 1.23-1.21 2.24-1.21 1.76 0 2.62.98 2.62 2.99v4.32H45.4V6.55c0-1.17-.4-1.74-1.24-1.74s-1.29.62-1.29 1.79v3.96h-1.79V6.55c0-1.19-.39-1.74-1.24-1.74s-1.29.64-1.29 1.79v3.96h-1.79V3.43h-.01ZM48.61 7c0-2.21 1.49-3.75 3.62-3.75s3.6 1.52 3.6 3.7c0 .17-.03.45-.06.64h-5.35c.13.97.95 1.62 2.01 1.62.78 0 1.46-.29 1.91-.81l1.08 1.06c-.65.84-1.78 1.29-3.08 1.29-2.2 0-3.73-1.55-3.73-3.75Zm1.81-.72h3.6c-.12-.94-.84-1.58-1.81-1.58-.97 0-1.69.64-1.79 1.58ZM56.87 7c0-2.21 1.49-3.75 3.62-3.75s3.6 1.52 3.6 3.7c0 .17-.03.45-.06.64h-5.35c.13.97.95 1.62 2.01 1.62.78 0 1.46-.29 1.91-.81l1.08 1.06c-.65.84-1.78 1.29-3.08 1.29-2.2 0-3.73-1.55-3.73-3.75Zm1.81-.72h3.6c-.12-.94-.84-1.58-1.81-1.58-.97 0-1.69.64-1.79 1.58ZM65.58 3.43h1.69v.97h.03c.33-.71 1.06-1.14 1.89-1.14 1.79 0 2.72 1.03 2.72 2.99v4.32h-1.79V6.59c0-1.21-.43-1.78-1.34-1.78-.91 0-1.4.64-1.4 1.82v3.93h-1.79V3.43h-.01ZM74.21 8.01v-3.1h-1.23V3.42h.65c.59 0 .82-.23.82-.82V1.49h1.53v1.94h1.74v1.49h-1.74v3.1c0 .69.36 1.08 1.03 1.08.2 0 .45-.03.59-.07v1.5c-.22.06-.62.1-.94.1-1.62 0-2.46-.9-2.46-2.62h.01ZM78.61 7c0-2.21 1.49-3.75 3.62-3.75s3.6 1.52 3.6 3.7c0 .17-.03.45-.06.64h-5.35c.13.97.95 1.62 2.01 1.62.78 0 1.46-.29 1.91-.81l1.08 1.06c-.65.84-1.78 1.29-3.08 1.29-2.2 0-3.73-1.55-3.73-3.75Zm1.81-.72h3.6c-.12-.94-.84-1.58-1.81-1.58-.97 0-1.69.64-1.79 1.58Z"/>
  </g>
</svg>
