<svg width="159" height="42" viewBox="0 0 159 42" fill="none" xmlns="http://www.w3.org/2000/svg">
<path d="M17.34 37.35L18.64 36.27C19.04 36.91 19.7 37.25 20.42 37.25C21.29 37.25 21.88 36.79 21.88 36.11C21.88 35.34 21.24 35.07 20.01 34.62C18.87 34.2 17.67 33.61 17.67 31.87C17.67 30.25 18.99 29.14 20.91 29.14C22.21 29.14 23.24 29.66 23.82 30.59L22.52 31.67C22.13 31.09 21.57 30.77 20.9 30.77C20.12 30.77 19.6 31.19 19.6 31.81C19.6 32.58 20.24 32.85 21.47 33.3C22.61 33.72 23.81 34.31 23.81 36.05C23.81 37.79 22.44 38.88 20.41 38.88C19.04 38.88 17.95 38.33 17.34 37.35Z" fill="black"/>
<path d="M25.74 36.15V33.05H24.51V31.56H25.16C25.75 31.56 25.98 31.33 25.98 30.74V29.63H27.51V31.57H29.25V33.06H27.51V36.16C27.51 36.85 27.87 37.24 28.54 37.24C28.74 37.24 28.99 37.21 29.13 37.17V38.67C28.91 38.73 28.51 38.77 28.19 38.77C26.57 38.77 25.73 37.87 25.73 36.15H25.74Z" fill="black"/>
<path d="M30.13 36.67C30.13 35.3 31.27 34.47 33.18 34.46H34.57V34.21C34.57 33.37 34.03 32.94 33.07 32.94C32.43 32.94 31.87 33.19 31.48 33.63L30.4 32.57C31.02 31.8 32.02 31.38 33.25 31.38C35.16 31.38 36.37 32.42 36.37 34.08V36.91C36.37 37.17 36.49 37.29 36.77 37.29H36.9V38.69H36.06C35.38 38.69 34.92 38.37 34.77 37.85H34.74C34.29 38.5 33.55 38.86 32.66 38.86C31.16 38.86 30.13 37.96 30.13 36.65V36.67ZM34.57 36.05V35.65H33.38C32.44 35.68 31.93 36.01 31.93 36.63C31.93 37.18 32.36 37.57 32.97 37.57C33.91 37.57 34.56 36.95 34.56 36.05H34.57Z" fill="black"/>
<path d="M37.81 35.17C37.81 32.96 39.27 31.4 41.34 31.4C42.29 31.4 43.08 31.82 43.57 32.59H43.6V28.24H45.39V38.73H43.7V37.62H43.67C43.21 38.43 42.34 38.91 41.34 38.91C39.27 38.91 37.81 37.36 37.81 35.19V35.17ZM43.6 35.14C43.6 33.85 42.8 33 41.63 33C40.46 33 39.65 33.87 39.65 35.14C39.65 36.41 40.45 37.28 41.63 37.28C42.81 37.28 43.6 36.43 43.6 35.14Z" fill="black"/>
<path d="M48.76 35.72C47.79 35.43 46.85 34.91 46.85 33.61C46.85 32.31 47.95 31.4 49.58 31.4C50.68 31.4 51.53 31.79 52.01 32.51L50.98 33.54C50.62 33.09 50.13 32.85 49.59 32.85C48.98 32.85 48.61 33.12 48.61 33.56C48.61 34.14 49.22 34.24 50.1 34.51C51.07 34.8 52.01 35.32 52.01 36.62C52.01 37.92 50.85 38.89 49.15 38.89C48.04 38.89 47.14 38.5 46.62 37.76L47.65 36.73C48.04 37.19 48.56 37.44 49.14 37.44C49.83 37.44 50.25 37.15 50.25 36.67C50.25 36.09 49.64 35.99 48.76 35.72Z" fill="black"/>
<path d="M55.18 37.6H55.15V38.71H53.44V28.22H55.23V32.57H55.26C55.78 31.8 56.56 31.38 57.52 31.38C59.56 31.38 61.02 32.94 61.02 35.13C61.02 37.32 59.56 38.88 57.52 38.88C56.52 38.88 55.7 38.42 55.18 37.59V37.6ZM59.19 35.14C59.19 33.85 58.39 33 57.22 33C56.05 33 55.24 33.87 55.24 35.14C55.24 36.41 56.05 37.28 57.22 37.28C58.39 37.28 59.19 36.43 59.19 35.14Z" fill="black"/>
<path d="M61.95 36.67C61.95 35.3 63.09 34.47 65 34.46H66.39V34.21C66.39 33.37 65.85 32.94 64.89 32.94C64.25 32.94 63.69 33.19 63.3 33.63L62.22 32.57C62.84 31.8 63.84 31.38 65.07 31.38C66.98 31.38 68.19 32.42 68.19 34.08V36.91C68.19 37.17 68.31 37.29 68.59 37.29H68.72V38.69H67.88C67.2 38.69 66.74 38.37 66.59 37.85H66.56C66.11 38.5 65.37 38.86 64.48 38.86C62.98 38.86 61.95 37.96 61.95 36.65V36.67ZM66.39 36.05V35.65H65.2C64.26 35.68 63.75 36.01 63.75 36.63C63.75 37.18 64.18 37.57 64.79 37.57C65.73 37.57 66.38 36.95 66.38 36.05H66.39Z" fill="black"/>
<path d="M70.12 31.57H71.81V32.54H71.84C72.17 31.83 72.9 31.4 73.73 31.4C75.52 31.4 76.45 32.43 76.45 34.39V38.71H74.66V34.73C74.66 33.52 74.23 32.95 73.31 32.95C72.39 32.95 71.91 33.59 71.91 34.77V38.7H70.12V31.56V31.57Z" fill="black"/>
<path d="M80.09 38.71H78.3V28.22H80.09V34.79H80.12L82.78 31.56H84.95L82.19 34.73L85.08 38.71H82.91L80.93 35.9L80.09 36.87V38.71Z" fill="black"/>
<path d="M88.97 31.57H90.92L92.58 36.72H92.61L94.32 31.57H96.23L93.54 38.71H91.62L88.97 31.57Z" fill="black"/>
<path d="M96.6 36.67C96.6 35.3 97.74 34.47 99.65 34.46H101.04V34.21C101.04 33.37 100.5 32.94 99.54 32.94C98.9 32.94 98.34 33.19 97.95 33.63L96.87 32.57C97.49 31.8 98.49 31.38 99.72 31.38C101.63 31.38 102.84 32.42 102.84 34.08V36.91C102.84 37.17 102.96 37.29 103.24 37.29H103.37V38.69H102.53C101.85 38.69 101.39 38.37 101.24 37.85H101.21C100.76 38.5 100.02 38.86 99.13 38.86C97.63 38.86 96.6 37.96 96.6 36.65V36.67ZM101.04 36.05V35.65H99.85C98.91 35.68 98.4 36.01 98.4 36.63C98.4 37.18 98.83 37.57 99.44 37.57C100.38 37.57 101.03 36.95 101.03 36.05H101.04Z" fill="black"/>
<path d="M104.77 31.57H106.46V32.54H106.49C106.82 31.83 107.55 31.4 108.38 31.4C110.17 31.4 111.1 32.43 111.1 34.39V38.71H109.31V34.73C109.31 33.52 108.88 32.95 107.97 32.95C107.06 32.95 106.57 33.59 106.57 34.77V38.7H104.78V31.56L104.77 31.57Z" fill="black"/>
<path d="M116.65 29.31H118.56V37.09H122.05V38.71H116.66V29.31H116.65Z" fill="black"/>
<path d="M122.87 35.14C122.87 32.93 124.36 31.39 126.49 31.39C128.62 31.39 130.09 32.91 130.09 35.09C130.09 35.26 130.06 35.54 130.03 35.73H124.68C124.81 36.7 125.63 37.35 126.69 37.35C127.47 37.35 128.15 37.06 128.6 36.54L129.68 37.6C129.03 38.44 127.9 38.89 126.6 38.89C124.4 38.89 122.87 37.34 122.87 35.14ZM124.68 34.42H128.28C128.16 33.48 127.44 32.84 126.47 32.84C125.5 32.84 124.78 33.48 124.68 34.42Z" fill="black"/>
<path d="M131.57 31.57H133.26V32.54H133.29C133.62 31.83 134.35 31.4 135.18 31.4C136.97 31.4 137.9 32.43 137.9 34.39V38.71H136.11V34.73C136.11 33.52 135.68 32.95 134.76 32.95C133.84 32.95 133.36 33.59 133.36 34.77V38.7H131.57V31.56V31.57Z" fill="black"/>
<path d="M140.64 30.66C140.02 30.66 139.57 30.23 139.57 29.62C139.57 29.01 140.02 28.58 140.64 28.58C141.26 28.58 141.71 29.01 141.71 29.62C141.71 30.23 141.26 30.66 140.64 30.66ZM139.74 31.57H141.53V38.71H139.74V31.57Z" fill="black"/>
<path d="M143.47 31.57H145.16V32.54H145.19C145.52 31.83 146.25 31.4 147.08 31.4C148.87 31.4 149.8 32.43 149.8 34.39V38.71H148.01V34.73C148.01 33.52 147.58 32.95 146.66 32.95C145.74 32.95 145.26 33.59 145.26 34.77V38.7H143.47V31.56V31.57Z" fill="black"/>
<path d="M151.54 40.42L152.7 39.29C153.09 39.74 153.8 40.01 154.57 40.01C155.87 40.01 156.59 39.42 156.59 38.38V37.28H156.56C156.16 38.03 155.4 38.45 154.46 38.45C152.45 38.45 151.12 37.03 151.12 34.92C151.12 32.81 152.49 31.41 154.46 31.41C155.47 31.41 156.27 31.86 156.66 32.62H156.69V31.56H158.38V38.44C158.38 40.35 156.92 41.55 154.59 41.55C153.26 41.55 152.16 41.13 151.54 40.41V40.42ZM156.6 34.92C156.6 33.73 155.86 32.91 154.78 32.91C153.7 32.91 152.96 33.73 152.96 34.92C152.96 36.11 153.71 36.92 154.78 36.92C155.85 36.92 156.6 36.1 156.6 34.92Z" fill="black"/>
<path d="M20.94 15.33H23.11L26.87 24.73H24.86L24.08 22.66H19.9L19.12 24.73H17.18L20.94 15.33ZM20.46 21.1H23.5L22 17.14H21.97L20.47 21.1H20.46Z" fill="#EC0000"/>
<path d="M28.05 17.59H29.73V18.56H29.76C30.12 17.82 30.76 17.42 31.58 17.42C32.51 17.42 33.2 17.82 33.63 18.63C34.06 17.85 34.86 17.42 35.87 17.42C37.63 17.42 38.49 18.4 38.49 20.41V24.73H36.7V20.71C36.7 19.54 36.3 18.97 35.46 18.97C34.62 18.97 34.17 19.59 34.17 20.76V24.72H32.38V20.7C32.38 19.51 31.99 18.96 31.14 18.96C30.29 18.96 29.85 19.6 29.85 20.75V24.71H28.06V17.57L28.05 17.59Z" fill="#EC0000"/>
<path d="M41.79 21.74C40.82 21.45 39.88 20.93 39.88 19.63C39.88 18.33 40.98 17.42 42.61 17.42C43.71 17.42 44.56 17.81 45.04 18.53L44.01 19.56C43.65 19.11 43.16 18.87 42.62 18.87C42.01 18.87 41.64 19.14 41.64 19.58C41.64 20.16 42.25 20.26 43.13 20.53C44.1 20.82 45.04 21.34 45.04 22.64C45.04 23.94 43.88 24.91 42.18 24.91C41.07 24.91 40.17 24.52 39.65 23.78L40.68 22.75C41.07 23.21 41.59 23.46 42.17 23.46C42.86 23.46 43.28 23.17 43.28 22.69C43.28 22.11 42.67 22.01 41.79 21.74Z" fill="#EC0000"/>
<path d="M46.94 22.17V19.08H45.71V17.59H46.36C46.95 17.59 47.18 17.36 47.18 16.77V15.66H48.71V17.6H50.45V19.09H48.71V22.18C48.71 22.87 49.07 23.26 49.74 23.26C49.94 23.26 50.19 23.23 50.33 23.19V24.69C50.11 24.75 49.71 24.79 49.39 24.79C47.77 24.79 46.93 23.89 46.93 22.17H46.94Z" fill="#EC0000"/>
<path d="M51.34 21.16C51.34 18.95 52.83 17.41 54.96 17.41C57.09 17.41 58.56 18.93 58.56 21.11C58.56 21.28 58.53 21.56 58.5 21.75H53.15C53.28 22.72 54.1 23.37 55.16 23.37C55.94 23.37 56.62 23.08 57.07 22.56L58.15 23.62C57.5 24.46 56.37 24.91 55.07 24.91C52.87 24.91 51.34 23.36 51.34 21.16ZM53.15 20.44H56.75C56.63 19.5 55.91 18.86 54.94 18.86C53.97 18.86 53.25 19.5 53.15 20.44Z" fill="#EC0000"/>
<path d="M60.04 17.59H61.73V18.78H61.76C62.11 17.97 62.74 17.54 63.58 17.54C63.8 17.54 64.1 17.57 64.22 17.61V19.32C64.02 19.26 63.63 19.22 63.34 19.22C62.43 19.22 61.84 19.91 61.84 20.98V24.74H60.05V17.6L60.04 17.59Z" fill="#EC0000"/>
<path d="M64.73 21.19C64.73 18.98 66.19 17.42 68.26 17.42C69.21 17.42 70 17.84 70.49 18.61H70.52V14.26H72.31V24.75H70.62V23.64H70.59C70.13 24.45 69.26 24.93 68.26 24.93C66.19 24.93 64.73 23.38 64.73 21.21V21.19ZM70.52 21.16C70.52 19.87 69.72 19.02 68.55 19.02C67.38 19.02 66.57 19.89 66.57 21.16C66.57 22.43 67.37 23.3 68.55 23.3C69.73 23.3 70.52 22.45 70.52 21.16Z" fill="#EC0000"/>
<path d="M73.68 22.7C73.68 21.33 74.82 20.5 76.73 20.49H78.12V20.24C78.12 19.4 77.58 18.97 76.62 18.97C75.98 18.97 75.42 19.22 75.03 19.66L73.95 18.6C74.57 17.83 75.57 17.41 76.8 17.41C78.71 17.41 79.92 18.45 79.92 20.11V22.94C79.92 23.2 80.04 23.32 80.32 23.32H80.45V24.72H79.61C78.93 24.72 78.47 24.4 78.32 23.88H78.29C77.84 24.53 77.1 24.89 76.21 24.89C74.71 24.89 73.68 23.99 73.68 22.68V22.7ZM78.12 22.08V21.68H76.93C75.99 21.71 75.48 22.04 75.48 22.66C75.48 23.21 75.91 23.6 76.52 23.6C77.46 23.6 78.11 22.98 78.11 22.08H78.12Z" fill="#EC0000"/>
<path d="M81.85 17.59H83.53V18.56H83.56C83.92 17.82 84.56 17.42 85.38 17.42C86.31 17.42 87 17.82 87.43 18.63C87.86 17.85 88.66 17.42 89.67 17.42C91.43 17.42 92.29 18.4 92.29 20.41V24.73H90.5V20.71C90.5 19.54 90.1 18.97 89.26 18.97C88.42 18.97 87.97 19.59 87.97 20.76V24.72H86.18V20.7C86.18 19.51 85.79 18.96 84.94 18.96C84.09 18.96 83.65 19.6 83.65 20.75V24.71H81.86V17.57L81.85 17.59Z" fill="#EC0000"/>
<path d="M17.58 5.86C17.58 3.01 19.58 1 22.4 1C23.83 1 25.03 1.46 25.89 2.39L24.65 3.58C24.11 2.99 23.35 2.64 22.44 2.64C20.73 2.64 19.55 3.97 19.55 5.87C19.55 7.77 20.71 9.15 22.37 9.15C23.89 9.15 24.94 8.28 24.94 7.02V6.77H22.67V5.19H26.85V6.65C26.85 9.05 24.98 10.74 22.31 10.74C19.64 10.74 17.6 8.72 17.6 5.85L17.58 5.86Z" fill="#EC0000"/>
<path d="M28.05 7C28.05 4.79 29.54 3.25 31.67 3.25C33.8 3.25 35.27 4.77 35.27 6.95C35.27 7.12 35.24 7.4 35.21 7.59H29.86C29.99 8.56 30.81 9.21 31.87 9.21C32.65 9.21 33.33 8.92 33.78 8.4L34.86 9.46C34.21 10.3 33.08 10.75 31.78 10.75C29.58 10.75 28.05 9.2 28.05 7ZM29.86 6.28H33.46C33.34 5.34 32.62 4.7 31.65 4.7C30.68 4.7 29.96 5.34 29.86 6.28Z" fill="#EC0000"/>
<path d="M36.75 3.43H38.43V4.4H38.46C38.82 3.66 39.46 3.26 40.28 3.26C41.21 3.26 41.9 3.66 42.33 4.47C42.76 3.69 43.56 3.26 44.57 3.26C46.33 3.26 47.19 4.24 47.19 6.25V10.57H45.4V6.55C45.4 5.38 45 4.81 44.16 4.81C43.32 4.81 42.87 5.43 42.87 6.6V10.56H41.08V6.55C41.08 5.36 40.69 4.81 39.84 4.81C38.99 4.81 38.55 5.45 38.55 6.6V10.56H36.76V3.43H36.75Z" fill="#EC0000"/>
<path d="M48.61 7C48.61 4.79 50.1 3.25 52.23 3.25C54.36 3.25 55.83 4.77 55.83 6.95C55.83 7.12 55.8 7.4 55.77 7.59H50.42C50.55 8.56 51.37 9.21 52.43 9.21C53.21 9.21 53.89 8.92 54.34 8.4L55.42 9.46C54.77 10.3 53.64 10.75 52.34 10.75C50.14 10.75 48.61 9.2 48.61 7ZM50.42 6.28H54.02C53.9 5.34 53.18 4.7 52.21 4.7C51.24 4.7 50.52 5.34 50.42 6.28Z" fill="#EC0000"/>
<path d="M56.87 7C56.87 4.79 58.36 3.25 60.49 3.25C62.62 3.25 64.09 4.77 64.09 6.95C64.09 7.12 64.06 7.4 64.03 7.59H58.68C58.81 8.56 59.63 9.21 60.69 9.21C61.47 9.21 62.15 8.92 62.6 8.4L63.68 9.46C63.03 10.3 61.9 10.75 60.6 10.75C58.4 10.75 56.87 9.2 56.87 7ZM58.68 6.28H62.28C62.16 5.34 61.44 4.7 60.47 4.7C59.5 4.7 58.78 5.34 58.68 6.28Z" fill="#EC0000"/>
<path d="M65.58 3.43H67.27V4.4H67.3C67.63 3.69 68.36 3.26 69.19 3.26C70.98 3.26 71.91 4.29 71.91 6.25V10.57H70.12V6.59C70.12 5.38 69.69 4.81 68.78 4.81C67.87 4.81 67.38 5.45 67.38 6.63V10.56H65.59V3.43H65.58Z" fill="#EC0000"/>
<path d="M74.21 8.01V4.91H72.98V3.42H73.63C74.22 3.42 74.45 3.19 74.45 2.6V1.49H75.98V3.43H77.72V4.92H75.98V8.02C75.98 8.71 76.34 9.1 77.01 9.1C77.21 9.1 77.46 9.07 77.6 9.03V10.53C77.38 10.59 76.98 10.63 76.66 10.63C75.04 10.63 74.2 9.73 74.2 8.01H74.21Z" fill="#EC0000"/>
<path d="M78.61 7C78.61 4.79 80.1 3.25 82.23 3.25C84.36 3.25 85.83 4.77 85.83 6.95C85.83 7.12 85.8 7.4 85.77 7.59H80.42C80.55 8.56 81.37 9.21 82.43 9.21C83.21 9.21 83.89 8.92 84.34 8.4L85.42 9.46C84.77 10.3 83.64 10.75 82.34 10.75C80.14 10.75 78.61 9.2 78.61 7ZM80.42 6.28H84.02C83.9 5.34 83.18 4.7 82.21 4.7C81.24 4.7 80.52 5.34 80.42 6.28Z" fill="#EC0000"/>
<path d="M0 37.65L3.53 34.12L0 30.59L2.35 28.24L5.88 31.77L9.41 28.24L11.76 30.59L8.23 34.12L11.76 37.65L9.41 40L5.88 36.47L2.35 40L0 37.65Z" fill="#EC0000"/>
<path d="M0 9.41L3.53 5.88L0 2.35L2.35 0L5.88 3.53L9.41 0L11.76 2.35L8.23 5.88L11.76 9.41L9.41 11.76L5.88 8.23L2.35 11.76L0 9.41Z" fill="#EC0000"/>
<path d="M0 23.54L3.53 20.01L0 16.48L2.35 14.13L5.88 17.66L9.41 14.13L11.76 16.48L8.23 20.01L11.76 23.54L9.41 25.89L5.88 22.36L2.35 25.89L0 23.54Z" fill="#EC0000"/>
</svg>
